<?xml version="1.0" encoding="UTF-8"?>
<svg xmlns="http://www.w3.org/2000/svg" xmlns:xlink="http://www.w3.org/1999/xlink" width="72px" height="72px" viewBox="0 0 72 72" version="1.1">
<g id="surface1">
<!-- <path style=" stroke:none;fill-rule:nonzero;fill:rgb(99.215686%,99.215686%,99.607843%);fill-opacity:1;" d="M 0 0 C 23.761719 0 47.519531 0 72 0 C 72 23.761719 72 47.519531 72 72 C 48.238281 72 24.480469 72 0 72 C 0 48.238281 0 24.480469 0 0 Z M 0 0 "/> -->
<path style=" stroke:none;fill-rule:nonzero;fill:rgb(0.392157%,0.392157%,0.392157%);fill-opacity:1;" d="M 30.789062 7.992188 C 30.867188 8.003906 30.945312 8.011719 31.023438 8.023438 C 36.269531 8.667969 36.269531 8.667969 37.828125 10.054688 C 37.878906 10.09375 37.925781 10.132812 37.976562 10.175781 C 38.792969 10.851562 39.429688 11.804688 39.757812 12.8125 C 39.914062 13.324219 39.914062 13.324219 40.269531 13.703125 C 40.488281 13.78125 40.488281 13.78125 40.726562 13.839844 C 41.058594 13.941406 41.328125 14.101562 41.625 14.285156 C 41.679688 14.320312 41.734375 14.355469 41.789062 14.386719 C 42.601562 14.90625 43.320312 15.507812 44.015625 16.171875 C 44.074219 16.226562 44.136719 16.285156 44.199219 16.34375 C 46.363281 18.429688 47.878906 21.558594 48.234375 24.539062 C 48.234375 24.65625 48.234375 24.773438 48.234375 24.890625 C 48.300781 24.890625 48.367188 24.886719 48.433594 24.886719 C 48.679688 24.882812 48.929688 24.878906 49.175781 24.875 C 49.28125 24.875 49.386719 24.871094 49.496094 24.871094 C 50.679688 24.84375 51.695312 25.097656 52.582031 25.925781 C 53.316406 26.714844 53.546875 27.609375 53.527344 28.667969 C 53.476562 29.769531 52.953125 30.824219 52.15625 31.578125 C 51.679688 31.980469 51.144531 32.289062 50.554688 32.484375 C 50.46875 32.945312 50.402344 33.40625 50.351562 33.871094 C 50.289062 34.453125 50.21875 35.035156 50.144531 35.613281 C 49.878906 37.730469 49.632812 39.851562 49.386719 41.96875 C 49.269531 43.003906 49.148438 44.035156 49.019531 45.066406 C 48.914062 45.941406 48.808594 46.816406 48.703125 47.695312 C 48.699219 47.753906 48.691406 47.8125 48.683594 47.875 C 48.585938 48.695312 48.488281 49.515625 48.394531 50.335938 C 48.382812 50.425781 48.371094 50.515625 48.363281 50.609375 C 48.339844 50.796875 48.320312 50.980469 48.296875 51.164062 C 48.285156 51.257812 48.277344 51.347656 48.265625 51.441406 C 48.253906 51.535156 48.242188 51.625 48.234375 51.71875 C 48.101562 52.832031 47.972656 53.949219 47.828125 55.0625 C 47.773438 55.488281 47.722656 55.914062 47.679688 56.339844 C 47.597656 57.078125 47.507812 57.820312 47.417969 58.558594 C 47.390625 58.789062 47.363281 59.023438 47.335938 59.253906 C 47.300781 59.546875 47.265625 59.84375 47.226562 60.140625 C 47.199219 60.386719 47.167969 60.636719 47.140625 60.886719 C 47.128906 60.984375 47.117188 61.085938 47.101562 61.1875 C 47.09375 61.269531 47.085938 61.355469 47.074219 61.441406 C 46.953125 62.203125 46.546875 62.808594 45.9375 63.269531 C 45.003906 63.851562 44.101562 63.8125 43.035156 63.808594 C 42.863281 63.808594 42.691406 63.808594 42.519531 63.808594 C 42.105469 63.808594 41.691406 63.808594 41.277344 63.808594 C 40.796875 63.808594 40.3125 63.808594 39.828125 63.808594 C 38.96875 63.808594 38.105469 63.808594 37.242188 63.804688 C 36.40625 63.804688 35.574219 63.804688 34.738281 63.804688 C 33.828125 63.804688 32.914062 63.804688 32.003906 63.804688 C 31.90625 63.804688 31.808594 63.804688 31.710938 63.804688 C 31.664062 63.804688 31.617188 63.804688 31.566406 63.804688 C 31.230469 63.804688 30.894531 63.804688 30.558594 63.804688 C 30.105469 63.804688 29.652344 63.804688 29.199219 63.800781 C 29.035156 63.800781 28.867188 63.800781 28.703125 63.800781 C 28.476562 63.804688 28.25 63.800781 28.023438 63.800781 C 27.925781 63.800781 27.925781 63.800781 27.824219 63.800781 C 27.027344 63.792969 26.308594 63.539062 25.71875 62.996094 C 24.84375 62.066406 24.792969 60.949219 24.652344 59.742188 C 24.636719 59.605469 24.621094 59.46875 24.605469 59.335938 C 24.5625 58.976562 24.519531 58.617188 24.476562 58.257812 C 24.433594 57.910156 24.394531 57.558594 24.351562 57.207031 C 24.300781 56.78125 24.25 56.359375 24.203125 55.933594 C 24.085938 54.945312 23.964844 53.957031 23.847656 52.96875 C 23.679688 51.566406 23.511719 50.164062 23.34375 48.761719 C 23.339844 48.707031 23.332031 48.65625 23.324219 48.605469 C 23.261719 48.074219 23.199219 47.546875 23.136719 47.019531 C 23 45.851562 22.859375 44.683594 22.722656 43.515625 C 22.714844 43.460938 22.707031 43.40625 22.703125 43.351562 C 22.496094 41.613281 22.289062 39.875 22.078125 38.140625 C 22.054688 37.933594 22.03125 37.726562 22.003906 37.519531 C 21.90625 36.703125 21.808594 35.882812 21.710938 35.066406 C 21.675781 34.777344 21.640625 34.488281 21.605469 34.203125 C 21.582031 34.019531 21.558594 33.835938 21.539062 33.652344 C 21.523438 33.546875 21.511719 33.441406 21.5 33.335938 C 21.488281 33.25 21.480469 33.160156 21.46875 33.070312 C 21.445312 32.851562 21.441406 32.636719 21.445312 32.414062 C 21.382812 32.40625 21.324219 32.398438 21.257812 32.390625 C 20.4375 32.222656 19.691406 31.535156 19.207031 30.875 C 18.519531 29.832031 18.304688 28.648438 18.519531 27.410156 C 18.742188 26.535156 19.367188 25.800781 20.109375 25.3125 C 20.894531 24.871094 21.699219 24.871094 22.574219 24.882812 C 22.683594 24.882812 22.792969 24.882812 22.902344 24.882812 C 23.167969 24.886719 23.429688 24.886719 23.695312 24.890625 C 23.691406 24.816406 23.6875 24.742188 23.683594 24.664062 C 23.683594 24.253906 23.78125 23.863281 23.875 23.464844 C 23.90625 23.34375 23.90625 23.34375 23.933594 23.222656 C 24.378906 21.402344 25.132812 19.667969 26.226562 18.140625 C 26.253906 18.101562 26.285156 18.058594 26.316406 18.015625 C 26.699219 17.480469 27.132812 16.996094 27.582031 16.515625 C 28.066406 16.054688 28.066406 16.054688 28.277344 15.460938 C 28.265625 15.175781 28.226562 14.910156 28.175781 14.632812 C 28.164062 14.578125 28.15625 14.527344 28.144531 14.472656 C 28.125 14.355469 28.105469 14.238281 28.082031 14.125 C 28.027344 13.8125 27.96875 13.5 27.914062 13.1875 C 27.902344 13.121094 27.894531 13.054688 27.878906 12.988281 C 27.757812 12.292969 27.640625 11.589844 27.53125 10.890625 C 27.507812 10.757812 27.484375 10.621094 27.464844 10.484375 C 27.433594 10.296875 27.402344 10.105469 27.371094 9.914062 C 27.359375 9.832031 27.359375 9.832031 27.34375 9.746094 C 27.265625 9.234375 27.199219 8.75 27.464844 8.285156 C 28.152344 7.367188 29.820312 7.871094 30.789062 7.992188 Z M 30.789062 7.992188 "/>
<path style=" stroke:none;fill-rule:nonzero;fill:rgb(99.607843%,87.843137%,66.666667%);fill-opacity:1;" d="M 23.625 32.765625 C 31.769531 32.765625 39.914062 32.765625 48.304688 32.765625 C 48.28125 32.996094 48.257812 33.230469 48.234375 33.46875 C 48.226562 33.550781 48.21875 33.636719 48.210938 33.722656 C 48.066406 35.1875 47.894531 36.652344 47.707031 38.113281 C 47.445312 40.171875 47.199219 42.230469 46.957031 44.289062 C 46.945312 44.363281 46.9375 44.4375 46.929688 44.515625 C 46.851562 45.171875 46.773438 45.832031 46.695312 46.488281 C 46.546875 47.730469 46.402344 48.972656 46.253906 50.214844 C 46.203125 50.632812 46.152344 51.050781 46.101562 51.472656 C 46.070312 51.757812 46.035156 52.046875 46 52.335938 C 45.984375 52.476562 45.96875 52.613281 45.949219 52.753906 C 45.925781 52.96875 45.898438 53.179688 45.875 53.394531 C 45.867188 53.453125 45.859375 53.515625 45.851562 53.574219 C 45.765625 54.304688 45.660156 55.03125 45.5625 55.757812 C 39.226562 55.757812 32.894531 55.757812 26.367188 55.757812 C 26.292969 55.53125 26.269531 55.328125 26.242188 55.089844 C 26.230469 54.992188 26.222656 54.894531 26.210938 54.796875 C 26.207031 54.746094 26.199219 54.691406 26.195312 54.636719 C 26.082031 53.570312 25.957031 52.5 25.824219 51.433594 C 25.816406 51.367188 25.808594 51.296875 25.800781 51.226562 C 25.757812 50.867188 25.714844 50.511719 25.667969 50.15625 C 25.578125 49.390625 25.484375 48.625 25.390625 47.855469 C 25.378906 47.78125 25.371094 47.703125 25.363281 47.625 C 25.179688 46.136719 25.003906 44.652344 24.828125 43.164062 C 24.777344 42.734375 24.726562 42.300781 24.675781 41.871094 C 24.671875 41.820312 24.664062 41.769531 24.660156 41.71875 C 24.546875 40.769531 24.429688 39.824219 24.316406 38.878906 C 24.179688 37.769531 24.042969 36.664062 23.914062 35.554688 C 23.894531 35.398438 23.875 35.238281 23.855469 35.082031 C 23.832031 34.867188 23.804688 34.648438 23.78125 34.433594 C 23.773438 34.371094 23.765625 34.308594 23.757812 34.242188 C 23.699219 33.75 23.664062 33.261719 23.625 32.765625 Z M 23.625 32.765625 "/>
<path style=" stroke:none;fill-rule:nonzero;fill:rgb(99.215686%,99.215686%,99.215686%);fill-opacity:1;" d="M 40.148438 15.960938 C 40.480469 16 40.714844 16.148438 40.984375 16.328125 C 41.050781 16.375 41.050781 16.375 41.121094 16.421875 C 43.84375 18.308594 45.351562 21.183594 46.089844 24.347656 C 46.125 24.539062 46.125 24.539062 46.125 24.890625 C 39.417969 24.890625 32.714844 24.890625 25.804688 24.890625 C 25.960938 23.324219 26.464844 21.910156 27.210938 20.53125 C 27.25 20.460938 27.285156 20.386719 27.328125 20.3125 C 27.894531 19.289062 28.652344 18.414062 29.460938 17.578125 C 29.683594 17.675781 29.816406 17.785156 29.980469 17.964844 C 31.070312 19.078125 32.652344 19.878906 34.222656 19.917969 C 34.359375 19.917969 34.492188 19.917969 34.628906 19.914062 C 34.695312 19.917969 34.761719 19.917969 34.832031 19.917969 C 36.328125 19.914062 37.75 19.335938 38.8125 18.28125 C 39.429688 17.613281 39.859375 16.824219 40.148438 15.960938 Z M 40.148438 15.960938 "/>
<path style=" stroke:none;fill-rule:nonzero;fill:rgb(98.823529%,99.215686%,99.215686%);fill-opacity:1;" d="M 22.066406 27.050781 C 22.117188 27.050781 22.164062 27.050781 22.214844 27.050781 C 22.378906 27.050781 22.542969 27.050781 22.707031 27.050781 C 22.824219 27.050781 22.945312 27.050781 23.0625 27.050781 C 23.390625 27.050781 23.714844 27.050781 24.042969 27.050781 C 24.394531 27.050781 24.746094 27.050781 25.097656 27.046875 C 25.785156 27.046875 26.472656 27.046875 27.164062 27.046875 C 27.722656 27.046875 28.28125 27.046875 28.84375 27.046875 C 30.429688 27.042969 32.015625 27.042969 33.605469 27.042969 C 33.730469 27.042969 33.730469 27.042969 33.863281 27.042969 C 33.949219 27.042969 34.035156 27.042969 34.121094 27.042969 C 35.511719 27.042969 36.902344 27.042969 38.289062 27.039062 C 39.714844 27.039062 41.140625 27.039062 42.566406 27.039062 C 43.367188 27.039062 44.167969 27.039062 44.964844 27.035156 C 45.648438 27.035156 46.332031 27.035156 47.011719 27.035156 C 47.359375 27.035156 47.707031 27.035156 48.054688 27.035156 C 48.375 27.035156 48.691406 27.035156 49.011719 27.035156 C 49.125 27.035156 49.242188 27.035156 49.355469 27.035156 C 50.578125 27.027344 50.578125 27.027344 51.035156 27.480469 C 51.0625 27.519531 51.085938 27.5625 51.113281 27.601562 C 51.140625 27.644531 51.167969 27.683594 51.195312 27.726562 C 51.402344 28.109375 51.378906 28.539062 51.28125 28.957031 C 51.070312 29.601562 50.714844 30.027344 50.132812 30.375 C 49.800781 30.542969 49.546875 30.605469 49.171875 30.605469 C 49.125 30.605469 49.082031 30.605469 49.03125 30.605469 C 48.878906 30.605469 48.722656 30.605469 48.566406 30.605469 C 48.453125 30.605469 48.34375 30.605469 48.230469 30.605469 C 47.921875 30.605469 47.613281 30.605469 47.300781 30.605469 C 46.96875 30.605469 46.636719 30.605469 46.300781 30.609375 C 45.648438 30.609375 44.996094 30.609375 44.34375 30.609375 C 43.8125 30.609375 43.28125 30.609375 42.75 30.609375 C 41.246094 30.613281 39.742188 30.613281 38.238281 30.613281 C 38.117188 30.613281 38.117188 30.613281 37.992188 30.613281 C 37.910156 30.613281 37.832031 30.613281 37.746094 30.613281 C 36.429688 30.613281 35.113281 30.613281 33.796875 30.613281 C 32.445312 30.617188 31.09375 30.617188 29.742188 30.617188 C 28.984375 30.617188 28.226562 30.617188 27.46875 30.621094 C 26.820312 30.621094 26.175781 30.621094 25.53125 30.621094 C 25.199219 30.621094 24.871094 30.621094 24.539062 30.621094 C 24.238281 30.621094 23.9375 30.621094 23.636719 30.621094 C 23.527344 30.621094 23.417969 30.621094 23.308594 30.621094 C 22.726562 30.625 22.234375 30.609375 21.726562 30.304688 C 21.652344 30.261719 21.578125 30.21875 21.503906 30.175781 C 20.984375 29.773438 20.742188 29.328125 20.601562 28.6875 C 20.558594 28.304688 20.578125 28 20.792969 27.671875 C 21.148438 27.234375 21.507812 27.054688 22.066406 27.050781 Z M 22.066406 27.050781 "/>
<path style=" stroke:none;fill-rule:nonzero;fill:rgb(98.039216%,80.784314%,32.54902%);fill-opacity:1;" d="M 26.648438 57.867188 C 32.796875 57.867188 38.945312 57.867188 45.28125 57.867188 C 45.234375 58.550781 45.179688 59.230469 45.109375 59.910156 C 45.097656 60.046875 45.097656 60.046875 45.082031 60.183594 C 45.070312 60.3125 45.070312 60.3125 45.058594 60.445312 C 45.050781 60.523438 45.042969 60.597656 45.035156 60.679688 C 44.976562 61.046875 44.863281 61.28125 44.578125 61.523438 C 44.386719 61.585938 44.277344 61.601562 44.082031 61.601562 C 44.019531 61.605469 43.960938 61.605469 43.902344 61.605469 C 43.835938 61.605469 43.773438 61.605469 43.707031 61.605469 C 43.636719 61.605469 43.570312 61.605469 43.5 61.605469 C 43.269531 61.605469 43.039062 61.605469 42.808594 61.605469 C 42.640625 61.605469 42.476562 61.605469 42.3125 61.609375 C 41.863281 61.609375 41.414062 61.609375 40.964844 61.609375 C 40.6875 61.609375 40.40625 61.609375 40.125 61.609375 C 39.351562 61.613281 38.574219 61.613281 37.796875 61.613281 C 37.597656 61.613281 37.394531 61.613281 37.195312 61.613281 C 37.121094 61.613281 37.121094 61.613281 37.042969 61.613281 C 36.234375 61.613281 35.421875 61.617188 34.609375 61.617188 C 33.777344 61.621094 32.945312 61.621094 32.113281 61.625 C 31.648438 61.625 31.179688 61.625 30.710938 61.625 C 30.273438 61.628906 29.832031 61.628906 29.394531 61.625 C 29.234375 61.625 29.070312 61.628906 28.910156 61.628906 C 28.691406 61.628906 28.46875 61.628906 28.25 61.628906 C 28.183594 61.628906 28.121094 61.628906 28.054688 61.628906 C 27.671875 61.625 27.445312 61.574219 27.140625 61.3125 C 26.964844 61.046875 26.945312 60.804688 26.910156 60.5 C 26.902344 60.4375 26.894531 60.378906 26.886719 60.316406 C 26.871094 60.191406 26.855469 60.066406 26.839844 59.941406 C 26.816406 59.75 26.792969 59.558594 26.765625 59.367188 C 26.75 59.246094 26.734375 59.121094 26.71875 59 C 26.714844 58.941406 26.707031 58.886719 26.699219 58.828125 C 26.6875 58.746094 26.6875 58.746094 26.679688 58.664062 C 26.671875 58.617188 26.667969 58.570312 26.660156 58.519531 C 26.644531 58.304688 26.648438 58.085938 26.648438 57.867188 Z M 26.648438 57.867188 "/>
<path style=" stroke:none;fill-rule:nonzero;fill:rgb(83.137255%,39.607843%,41.568627%);fill-opacity:1;" d="M 29.460938 17.578125 C 29.683594 17.675781 29.816406 17.785156 29.980469 17.964844 C 30.234375 18.226562 30.503906 18.441406 30.800781 18.648438 C 30.84375 18.679688 30.882812 18.707031 30.925781 18.738281 C 31.203125 18.929688 31.484375 19.101562 31.78125 19.265625 C 31.699219 19.355469 31.699219 19.355469 31.613281 19.445312 C 31.089844 20.0625 30.671875 20.746094 30.320312 21.476562 C 30.296875 21.527344 30.273438 21.574219 30.25 21.628906 C 30.003906 22.167969 29.8125 22.714844 29.601562 23.273438 C 34.960938 23.273438 40.320312 23.273438 45.84375 23.273438 C 46.125 24.539062 46.125 24.539062 46.125 24.890625 C 39.417969 24.890625 32.714844 24.890625 25.804688 24.890625 C 25.960938 23.324219 26.464844 21.910156 27.210938 20.53125 C 27.25 20.460938 27.285156 20.386719 27.328125 20.3125 C 27.894531 19.289062 28.652344 18.414062 29.460938 17.578125 Z M 29.460938 17.578125 "/>
<path style=" stroke:none;fill-rule:nonzero;fill:rgb(56.470588%,61.960784%,40.392157%);fill-opacity:1;" d="M 29.601562 10.054688 C 30.421875 10.09375 31.234375 10.1875 32.050781 10.296875 C 32.261719 10.324219 32.476562 10.347656 32.6875 10.375 C 34.421875 10.597656 36.03125 10.902344 37.183594 12.359375 C 37.628906 12.988281 37.910156 13.640625 38.070312 14.394531 C 38.09375 14.550781 38.09375 14.550781 38.179688 14.625 C 38.1875 15.253906 37.972656 15.832031 37.6875 16.382812 C 37.449219 16.304688 37.429688 16.269531 37.300781 16.0625 C 37.265625 16.011719 37.234375 15.957031 37.199219 15.90625 C 37.164062 15.847656 37.128906 15.789062 37.089844 15.730469 C 37.015625 15.609375 36.9375 15.492188 36.859375 15.371094 C 36.742188 15.179688 36.621094 14.988281 36.5 14.800781 C 36.386719 14.617188 36.269531 14.433594 36.152344 14.25 C 36.117188 14.191406 36.082031 14.136719 36.046875 14.078125 C 35.804688 13.707031 35.578125 13.503906 35.15625 13.359375 C 34.882812 13.320312 34.636719 13.363281 34.394531 13.503906 C 34.195312 13.660156 34.03125 13.816406 33.960938 14.0625 C 33.894531 14.734375 34.226562 15.1875 34.601562 15.71875 C 34.671875 15.816406 34.738281 15.914062 34.808594 16.011719 C 34.839844 16.0625 34.875 16.113281 34.910156 16.164062 C 35.078125 16.40625 35.246094 16.648438 35.410156 16.890625 C 35.441406 16.9375 35.472656 16.980469 35.5 17.023438 C 35.636719 17.226562 35.753906 17.402344 35.789062 17.648438 C 34.792969 18.023438 33.792969 17.902344 32.835938 17.472656 C 31.710938 16.933594 30.925781 16.054688 30.445312 14.90625 C 30.289062 14.449219 30.1875 13.992188 30.109375 13.511719 C 30.101562 13.449219 30.089844 13.386719 30.078125 13.324219 C 30.046875 13.125 30.015625 12.925781 29.984375 12.726562 C 29.953125 12.527344 29.917969 12.328125 29.886719 12.128906 C 29.867188 12.007812 29.847656 11.886719 29.828125 11.761719 C 29.78125 11.46875 29.726562 11.175781 29.664062 10.886719 C 29.605469 10.601562 29.589844 10.34375 29.601562 10.054688 Z M 29.601562 10.054688 "/>
<path style=" stroke:none;fill-rule:nonzero;fill:rgb(77.647059%,71.764706%,58.431373%);fill-opacity:1;" d="M 23.625 32.765625 C 31.769531 32.765625 39.914062 32.765625 48.304688 32.765625 C 48.28125 32.929688 48.257812 33.089844 48.234375 33.257812 C 48.210938 33.257812 48.1875 33.257812 48.164062 33.257812 C 48.164062 33.140625 48.164062 33.027344 48.164062 32.90625 C 40.066406 32.90625 31.96875 32.90625 23.625 32.90625 C 23.625 32.859375 23.625 32.8125 23.625 32.765625 Z M 23.625 32.765625 "/>
<path style=" stroke:none;fill-rule:nonzero;fill:rgb(91.764706%,92.54902%,92.156863%);fill-opacity:1;" d="M 46.96875 61.664062 C 46.992188 61.664062 47.015625 61.664062 47.039062 61.664062 C 47.03125 61.773438 47.023438 61.886719 47.015625 62 C 47.011719 62.058594 47.007812 62.121094 47.003906 62.1875 C 46.941406 62.511719 46.742188 62.675781 46.476562 62.859375 C 46.523438 62.625 46.613281 62.433594 46.722656 62.222656 C 46.820312 62.035156 46.902344 61.863281 46.96875 61.664062 Z M 46.96875 61.664062 "/>
<path style=" stroke:none;fill-rule:nonzero;fill:rgb(49.019608%,53.333333%,35.294118%);fill-opacity:1;" d="M 38.039062 14.554688 C 38.085938 14.578125 38.132812 14.601562 38.179688 14.625 C 38.179688 14.765625 38.179688 14.902344 38.179688 15.046875 C 38.085938 15 37.992188 14.953125 37.898438 14.90625 C 37.898438 14.835938 37.898438 14.765625 37.898438 14.695312 C 37.945312 14.695312 37.992188 14.695312 38.039062 14.695312 C 38.039062 14.648438 38.039062 14.601562 38.039062 14.554688 Z M 38.039062 14.554688 "/>
<path style=" stroke:none;fill-rule:nonzero;fill:rgb(92.941176%,92.54902%,93.333333%);fill-opacity:1;" d="M 38.039062 10.125 C 38.121094 10.191406 38.203125 10.257812 38.285156 10.324219 C 38.332031 10.359375 38.375 10.394531 38.421875 10.433594 C 38.53125 10.546875 38.53125 10.546875 38.53125 10.757812 C 38.320312 10.558594 38.160156 10.390625 38.039062 10.125 Z M 38.039062 10.125 "/>
</g>
</svg>
