<?xml version="1.0" encoding="UTF-8"?>
<!-- Generator: visioncortex VTracer 0.6.3 -->
<svg version="1.1" xmlns="http://www.w3.org/2000/svg" width="1024" height="1024">
<path d="M0 0 C337.92 0 675.84 0 1024 0 C1024 337.92 1024 675.84 1024 1024 C686.08 1024 348.16 1024 0 1024 C0 686.08 0 348.16 0 0 Z " fill="#FDFDFE" transform="translate(0,0)"/>
<path d="M0 0 C1.1 0.14 2.21 0.27 3.34 0.41 C77.97 9.6 77.97 9.6 100.12 29.31 C100.82 29.88 101.51 30.44 102.23 31.02 C113.87 40.62 122.93 54.21 127.58 68.53 C129.79 75.82 129.79 75.82 134.82 81.18 C137.96 82.3 137.96 82.3 141.33 83.14 C146.08 84.61 149.92 86.88 154.12 89.5 C154.89 89.98 155.66 90.46 156.46 90.95 C167.99 98.29 178.25 106.89 188.12 116.31 C188.98 117.11 189.83 117.91 190.71 118.74 C221.54 148.44 243.07 192.94 248.12 235.31 C248.15 236.98 248.15 238.65 248.12 240.31 C249.06 240.29 249.99 240.27 250.95 240.25 C254.47 240.18 257.99 240.13 261.51 240.09 C263.02 240.07 264.53 240.05 266.05 240.01 C282.91 239.63 297.33 243.28 309.98 255.01 C320.43 266.26 323.68 278.97 323.4 294.01 C322.69 309.69 315.22 324.71 303.88 335.44 C297.12 341.14 289.53 345.51 281.12 348.31 C279.92 354.87 278.95 361.43 278.25 368.06 C277.37 376.33 276.36 384.57 275.31 392.81 C271.51 422.92 268.02 453.07 264.53 483.22 C262.83 497.9 261.1 512.58 259.31 527.25 C257.8 539.71 256.3 552.16 254.81 564.62 C254.71 565.47 254.61 566.32 254.51 567.19 C253.12 578.86 251.75 590.53 250.39 602.21 C250.24 603.49 250.09 604.78 249.94 606.11 C249.63 608.74 249.33 611.36 249.02 613.99 C248.87 615.29 248.72 616.59 248.56 617.94 C248.41 619.24 248.26 620.53 248.11 621.87 C246.26 637.72 244.4 653.57 242.37 669.4 C241.59 675.46 240.87 681.51 240.21 687.58 C239.05 698.11 237.79 708.63 236.52 719.15 C236.12 722.44 235.73 725.73 235.34 729.01 C234.83 733.21 234.32 737.41 233.81 741.62 C233.38 745.16 232.96 748.7 232.55 752.24 C232.38 753.67 232.21 755.1 232.04 756.53 C231.9 757.72 231.77 758.92 231.62 760.16 C229.92 770.98 224.12 779.57 215.44 786.12 C202.17 794.45 189.36 793.88 174.16 793.81 C171.73 793.82 169.3 793.82 166.87 793.83 C160.98 793.84 155.09 793.84 149.2 793.82 C142.33 793.8 135.46 793.81 128.59 793.81 C116.33 793.82 104.07 793.8 91.81 793.78 C79.93 793.76 68.06 793.75 56.18 793.76 C43.22 793.77 30.26 793.77 17.3 793.76 C15.91 793.76 14.53 793.75 13.15 793.75 C12.47 793.75 11.79 793.75 11.09 793.75 C6.3 793.75 1.52 793.75 -3.26 793.75 C-9.7 793.76 -16.14 793.75 -22.58 793.72 C-24.94 793.72 -27.3 793.72 -29.66 793.72 C-32.88 793.73 -36.11 793.72 -39.34 793.7 C-40.73 793.71 -40.73 793.71 -42.15 793.72 C-53.46 793.61 -63.69 789.96 -72.11 782.27 C-84.55 769.06 -85.25 753.13 -87.27 735.97 C-87.49 734.04 -87.72 732.11 -87.95 730.18 C-88.56 725.09 -89.16 719.99 -89.76 714.89 C-90.35 709.9 -90.94 704.91 -91.54 699.92 C-92.25 693.89 -92.97 687.86 -93.68 681.82 C-95.34 667.76 -97.02 653.71 -98.71 639.65 C-101.11 619.7 -103.49 599.74 -105.86 579.79 C-105.95 579.05 -106.04 578.32 -106.13 577.57 C-107.02 570.05 -107.91 562.53 -108.81 555.01 C-110.78 538.41 -112.75 521.81 -114.72 505.21 C-114.81 504.44 -114.91 503.66 -115 502.87 C-117.94 478.15 -120.89 453.44 -123.86 428.73 C-124.21 425.8 -124.56 422.87 -124.91 419.94 C-126.31 408.29 -127.71 396.65 -129.12 385.01 C-129.62 380.92 -130.11 376.83 -130.61 372.75 C-130.92 370.14 -131.24 367.54 -131.56 364.94 C-131.74 363.44 -131.92 361.94 -132.1 360.45 C-132.25 359.2 -132.4 357.95 -132.56 356.66 C-132.86 353.52 -132.93 350.46 -132.88 347.31 C-133.75 347.21 -134.62 347.11 -135.52 347 C-147.22 344.61 -157.8 334.81 -164.69 325.44 C-174.48 310.57 -177.53 293.73 -174.5 276.16 C-171.34 263.69 -162.42 253.26 -151.88 246.31 C-140.71 240.02 -129.25 240.05 -116.81 240.19 C-115.26 240.2 -113.71 240.21 -112.17 240.21 C-108.4 240.24 -104.64 240.27 -100.88 240.31 C-100.93 239.25 -100.98 238.18 -101.04 237.08 C-101.03 231.23 -99.65 225.72 -98.31 220.06 C-97.9 218.33 -97.9 218.33 -97.49 216.57 C-91.18 190.68 -80.43 166.02 -64.88 144.31 C-64.46 143.73 -64.05 143.15 -63.62 142.55 C-58.13 134.94 -52.01 128.03 -45.59 121.21 C-38.73 114.65 -38.73 114.65 -35.73 106.18 C-35.88 102.17 -36.42 98.36 -37.16 94.43 C-37.3 93.67 -37.43 92.91 -37.57 92.13 C-37.87 90.48 -38.17 88.84 -38.47 87.2 C-39.28 82.76 -40.07 78.31 -40.85 73.86 C-41.02 72.93 -41.18 72 -41.35 71.04 C-43.1 61.12 -44.75 51.17 -46.34 41.22 C-46.65 39.29 -46.97 37.37 -47.28 35.44 C-47.72 32.73 -48.16 30.02 -48.59 27.31 C-48.79 26.12 -48.79 26.12 -48.99 24.91 C-50.12 17.64 -51.02 10.75 -47.24 4.14 C-37.49 -8.92 -13.78 -1.72 0 0 Z " fill="#010101" transform="translate(437.875,113.6875)"/>
<path d="M0 0 C115.83 0 231.66 0 351 0 C350.67 3.3 350.34 6.6 350 10 C349.88 11.19 349.77 12.38 349.65 13.61 C347.59 34.47 345.14 55.27 342.5 76.06 C338.79 105.32 335.28 134.59 331.81 163.88 C331.69 164.95 331.56 166.02 331.43 167.12 C330.32 176.47 329.21 185.82 328.11 195.17 C326.02 212.83 323.92 230.5 321.81 248.16 C321.1 254.12 320.4 260.07 319.69 266.03 C319.2 270.13 318.71 274.22 318.22 278.32 C317.99 280.31 317.75 282.3 317.52 284.29 C317.16 287.32 316.79 290.36 316.43 293.39 C316.33 294.24 316.23 295.09 316.13 295.96 C314.88 306.33 313.41 316.65 312 327 C221.91 327 131.82 327 39 327 C37.92 323.76 37.59 320.88 37.23 317.48 C37.08 316.1 36.93 314.71 36.78 313.33 C36.7 312.59 36.62 311.85 36.54 311.08 C34.92 295.87 33.15 280.68 31.3 265.5 C31.18 264.53 31.06 263.55 30.94 262.55 C30.32 257.47 29.7 252.39 29.08 247.31 C27.75 236.42 26.43 225.53 25.11 214.63 C24.97 213.54 24.84 212.45 24.7 211.32 C22.13 190.18 19.62 169.03 17.12 147.88 C16.4 141.75 15.68 135.62 14.96 129.5 C14.87 128.78 14.79 128.06 14.7 127.31 C13.11 113.85 11.47 100.39 9.81 86.94 C7.87 71.18 5.96 55.42 4.09 39.65 C3.83 37.42 3.56 35.19 3.3 32.96 C2.93 29.88 2.56 26.79 2.2 23.7 C2.09 22.81 1.99 21.92 1.87 21 C1.06 14 0.54 7.05 0 0 Z " fill="#FEE0AA" transform="translate(336,466)"/>
<path d="M0 0 C4.7 0.53 8.05 2.65 11.88 5.25 C12.85 5.91 12.85 5.91 13.85 6.58 C52.57 33.38 73.98 74.29 84.52 119.27 C85 122 85 122 85 127 C-10.37 127 -105.74 127 -204 127 C-201.77 104.74 -194.59 84.63 -184 65 C-183.46 63.98 -182.92 62.96 -182.36 61.9 C-174.29 47.35 -163.52 34.89 -152 23 C-148.83 24.38 -146.93 25.95 -144.62 28.5 C-129.1 44.31 -106.59 55.7 -84.28 56.27 C-82.35 56.27 -80.43 56.27 -78.5 56.25 C-77.54 56.26 -76.59 56.27 -75.61 56.27 C-54.33 56.22 -34.13 48 -19 33 C-10.25 23.48 -4.09 12.28 0 0 Z " fill="#FDFDFD" transform="translate(571,227)"/>
<path d="M0 0 C0.69 -0 1.39 -0.01 2.1 -0.01 C4.43 -0.02 6.76 -0.02 9.1 -0.01 C10.78 -0.01 12.47 -0.02 14.15 -0.02 C18.79 -0.04 23.43 -0.04 28.07 -0.03 C33.07 -0.03 38.07 -0.04 43.07 -0.05 C52.86 -0.07 62.66 -0.08 72.46 -0.08 C80.43 -0.08 88.39 -0.08 96.35 -0.09 C118.92 -0.11 141.49 -0.12 164.06 -0.11 C165.89 -0.11 165.89 -0.11 167.75 -0.11 C168.97 -0.11 170.19 -0.11 171.44 -0.11 C191.19 -0.11 210.95 -0.13 230.7 -0.16 C250.97 -0.19 271.25 -0.2 291.52 -0.2 C302.9 -0.2 314.29 -0.21 325.67 -0.23 C335.37 -0.24 345.06 -0.25 354.76 -0.24 C359.7 -0.23 364.65 -0.23 369.6 -0.25 C374.13 -0.26 378.65 -0.26 383.18 -0.24 C384.82 -0.24 386.46 -0.24 388.1 -0.25 C405.46 -0.36 405.46 -0.36 411.98 6.07 C412.34 6.65 412.71 7.23 413.08 7.82 C413.46 8.4 413.84 8.98 414.23 9.57 C417.18 15.03 416.85 21.17 415.49 27.08 C412.5 36.27 407.41 42.34 399.13 47.25 C394.42 49.64 390.82 50.51 385.49 50.51 C384.83 50.52 384.18 50.52 383.5 50.53 C381.29 50.53 379.08 50.53 376.87 50.52 C375.27 50.53 373.68 50.53 372.08 50.54 C367.68 50.55 363.29 50.55 358.89 50.55 C354.15 50.55 349.41 50.56 344.67 50.57 C335.39 50.58 326.1 50.59 316.82 50.59 C309.27 50.59 301.72 50.6 294.17 50.6 C272.78 50.62 251.38 50.63 229.98 50.63 C228.25 50.63 228.25 50.63 226.49 50.63 C225.33 50.63 224.18 50.63 222.99 50.63 C204.27 50.63 185.55 50.65 166.83 50.67 C147.61 50.7 128.39 50.72 109.17 50.71 C98.38 50.71 87.59 50.72 76.8 50.74 C67.61 50.76 58.42 50.76 49.23 50.75 C44.55 50.74 39.86 50.74 35.17 50.76 C30.88 50.78 26.58 50.77 22.29 50.76 C20.74 50.75 19.19 50.76 17.64 50.77 C9.39 50.82 2.38 50.6 -4.86 46.26 C-5.91 45.66 -6.96 45.06 -8.04 44.44 C-15.44 38.7 -18.86 32.39 -20.86 23.26 C-21.47 17.79 -21.18 13.49 -18.13 8.82 C-13.06 2.59 -7.97 0.01 0 0 Z " fill="#FCFDFD" transform="translate(313.85734939575195,384.74273109436035)"/>
<path d="M0 0 C87.45 0 174.9 0 265 0 C264.31 9.72 263.54 19.38 262.56 29.06 C262.38 30.98 262.38 30.98 262.19 32.94 C262.01 34.78 262.01 34.78 261.82 36.66 C261.71 37.76 261.6 38.86 261.49 39.99 C260.64 45.25 259.08 48.54 255 52 C252.28 52.91 250.71 53.13 247.92 53.13 C247.08 53.14 246.25 53.14 245.39 53.15 C244.47 53.15 243.55 53.15 242.61 53.15 C241.63 53.15 240.66 53.15 239.65 53.16 C236.37 53.17 233.09 53.17 229.82 53.18 C227.47 53.18 225.12 53.19 222.78 53.2 C216.4 53.21 210.01 53.22 203.63 53.23 C199.65 53.24 195.66 53.24 191.68 53.25 C180.64 53.27 169.61 53.28 158.58 53.29 C155.72 53.29 152.85 53.29 149.99 53.3 C148.92 53.3 148.92 53.3 147.84 53.3 C136.31 53.3 124.78 53.33 113.25 53.36 C101.41 53.4 89.58 53.41 77.74 53.42 C71.1 53.42 64.45 53.43 57.8 53.45 C51.55 53.48 45.3 53.48 39.05 53.47 C36.76 53.47 34.46 53.48 32.17 53.49 C29.04 53.51 25.91 53.5 22.77 53.49 C21.86 53.5 20.95 53.51 20.02 53.52 C14.53 53.47 11.32 52.71 7 49 C4.5 45.25 4.24 41.79 3.71 37.42 C3.6 36.58 3.49 35.73 3.38 34.86 C3.16 33.07 2.93 31.28 2.71 29.5 C2.38 26.77 2.03 24.05 1.68 21.33 C1.46 19.59 1.24 17.85 1.02 16.11 C0.92 15.3 0.82 14.49 0.71 13.66 C0.57 12.51 0.57 12.51 0.43 11.33 C0.34 10.66 0.26 9.99 0.18 9.3 C-0.06 6.21 0 3.1 0 0 Z " fill="#FACE53" transform="translate(379,823)"/>
<path d="M0 0 C3.17 1.38 5.07 2.95 7.38 5.5 C10.99 9.22 14.85 12.26 19.06 15.25 C19.64 15.66 20.22 16.07 20.81 16.5 C24.75 19.25 28.8 21.67 33 24 C31.82 25.27 31.82 25.27 30.62 26.56 C23.16 35.36 17.2 45.04 12.25 55.44 C11.91 56.15 11.57 56.86 11.22 57.6 C7.7 65.26 4.98 73.05 2 81 C78.23 81 154.46 81 233 81 C237 99 237 99 237 104 C141.63 104 46.26 104 -52 104 C-49.77 81.74 -42.59 61.63 -32 42 C-31.46 40.98 -30.92 39.96 -30.36 38.9 C-22.29 24.35 -11.52 11.89 0 0 Z " fill="#D4656A" transform="translate(419,250)"/>
<path d="M0 0 C11.69 0.57 23.25 1.9 34.85 3.42 C37.86 3.81 40.87 4.19 43.89 4.56 C68.58 7.72 91.47 12.08 107.81 32.75 C114.17 41.71 118.14 51.02 120.46 61.73 C120.78 63.95 120.78 63.95 122 65 C122.09 73.93 119.06 82.16 115 90 C111.6 88.87 111.31 88.37 109.49 85.46 C109.02 84.71 108.54 83.97 108.05 83.2 C107.55 82.38 107.04 81.57 106.52 80.73 C105.43 79.02 104.33 77.31 103.24 75.6 C101.53 72.9 99.82 70.19 98.12 67.48 C96.48 64.87 94.81 62.27 93.14 59.67 C92.65 58.86 92.15 58.05 91.64 57.22 C88.24 51.97 84.98 49.03 79 47 C75.11 46.47 71.59 47.08 68.17 49.05 C65.32 51.28 63 53.51 62 57 C61.04 66.57 65.77 73.01 71.12 80.56 C72.09 81.95 73.06 83.35 74.03 84.74 C74.52 85.44 75.01 86.14 75.52 86.87 C77.91 90.31 80.28 93.77 82.62 97.25 C83.05 97.87 83.48 98.49 83.91 99.13 C85.86 102.01 87.5 104.51 88 108 C73.86 113.36 59.62 111.6 46 105.49 C30 97.83 18.86 85.33 12 69 C9.8 62.48 8.31 55.98 7.25 49.19 C7.1 48.29 6.95 47.4 6.8 46.48 C6.34 43.65 5.89 40.83 5.44 38 C4.98 35.17 4.52 32.35 4.06 29.52 C3.78 27.78 3.5 26.03 3.22 24.28 C2.54 20.1 1.79 15.96 0.9 11.82 C0.07 7.78 -0.18 4.12 0 0 Z " fill="#909E67" transform="translate(421,143)"/>
<path d="M0 0 C115.83 0 231.66 0 351 0 C350.67 2.31 350.34 4.62 350 7 C349.67 7 349.34 7 349 7 C349 5.35 349 3.7 349 2 C233.83 2 118.66 2 0 2 C0 1.34 0 0.68 0 0 Z " fill="#C6B795" transform="translate(336,466)"/>
<path d="M0 0 C0.33 0 0.66 0 1 0 C0.91 1.58 0.8 3.17 0.69 4.75 C0.63 5.63 0.57 6.51 0.51 7.42 C-0.41 12.06 -3.22 14.4 -7 17 C-6.32 13.67 -5.06 10.95 -3.5 7.94 C-2.12 5.28 -0.95 2.85 0 0 Z " fill="#EAECEB" transform="translate(668,877)"/>
<path d="M0 0 C0.66 0.33 1.32 0.66 2 1 C2 2.98 2 4.96 2 7 C0.68 6.34 -0.64 5.68 -2 5 C-2 4.01 -2 3.02 -2 2 C-1.34 2 -0.68 2 0 2 C0 1.34 0 0.68 0 0 Z " fill="#7D885A" transform="translate(541,207)"/>
<path d="M0 0 C1.18 0.93 2.34 1.87 3.5 2.81 C4.15 3.33 4.8 3.86 5.47 4.39 C7 6 7 6 7 9 C3.99 6.15 1.72 3.76 0 0 Z " fill="#EDECEE" transform="translate(541,144)"/>
</svg>
