<?xml version="1.0" encoding="UTF-8"?>
<!-- Generator: visioncortex VTracer 0.6.3 -->
<svg version="1.1" xmlns="http://www.w3.org/2000/svg" width="1024" height="1024">
<path d="M0 0 C337.92 0 675.84 0 1024 0 C1024 337.92 1024 675.84 1024 1024 C686.08 1024 348.16 1024 0 1024 C0 686.08 0 348.16 0 0 Z " fill="#FDFDFD" transform="translate(0,0)"/>
<path d="M0 0 C6.91 4.75 13.3 9.97 19.45 15.66 C21.5 17.54 23.57 19.35 25.67 21.15 C30.68 25.53 35.37 30.22 40.06 34.94 C40.92 35.79 41.78 36.65 42.67 37.53 C47.1 41.97 51.4 46.48 55.49 51.24 C57.56 53.65 59.72 55.98 61.88 58.31 C75.38 73.14 75.38 73.14 77 78 C77.66 78 78.32 78 79 78 C79.27 77.41 79.53 76.83 79.81 76.23 C81.03 73.95 82.34 72.29 84.06 70.38 C84.68 69.68 85.3 68.99 85.94 68.27 C86.96 67.15 86.96 67.15 88 66 C88.73 65.19 89.46 64.38 90.21 63.54 C91.75 61.84 93.28 60.14 94.82 58.44 C96.72 56.31 98.58 54.16 100.44 52 C104 47.9 107.86 44.13 111.72 40.32 C113.48 38.53 115.08 36.77 116.62 34.81 C119.17 31.8 121.92 29.38 124.92 26.84 C126.93 25.06 128.77 23.19 130.62 21.25 C145.49 6.24 167.65 -10.52 188.94 -13.56 C215.9 -12.92 242.39 18.33 259.88 35.75 C260.37 36.25 260.87 36.74 261.39 37.25 C266.58 42.43 271.69 47.64 276.46 53.21 C278.9 56.04 281.45 58.77 284 61.5 C290.98 69.04 290.98 69.04 294.19 72.62 C294.72 73.22 295.25 73.81 295.79 74.41 C297 76 297 76 298 79 C301.73 75.32 305.33 71.54 308.88 67.69 C309.67 66.83 309.67 66.83 310.48 65.95 C313.28 62.9 316.05 59.83 318.75 56.69 C321.69 53.28 324.84 50.14 328.04 46.99 C329.89 45.11 331.61 43.19 333.31 41.19 C339.56 33.94 346.44 27.13 353.73 20.93 C355.54 19.39 357.31 17.84 359.08 16.26 C372.43 4.43 391.85 -12 410.45 -13.15 C437.84 -10.52 460.79 14.59 479.2 33.07 C480.83 34.7 482.45 36.32 484.08 37.95 C489.6 43.46 494.94 49.06 500 55 C501.45 56.61 502.91 58.21 504.38 59.81 C508.22 64.08 511.89 68.45 515.5 72.91 C517.32 75.16 519.15 77.39 521 79.62 C552.34 117.53 552.34 117.53 552.2 132.49 C552.19 133.69 552.18 134.89 552.18 136.12 C552.16 137.36 552.14 138.6 552.12 139.88 C552.12 141.14 552.11 142.4 552.1 143.7 C552.07 146.8 552.04 149.9 552 153 C552.99 153.11 553.98 153.22 555 153.34 C559.17 153.94 562.98 155.15 566.94 156.56 C567.67 156.82 568.4 157.09 569.16 157.36 C597.11 167.64 621.31 185.41 634.73 212.48 C644.08 233.21 644.48 254.51 636.69 275.81 C632.45 286.03 627.21 294.62 620 303 C619.3 303.84 618.6 304.67 617.88 305.53 C569.23 361.82 473.41 373.04 404 383 C403.31 383.1 402.62 383.2 401.92 383.3 C378.93 386.61 355.84 388.83 332.71 390.77 C330.95 390.92 329.19 391.07 327.44 391.22 C244.34 398.35 157.94 400.06 72.08 392.43 C67.2 391.99 62.33 391.76 57.44 391.56 C17.35 389.73 -23.66 384.8 -62.94 376.63 C-66.34 375.93 -69.76 375.28 -73.17 374.64 C-132.17 363.42 -208.57 346.86 -244.64 293.86 C-248.97 287.24 -252.42 280.49 -255 273 C-255.39 271.92 -255.78 270.84 -256.19 269.73 C-262.55 249.71 -260.03 227.9 -250.89 209.19 C-246.83 201.36 -241.99 194.49 -236 188 C-235.39 187.31 -234.78 186.62 -234.15 185.91 C-219.94 170.67 -198.79 159.9 -179 154 C-177.68 154 -176.36 154 -175 154 C-175.03 153.21 -175.06 152.43 -175.1 151.62 C-175.22 148 -175.3 144.37 -175.38 140.75 C-175.43 139.52 -175.48 138.28 -175.53 137.01 C-175.73 124.45 -170.92 115.78 -163.31 106.12 C-162.8 105.45 -162.28 104.78 -161.75 104.09 C-160.18 102.05 -158.59 100.03 -157 98 C-156.05 96.78 -155.11 95.55 -154.16 94.32 C-148.45 86.94 -142.52 79.77 -136.44 72.68 C-134.92 70.9 -133.4 69.11 -131.89 67.32 C-122.75 56.54 -122.75 56.54 -117.67 51.67 C-116.01 50.01 -114.5 48.28 -112.97 46.49 C-108.74 41.62 -104.24 37.05 -99.68 32.49 C-98.26 31.07 -96.85 29.65 -95.45 28.22 C-90.04 22.8 -84.49 17.77 -78.5 13.01 C-75.93 10.95 -73.47 8.8 -71 6.62 C-46.14 -13.67 -27.16 -17.38 0 0 Z " fill="#020201" transform="translate(320,409)"/>
<path d="M0 0 C7.16 1.76 13.79 3.93 20.44 7.12 C21.66 7.71 21.66 7.71 22.92 8.31 C29.96 11.79 36.05 15.83 42 21 C42.75 21.65 43.49 22.29 44.26 22.96 C53.6 31.68 62.79 46.04 63.27 59.14 C63.85 79.44 57.84 94.41 43.79 109.31 C16.43 135.74 -22.36 146.97 -58 157 C-59.4 157.4 -59.4 157.4 -60.83 157.82 C-79.61 163.2 -98.78 166.62 -118 170 C-118.83 170.15 -119.67 170.3 -120.52 170.45 C-167.96 178.85 -215.9 183.53 -263.99 185.85 C-267 186 -270 186.16 -273 186.31 C-355.42 190.54 -439.31 190.24 -521.42 181.28 C-524.1 180.99 -526.79 180.71 -529.48 180.43 C-710.4 161.65 -710.4 161.65 -766 108 C-766.7 107.34 -767.4 106.67 -768.12 105.99 C-778.44 95.41 -784.73 80.04 -785.25 65.38 C-784.99 49.51 -777.81 35.38 -767 24 C-757.5 15.05 -741.84 2 -728 2 C-727.97 3.47 -727.97 3.47 -727.94 4.96 C-727.86 8.63 -727.77 12.31 -727.68 15.98 C-727.64 17.56 -727.61 19.14 -727.58 20.72 C-727.19 39.68 -724.27 57.33 -710 71.12 C-700.09 79.51 -687.96 84.32 -674.99 84.27 C-674.22 84.27 -673.46 84.28 -672.67 84.28 C-670.13 84.29 -667.58 84.29 -665.04 84.29 C-663.21 84.3 -661.38 84.3 -659.54 84.31 C-654.58 84.33 -649.62 84.33 -644.65 84.33 C-641.55 84.34 -638.44 84.34 -635.34 84.35 C-624.49 84.36 -613.64 84.37 -602.79 84.37 C-592.7 84.37 -582.61 84.39 -572.52 84.42 C-563.84 84.45 -555.16 84.46 -546.48 84.46 C-541.3 84.46 -536.12 84.46 -530.95 84.48 C-526.07 84.5 -521.2 84.5 -516.33 84.49 C-514.55 84.49 -512.77 84.49 -510.99 84.5 C-500.51 84.57 -491.88 83.8 -482 80 C-478.28 78.76 -477.26 79.44 -473.69 80.88 C-467.21 83.46 -461.26 84.15 -454.31 84.14 C-453.56 84.14 -452.8 84.15 -452.02 84.15 C-449.51 84.16 -446.99 84.16 -444.47 84.16 C-442.66 84.17 -440.85 84.17 -439.03 84.18 C-434.12 84.19 -429.21 84.2 -424.29 84.2 C-421.22 84.2 -418.14 84.21 -415.07 84.21 C-405.44 84.23 -395.8 84.24 -386.17 84.24 C-375.08 84.24 -363.98 84.26 -352.89 84.29 C-344.3 84.31 -335.7 84.32 -327.11 84.32 C-321.99 84.32 -316.87 84.33 -311.74 84.35 C-306.92 84.36 -302.09 84.37 -297.26 84.36 C-295.5 84.36 -293.74 84.36 -291.98 84.37 C-280.43 84.43 -269.79 83.75 -258.77 79.86 C-255.36 78.8 -254.17 79.29 -251 80.81 C-244.77 83.74 -238.9 84.15 -232.08 84.14 C-230.91 84.14 -230.91 84.14 -229.71 84.15 C-227.11 84.16 -224.5 84.16 -221.9 84.16 C-220.03 84.17 -218.16 84.17 -216.29 84.18 C-211.21 84.19 -206.13 84.2 -201.05 84.2 C-197.87 84.2 -194.7 84.21 -191.52 84.21 C-181.57 84.23 -171.61 84.24 -161.66 84.24 C-150.2 84.24 -138.73 84.26 -127.26 84.29 C-118.39 84.31 -109.51 84.32 -100.63 84.32 C-95.34 84.32 -90.04 84.33 -84.75 84.35 C-79.76 84.36 -74.78 84.37 -69.79 84.36 C-67.97 84.36 -66.15 84.36 -64.33 84.37 C-45.73 84.47 -29.24 81.88 -15.25 68.48 C-7.37 59.8 -1.06 47.83 -0.79 35.87 C-0.77 35.07 -0.75 34.27 -0.73 33.45 C-0.72 32.59 -0.7 31.74 -0.68 30.86 C-0.66 29.98 -0.64 29.1 -0.62 28.19 C-0.56 25.37 -0.5 22.56 -0.44 19.75 C-0.39 17.84 -0.35 15.93 -0.31 14.02 C-0.2 9.35 -0.1 4.67 0 0 Z " fill="#EDEEF0" transform="translate(872,590)"/>
<path d="M0 0 C3.52 3.46 6.81 7.04 10.06 10.75 C22.72 24.71 40.5 35.94 59.66 37.17 C81.32 38.18 100.63 34.62 117.62 20.17 C125.94 12.6 125.94 12.6 133 3.88 C133.66 2.93 134.32 1.98 135 1 C135.66 1 136.32 1 137 1 C138.39 2.55 139.71 4.17 141 5.81 C145.04 10.88 149.3 15.67 153.74 20.39 C157.27 24.46 160 28.44 161.69 33.56 C163.89 39.4 167.34 44.11 170.98 49.12 C179.87 61.79 177 79.57 177 94 C102.42 94 27.84 94 -49 94 C-49 55.27 -49 55.27 -37.84 43.92 C-35.38 41.35 -33.23 38.59 -31.05 35.8 C-28.43 32.47 -25.72 29.24 -23 26 C-22.49 25.39 -21.97 24.77 -21.44 24.14 C-14.5 15.9 -7.34 7.89 0 0 Z " fill="#D56064" transform="translate(440,480)"/>
<path d="M0 0 C0.66 0 1.32 0 2 0 C3.19 1.4 3.19 1.4 4.56 3.38 C17.12 20.53 33.87 32.93 55 37 C59.39 37.37 63.73 37.38 68.12 37.31 C69.24 37.32 70.36 37.32 71.5 37.32 C91.43 37.19 108.51 29.42 122.59 15.44 C125.55 12.42 128.38 9.28 131.16 6.09 C132.72 4.32 134.32 2.66 136 1 C143.65 9.1 151.09 17.25 158 26 C158.85 27.05 159.69 28.11 160.54 29.16 C179.57 52.97 184 59.74 184 94 C117.01 94 50.02 94 -19 94 C-21.01 85.96 -22.44 79.19 -22.94 71.12 C-23.63 56.49 -23.63 56.49 -30 44 C-30.79 40.22 -30.82 36.53 -28.97 33.08 C-27.49 31.22 -25.92 29.52 -24.25 27.81 C-23.06 26.52 -21.86 25.22 -20.67 23.93 C-20.06 23.28 -19.45 22.63 -18.82 21.96 C-15.95 18.87 -13.23 15.66 -10.5 12.44 C-9.11 10.81 -7.71 9.19 -6.32 7.57 C-5.4 6.48 -4.5 5.38 -3.62 4.27 C-2.45 2.81 -1.23 1.4 0 0 Z " fill="#EDBD4D" transform="translate(662,480)"/>
<path d="M0 0 C3.01 2.9 5.61 5.96 8.19 9.25 C19.61 23.22 35.93 33.92 54 37 C78.11 38.52 99.36 35.87 118.33 19.54 C122.29 15.77 125.96 11.79 129.59 7.7 C131.66 5.38 133.78 3.17 136 1 C141.58 6.93 146.93 12.99 152 19.38 C152.47 19.96 152.94 20.54 153.42 21.14 C158.38 27.47 158.38 27.47 159 31 C157.37 33.87 157.37 33.87 154.88 36.88 C154.02 37.94 153.18 39 152.33 40.07 C151.56 41.04 150.79 42 150 43 C139.81 57.69 143.46 77.31 143 94 C79.31 94 15.62 94 -50 94 C-50 59.46 -50 59.46 -34.44 40.81 C-33.31 39.45 -32.19 38.08 -31.06 36.71 C-30.53 36.07 -30 35.43 -29.46 34.77 C-27.59 32.5 -25.76 30.19 -23.94 27.88 C-16.3 18.3 -8.19 9.1 0 0 Z " fill="#EDBE4E" transform="translate(221,480)"/>
<path d="M0 0 C74.58 0 149.16 0 226 0 C226 31.84 226 31.84 217.19 40.94 C211.4 45.96 204.59 47.45 197.12 47.39 C196.37 47.39 195.62 47.4 194.84 47.4 C192.35 47.42 189.85 47.41 187.36 47.4 C185.56 47.41 183.76 47.42 181.97 47.42 C177.1 47.44 172.23 47.44 167.36 47.44 C163.29 47.43 159.22 47.44 155.15 47.44 C145.55 47.46 135.94 47.46 126.33 47.45 C116.44 47.43 106.54 47.45 96.65 47.48 C88.14 47.5 79.63 47.5 71.12 47.5 C66.04 47.5 60.97 47.5 55.89 47.51 C51.11 47.53 46.34 47.53 41.56 47.51 C39.82 47.5 38.07 47.51 36.32 47.52 C26.03 47.57 17.08 47.31 8.38 41.14 C7.78 40.52 7.18 39.89 6.56 39.25 C5.64 38.33 5.64 38.33 4.69 37.39 C-3.44 25.9 0 14.34 0 0 Z " fill="#EEBE4E" transform="translate(391,601)"/>
<path d="M0 0 C66.66 0 133.32 0 202 0 C202 30.71 202 30.71 193 40.31 C186.47 45.83 178.78 47.15 170.5 47.12 C169.36 47.12 169.36 47.12 168.2 47.12 C165.65 47.12 163.11 47.12 160.56 47.11 C158.74 47.11 156.92 47.11 155.09 47.11 C150.14 47.11 145.19 47.11 140.24 47.1 C135.06 47.1 129.89 47.09 124.71 47.09 C114.92 47.09 105.12 47.08 95.32 47.07 C84.16 47.06 73 47.06 61.85 47.05 C38.9 47.04 15.95 47.02 -7 47 C-6.01 44.03 -6.01 44.03 -5 41 C0.29 25.8 0.29 25.8 0 0 Z " fill="#EDBE4E" transform="translate(644,601)"/>
<path d="M0 0 C63.69 0 127.38 0 193 0 C193.33 8.58 193.66 17.16 194 26 C195.25 33.07 196.49 38.82 200 45 C200 45.66 200 46.32 200 47 C176.82 47.09 153.63 47.16 130.45 47.21 C119.69 47.23 108.92 47.26 98.16 47.3 C88.77 47.34 79.39 47.37 70 47.38 C65.04 47.38 60.07 47.39 55.1 47.42 C50.42 47.45 45.74 47.46 41.06 47.45 C39.35 47.45 37.64 47.46 35.92 47.48 C24.43 47.57 15.34 46.79 6.5 38.71 C-3.05 27.84 0 13.85 0 0 Z " fill="#EFBF4E" transform="translate(171,601)"/>
<path d="M0 0 C16.86 8.22 31.05 22.7 44 36 C33.78 50.35 22.16 62.93 4 66 C-6.45 67.02 -16.52 66.96 -26 62 C-26.86 61.55 -27.72 61.11 -28.6 60.64 C-39.22 54.66 -46.03 46.83 -53 37 C-49.62 29.48 -42.15 24.25 -36 19 C-34.65 17.82 -34.65 17.82 -33.28 16.62 C-26.24 10.56 -19.08 5.58 -11 1 C-10.04 0.37 -10.04 0.37 -9.06 -0.28 C-5.79 -1.42 -3.34 -0.77 0 0 Z " fill="#D46064" transform="translate(294,425)"/>
<path d="M0 0 C15.65 9.29 28.44 21.76 41.14 34.65 C35.44 47.36 22.98 57.71 10.14 62.65 C-3.7 66.74 -17.52 65.76 -30.46 59.37 C-40.93 53.55 -48.76 45.15 -55.86 35.65 C-52.32 27.67 -44.28 22.19 -37.63 16.87 C-35.9 15.48 -34.18 14.07 -32.5 12.62 C-27.5 8.39 -22.25 4.88 -16.61 1.59 C-15.94 1.18 -15.26 0.78 -14.57 0.36 C-9.07 -2.75 -5.83 -2.75 0 0 Z " fill="#698E49" transform="translate(515.859375,426.34765625)"/>
<path d="M0 0 C10.04 4.68 18.21 11.11 26.35 18.51 C27.93 19.94 29.54 21.35 31.15 22.75 C36.16 27.16 40.43 31.34 44 37 C41.7 40.02 39.36 43.02 37 46 C36.21 47.04 36.21 47.04 35.4 48.1 C27.7 57.63 17.07 63.94 5 66 C-10.65 67.66 -23.35 64.68 -36 55 C-36.89 54.36 -36.89 54.36 -37.79 53.71 C-43.65 49.15 -47.73 42.99 -52 37 C-50.4 33.07 -47.72 30.37 -44.75 27.44 C-43.96 26.65 -43.96 26.65 -43.15 25.85 C-33.48 16.46 -22.74 8.62 -11 2 C-9.99 1.41 -8.98 0.82 -7.94 0.22 C-4.54 -1.19 -3.42 -1.21 0 0 Z " fill="#698D49" transform="translate(735,425)"/>
<path d="M0 0 C4.13 1.74 6.73 4.14 9 8 C9.83 12.51 9.7 15.74 7.45 19.79 C4.51 23.92 0.86 27.39 -2.75 30.94 C-3.43 31.61 -4.11 32.29 -4.8 32.99 C-8.82 36.97 -12.95 40.75 -17.23 44.44 C-19.42 46.37 -21.47 48.41 -23.5 50.5 C-26.86 53.91 -30.34 57.07 -33.97 60.19 C-36.24 62.21 -38.37 64.34 -40.5 66.5 C-43.86 69.91 -47.33 73.08 -50.97 76.18 C-53.24 78.21 -55.33 80.37 -57.44 82.56 C-68.15 93.27 -68.15 93.27 -76.25 93.56 C-81.44 93.21 -84.36 91.87 -87.81 87.94 C-89.59 83.54 -89.86 79.67 -89 75 C-86.3 69.48 -81.64 65.6 -77 61.71 C-75.07 60.06 -73.28 58.32 -71.5 56.5 C-68.46 53.41 -65.25 50.58 -61.97 47.75 C-60.07 46.06 -58.28 44.31 -56.5 42.5 C-54.13 40.09 -51.69 37.83 -49.12 35.62 C-46.12 33.03 -43.29 30.33 -40.5 27.5 C-37.26 24.22 -33.94 21.15 -30.45 18.16 C-28.36 16.32 -26.33 14.44 -24.3 12.52 C-23.64 11.89 -22.97 11.27 -22.29 10.62 C-20.95 9.35 -19.61 8.08 -18.28 6.8 C-17.66 6.21 -17.03 5.62 -16.39 5.01 C-15.56 4.21 -15.56 4.21 -14.7 3.4 C-10.11 -0.38 -5.75 -0.66 0 0 Z " fill="#020202" transform="translate(693,280)"/>
<path d="M0 0 C5.14 2.46 8.78 6.68 12.71 10.71 C14.72 12.72 16.77 14.59 18.94 16.44 C23.03 19.94 26.77 23.76 30.56 27.59 C33.27 30.27 36.11 32.75 39 35.22 C42.07 37.95 44.9 40.89 47.78 43.81 C49.79 45.8 51.85 47.66 54 49.5 C57.79 52.75 61.26 56.24 64.76 59.8 C66.88 61.88 69.06 63.82 71.31 65.75 C76.54 70.31 79.67 73.6 80.16 80.72 C79.82 85.56 77.43 88.7 73.88 91.94 C69.63 93.51 65.46 93.85 61 93 C56.55 90.47 53.17 87.36 49.62 83.69 C46.52 80.5 43.4 77.39 40 74.5 C36.15 71.22 32.62 67.65 29.07 64.05 C25.85 60.8 22.51 57.78 19.03 54.81 C16.59 52.63 14.3 50.33 12 48 C9.17 45.13 6.33 42.36 3.25 39.75 C-0.76 36.3 -4.54 32.64 -8.31 28.94 C-8.92 28.35 -9.54 27.76 -10.17 27.15 C-14.13 23.22 -17.69 19.45 -18.21 13.62 C-17.59 8.67 -16.77 5.56 -13 2 C-8.73 -0.53 -4.85 -0.66 0 0 Z " fill="#020202" transform="translate(340,280)"/>
<path d="M0 0 C4.5 2.25 6.89 4.47 9 9 C9.44 12.04 9.42 15.04 9.4 18.1 C9.41 19.01 9.42 19.92 9.42 20.85 C9.44 23.85 9.44 26.84 9.43 29.84 C9.44 31.93 9.44 34.01 9.45 36.1 C9.46 40.47 9.46 44.84 9.45 49.21 C9.43 54.81 9.45 60.4 9.48 66 C9.5 70.31 9.5 74.61 9.5 78.92 C9.5 80.98 9.5 83.05 9.51 85.11 C9.53 88 9.52 90.88 9.5 93.77 C9.51 94.62 9.52 95.47 9.53 96.34 C9.46 101.7 8.54 104.73 5 109 C1.27 112.2 -2.11 112.47 -6.85 112.29 C-10.91 111.75 -13.11 110.12 -15.61 106.97 C-17.55 102.84 -17.44 99.23 -17.42 94.72 C-17.43 93.79 -17.44 92.86 -17.45 91.9 C-17.47 88.84 -17.47 85.78 -17.47 82.72 C-17.48 80.59 -17.48 78.46 -17.49 76.33 C-17.51 71.87 -17.51 67.4 -17.5 62.94 C-17.5 57.22 -17.53 51.5 -17.57 45.78 C-17.59 41.38 -17.59 36.98 -17.59 32.58 C-17.59 30.48 -17.6 28.37 -17.62 26.26 C-17.64 23.31 -17.63 20.36 -17.62 17.41 C-17.63 16.55 -17.64 15.68 -17.66 14.78 C-17.6 10.6 -17.32 7.86 -14.65 4.54 C-9.8 -0.11 -6.5 -0.9 0 0 Z " fill="#000000" transform="translate(516,213)"/>
<path d="M0 0 C4.86 3.45 7.4 6.87 9.88 12.3 C10.22 13 10.55 13.7 10.9 14.42 C11.59 15.89 12.29 17.35 12.97 18.82 C14.27 21.57 15.61 24.3 16.95 27.03 C20.37 33.97 23.73 40.95 27.08 47.92 C29.13 52.2 31.2 56.46 33.29 60.71 C34.22 62.64 35.14 64.57 36.06 66.5 C36.49 67.35 36.91 68.19 37.35 69.06 C39.94 74.59 40.68 79.04 39 85 C36.9 88.29 35.25 89.83 32 92 C29.51 92.37 29.51 92.37 26.69 92.44 C25.3 92.5 25.3 92.5 23.89 92.56 C20.01 91.81 17.67 89.79 15 87 C13.55 84.6 12.35 82.38 11.19 79.84 C10.86 79.15 10.53 78.45 10.19 77.74 C9.48 76.26 8.78 74.77 8.08 73.28 C6.64 70.24 5.15 67.23 3.66 64.21 C2.13 61.1 0.61 57.98 -0.91 54.86 C-1.68 53.29 -2.45 51.71 -3.22 50.14 C-7.25 41.92 -11.23 33.68 -15 25.34 C-15.29 24.72 -15.58 24.09 -15.88 23.45 C-18.31 17.96 -19.89 12.57 -17.88 6.75 C-13.29 0.02 -7.99 -1.78 0 0 Z " fill="#020202" transform="translate(420,233)"/>
<path d="M0 0 C3.29 2.1 4.83 3.75 7 7 C8.37 14.89 5.78 20.76 2.19 27.62 C1.1 29.8 0.01 31.98 -1.08 34.15 C-1.38 34.75 -1.68 35.34 -1.99 35.95 C-4.71 41.36 -7.31 46.83 -9.89 52.32 C-10.31 53.21 -10.73 54.11 -11.16 55.03 C-12.86 58.64 -14.56 62.26 -16.26 65.88 C-17.46 68.43 -18.67 70.99 -19.88 73.54 C-20.23 74.31 -20.59 75.07 -20.96 75.86 C-27 88.61 -27 88.61 -33 92 C-37.63 92.68 -41.61 92.59 -45.94 90.75 C-48.7 88.41 -50.66 86.35 -51.56 82.78 C-51.96 73.25 -47.56 65.77 -43.31 57.56 C-42.14 55.24 -40.97 52.91 -39.81 50.58 C-39.02 49.01 -38.23 47.45 -37.44 45.88 C-34.92 40.89 -32.51 35.88 -30.19 30.8 C-29.9 30.16 -29.61 29.53 -29.31 28.87 C-27.96 25.91 -26.62 22.94 -25.29 19.97 C-18.21 4.42 -18.21 4.42 -12.19 -0.12 C-7.87 -1.31 -4.31 -1.18 0 0 Z " fill="#020202" transform="translate(615,233)"/>
<path d="M0 0 C3.42 2.33 4.95 4.13 6.75 7.88 C7.58 12.62 7.22 15.93 5.06 20.25 C2.04 23.68 0.03 25.53 -4.58 26.23 C-8.97 26.48 -12.23 26.43 -15.75 23.62 C-19.77 19.2 -20.71 16.01 -20.57 10.12 C-19.92 5.56 -17.43 2.86 -14 0 C-9.04 -2.03 -4.93 -1.71 0 0 Z " fill="#030200" transform="translate(247.25,519.125)"/>
<path d="M0 0 C4.38 2.19 7.13 4.43 9 9 C9.72 15.4 8.78 18.79 5 24 C1.29 27.38 -2.64 27.62 -7.49 27.49 C-11.67 26.67 -14.39 24.28 -17 21 C-18.36 16.93 -18.52 13.26 -18 9 C-14.06 1.12 -8.5 -1.35 0 0 Z " fill="#050301" transform="translate(339,518)"/>
<path d="M0 0 C4.38 2.19 7.17 4.42 9 9 C9.71 13.74 9.47 17.06 7.31 21.38 C4.29 24.8 2.28 26.66 -2.33 27.35 C-6.68 27.6 -9.98 27.55 -13.5 24.81 C-16.89 21 -17.82 18.65 -18.38 13.62 C-17.82 8.23 -15.96 4.73 -11.81 1.06 C-7.79 -0.46 -4.24 -0.67 0 0 Z " fill="#050301" transform="translate(685,518)"/>
<path d="M0 0 C4.7 2.03 7.72 5.44 10 10 C10.6 16.1 9.46 19.14 6 24 C2.29 27.38 -1.64 27.62 -6.49 27.49 C-10.67 26.67 -13.39 24.28 -16 21 C-17.36 16.93 -17.52 13.26 -17 9 C-13.26 1.52 -8.13 -1.21 0 0 Z " fill="#050301" transform="translate(780,518)"/>
<path d="M0 0 C3.21 2.69 5.36 4.61 6.19 8.8 C6.3 13.89 6.22 17.36 2.88 21.38 C-0.27 24.62 -3.17 25.42 -7.62 25.56 C-12.22 25.51 -14.8 24.33 -18.31 21.25 C-21.23 16.61 -21.07 11.54 -20.31 6.25 C-18.71 3.01 -16.37 1.06 -13.5 -1.12 C-8.35 -2.6 -4.65 -2.46 0 0 Z " fill="#040101" transform="translate(562.3125,519.75)"/>
<path d="M0 0 C3.23 2.7 5.39 4.61 6.16 8.84 C6.25 17.3 6.25 17.3 3.44 20.81 C-1.01 24.76 -4.2 25.71 -10.06 25.57 C-13.58 25.07 -15.68 23.56 -18.31 21.25 C-21.23 16.61 -21.07 11.54 -20.31 6.25 C-18.71 3.01 -16.37 1.06 -13.5 -1.12 C-8.35 -2.6 -4.65 -2.46 0 0 Z " fill="#040101" transform="translate(465.3125,519.75)"/>
<path d="M0 0 C1.5 1.38 1.5 1.38 3 3 C3 3.66 3 4.32 3 5 C-56.07 5 -115.14 5 -176 5 C-176.33 4.34 -176.66 3.68 -177 3 C-118.59 3 -60.18 3 0 3 C0 2.01 0 1.02 0 0 Z " fill="#CAA853" transform="translate(368,643)"/>
<path d="M0 0 C1.85 0.7 1.85 0.7 3.73 1.41 C10.54 3.98 15.9 5.17 23.19 5.14 C23.87 5.14 24.55 5.13 25.25 5.13 C27.41 5.13 29.57 5.11 31.73 5.1 C33.2 5.1 34.67 5.09 36.14 5.09 C39.73 5.08 43.33 5.06 46.92 5.04 C46.92 5.7 46.92 6.36 46.92 7.04 C34.2 13.4 10 6.96 -2.7 2.84 C-3.48 2.58 -4.27 2.31 -5.08 2.04 C-5.08 1.38 -5.08 0.72 -5.08 0.04 C-3.08 -0.96 -3.08 -0.96 0 0 Z " fill="#E1B95B" transform="translate(259.08203125,511.9609375)"/>
<path d="M0 0 C0 3 0 3 -1.57 4.87 C-2.27 5.53 -2.97 6.19 -3.69 6.88 C-4.42 7.58 -5.14 8.28 -5.89 9 C-6.59 9.66 -7.28 10.32 -8 11 C-10.63 13.55 -12.95 15.93 -15 19 C-17.62 20.19 -17.62 20.19 -20 21 C-16.9 14.1 -10.44 9.4 -4.8 4.58 C-3.13 3.11 -1.55 1.59 0 0 Z " fill="#E8EEEC" transform="translate(691,309)"/>
<path d="M0 0 C0 0.66 0 1.32 0 2 C-2.55 3.27 -4.16 3.03 -7.01 2.88 C-7.99 2.83 -8.98 2.78 -10 2.73 C-11.54 2.65 -11.54 2.65 -13.12 2.56 C-14.17 2.51 -15.21 2.46 -16.28 2.4 C-18.85 2.27 -21.43 2.14 -24 2 C-24 1.67 -24 1.34 -24 1 C-20.75 0.83 -17.5 0.67 -14.25 0.5 C-13.33 0.45 -12.41 0.4 -11.46 0.36 C-10.13 0.29 -10.13 0.29 -8.77 0.22 C-7.95 0.18 -7.13 0.13 -6.29 0.09 C-4.19 0.01 -2.1 0 0 0 Z " fill="#BA994C" transform="translate(306,517)"/>
<path d="M0 0 C2.53 2.36 3.89 3.66 5 7 C3.68 7 2.36 7 1 7 C1 6.34 1 5.68 1 5 C-0.32 4.67 -1.64 4.34 -3 4 C-2.01 2.68 -1.02 1.36 0 0 Z " fill="#D4B055" transform="translate(221,480)"/>
<path d="M0 0 C2.96 1.37 5.64 2.73 8 5 C8.25 7.69 8.25 7.69 8 10 C4.71 6.89 2.16 3.98 0 0 Z " fill="#EAEAEC" transform="translate(841,489)"/>
<path d="M0 0 C0.33 0.99 0.66 1.98 1 3 C-1.97 5.31 -4.94 7.62 -8 10 C-8 7 -8 7 -6.25 5.18 C-5.51 4.56 -4.76 3.95 -4 3.31 C-3.26 2.69 -2.51 2.07 -1.75 1.43 C-1.17 0.96 -0.6 0.48 0 0 Z " fill="#E5EAE9" transform="translate(929,722)"/>
<path d="M0 0 C0.33 1.32 0.66 2.64 1 4 C-0.19 5.81 -0.19 5.81 -2 7 C-3.32 6.67 -4.64 6.34 -6 6 C-4.02 4.02 -2.04 2.04 0 0 Z " fill="#D7DBDC" transform="translate(108,611)"/>
<path d="M0 0 C0.66 0 1.32 0 2 0 C1.65 3.26 0.98 4.02 -1.56 6.25 C-2.37 6.83 -3.17 7.4 -4 8 C-4 6.68 -4 5.36 -4 4 C-3.34 4 -2.68 4 -2 4 C-1.67 3.01 -1.34 2.02 -1 1 C-0.67 0.67 -0.34 0.34 0 0 Z " fill="#D6D6D6" transform="translate(916,694)"/>
<path d="M0 0 C0.33 0.99 0.66 1.98 1 3 C-0.32 4.32 -1.64 5.64 -3 7 C-3.99 6.67 -4.98 6.34 -6 6 C-2.25 1.12 -2.25 1.12 0 0 Z " fill="#161616" transform="translate(602,234)"/>
<path d="M0 0 C0.66 0.33 1.32 0.66 2 1 C0.52 7.65 0.52 7.65 -2.12 9.44 C-2.74 9.62 -3.36 9.81 -4 10 C-2.89 6.51 -1.74 3.23 0 0 Z " fill="#E3E5E2" transform="translate(602,290)"/>
<path d="M0 0 C0 0.99 0 1.98 0 3 C-1.53 4.39 -1.53 4.39 -3.5 5.69 C-4.47 6.34 -4.47 6.34 -5.47 7.01 C-5.97 7.34 -6.48 7.66 -7 8 C-7 7.01 -7 6.02 -7 5 C-5.47 3.61 -5.47 3.61 -3.5 2.31 C-2.85 1.88 -2.2 1.44 -1.53 0.99 C-1.03 0.66 -0.52 0.34 0 0 Z " fill="#191C1C" transform="translate(116,603)"/>
<path d="M0 0 C0.66 0.33 1.32 0.66 2 1 C-0.97 4.96 -0.97 4.96 -4 9 C-4.33 8.34 -4.66 7.68 -5 7 C-1.12 1.12 -1.12 1.12 0 0 Z " fill="#221605" transform="translate(232,520)"/>
<path d="M0 0 C0.66 0.33 1.32 0.66 2 1 C0.35 2.98 -1.3 4.96 -3 7 C-3.99 6.67 -4.98 6.34 -6 6 C-4.02 4.02 -2.04 2.04 0 0 Z " fill="#222122" transform="translate(668,435)"/>
</svg>
