<?xml version="1.0" encoding="UTF-8"?>
<svg xmlns="http://www.w3.org/2000/svg" xmlns:xlink="http://www.w3.org/1999/xlink" width="72px" height="72px" viewBox="0 0 72 72" version="1.1">
<g id="surface1">
<!-- <path style=" stroke:none;fill-rule:nonzero;fill:rgb(99.215686%,99.215686%,99.215686%);fill-opacity:1;" d="M 0 0 C 23.761719 0 47.519531 0 72 0 C 72 23.761719 72 47.519531 72 72 C 48.238281 72 24.480469 72 0 72 C 0 48.238281 0 24.480469 0 0 Z M 0 0 "/> -->
<path style=" stroke:none;fill-rule:nonzero;fill:rgb(0.784314%,0.784314%,0.392157%);fill-opacity:1;" d="M 22.5 28.757812 C 22.984375 29.09375 23.433594 29.457031 23.867188 29.859375 C 24.011719 29.992188 24.15625 30.117188 24.304688 30.246094 C 24.65625 30.554688 24.988281 30.882812 25.316406 31.214844 C 25.378906 31.273438 25.4375 31.335938 25.5 31.398438 C 25.8125 31.707031 26.113281 32.027344 26.402344 32.359375 C 26.546875 32.53125 26.699219 32.695312 26.851562 32.859375 C 27.800781 33.902344 27.800781 33.902344 27.914062 34.242188 C 27.960938 34.242188 28.007812 34.242188 28.054688 34.242188 C 28.074219 34.199219 28.09375 34.160156 28.113281 34.117188 C 28.199219 33.957031 28.289062 33.839844 28.410156 33.707031 C 28.453125 33.65625 28.496094 33.609375 28.542969 33.558594 C 28.613281 33.480469 28.613281 33.480469 28.6875 33.398438 C 28.738281 33.339844 28.789062 33.285156 28.84375 33.226562 C 28.953125 33.105469 29.058594 32.988281 29.167969 32.867188 C 29.300781 32.71875 29.429688 32.566406 29.5625 32.414062 C 29.8125 32.125 30.082031 31.859375 30.355469 31.59375 C 30.480469 31.46875 30.589844 31.34375 30.699219 31.207031 C 30.878906 30.992188 31.074219 30.824219 31.285156 30.644531 C 31.425781 30.519531 31.554688 30.386719 31.683594 30.25 C 32.730469 29.195312 34.289062 28.019531 35.785156 27.804688 C 37.679688 27.847656 39.542969 30.046875 40.773438 31.273438 C 40.808594 31.304688 40.84375 31.339844 40.878906 31.375 C 41.242188 31.742188 41.601562 32.109375 41.9375 32.5 C 42.109375 32.699219 42.289062 32.890625 42.46875 33.082031 C 42.960938 33.613281 42.960938 33.613281 43.183594 33.863281 C 43.222656 33.90625 43.257812 33.949219 43.296875 33.988281 C 43.382812 34.101562 43.382812 34.101562 43.453125 34.3125 C 43.714844 34.054688 43.96875 33.789062 44.21875 33.515625 C 44.273438 33.457031 44.273438 33.457031 44.332031 33.394531 C 44.527344 33.179688 44.722656 32.964844 44.914062 32.742188 C 45.117188 32.503906 45.339844 32.285156 45.566406 32.0625 C 45.695312 31.929688 45.816406 31.792969 45.9375 31.652344 C 46.375 31.144531 46.859375 30.664062 47.371094 30.230469 C 47.5 30.121094 47.625 30.011719 47.746094 29.902344 C 48.6875 29.070312 50.050781 27.914062 51.359375 27.832031 C 53.285156 28.019531 54.898438 29.785156 56.195312 31.082031 C 56.308594 31.199219 56.421875 31.3125 56.535156 31.425781 C 56.925781 31.8125 57.300781 32.207031 57.65625 32.625 C 57.757812 32.738281 57.859375 32.851562 57.964844 32.964844 C 58.234375 33.261719 58.492188 33.570312 58.746094 33.882812 C 58.875 34.042969 59.003906 34.199219 59.132812 34.355469 C 61.335938 37.023438 61.335938 37.023438 61.328125 38.074219 C 61.324219 38.15625 61.324219 38.242188 61.324219 38.328125 C 61.324219 38.414062 61.324219 38.503906 61.320312 38.59375 C 61.320312 38.683594 61.320312 38.769531 61.320312 38.863281 C 61.316406 39.078125 61.316406 39.296875 61.3125 39.515625 C 61.382812 39.523438 61.453125 39.53125 61.523438 39.539062 C 61.816406 39.582031 62.085938 39.667969 62.363281 39.765625 C 62.414062 39.785156 62.464844 39.804688 62.519531 39.820312 C 64.484375 40.546875 66.1875 41.792969 67.128906 43.699219 C 67.785156 45.15625 67.816406 46.652344 67.265625 48.152344 C 66.96875 48.871094 66.601562 49.472656 66.09375 50.0625 C 66.042969 50.121094 65.996094 50.179688 65.945312 50.242188 C 62.523438 54.199219 55.785156 54.988281 50.90625 55.6875 C 50.859375 55.695312 50.808594 55.703125 50.761719 55.707031 C 49.144531 55.941406 47.519531 56.097656 45.894531 56.234375 C 45.769531 56.246094 45.644531 56.253906 45.523438 56.265625 C 39.679688 56.765625 33.605469 56.886719 27.566406 56.351562 C 27.226562 56.320312 26.882812 56.304688 26.539062 56.289062 C 23.71875 56.160156 20.835938 55.8125 18.074219 55.238281 C 17.835938 55.191406 17.59375 55.144531 17.355469 55.101562 C 13.207031 54.3125 7.835938 53.144531 5.296875 49.417969 C 4.996094 48.953125 4.75 48.480469 4.570312 47.953125 C 4.542969 47.878906 4.515625 47.800781 4.488281 47.722656 C 4.039062 46.316406 4.214844 44.78125 4.859375 43.464844 C 5.144531 42.914062 5.484375 42.433594 5.90625 41.976562 C 5.949219 41.929688 5.992188 41.878906 6.035156 41.828125 C 7.035156 40.757812 8.523438 40 9.914062 39.585938 C 10.007812 39.585938 10.101562 39.585938 10.195312 39.585938 C 10.191406 39.53125 10.191406 39.476562 10.1875 39.417969 C 10.179688 39.164062 10.175781 38.910156 10.167969 38.65625 C 10.164062 38.566406 10.160156 38.480469 10.15625 38.390625 C 10.144531 37.507812 10.480469 36.898438 11.015625 36.21875 C 11.054688 36.171875 11.089844 36.125 11.125 36.078125 C 11.238281 35.933594 11.347656 35.792969 11.460938 35.648438 C 11.527344 35.5625 11.59375 35.476562 11.660156 35.390625 C 12.0625 34.871094 12.480469 34.367188 12.90625 33.867188 C 13.011719 33.742188 13.121094 33.617188 13.226562 33.492188 C 13.867188 32.734375 13.867188 32.734375 14.226562 32.390625 C 14.34375 32.273438 14.449219 32.152344 14.558594 32.027344 C 14.855469 31.683594 15.171875 31.363281 15.492188 31.042969 C 15.589844 30.941406 15.691406 30.84375 15.789062 30.742188 C 16.167969 30.359375 16.558594 30.007812 16.980469 29.671875 C 17.160156 29.527344 17.335938 29.375 17.507812 29.222656 C 19.253906 27.796875 20.589844 27.535156 22.5 28.757812 Z M 22.5 28.757812 "/>
<path style=" stroke:none;fill-rule:nonzero;fill:rgb(92.941176%,93.333333%,94.117647%);fill-opacity:1;" d="M 61.3125 41.484375 C 61.816406 41.609375 62.28125 41.761719 62.75 41.984375 C 62.835938 42.027344 62.835938 42.027344 62.925781 42.070312 C 63.417969 42.3125 63.847656 42.597656 64.265625 42.960938 C 64.320312 43.007812 64.371094 43.050781 64.425781 43.097656 C 65.082031 43.710938 65.726562 44.722656 65.761719 45.644531 C 65.800781 47.070312 65.378906 48.121094 64.390625 49.171875 C 62.46875 51.027344 59.742188 51.816406 57.234375 52.523438 C 57.136719 52.550781 57.136719 52.550781 57.035156 52.582031 C 55.714844 52.960938 54.367188 53.199219 53.015625 53.4375 C 52.957031 53.449219 52.898438 53.457031 52.839844 53.46875 C 49.503906 54.058594 46.132812 54.390625 42.75 54.550781 C 42.539062 54.5625 42.328125 54.574219 42.117188 54.585938 C 36.320312 54.882812 30.421875 54.859375 24.648438 54.230469 C 24.460938 54.210938 24.273438 54.191406 24.082031 54.171875 C 11.363281 52.851562 11.363281 52.851562 7.453125 49.078125 C 7.402344 49.03125 7.355469 48.984375 7.304688 48.9375 C 6.578125 48.191406 6.136719 47.113281 6.101562 46.082031 C 6.117188 44.964844 6.621094 43.972656 7.382812 43.171875 C 8.050781 42.542969 9.152344 41.625 10.125 41.625 C 10.128906 41.726562 10.128906 41.726562 10.128906 41.832031 C 10.136719 42.089844 10.140625 42.351562 10.148438 42.609375 C 10.148438 42.71875 10.152344 42.832031 10.15625 42.941406 C 10.183594 44.273438 10.386719 45.515625 11.390625 46.484375 C 12.085938 47.074219 12.941406 47.414062 13.851562 47.410156 C 13.90625 47.410156 13.960938 47.410156 14.015625 47.410156 C 14.195312 47.410156 14.375 47.410156 14.550781 47.410156 C 14.679688 47.410156 14.808594 47.410156 14.9375 47.414062 C 15.289062 47.414062 15.636719 47.414062 15.984375 47.414062 C 16.203125 47.414062 16.421875 47.414062 16.640625 47.414062 C 17.402344 47.414062 18.164062 47.417969 18.929688 47.417969 C 19.636719 47.417969 20.347656 47.417969 21.058594 47.421875 C 21.667969 47.421875 22.277344 47.421875 22.886719 47.421875 C 23.253906 47.421875 23.617188 47.421875 23.980469 47.425781 C 24.324219 47.425781 24.664062 47.425781 25.007812 47.425781 C 25.132812 47.425781 25.257812 47.425781 25.382812 47.425781 C 26.121094 47.429688 26.726562 47.375 27.421875 47.109375 C 27.683594 47.023438 27.753906 47.070312 28.007812 47.171875 C 28.460938 47.351562 28.878906 47.402344 29.367188 47.402344 C 29.421875 47.402344 29.476562 47.402344 29.53125 47.402344 C 29.707031 47.402344 29.882812 47.402344 30.0625 47.402344 C 30.1875 47.402344 30.316406 47.402344 30.441406 47.402344 C 30.789062 47.402344 31.132812 47.40625 31.480469 47.40625 C 31.695312 47.40625 31.910156 47.40625 32.128906 47.40625 C 32.804688 47.40625 33.484375 47.40625 34.160156 47.40625 C 34.941406 47.40625 35.71875 47.410156 36.5 47.410156 C 37.105469 47.414062 37.707031 47.414062 38.3125 47.414062 C 38.671875 47.414062 39.03125 47.414062 39.394531 47.414062 C 39.730469 47.414062 40.070312 47.417969 40.410156 47.414062 C 40.535156 47.414062 40.660156 47.414062 40.78125 47.417969 C 41.59375 47.421875 42.34375 47.375 43.117188 47.097656 C 43.359375 47.023438 43.441406 47.058594 43.664062 47.167969 C 44.101562 47.371094 44.515625 47.402344 44.996094 47.402344 C 45.078125 47.402344 45.078125 47.402344 45.160156 47.402344 C 45.34375 47.402344 45.527344 47.402344 45.710938 47.402344 C 45.839844 47.402344 45.972656 47.402344 46.105469 47.402344 C 46.460938 47.402344 46.820312 47.40625 47.175781 47.40625 C 47.398438 47.40625 47.621094 47.40625 47.847656 47.40625 C 48.546875 47.40625 49.246094 47.40625 49.945312 47.40625 C 50.75 47.40625 51.558594 47.410156 52.363281 47.410156 C 52.988281 47.414062 53.613281 47.414062 54.238281 47.414062 C 54.609375 47.414062 54.980469 47.414062 55.351562 47.414062 C 55.703125 47.414062 56.054688 47.417969 56.40625 47.414062 C 56.535156 47.414062 56.660156 47.414062 56.789062 47.417969 C 58.097656 47.421875 59.257812 47.242188 60.242188 46.300781 C 60.792969 45.6875 61.238281 44.847656 61.257812 44.007812 C 61.257812 43.949219 61.257812 43.894531 61.261719 43.835938 C 61.261719 43.777344 61.261719 43.714844 61.265625 43.652344 C 61.265625 43.59375 61.265625 43.53125 61.269531 43.464844 C 61.273438 43.269531 61.277344 43.070312 61.28125 42.875 C 61.285156 42.738281 61.289062 42.605469 61.289062 42.46875 C 61.296875 42.140625 61.304688 41.8125 61.3125 41.484375 Z M 61.3125 41.484375 "/>
<path style=" stroke:none;fill-rule:nonzero;fill:rgb(83.529412%,37.647059%,39.215686%);fill-opacity:1;" d="M 30.9375 33.75 C 31.183594 33.992188 31.417969 34.246094 31.644531 34.507812 C 32.535156 35.488281 33.785156 36.277344 35.132812 36.363281 C 36.65625 36.433594 38.011719 36.183594 39.207031 35.167969 C 39.792969 34.636719 39.792969 34.636719 40.289062 34.023438 C 40.335938 33.957031 40.382812 33.890625 40.429688 33.820312 C 40.476562 33.820312 40.523438 33.820312 40.570312 33.820312 C 40.667969 33.929688 40.761719 34.042969 40.851562 34.160156 C 41.136719 34.515625 41.433594 34.851562 41.746094 35.183594 C 41.996094 35.46875 42.1875 35.75 42.304688 36.109375 C 42.460938 36.519531 42.703125 36.851562 42.960938 37.203125 C 43.585938 38.09375 43.382812 39.34375 43.382812 40.359375 C 38.140625 40.359375 32.894531 40.359375 27.492188 40.359375 C 27.492188 37.636719 27.492188 37.636719 28.277344 36.839844 C 28.449219 36.65625 28.601562 36.464844 28.753906 36.265625 C 28.9375 36.03125 29.128906 35.804688 29.320312 35.578125 C 29.355469 35.535156 29.394531 35.492188 29.429688 35.449219 C 29.917969 34.867188 30.421875 34.304688 30.9375 33.75 Z M 30.9375 33.75 "/>
<path style=" stroke:none;fill-rule:nonzero;fill:rgb(92.941176%,74.117647%,30.196078%);fill-opacity:1;" d="M 46.546875 33.75 C 46.59375 33.75 46.640625 33.75 46.6875 33.75 C 46.769531 33.847656 46.769531 33.847656 46.867188 33.988281 C 47.75 35.195312 48.929688 36.066406 50.414062 36.351562 C 50.722656 36.378906 51.027344 36.378906 51.335938 36.375 C 51.414062 36.375 51.492188 36.375 51.574219 36.375 C 52.976562 36.363281 54.175781 35.820312 55.167969 34.835938 C 55.375 34.625 55.574219 34.402344 55.769531 34.179688 C 55.878906 34.054688 55.992188 33.9375 56.109375 33.820312 C 56.648438 34.390625 57.171875 34.960938 57.65625 35.578125 C 57.714844 35.652344 57.773438 35.726562 57.835938 35.800781 C 59.171875 37.472656 59.484375 37.949219 59.484375 40.359375 C 54.773438 40.359375 50.0625 40.359375 45.210938 40.359375 C 45.070312 39.792969 44.96875 39.316406 44.933594 38.75 C 44.886719 37.722656 44.886719 37.722656 44.4375 36.84375 C 44.382812 36.578125 44.378906 36.320312 44.511719 36.074219 C 44.613281 35.945312 44.722656 35.824219 44.84375 35.707031 C 44.925781 35.613281 45.011719 35.523438 45.09375 35.433594 C 45.136719 35.386719 45.179688 35.339844 45.222656 35.292969 C 45.425781 35.078125 45.617188 34.851562 45.808594 34.625 C 45.90625 34.511719 46.003906 34.394531 46.101562 34.28125 C 46.167969 34.207031 46.230469 34.128906 46.292969 34.050781 C 46.375 33.949219 46.460938 33.847656 46.546875 33.75 Z M 46.546875 33.75 "/>
<path style=" stroke:none;fill-rule:nonzero;fill:rgb(92.941176%,74.509804%,30.588235%);fill-opacity:1;" d="M 15.539062 33.75 C 15.75 33.953125 15.933594 34.167969 16.113281 34.398438 C 16.917969 35.382812 18.066406 36.136719 19.335938 36.351562 C 21.03125 36.457031 22.523438 36.273438 23.859375 35.125 C 24.136719 34.859375 24.394531 34.578125 24.652344 34.292969 C 24.796875 34.128906 24.945312 33.972656 25.101562 33.820312 C 25.492188 34.238281 25.871094 34.664062 26.226562 35.113281 C 26.257812 35.152344 26.292969 35.195312 26.328125 35.238281 C 26.675781 35.679688 26.675781 35.679688 26.71875 35.929688 C 26.605469 36.132812 26.605469 36.132812 26.429688 36.34375 C 26.367188 36.417969 26.308594 36.492188 26.25 36.566406 C 26.195312 36.636719 26.140625 36.703125 26.085938 36.773438 C 25.371094 37.804688 25.625 39.1875 25.59375 40.359375 C 21.117188 40.359375 16.636719 40.359375 12.023438 40.359375 C 12.023438 37.929688 12.023438 37.929688 13.117188 36.621094 C 13.195312 36.523438 13.277344 36.425781 13.355469 36.332031 C 13.390625 36.285156 13.429688 36.242188 13.46875 36.195312 C 13.597656 36.035156 13.726562 35.871094 13.855469 35.710938 C 14.394531 35.035156 14.964844 34.390625 15.539062 33.75 Z M 15.539062 33.75 "/>
<path style=" stroke:none;fill-rule:nonzero;fill:rgb(93.333333%,74.509804%,30.588235%);fill-opacity:1;" d="M 27.492188 42.257812 C 32.734375 42.257812 37.980469 42.257812 43.382812 42.257812 C 43.382812 44.496094 43.382812 44.496094 42.761719 45.136719 C 42.355469 45.488281 41.878906 45.59375 41.351562 45.589844 C 41.300781 45.589844 41.246094 45.589844 41.191406 45.589844 C 41.015625 45.59375 40.839844 45.589844 40.664062 45.589844 C 40.539062 45.589844 40.414062 45.59375 40.285156 45.59375 C 39.945312 45.59375 39.601562 45.59375 39.257812 45.59375 C 38.972656 45.59375 38.6875 45.59375 38.402344 45.59375 C 37.726562 45.59375 37.050781 45.59375 36.375 45.59375 C 35.679688 45.59375 34.984375 45.59375 34.289062 45.597656 C 33.691406 45.597656 33.089844 45.597656 32.492188 45.597656 C 32.136719 45.597656 31.777344 45.597656 31.421875 45.597656 C 31.085938 45.601562 30.75 45.601562 30.414062 45.597656 C 30.292969 45.597656 30.167969 45.597656 30.046875 45.597656 C 29.324219 45.601562 28.691406 45.585938 28.082031 45.152344 C 28.039062 45.105469 27.996094 45.0625 27.953125 45.015625 C 27.890625 44.953125 27.890625 44.953125 27.820312 44.886719 C 27.25 44.078125 27.492188 43.265625 27.492188 42.257812 Z M 27.492188 42.257812 "/>
<path style=" stroke:none;fill-rule:nonzero;fill:rgb(92.941176%,74.509804%,30.588235%);fill-opacity:1;" d="M 45.28125 42.257812 C 49.96875 42.257812 54.65625 42.257812 59.484375 42.257812 C 59.484375 44.417969 59.484375 44.417969 58.851562 45.09375 C 58.390625 45.480469 57.851562 45.574219 57.269531 45.570312 C 57.1875 45.570312 57.1875 45.570312 57.109375 45.570312 C 56.929688 45.570312 56.75 45.570312 56.570312 45.570312 C 56.441406 45.570312 56.316406 45.570312 56.1875 45.570312 C 55.839844 45.570312 55.488281 45.570312 55.140625 45.570312 C 54.777344 45.570312 54.414062 45.570312 54.050781 45.570312 C 53.363281 45.570312 52.671875 45.566406 51.984375 45.566406 C 51.199219 45.566406 50.414062 45.566406 49.628906 45.566406 C 48.015625 45.566406 46.402344 45.5625 44.789062 45.5625 C 44.859375 45.355469 44.859375 45.355469 44.929688 45.140625 C 45.300781 44.070312 45.300781 44.070312 45.28125 42.257812 Z M 45.28125 42.257812 "/>
<path style=" stroke:none;fill-rule:nonzero;fill:rgb(93.72549%,74.901961%,30.588235%);fill-opacity:1;" d="M 12.023438 42.257812 C 16.5 42.257812 20.980469 42.257812 25.59375 42.257812 C 25.617188 42.859375 25.640625 43.464844 25.664062 44.085938 C 25.75 44.582031 25.839844 44.988281 26.085938 45.421875 C 26.085938 45.46875 26.085938 45.515625 26.085938 45.5625 C 24.457031 45.570312 22.824219 45.574219 21.195312 45.578125 C 20.4375 45.578125 19.683594 45.582031 18.925781 45.582031 C 18.265625 45.585938 17.605469 45.589844 16.945312 45.589844 C 16.597656 45.589844 16.246094 45.589844 15.898438 45.59375 C 15.570312 45.59375 15.238281 45.59375 14.910156 45.59375 C 14.789062 45.59375 14.671875 45.59375 14.550781 45.597656 C 13.742188 45.601562 13.101562 45.546875 12.480469 44.980469 C 11.808594 44.214844 12.023438 43.230469 12.023438 42.257812 Z M 12.023438 42.257812 "/>
<path style=" stroke:none;fill-rule:nonzero;fill:rgb(83.137255%,37.647059%,39.215686%);fill-opacity:1;" d="M 20.671875 29.882812 C 21.855469 30.460938 22.855469 31.480469 23.765625 32.414062 C 23.046875 33.421875 22.230469 34.308594 20.953125 34.523438 C 20.21875 34.59375 19.511719 34.589844 18.84375 34.242188 C 18.785156 34.210938 18.722656 34.179688 18.660156 34.148438 C 17.914062 33.726562 17.433594 33.175781 16.945312 32.484375 C 17.183594 31.957031 17.707031 31.585938 18.140625 31.21875 C 18.234375 31.136719 18.234375 31.136719 18.332031 31.050781 C 18.828125 30.625 19.332031 30.273438 19.898438 29.953125 C 19.964844 29.910156 19.964844 29.910156 20.035156 29.863281 C 20.265625 29.78125 20.4375 29.828125 20.671875 29.882812 Z M 20.671875 29.882812 "/>
<path style=" stroke:none;fill-rule:nonzero;fill:rgb(41.176471%,55.686275%,28.627451%);fill-opacity:1;" d="M 36.269531 29.976562 C 37.371094 30.628906 38.269531 31.507812 39.164062 32.414062 C 38.761719 33.308594 37.886719 34.035156 36.984375 34.382812 C 36.011719 34.671875 35.039062 34.601562 34.128906 34.152344 C 33.394531 33.742188 32.84375 33.152344 32.34375 32.484375 C 32.59375 31.921875 33.15625 31.539062 33.625 31.164062 C 33.746094 31.066406 33.867188 30.96875 33.984375 30.863281 C 34.335938 30.566406 34.707031 30.320312 35.101562 30.089844 C 35.152344 30.058594 35.199219 30.03125 35.246094 30.003906 C 35.632812 29.785156 35.863281 29.785156 36.269531 29.976562 Z M 36.269531 29.976562 "/>
<path style=" stroke:none;fill-rule:nonzero;fill:rgb(41.176471%,55.294118%,28.627451%);fill-opacity:1;" d="M 51.679688 29.882812 C 52.386719 30.210938 52.960938 30.664062 53.53125 31.183594 C 53.644531 31.285156 53.757812 31.382812 53.871094 31.484375 C 54.222656 31.792969 54.523438 32.085938 54.773438 32.484375 C 54.613281 32.695312 54.445312 32.90625 54.28125 33.117188 C 54.226562 33.191406 54.226562 33.191406 54.167969 33.265625 C 53.628906 33.933594 52.878906 34.378906 52.03125 34.523438 C 50.929688 34.640625 50.039062 34.429688 49.148438 33.75 C 49.085938 33.703125 49.085938 33.703125 49.023438 33.660156 C 48.609375 33.339844 48.324219 32.90625 48.023438 32.484375 C 48.136719 32.207031 48.324219 32.019531 48.53125 31.8125 C 48.589844 31.757812 48.589844 31.757812 48.644531 31.699219 C 49.324219 31.039062 50.082031 30.488281 50.90625 30.023438 C 50.976562 29.980469 51.046875 29.941406 51.121094 29.898438 C 51.359375 29.800781 51.4375 29.796875 51.679688 29.882812 Z M 51.679688 29.882812 "/>
<path style=" stroke:none;fill-rule:nonzero;fill:rgb(0.784314%,0.784314%,0.784314%);fill-opacity:1;" d="M 48.726562 19.6875 C 49.015625 19.808594 49.199219 19.980469 49.359375 20.25 C 49.417969 20.566406 49.410156 20.792969 49.25 21.078125 C 49.042969 21.371094 48.785156 21.613281 48.53125 21.863281 C 48.484375 21.910156 48.4375 21.957031 48.390625 22.007812 C 48.105469 22.285156 47.816406 22.554688 47.515625 22.8125 C 47.359375 22.949219 47.21875 23.089844 47.074219 23.238281 C 46.839844 23.476562 46.59375 23.699219 46.339844 23.917969 C 46.179688 24.0625 46.027344 24.210938 45.878906 24.363281 C 45.644531 24.601562 45.398438 24.824219 45.144531 25.042969 C 44.984375 25.1875 44.835938 25.339844 44.6875 25.492188 C 43.933594 26.246094 43.933594 26.246094 43.367188 26.265625 C 43 26.242188 42.796875 26.148438 42.550781 25.871094 C 42.425781 25.5625 42.410156 25.289062 42.46875 24.960938 C 42.660156 24.574219 42.984375 24.300781 43.3125 24.027344 C 43.449219 23.910156 43.574219 23.789062 43.699219 23.660156 C 43.914062 23.441406 44.140625 23.242188 44.371094 23.046875 C 44.503906 22.925781 44.628906 22.804688 44.753906 22.675781 C 44.921875 22.507812 45.09375 22.347656 45.273438 22.191406 C 45.484375 22.011719 45.683594 21.820312 45.878906 21.621094 C 46.105469 21.390625 46.339844 21.175781 46.585938 20.964844 C 46.734375 20.835938 46.875 20.703125 47.019531 20.566406 C 47.0625 20.523438 47.113281 20.480469 47.160156 20.433594 C 47.253906 20.34375 47.347656 20.253906 47.441406 20.164062 C 47.484375 20.125 47.527344 20.082031 47.574219 20.039062 C 47.632812 19.984375 47.632812 19.984375 47.691406 19.925781 C 48.015625 19.660156 48.320312 19.640625 48.726562 19.6875 Z M 48.726562 19.6875 "/>
<path style=" stroke:none;fill-rule:nonzero;fill:rgb(0.784314%,0.784314%,0.784314%);fill-opacity:1;" d="M 23.90625 19.6875 C 24.269531 19.859375 24.523438 20.15625 24.800781 20.441406 C 24.941406 20.582031 25.085938 20.714844 25.238281 20.84375 C 25.527344 21.089844 25.789062 21.359375 26.054688 21.628906 C 26.246094 21.816406 26.445312 21.992188 26.648438 22.164062 C 26.863281 22.355469 27.0625 22.5625 27.265625 22.769531 C 27.40625 22.90625 27.550781 23.039062 27.703125 23.167969 C 27.96875 23.398438 28.214844 23.640625 28.460938 23.890625 C 28.609375 24.039062 28.761719 24.175781 28.921875 24.3125 C 29.289062 24.632812 29.507812 24.863281 29.542969 25.363281 C 29.519531 25.703125 29.351562 25.925781 29.101562 26.152344 C 28.800781 26.261719 28.507812 26.285156 28.195312 26.226562 C 27.882812 26.046875 27.644531 25.828125 27.394531 25.570312 C 27.175781 25.347656 26.957031 25.128906 26.71875 24.925781 C 26.449219 24.695312 26.199219 24.445312 25.949219 24.191406 C 25.722656 23.960938 25.488281 23.75 25.246094 23.542969 C 25.074219 23.386719 24.910156 23.226562 24.75 23.0625 C 24.550781 22.859375 24.351562 22.664062 24.132812 22.484375 C 23.851562 22.238281 23.585938 21.984375 23.320312 21.722656 C 23.277344 21.679688 23.234375 21.640625 23.191406 21.597656 C 22.914062 21.320312 22.664062 21.054688 22.625 20.644531 C 22.667969 20.296875 22.726562 20.078125 22.992188 19.828125 C 23.292969 19.648438 23.566406 19.640625 23.90625 19.6875 Z M 23.90625 19.6875 "/>
<path style=" stroke:none;fill-rule:nonzero;fill:rgb(0%,0%,0%);fill-opacity:1;" d="M 36.28125 14.976562 C 36.597656 15.132812 36.765625 15.289062 36.914062 15.609375 C 36.945312 15.824219 36.945312 16.035156 36.941406 16.25 C 36.941406 16.3125 36.945312 16.378906 36.945312 16.441406 C 36.945312 16.652344 36.945312 16.863281 36.945312 17.074219 C 36.945312 17.222656 36.945312 17.367188 36.945312 17.515625 C 36.945312 17.820312 36.945312 18.128906 36.945312 18.4375 C 36.945312 18.832031 36.945312 19.222656 36.949219 19.617188 C 36.949219 19.921875 36.949219 20.222656 36.949219 20.527344 C 36.949219 20.671875 36.949219 20.816406 36.949219 20.960938 C 36.953125 21.164062 36.949219 21.367188 36.949219 21.570312 C 36.949219 21.628906 36.949219 21.6875 36.953125 21.75 C 36.945312 22.128906 36.882812 22.339844 36.632812 22.640625 C 36.371094 22.867188 36.132812 22.882812 35.800781 22.871094 C 35.515625 22.835938 35.359375 22.71875 35.183594 22.496094 C 35.046875 22.207031 35.054688 21.953125 35.054688 21.636719 C 35.054688 21.570312 35.054688 21.503906 35.054688 21.4375 C 35.054688 21.222656 35.054688 21.007812 35.054688 20.792969 C 35.050781 20.644531 35.050781 20.492188 35.050781 20.34375 C 35.050781 20.03125 35.050781 19.714844 35.050781 19.402344 C 35.050781 19 35.046875 18.597656 35.046875 18.195312 C 35.042969 17.886719 35.042969 17.578125 35.042969 17.265625 C 35.042969 17.121094 35.042969 16.972656 35.042969 16.824219 C 35.039062 16.617188 35.042969 16.40625 35.042969 16.199219 C 35.042969 16.140625 35.039062 16.078125 35.039062 16.015625 C 35.042969 15.722656 35.0625 15.527344 35.25 15.296875 C 35.59375 14.96875 35.824219 14.914062 36.28125 14.976562 Z M 36.28125 14.976562 "/>
<path style=" stroke:none;fill-rule:nonzero;fill:rgb(0.784314%,0.784314%,0.784314%);fill-opacity:1;" d="M 29.53125 16.382812 C 29.871094 16.625 30.050781 16.867188 30.226562 17.246094 C 30.25 17.296875 30.273438 17.347656 30.296875 17.398438 C 30.347656 17.5 30.394531 17.601562 30.441406 17.707031 C 30.535156 17.898438 30.628906 18.089844 30.722656 18.285156 C 30.964844 18.769531 31.199219 19.261719 31.433594 19.753906 C 31.578125 20.054688 31.726562 20.351562 31.871094 20.652344 C 31.9375 20.789062 32.003906 20.921875 32.066406 21.058594 C 32.097656 21.117188 32.125 21.175781 32.15625 21.238281 C 32.339844 21.628906 32.390625 21.941406 32.273438 22.359375 C 32.125 22.589844 32.007812 22.699219 31.78125 22.851562 C 31.605469 22.878906 31.605469 22.878906 31.40625 22.882812 C 31.308594 22.886719 31.308594 22.886719 31.210938 22.890625 C 30.9375 22.839844 30.773438 22.695312 30.585938 22.5 C 30.484375 22.332031 30.398438 22.175781 30.316406 21.996094 C 30.292969 21.949219 30.273438 21.898438 30.246094 21.847656 C 30.199219 21.746094 30.148438 21.640625 30.097656 21.535156 C 30 21.320312 29.894531 21.109375 29.789062 20.898438 C 29.679688 20.679688 29.574219 20.460938 29.46875 20.238281 C 29.414062 20.128906 29.359375 20.019531 29.304688 19.910156 C 29.023438 19.332031 28.742188 18.75 28.476562 18.164062 C 28.457031 18.121094 28.4375 18.078125 28.414062 18.03125 C 28.242188 17.644531 28.132812 17.265625 28.273438 16.859375 C 28.597656 16.382812 28.96875 16.257812 29.53125 16.382812 Z M 29.53125 16.382812 "/>
<path style=" stroke:none;fill-rule:nonzero;fill:rgb(0.784314%,0.784314%,0.784314%);fill-opacity:1;" d="M 43.242188 16.382812 C 43.472656 16.53125 43.582031 16.648438 43.734375 16.875 C 43.832031 17.429688 43.648438 17.84375 43.394531 18.324219 C 43.320312 18.476562 43.242188 18.632812 43.167969 18.785156 C 43.144531 18.828125 43.125 18.867188 43.101562 18.910156 C 42.910156 19.289062 42.726562 19.675781 42.546875 20.0625 C 42.515625 20.125 42.488281 20.1875 42.457031 20.253906 C 42.339844 20.507812 42.21875 20.761719 42.097656 21.015625 C 42.015625 21.195312 41.929688 21.375 41.84375 21.554688 C 41.820312 21.609375 41.792969 21.660156 41.769531 21.714844 C 41.34375 22.613281 41.34375 22.613281 40.921875 22.851562 C 40.597656 22.898438 40.316406 22.894531 40.011719 22.765625 C 39.816406 22.597656 39.679688 22.453125 39.617188 22.203125 C 39.589844 21.53125 39.898438 21.007812 40.195312 20.429688 C 40.277344 20.265625 40.363281 20.101562 40.441406 19.9375 C 40.5 19.828125 40.554688 19.71875 40.609375 19.609375 C 40.785156 19.257812 40.957031 18.90625 41.121094 18.546875 C 41.140625 18.503906 41.160156 18.460938 41.179688 18.414062 C 41.277344 18.203125 41.371094 17.996094 41.464844 17.785156 C 41.960938 16.695312 41.960938 16.695312 42.386719 16.375 C 42.6875 16.289062 42.9375 16.300781 43.242188 16.382812 Z M 43.242188 16.382812 "/>
<path style=" stroke:none;fill-rule:nonzero;fill:rgb(1.176471%,0.784314%,0%);fill-opacity:1;" d="M 17.382812 36.5 C 17.625 36.664062 17.734375 36.792969 17.859375 37.054688 C 17.917969 37.386719 17.890625 37.621094 17.742188 37.925781 C 17.527344 38.164062 17.386719 38.296875 17.0625 38.34375 C 16.753906 38.363281 16.523438 38.359375 16.277344 38.160156 C 15.996094 37.851562 15.929688 37.625 15.9375 37.210938 C 15.984375 36.890625 16.160156 36.703125 16.398438 36.5 C 16.75 36.359375 17.039062 36.378906 17.382812 36.5 Z M 17.382812 36.5 "/>
<path style=" stroke:none;fill-rule:nonzero;fill:rgb(1.960784%,1.176471%,0.392157%);fill-opacity:1;" d="M 23.835938 36.421875 C 24.144531 36.574219 24.335938 36.734375 24.46875 37.054688 C 24.519531 37.503906 24.453125 37.742188 24.1875 38.109375 C 23.925781 38.347656 23.648438 38.363281 23.308594 38.355469 C 23.015625 38.296875 22.824219 38.128906 22.640625 37.898438 C 22.546875 37.613281 22.535156 37.355469 22.570312 37.054688 C 22.847656 36.5 23.238281 36.328125 23.835938 36.421875 Z M 23.835938 36.421875 "/>
<path style=" stroke:none;fill-rule:nonzero;fill:rgb(1.960784%,1.176471%,0.392157%);fill-opacity:1;" d="M 48.164062 36.421875 C 48.472656 36.574219 48.667969 36.734375 48.796875 37.054688 C 48.847656 37.386719 48.828125 37.621094 48.679688 37.925781 C 48.464844 38.164062 48.324219 38.296875 48 38.34375 C 47.695312 38.363281 47.460938 38.359375 47.214844 38.167969 C 46.976562 37.898438 46.910156 37.734375 46.871094 37.378906 C 46.910156 37 47.042969 36.753906 47.332031 36.496094 C 47.617188 36.390625 47.867188 36.375 48.164062 36.421875 Z M 48.164062 36.421875 "/>
<path style=" stroke:none;fill-rule:nonzero;fill:rgb(1.960784%,1.176471%,0.392157%);fill-opacity:1;" d="M 54.84375 36.421875 C 55.175781 36.566406 55.386719 36.804688 55.546875 37.125 C 55.589844 37.554688 55.507812 37.769531 55.265625 38.109375 C 55.003906 38.347656 54.726562 38.363281 54.386719 38.355469 C 54.09375 38.296875 53.902344 38.128906 53.71875 37.898438 C 53.625 37.613281 53.613281 37.355469 53.648438 37.054688 C 53.910156 36.527344 54.273438 36.335938 54.84375 36.421875 Z M 54.84375 36.421875 "/>
<path style=" stroke:none;fill-rule:nonzero;fill:rgb(1.568627%,0.392157%,0.392157%);fill-opacity:1;" d="M 39.539062 36.546875 C 39.761719 36.734375 39.914062 36.867188 39.972656 37.164062 C 39.980469 37.523438 39.976562 37.765625 39.738281 38.046875 C 39.519531 38.277344 39.316406 38.332031 39 38.34375 C 38.679688 38.339844 38.496094 38.253906 38.25 38.039062 C 38.042969 37.710938 38.054688 37.355469 38.109375 36.984375 C 38.222656 36.757812 38.386719 36.621094 38.589844 36.464844 C 38.949219 36.363281 39.210938 36.371094 39.539062 36.546875 Z M 39.539062 36.546875 "/>
<path style=" stroke:none;fill-rule:nonzero;fill:rgb(1.568627%,0.392157%,0.392157%);fill-opacity:1;" d="M 32.71875 36.546875 C 32.945312 36.734375 33.097656 36.867188 33.152344 37.167969 C 33.15625 37.761719 33.15625 37.761719 32.960938 38.007812 C 32.644531 38.285156 32.421875 38.351562 32.011719 38.34375 C 31.761719 38.308594 31.613281 38.203125 31.429688 38.039062 C 31.222656 37.710938 31.234375 37.355469 31.289062 36.984375 C 31.402344 36.757812 31.566406 36.621094 31.769531 36.464844 C 32.128906 36.363281 32.390625 36.371094 32.71875 36.546875 Z M 32.71875 36.546875 "/>
<path style=" stroke:none;fill-rule:nonzero;fill:rgb(79.215686%,65.882353%,32.54902%);fill-opacity:1;" d="M 25.875 45.210938 C 25.980469 45.308594 25.980469 45.308594 26.085938 45.421875 C 26.085938 45.46875 26.085938 45.515625 26.085938 45.5625 C 21.933594 45.5625 17.777344 45.5625 13.5 45.5625 C 13.476562 45.515625 13.453125 45.46875 13.429688 45.421875 C 17.535156 45.421875 21.644531 45.421875 25.875 45.421875 C 25.875 45.351562 25.875 45.28125 25.875 45.210938 Z M 25.875 45.210938 "/>
<path style=" stroke:none;fill-rule:nonzero;fill:rgb(88.235294%,72.54902%,35.686275%);fill-opacity:1;" d="M 18.214844 35.996094 C 18.347656 36.046875 18.347656 36.046875 18.480469 36.097656 C 18.957031 36.277344 19.335938 36.359375 19.847656 36.359375 C 19.894531 36.359375 19.941406 36.359375 19.992188 36.359375 C 20.144531 36.359375 20.296875 36.355469 20.449219 36.355469 C 20.550781 36.355469 20.65625 36.355469 20.757812 36.355469 C 21.011719 36.355469 21.261719 36.351562 21.515625 36.351562 C 21.515625 36.398438 21.515625 36.445312 21.515625 36.492188 C 20.621094 36.9375 18.917969 36.488281 18.027344 36.195312 C 17.972656 36.179688 17.917969 36.160156 17.859375 36.140625 C 17.859375 36.09375 17.859375 36.046875 17.859375 36 C 18 35.929688 18 35.929688 18.214844 35.996094 Z M 18.214844 35.996094 "/>
<path style=" stroke:none;fill-rule:nonzero;fill:rgb(90.980392%,93.333333%,92.54902%);fill-opacity:1;" d="M 48.585938 21.726562 C 48.585938 21.9375 48.585938 21.9375 48.476562 22.070312 C 48.425781 22.117188 48.378906 22.160156 48.328125 22.210938 C 48.273438 22.257812 48.222656 22.308594 48.171875 22.359375 C 48.121094 22.40625 48.074219 22.453125 48.023438 22.5 C 47.839844 22.679688 47.675781 22.847656 47.53125 23.0625 C 47.347656 23.144531 47.347656 23.144531 47.179688 23.203125 C 47.398438 22.71875 47.851562 22.386719 48.25 22.046875 C 48.367188 21.945312 48.476562 21.839844 48.585938 21.726562 Z M 48.585938 21.726562 "/>
<path style=" stroke:none;fill-rule:nonzero;fill:rgb(72.941176%,60%,29.803922%);fill-opacity:1;" d="M 21.515625 36.351562 C 21.515625 36.398438 21.515625 36.445312 21.515625 36.492188 C 21.335938 36.582031 21.222656 36.566406 21.023438 36.554688 C 20.953125 36.550781 20.882812 36.546875 20.8125 36.542969 C 20.703125 36.539062 20.703125 36.539062 20.59375 36.53125 C 20.519531 36.527344 20.445312 36.523438 20.371094 36.519531 C 20.191406 36.511719 20.007812 36.503906 19.828125 36.492188 C 19.828125 36.46875 19.828125 36.445312 19.828125 36.421875 C 20.054688 36.410156 20.285156 36.398438 20.515625 36.386719 C 20.578125 36.382812 20.644531 36.378906 20.710938 36.375 C 20.804688 36.371094 20.804688 36.371094 20.898438 36.367188 C 20.957031 36.363281 21.015625 36.359375 21.074219 36.359375 C 21.222656 36.351562 21.367188 36.351562 21.515625 36.351562 Z M 21.515625 36.351562 "/>
<path style=" stroke:none;fill-rule:nonzero;fill:rgb(83.137255%,69.019608%,33.333333%);fill-opacity:1;" d="M 15.539062 33.75 C 15.71875 33.914062 15.8125 34.007812 15.890625 34.242188 C 15.796875 34.242188 15.703125 34.242188 15.609375 34.242188 C 15.609375 34.195312 15.609375 34.148438 15.609375 34.101562 C 15.515625 34.078125 15.421875 34.054688 15.328125 34.03125 C 15.398438 33.9375 15.46875 33.84375 15.539062 33.75 Z M 15.539062 33.75 "/>
<path style=" stroke:none;fill-rule:nonzero;fill:rgb(91.764706%,91.764706%,92.54902%);fill-opacity:1;" d="M 59.132812 34.382812 C 59.339844 34.480469 59.53125 34.574219 59.695312 34.734375 C 59.710938 34.921875 59.710938 34.921875 59.695312 35.085938 C 59.464844 34.867188 59.285156 34.664062 59.132812 34.382812 Z M 59.132812 34.382812 "/>
<path style=" stroke:none;fill-rule:nonzero;fill:rgb(89.803922%,91.764706%,91.372549%);fill-opacity:1;" d="M 65.320312 50.765625 C 65.34375 50.835938 65.367188 50.90625 65.390625 50.976562 C 65.183594 51.140625 64.972656 51.300781 64.757812 51.46875 C 64.757812 51.257812 64.757812 51.257812 64.882812 51.128906 C 64.933594 51.085938 64.984375 51.042969 65.039062 51 C 65.089844 50.953125 65.144531 50.910156 65.195312 50.867188 C 65.238281 50.832031 65.277344 50.800781 65.320312 50.765625 Z M 65.320312 50.765625 "/>
<path style=" stroke:none;fill-rule:nonzero;fill:rgb(84.313725%,85.882353%,86.27451%);fill-opacity:1;" d="M 7.59375 42.960938 C 7.617188 43.054688 7.640625 43.148438 7.664062 43.242188 C 7.582031 43.371094 7.582031 43.371094 7.453125 43.453125 C 7.359375 43.429688 7.265625 43.40625 7.171875 43.382812 C 7.3125 43.242188 7.449219 43.105469 7.59375 42.960938 Z M 7.59375 42.960938 "/>
<path style=" stroke:none;fill-rule:nonzero;fill:rgb(83.921569%,83.921569%,83.921569%);fill-opacity:1;" d="M 64.40625 48.796875 C 64.453125 48.796875 64.5 48.796875 64.546875 48.796875 C 64.523438 49.027344 64.476562 49.078125 64.296875 49.234375 C 64.238281 49.277344 64.183594 49.316406 64.125 49.359375 C 64.125 49.265625 64.125 49.171875 64.125 49.078125 C 64.171875 49.078125 64.21875 49.078125 64.265625 49.078125 C 64.289062 49.007812 64.3125 48.9375 64.335938 48.867188 C 64.359375 48.84375 64.382812 48.820312 64.40625 48.796875 Z M 64.40625 48.796875 "/>
<path style=" stroke:none;fill-rule:nonzero;fill:rgb(8.627451%,8.627451%,8.627451%);fill-opacity:1;" d="M 42.328125 16.453125 C 42.351562 16.523438 42.375 16.59375 42.398438 16.664062 C 42.304688 16.757812 42.210938 16.851562 42.117188 16.945312 C 42.046875 16.921875 41.976562 16.898438 41.90625 16.875 C 42.171875 16.53125 42.171875 16.53125 42.328125 16.453125 Z M 42.328125 16.453125 "/>
<path style=" stroke:none;fill-rule:nonzero;fill:rgb(89.019608%,89.803922%,88.627451%);fill-opacity:1;" d="M 42.328125 20.390625 C 42.375 20.414062 42.421875 20.4375 42.46875 20.460938 C 42.363281 20.929688 42.363281 20.929688 42.179688 21.054688 C 42.136719 21.066406 42.09375 21.082031 42.046875 21.09375 C 42.125 20.847656 42.207031 20.617188 42.328125 20.390625 Z M 42.328125 20.390625 "/>
<path style=" stroke:none;fill-rule:nonzero;fill:rgb(9.803922%,10.980392%,10.980392%);fill-opacity:1;" d="M 8.15625 42.398438 C 8.15625 42.46875 8.15625 42.539062 8.15625 42.609375 C 8.046875 42.707031 8.046875 42.707031 7.910156 42.796875 C 7.84375 42.84375 7.84375 42.84375 7.773438 42.890625 C 7.738281 42.914062 7.699219 42.9375 7.664062 42.960938 C 7.664062 42.890625 7.664062 42.820312 7.664062 42.75 C 7.773438 42.652344 7.773438 42.652344 7.910156 42.5625 C 7.957031 42.53125 8 42.5 8.046875 42.46875 C 8.082031 42.445312 8.121094 42.421875 8.15625 42.398438 Z M 8.15625 42.398438 "/>
<path style=" stroke:none;fill-rule:nonzero;fill:rgb(13.333333%,8.627451%,1.960784%);fill-opacity:1;" d="M 16.3125 36.5625 C 16.359375 36.585938 16.40625 36.609375 16.453125 36.632812 C 16.246094 36.910156 16.246094 36.910156 16.03125 37.195312 C 16.007812 37.148438 15.984375 37.101562 15.960938 37.054688 C 16.234375 36.640625 16.234375 36.640625 16.3125 36.5625 Z M 16.3125 36.5625 "/>
<path style=" stroke:none;fill-rule:nonzero;fill:rgb(13.333333%,12.941176%,13.333333%);fill-opacity:1;" d="M 46.96875 30.585938 C 47.015625 30.609375 47.0625 30.632812 47.109375 30.65625 C 46.992188 30.796875 46.878906 30.933594 46.757812 31.078125 C 46.6875 31.054688 46.617188 31.03125 46.546875 31.007812 C 46.6875 30.867188 46.824219 30.730469 46.96875 30.585938 Z M 46.96875 30.585938 "/>
</g>
</svg>
