<?xml version="1.0" encoding="UTF-8"?>
<svg xmlns="http://www.w3.org/2000/svg" xmlns:xlink="http://www.w3.org/1999/xlink" width="72px" height="72px" viewBox="0 0 72 72" version="1.1">
<g id="surface1">
<!-- <path style=" stroke:none;fill-rule:nonzero;fill:rgb(99.215686%,99.215686%,99.607843%);fill-opacity:1;" d="M 0 0 C 23.761719 0 47.519531 0 72 0 C 72 23.761719 72 47.519531 72 72 C 48.238281 72 24.480469 72 0 72 C 0 48.238281 0 24.480469 0 0 Z M 0 0 "/> -->
<path style=" stroke:none;fill-rule:nonzero;fill:rgb(1.176471%,0.784314%,0.784314%);fill-opacity:1;" d="M 35.503906 12.816406 C 35.617188 12.847656 35.726562 12.878906 35.835938 12.910156 C 36.121094 12.988281 36.410156 13.074219 36.695312 13.15625 C 36.988281 13.238281 37.277344 13.320312 37.570312 13.402344 C 37.945312 13.511719 38.324219 13.617188 38.703125 13.726562 C 38.796875 13.753906 38.894531 13.78125 38.992188 13.808594 C 39.1875 13.867188 39.382812 13.925781 39.578125 13.992188 C 40.300781 14.238281 40.929688 14.039062 41.648438 13.847656 C 41.789062 13.808594 41.929688 13.769531 42.074219 13.734375 C 42.425781 13.640625 42.773438 13.546875 43.125 13.453125 C 43.425781 13.375 43.722656 13.296875 44.023438 13.21875 C 44.160156 13.183594 44.300781 13.144531 44.4375 13.105469 C 44.523438 13.085938 44.609375 13.0625 44.695312 13.039062 C 44.769531 13.019531 44.84375 13 44.921875 12.980469 C 45.492188 12.871094 45.859375 12.984375 46.335938 13.289062 C 46.585938 13.484375 46.8125 13.699219 47.039062 13.921875 C 47.082031 13.964844 47.128906 14.003906 47.171875 14.046875 C 47.78125 14.671875 48.09375 15.515625 48.285156 16.351562 C 48.390625 16.808594 48.480469 17.199219 48.886719 17.472656 C 49.128906 17.609375 49.382812 17.730469 49.632812 17.851562 C 50.527344 18.292969 50.527344 18.292969 50.90625 18.632812 C 50.960938 18.679688 51.011719 18.726562 51.066406 18.773438 C 51.8125 19.480469 52.257812 20.394531 52.324219 21.425781 C 52.328125 21.652344 52.332031 21.878906 52.335938 22.105469 C 52.335938 22.183594 52.339844 22.261719 52.339844 22.339844 C 52.34375 22.8125 52.324219 23.109375 52.03125 23.484375 C 51.859375 23.640625 51.859375 23.640625 51.671875 23.777344 C 51.027344 24.289062 50.574219 24.898438 50.152344 25.59375 C 50.117188 25.644531 50.085938 25.695312 50.054688 25.75 C 50.023438 25.796875 49.996094 25.847656 49.96875 25.898438 C 49.941406 25.941406 49.914062 25.984375 49.890625 26.027344 C 49.835938 26.15625 49.835938 26.15625 49.898438 26.28125 C 49.996094 26.449219 49.996094 26.449219 50.136719 26.628906 C 50.367188 27.039062 50.3125 27.515625 50.308594 27.972656 C 50.308594 28.078125 50.3125 28.1875 50.3125 28.292969 C 50.3125 28.589844 50.3125 28.882812 50.3125 29.179688 C 50.3125 29.496094 50.3125 29.8125 50.3125 30.132812 C 50.3125 30.753906 50.3125 31.375 50.3125 31.996094 C 50.3125 32.503906 50.3125 33.007812 50.3125 33.515625 C 50.3125 33.585938 50.3125 33.660156 50.3125 33.734375 C 50.3125 33.878906 50.3125 34.027344 50.3125 34.171875 C 50.316406 35.542969 50.316406 36.914062 50.3125 38.285156 C 50.3125 39.539062 50.3125 40.792969 50.316406 42.050781 C 50.316406 43.335938 50.320312 44.625 50.316406 45.914062 C 50.316406 46.058594 50.316406 46.203125 50.316406 46.351562 C 50.316406 46.421875 50.316406 46.492188 50.316406 46.566406 C 50.316406 47.074219 50.320312 47.578125 50.320312 48.082031 C 50.320312 48.699219 50.320312 49.3125 50.320312 49.929688 C 50.316406 50.242188 50.316406 50.558594 50.320312 50.871094 C 50.320312 51.160156 50.320312 51.445312 50.316406 51.734375 C 50.316406 51.839844 50.316406 51.941406 50.320312 52.046875 C 50.324219 52.613281 50.324219 53.074219 49.921875 53.507812 C 49.441406 53.9375 48.957031 54.023438 48.328125 54.007812 C 48.207031 54.003906 48.085938 54.003906 47.964844 54 C 47.902344 54 47.835938 54 47.773438 53.996094 C 47.429688 53.992188 47.089844 53.992188 46.75 53.988281 C 46.320312 53.988281 45.886719 53.984375 45.453125 53.972656 C 45.105469 53.964844 44.753906 53.964844 44.402344 53.964844 C 44.269531 53.964844 44.136719 53.960938 44.003906 53.957031 C 43.316406 53.910156 43.316406 53.910156 42.707031 54.164062 C 42.507812 54.398438 42.382812 54.652344 42.253906 54.929688 C 41.605469 56.148438 40.128906 56.941406 38.882812 57.40625 C 38.414062 57.582031 38.164062 57.777344 37.875 58.199219 C 37.550781 58.644531 37.011719 58.800781 36.492188 58.921875 C 36.257812 58.949219 36.027344 58.953125 35.792969 58.949219 C 35.691406 58.949219 35.691406 58.949219 35.589844 58.953125 C 35.375 58.953125 35.15625 58.953125 34.941406 58.953125 C 34.789062 58.953125 34.636719 58.953125 34.484375 58.953125 C 34.167969 58.953125 33.851562 58.953125 33.535156 58.953125 C 33.128906 58.953125 32.722656 58.953125 32.320312 58.957031 C 32.003906 58.957031 31.691406 58.957031 31.378906 58.957031 C 31.230469 58.957031 31.078125 58.957031 30.929688 58.957031 C 30.722656 58.960938 30.511719 58.957031 30.300781 58.957031 C 30.242188 58.957031 30.179688 58.957031 30.117188 58.960938 C 29.453125 58.953125 28.808594 58.695312 28.335938 58.21875 C 28.03125 57.796875 27.835938 57.429688 27.835938 56.90625 C 27.835938 56.808594 27.835938 56.808594 27.835938 56.710938 C 27.835938 56.640625 27.835938 56.570312 27.835938 56.5 C 27.835938 56.429688 27.835938 56.355469 27.835938 56.28125 C 27.835938 56.054688 27.839844 55.828125 27.839844 55.597656 C 27.839844 55.445312 27.839844 55.289062 27.839844 55.136719 C 27.839844 54.757812 27.84375 54.378906 27.84375 54 C 27.78125 54 27.71875 54 27.65625 54.003906 C 27.066406 54.007812 26.480469 54.011719 25.894531 54.015625 C 25.589844 54.015625 25.289062 54.019531 24.984375 54.019531 C 24.695312 54.023438 24.402344 54.027344 24.113281 54.027344 C 24 54.027344 23.890625 54.027344 23.777344 54.03125 C 23.109375 54.039062 22.597656 54.039062 22.0625 53.585938 C 22.023438 53.539062 21.984375 53.496094 21.945312 53.449219 C 21.90625 53.40625 21.867188 53.363281 21.828125 53.316406 C 21.59375 52.945312 21.566406 52.539062 21.566406 52.109375 C 21.566406 52.03125 21.566406 52.03125 21.566406 51.949219 C 21.566406 51.765625 21.566406 51.585938 21.566406 51.40625 C 21.566406 51.277344 21.566406 51.148438 21.566406 51.015625 C 21.566406 50.65625 21.566406 50.296875 21.566406 49.941406 C 21.566406 49.554688 21.566406 49.167969 21.5625 48.78125 C 21.5625 48.023438 21.5625 47.265625 21.5625 46.507812 C 21.5625 45.890625 21.5625 45.277344 21.5625 44.660156 C 21.5625 43.199219 21.558594 41.738281 21.558594 40.277344 C 21.558594 40.230469 21.558594 40.183594 21.558594 40.136719 C 21.558594 39.898438 21.558594 39.660156 21.558594 39.425781 C 21.558594 39.378906 21.558594 39.332031 21.558594 39.28125 C 21.558594 39.1875 21.558594 39.089844 21.558594 38.996094 C 21.558594 37.515625 21.558594 36.039062 21.558594 34.558594 C 21.554688 32.894531 21.554688 31.230469 21.554688 29.570312 C 21.554688 28.6875 21.554688 27.808594 21.550781 26.925781 C 21.550781 26.179688 21.550781 25.429688 21.550781 24.679688 C 21.550781 24.296875 21.550781 23.914062 21.550781 23.53125 C 21.550781 23.183594 21.550781 22.832031 21.550781 22.480469 C 21.550781 22.355469 21.550781 22.230469 21.550781 22.101562 C 21.546875 21.929688 21.550781 21.757812 21.550781 21.585938 C 21.550781 21.535156 21.550781 21.488281 21.546875 21.4375 C 21.554688 20.96875 21.734375 20.621094 22.03125 20.265625 C 22.335938 20.035156 22.738281 19.976562 23.109375 19.890625 C 23.351562 19.839844 23.351562 19.839844 23.554688 19.6875 C 23.632812 19.492188 23.632812 19.492188 23.6875 19.261719 C 23.710938 19.171875 23.734375 19.085938 23.757812 18.996094 C 23.785156 18.902344 23.808594 18.808594 23.832031 18.714844 C 23.902344 18.449219 23.972656 18.179688 24.046875 17.910156 C 24.09375 17.738281 24.136719 17.5625 24.183594 17.390625 C 24.214844 17.269531 24.214844 17.269531 24.25 17.144531 C 24.269531 17.074219 24.285156 17.003906 24.304688 16.929688 C 24.429688 16.667969 24.578125 16.546875 24.820312 16.382812 C 25.050781 16.300781 25.050781 16.300781 25.304688 16.246094 C 25.351562 16.234375 25.398438 16.222656 25.445312 16.214844 C 25.546875 16.191406 25.648438 16.167969 25.746094 16.148438 C 25.910156 16.113281 26.070312 16.078125 26.230469 16.042969 C 26.765625 15.921875 27.300781 15.816406 27.839844 15.722656 C 28.085938 15.679688 28.332031 15.632812 28.578125 15.589844 C 28.753906 15.558594 28.929688 15.53125 29.105469 15.503906 C 29.929688 15.363281 30.300781 15.089844 30.796875 14.414062 C 30.90625 14.277344 31.019531 14.140625 31.132812 14.003906 C 31.183594 13.941406 31.234375 13.878906 31.285156 13.8125 C 31.679688 13.339844 32.078125 13.015625 32.625 12.726562 C 32.667969 12.703125 32.710938 12.679688 32.753906 12.652344 C 33.601562 12.253906 34.660156 12.566406 35.503906 12.816406 Z M 35.503906 12.816406 "/>
<path style=" stroke:none;fill-rule:nonzero;fill:rgb(99.607843%,97.254902%,80.392157%);fill-opacity:1;" d="M 23.203125 21.726562 C 23.53125 21.828125 23.839844 21.957031 24.148438 22.101562 C 24.199219 22.125 24.25 22.148438 24.300781 22.171875 C 24.46875 22.25 24.632812 22.328125 24.796875 22.402344 C 24.976562 22.484375 25.152344 22.566406 25.328125 22.648438 C 25.449219 22.703125 25.570312 22.757812 25.691406 22.816406 C 26.082031 22.996094 26.46875 23.175781 26.863281 23.351562 C 26.914062 23.375 26.960938 23.398438 27.015625 23.421875 C 27.066406 23.445312 27.117188 23.46875 27.167969 23.492188 C 28.328125 24.019531 29.480469 24.558594 30.632812 25.101562 C 30.976562 25.265625 31.320312 25.425781 31.664062 25.589844 C 33.726562 26.554688 35.78125 27.527344 37.828125 28.519531 C 38.269531 28.734375 38.710938 28.945312 39.15625 29.15625 C 39.21875 29.1875 39.28125 29.21875 39.347656 29.25 C 39.703125 29.421875 40.0625 29.589844 40.417969 29.757812 C 40.578125 29.835938 40.738281 29.910156 40.898438 29.988281 C 40.976562 30.023438 41.050781 30.058594 41.128906 30.097656 C 41.234375 30.144531 41.234375 30.144531 41.339844 30.195312 C 41.402344 30.226562 41.464844 30.253906 41.527344 30.285156 C 41.691406 30.371094 41.832031 30.46875 41.976562 30.585938 C 41.921875 30.625 41.921875 30.625 41.871094 30.664062 C 41.121094 31.210938 40.378906 31.761719 39.65625 32.34375 C 39.609375 32.378906 39.566406 32.417969 39.519531 32.453125 C 38.6875 33.121094 37.863281 33.800781 37.074219 34.519531 C 36.929688 34.652344 36.78125 34.777344 36.632812 34.90625 C 36.347656 35.152344 36.085938 35.421875 35.820312 35.691406 C 35.671875 35.835938 35.523438 35.964844 35.367188 36.09375 C 34.804688 36.582031 34.394531 37.191406 34.070312 37.859375 C 34.046875 37.902344 34.027344 37.949219 34.003906 37.996094 C 33.601562 38.878906 33.578125 39.796875 33.578125 40.746094 C 33.578125 40.871094 33.578125 41 33.578125 41.128906 C 33.574219 41.472656 33.574219 41.8125 33.574219 42.15625 C 33.574219 42.515625 33.570312 42.878906 33.570312 43.238281 C 33.566406 43.917969 33.5625 44.597656 33.5625 45.277344 C 33.5625 46.199219 33.554688 47.117188 33.554688 48.039062 C 33.546875 49.488281 33.542969 50.933594 33.539062 52.382812 C 30.128906 52.382812 26.71875 52.382812 23.203125 52.382812 C 23.203125 43.496094 23.203125 34.609375 23.203125 25.453125 C 23.472656 25.542969 23.699219 25.621094 23.949219 25.746094 C 24.011719 25.777344 24.070312 25.808594 24.132812 25.839844 C 24.199219 25.871094 24.261719 25.902344 24.328125 25.9375 C 24.394531 25.96875 24.464844 26.003906 24.535156 26.039062 C 25.070312 26.3125 25.597656 26.59375 26.125 26.886719 C 26.609375 27.152344 27.101562 27.414062 27.597656 27.667969 C 28.164062 27.960938 28.726562 28.257812 29.285156 28.5625 C 29.347656 28.597656 29.410156 28.632812 29.476562 28.667969 C 29.773438 28.832031 30.070312 28.996094 30.367188 29.164062 C 30.472656 29.21875 30.578125 29.28125 30.683594 29.335938 C 30.730469 29.363281 30.773438 29.390625 30.824219 29.417969 C 31.15625 29.601562 31.398438 29.636719 31.78125 29.601562 C 31.980469 29.476562 32.097656 29.390625 32.203125 29.179688 C 32.226562 29.035156 32.226562 29.035156 32.230469 28.875 C 32.234375 28.824219 32.234375 28.769531 32.238281 28.714844 C 32.183594 28.464844 32.050781 28.339844 31.851562 28.195312 C 31.589844 28.039062 31.320312 27.90625 31.046875 27.769531 C 30.886719 27.6875 30.726562 27.605469 30.570312 27.523438 C 30.488281 27.484375 30.410156 27.441406 30.328125 27.402344 C 29.988281 27.226562 29.652344 27.042969 29.320312 26.859375 C 28.773438 26.558594 28.222656 26.265625 27.667969 25.980469 C 27.046875 25.660156 26.429688 25.332031 25.820312 24.992188 C 25.269531 24.691406 24.714844 24.402344 24.160156 24.117188 C 24.035156 24.054688 23.910156 23.988281 23.785156 23.921875 C 23.613281 23.824219 23.613281 23.824219 23.371094 23.730469 C 23.121094 23.46875 23.160156 23.230469 23.164062 22.878906 C 23.167969 22.796875 23.171875 22.710938 23.175781 22.625 C 23.179688 22.539062 23.179688 22.453125 23.183594 22.363281 C 23.1875 22.152344 23.195312 21.9375 23.203125 21.726562 Z M 23.203125 21.726562 "/>
<path style=" stroke:none;fill-rule:nonzero;fill:rgb(99.607843%,97.254902%,80.392157%);fill-opacity:1;" d="M 48.726562 28.125 C 48.726562 36.128906 48.726562 44.136719 48.726562 52.382812 C 44.25 52.382812 39.769531 52.382812 35.15625 52.382812 C 35.152344 50.261719 35.148438 48.140625 35.144531 45.957031 C 35.140625 45.289062 35.140625 44.621094 35.136719 43.929688 C 35.136719 43.113281 35.136719 43.113281 35.136719 42.730469 C 35.136719 42.460938 35.136719 42.195312 35.132812 41.929688 C 35.132812 41.585938 35.132812 41.246094 35.132812 40.90625 C 35.132812 40.777344 35.132812 40.65625 35.132812 40.53125 C 35.125 39.28125 35.382812 38.355469 36.261719 37.425781 C 36.445312 37.242188 36.640625 37.066406 36.839844 36.898438 C 37 36.757812 37.152344 36.609375 37.300781 36.457031 C 37.535156 36.21875 37.773438 35.996094 38.027344 35.78125 C 38.207031 35.625 38.378906 35.464844 38.554688 35.304688 C 38.933594 34.960938 39.328125 34.636719 39.726562 34.3125 C 39.808594 34.246094 39.894531 34.175781 39.976562 34.105469 C 40.660156 33.542969 41.367188 33.003906 42.078125 32.476562 C 42.253906 32.347656 42.429688 32.214844 42.605469 32.085938 C 43.300781 31.570312 44 31.070312 44.71875 30.585938 C 44.761719 30.558594 44.804688 30.527344 44.847656 30.5 C 45.53125 30.035156 46.226562 29.589844 46.925781 29.152344 C 47.054688 29.074219 47.183594 28.992188 47.308594 28.914062 C 47.515625 28.785156 47.71875 28.65625 47.921875 28.53125 C 47.984375 28.488281 48.050781 28.449219 48.117188 28.40625 C 48.175781 28.371094 48.234375 28.332031 48.296875 28.296875 C 48.347656 28.261719 48.402344 28.230469 48.457031 28.195312 C 48.585938 28.125 48.585938 28.125 48.726562 28.125 Z M 48.726562 28.125 "/>
<path style=" stroke:none;fill-rule:nonzero;fill:rgb(89.019608%,82.745098%,59.607843%);fill-opacity:1;" d="M 48.585938 28.125 C 48.632812 28.125 48.679688 28.125 48.726562 28.125 C 48.726562 36.128906 48.726562 44.136719 48.726562 52.382812 C 44.25 52.382812 39.769531 52.382812 35.15625 52.382812 C 35.15625 51.710938 35.15625 51.035156 35.15625 50.34375 C 38.960938 50.34375 42.765625 50.34375 46.6875 50.34375 C 46.664062 44.773438 46.640625 39.207031 46.617188 33.46875 C 46.523438 33.585938 46.429688 33.699219 46.335938 33.820312 C 46.015625 34.175781 45.652344 34.476562 45.28125 34.777344 C 45.132812 34.894531 44.988281 35.015625 44.84375 35.136719 C 44.804688 35.167969 44.769531 35.199219 44.730469 35.234375 C 44.625 35.324219 44.515625 35.414062 44.410156 35.503906 C 44.167969 35.695312 44.015625 35.78125 43.707031 35.820312 C 43.371094 35.777344 43.269531 35.675781 43.03125 35.4375 C 42.949219 35.277344 42.945312 35.171875 42.9375 34.992188 C 42.933594 34.914062 42.933594 34.914062 42.929688 34.832031 C 42.996094 34.464844 43.304688 34.246094 43.585938 34.027344 C 43.949219 33.734375 44.300781 33.4375 44.652344 33.128906 C 45.371094 32.503906 45.371094 32.503906 45.90625 32.527344 C 46.128906 32.570312 46.253906 32.667969 46.40625 32.835938 C 46.40625 32.882812 46.40625 32.929688 46.40625 32.976562 C 46.476562 32.976562 46.546875 32.976562 46.617188 32.976562 C 46.621094 32.890625 46.625 32.808594 46.628906 32.722656 C 46.683594 32.3125 46.886719 32.113281 47.207031 31.859375 C 47.453125 31.753906 47.617188 31.75 47.882812 31.78125 C 48.164062 31.898438 48.371094 32.058594 48.585938 32.273438 C 48.585938 30.90625 48.585938 29.535156 48.585938 28.125 Z M 48.585938 28.125 "/>
<path style=" stroke:none;fill-rule:nonzero;fill:rgb(88.627451%,82.352941%,59.607843%);fill-opacity:1;" d="M 23.203125 25.453125 C 23.226562 25.453125 23.25 25.453125 23.273438 25.453125 C 23.273438 33.667969 23.273438 41.882812 23.273438 50.34375 C 26.011719 50.34375 28.75 50.34375 31.570312 50.34375 C 31.566406 49.539062 31.5625 48.730469 31.558594 47.902344 C 31.554688 47.386719 31.554688 46.875 31.554688 46.363281 C 31.550781 45.550781 31.546875 44.738281 31.542969 43.925781 C 31.539062 43.332031 31.539062 42.742188 31.539062 42.148438 C 31.535156 41.835938 31.535156 41.523438 31.53125 41.210938 C 31.511719 38.238281 31.511719 38.238281 32.214844 36.851562 C 32.242188 36.796875 32.269531 36.742188 32.296875 36.6875 C 32.84375 35.613281 33.648438 34.761719 34.492188 33.914062 C 34.542969 33.863281 34.59375 33.8125 34.644531 33.761719 C 34.96875 33.4375 35.300781 33.132812 35.648438 32.835938 C 35.726562 32.769531 35.804688 32.699219 35.882812 32.628906 C 36.328125 32.246094 36.777344 31.875 37.238281 31.515625 C 37.558594 31.265625 37.875 31.011719 38.1875 30.753906 C 38.527344 30.476562 38.867188 30.203125 39.210938 29.941406 C 39.277344 29.890625 39.339844 29.84375 39.40625 29.792969 C 39.589844 29.671875 39.726562 29.589844 39.9375 29.53125 C 40.132812 29.589844 40.132812 29.589844 40.347656 29.695312 C 40.421875 29.730469 40.5 29.769531 40.578125 29.808594 C 40.660156 29.847656 40.738281 29.890625 40.820312 29.929688 C 40.902344 29.96875 40.980469 30.007812 41.0625 30.050781 C 41.699219 30.363281 41.699219 30.363281 41.976562 30.585938 C 41.921875 30.625 41.921875 30.625 41.871094 30.664062 C 41.121094 31.210938 40.378906 31.761719 39.65625 32.34375 C 39.609375 32.378906 39.566406 32.417969 39.519531 32.453125 C 38.6875 33.121094 37.863281 33.800781 37.074219 34.519531 C 36.929688 34.652344 36.78125 34.777344 36.632812 34.90625 C 36.347656 35.152344 36.085938 35.421875 35.820312 35.691406 C 35.671875 35.835938 35.523438 35.964844 35.367188 36.09375 C 34.804688 36.582031 34.394531 37.191406 34.070312 37.859375 C 34.046875 37.902344 34.027344 37.949219 34.003906 37.996094 C 33.601562 38.878906 33.578125 39.796875 33.578125 40.746094 C 33.578125 40.871094 33.578125 41 33.578125 41.128906 C 33.574219 41.472656 33.574219 41.8125 33.574219 42.15625 C 33.574219 42.515625 33.570312 42.878906 33.570312 43.238281 C 33.566406 43.917969 33.5625 44.597656 33.5625 45.277344 C 33.5625 46.199219 33.554688 47.117188 33.554688 48.039062 C 33.546875 49.488281 33.542969 50.933594 33.539062 52.382812 C 30.128906 52.382812 26.71875 52.382812 23.203125 52.382812 C 23.203125 43.496094 23.203125 34.609375 23.203125 25.453125 Z M 23.203125 25.453125 "/>
<path style=" stroke:none;fill-rule:nonzero;fill:rgb(56.470588%,72.54902%,34.117647%);fill-opacity:1;" d="M 45.640625 14.695312 C 46.226562 15.25 46.53125 15.863281 46.710938 16.644531 C 46.917969 17.527344 47.253906 18.300781 48.050781 18.808594 C 48.296875 18.945312 48.546875 19.070312 48.796875 19.195312 C 50.039062 19.800781 50.039062 19.800781 50.414062 20.390625 C 50.445312 20.4375 50.476562 20.488281 50.507812 20.539062 C 50.800781 21.101562 50.8125 21.882812 50.695312 22.5 C 50.582031 22.691406 50.488281 22.761719 50.300781 22.878906 C 49.339844 23.515625 48.464844 25.1875 48.207031 26.277344 C 48.019531 26.816406 47.480469 27.003906 47.007812 27.253906 C 46.671875 27.4375 46.351562 27.644531 46.027344 27.847656 C 45.902344 27.925781 45.777344 28.003906 45.652344 28.082031 C 45.601562 28.117188 45.546875 28.152344 45.492188 28.183594 C 45.351562 28.265625 45.351562 28.265625 45.140625 28.335938 C 45.136719 28.230469 45.136719 28.125 45.136719 28.019531 C 45.136719 27.960938 45.132812 27.902344 45.132812 27.839844 C 45.140625 27.632812 45.167969 27.429688 45.195312 27.222656 C 45.210938 27.066406 45.21875 26.914062 45.222656 26.753906 C 45.234375 26.132812 45.273438 25.617188 45.542969 25.042969 C 45.785156 24.441406 45.796875 23.824219 45.792969 23.183594 C 45.796875 23.054688 45.796875 23.054688 45.796875 22.921875 C 45.796875 22.738281 45.796875 22.554688 45.796875 22.371094 C 45.796875 22.183594 45.796875 21.996094 45.796875 21.808594 C 45.800781 21.539062 45.800781 21.265625 45.800781 20.996094 C 45.800781 20.910156 45.800781 20.828125 45.800781 20.742188 C 45.800781 20.664062 45.800781 20.585938 45.800781 20.507812 C 45.800781 20.4375 45.800781 20.371094 45.800781 20.300781 C 45.761719 20.03125 45.652344 19.839844 45.453125 19.660156 C 45.398438 19.621094 45.398438 19.621094 45.335938 19.582031 C 45.292969 19.554688 45.25 19.523438 45.203125 19.496094 C 45.15625 19.464844 45.109375 19.433594 45.0625 19.402344 C 44.960938 19.332031 44.859375 19.265625 44.757812 19.199219 C 44.703125 19.164062 44.652344 19.128906 44.597656 19.089844 C 44.339844 18.917969 44.085938 18.738281 43.832031 18.558594 C 43.78125 18.523438 43.730469 18.488281 43.683594 18.453125 C 43.582031 18.382812 43.484375 18.3125 43.386719 18.242188 C 43.289062 18.175781 43.191406 18.105469 43.097656 18.035156 C 42.957031 17.941406 42.820312 17.84375 42.683594 17.746094 C 42.644531 17.714844 42.601562 17.6875 42.558594 17.65625 C 42.230469 17.421875 42.101562 17.289062 41.996094 16.898438 C 41.964844 16.78125 41.964844 16.78125 41.929688 16.660156 C 41.90625 16.578125 41.886719 16.496094 41.863281 16.410156 C 41.839844 16.328125 41.816406 16.242188 41.792969 16.15625 C 41.738281 15.949219 41.679688 15.746094 41.625 15.539062 C 42.042969 15.394531 42.460938 15.265625 42.882812 15.152344 C 42.941406 15.140625 43 15.125 43.058594 15.105469 C 43.175781 15.074219 43.296875 15.042969 43.414062 15.011719 C 43.597656 14.964844 43.78125 14.914062 43.960938 14.863281 C 44.078125 14.832031 44.195312 14.800781 44.3125 14.773438 C 44.367188 14.757812 44.417969 14.742188 44.476562 14.726562 C 44.847656 14.628906 45.277344 14.523438 45.640625 14.695312 Z M 45.640625 14.695312 "/>
<path style=" stroke:none;fill-rule:nonzero;fill:rgb(47.058824%,38.431373%,31.372549%);fill-opacity:1;" d="M 29.390625 54 C 33.195312 54 37 54 40.921875 54 C 40.253906 55 39.300781 55.5625 38.191406 55.960938 C 37.582031 56.183594 37.207031 56.332031 36.886719 56.921875 C 36.734375 57.152344 36.605469 57.203125 36.351562 57.304688 C 36.136719 57.335938 35.925781 57.335938 35.710938 57.335938 C 35.617188 57.335938 35.617188 57.335938 35.519531 57.335938 C 35.3125 57.335938 35.101562 57.335938 34.894531 57.335938 C 34.75 57.339844 34.605469 57.339844 34.460938 57.339844 C 34.15625 57.339844 33.851562 57.339844 33.550781 57.339844 C 33.160156 57.339844 32.773438 57.34375 32.382812 57.34375 C 32.082031 57.347656 31.785156 57.347656 31.484375 57.347656 C 31.34375 57.347656 31.199219 57.347656 31.054688 57.347656 C 30.855469 57.351562 30.652344 57.347656 30.453125 57.347656 C 30.394531 57.347656 30.335938 57.351562 30.273438 57.351562 C 30.21875 57.351562 30.164062 57.347656 30.109375 57.347656 C 30.039062 57.347656 30.039062 57.347656 29.964844 57.347656 C 29.8125 57.304688 29.8125 57.304688 29.390625 56.953125 C 29.390625 55.980469 29.390625 55.003906 29.390625 54 Z M 29.390625 54 "/>
<path style=" stroke:none;fill-rule:nonzero;fill:rgb(99.215686%,98.039216%,49.411765%);fill-opacity:1;" d="M 39.40625 18.378906 C 39.492188 18.378906 39.492188 18.378906 39.582031 18.378906 C 40.464844 18.378906 41.105469 18.46875 41.824219 19.007812 C 41.925781 19.082031 42.03125 19.15625 42.132812 19.230469 C 42.1875 19.273438 42.242188 19.3125 42.296875 19.351562 C 42.660156 19.613281 43.03125 19.867188 43.398438 20.125 C 43.453125 20.160156 43.511719 20.199219 43.566406 20.242188 C 43.640625 20.292969 43.640625 20.292969 43.71875 20.34375 C 43.769531 20.382812 43.820312 20.421875 43.875 20.460938 C 43.949219 20.507812 44.023438 20.558594 44.101562 20.605469 C 44.238281 20.722656 44.289062 20.785156 44.332031 20.964844 C 44.347656 21.152344 44.34375 21.335938 44.339844 21.523438 C 44.335938 21.59375 44.335938 21.660156 44.335938 21.730469 C 44.332031 21.945312 44.328125 22.164062 44.324219 22.382812 C 44.320312 22.527344 44.320312 22.675781 44.316406 22.824219 C 44.3125 23.183594 44.304688 23.546875 44.296875 23.90625 C 44.074219 23.800781 43.882812 23.675781 43.679688 23.53125 C 43.015625 23.109375 42.34375 22.886719 41.558594 22.960938 C 41.296875 22.972656 41.296875 22.972656 41.0625 22.921875 C 40.816406 22.664062 40.664062 22.378906 40.5 22.066406 C 40.144531 21.429688 39.367188 20.691406 38.671875 20.460938 C 38.042969 20.40625 37.410156 20.519531 36.789062 20.597656 C 36.675781 20.613281 36.5625 20.628906 36.449219 20.640625 C 36.152344 20.679688 35.859375 20.714844 35.5625 20.753906 C 35.085938 20.816406 34.609375 20.875 34.136719 20.933594 C 33.96875 20.953125 33.804688 20.976562 33.640625 20.996094 C 33.539062 21.007812 33.4375 21.023438 33.335938 21.035156 C 33.246094 21.046875 33.160156 21.058594 33.070312 21.070312 C 32.871094 21.089844 32.683594 21.097656 32.484375 21.09375 C 32.414062 20.863281 32.34375 20.628906 32.273438 20.398438 C 32.253906 20.332031 32.234375 20.269531 32.210938 20.199219 C 32.191406 20.136719 32.175781 20.074219 32.15625 20.007812 C 32.128906 19.921875 32.128906 19.921875 32.101562 19.832031 C 32.0625 19.6875 32.0625 19.6875 32.0625 19.546875 C 33.363281 19.113281 34.703125 18.847656 36.058594 18.644531 C 36.164062 18.628906 36.164062 18.628906 36.273438 18.613281 C 37.320312 18.460938 38.351562 18.375 39.40625 18.378906 Z M 39.40625 18.378906 "/>
<path style=" stroke:none;fill-rule:nonzero;fill:rgb(60.784314%,49.803922%,39.607843%);fill-opacity:1;" d="M 38.597656 22.089844 C 39.578125 22.9375 40.261719 24.300781 40.359375 25.59375 C 40.421875 27.191406 40.421875 27.191406 40.289062 27.914062 C 39.945312 27.808594 39.632812 27.667969 39.308594 27.507812 C 39.257812 27.480469 39.203125 27.453125 39.148438 27.425781 C 39.03125 27.371094 38.914062 27.3125 38.800781 27.257812 C 38.488281 27.101562 38.179688 26.953125 37.867188 26.800781 C 37.804688 26.769531 37.742188 26.738281 37.675781 26.707031 C 37.097656 26.421875 36.515625 26.148438 35.933594 25.875 C 35.839844 25.832031 35.742188 25.785156 35.648438 25.742188 C 35.597656 25.71875 35.550781 25.695312 35.5 25.671875 C 35.453125 25.648438 35.40625 25.625 35.355469 25.605469 C 35.28125 25.570312 35.28125 25.570312 35.207031 25.535156 C 34.605469 25.253906 34.003906 24.964844 33.402344 24.679688 C 33.277344 24.621094 33.152344 24.5625 33.03125 24.503906 C 32.855469 24.421875 32.683594 24.339844 32.507812 24.257812 C 32.457031 24.234375 32.40625 24.207031 32.355469 24.183594 C 32.019531 24.023438 31.6875 23.863281 31.359375 23.695312 C 31.402344 23.355469 31.453125 23.070312 31.640625 22.78125 C 31.789062 22.734375 31.789062 22.734375 31.972656 22.703125 C 32.042969 22.695312 32.109375 22.683594 32.183594 22.671875 C 32.257812 22.660156 32.335938 22.652344 32.414062 22.640625 C 32.53125 22.625 32.53125 22.625 32.652344 22.609375 C 32.917969 22.574219 33.183594 22.539062 33.449219 22.507812 C 33.546875 22.496094 33.648438 22.484375 33.746094 22.472656 C 34.003906 22.441406 34.261719 22.410156 34.519531 22.378906 C 34.78125 22.347656 35.039062 22.316406 35.296875 22.285156 C 35.59375 22.246094 35.886719 22.210938 36.179688 22.175781 C 36.3125 22.160156 36.3125 22.160156 36.449219 22.144531 C 36.582031 22.128906 36.582031 22.128906 36.714844 22.113281 C 36.90625 22.089844 37.097656 22.0625 37.289062 22.035156 C 37.339844 22.027344 37.390625 22.023438 37.441406 22.015625 C 37.585938 21.996094 37.726562 21.976562 37.867188 21.957031 C 38.144531 21.933594 38.355469 21.941406 38.597656 22.089844 Z M 38.597656 22.089844 "/>
<path style=" stroke:none;fill-rule:nonzero;fill:rgb(74.901961%,20%,22.352941%);fill-opacity:1;" d="M 34.691406 14.234375 C 34.757812 14.253906 34.820312 14.273438 34.886719 14.289062 C 35.09375 14.351562 35.304688 14.410156 35.511719 14.472656 C 35.65625 14.511719 35.800781 14.554688 35.945312 14.597656 C 36.242188 14.679688 36.535156 14.765625 36.832031 14.851562 C 37.179688 14.953125 37.523438 15.050781 37.875 15.148438 C 38.121094 15.21875 38.367188 15.289062 38.617188 15.359375 C 38.730469 15.390625 38.847656 15.421875 38.964844 15.457031 C 39.125 15.5 39.285156 15.546875 39.445312 15.59375 C 39.492188 15.605469 39.539062 15.617188 39.589844 15.632812 C 39.828125 15.699219 39.996094 15.757812 40.148438 15.960938 C 40.214844 16.113281 40.214844 16.113281 40.265625 16.277344 C 40.292969 16.359375 40.292969 16.359375 40.320312 16.441406 C 40.359375 16.59375 40.359375 16.59375 40.359375 16.804688 C 40.25 16.804688 40.25 16.804688 40.140625 16.804688 C 37.03125 16.824219 33.722656 17.140625 30.824219 18.359375 C 30.65625 18.421875 30.65625 18.421875 30.445312 18.421875 C 30.640625 17.339844 30.976562 16.527344 31.738281 15.730469 C 31.96875 15.484375 32.179688 15.222656 32.394531 14.960938 C 33.089844 14.144531 33.644531 13.929688 34.691406 14.234375 Z M 34.691406 14.234375 "/>
<path style=" stroke:none;fill-rule:nonzero;fill:rgb(56.078431%,72.54902%,34.117647%);fill-opacity:1;" d="M 29.179688 17.085938 C 29.167969 17.148438 29.167969 17.148438 29.152344 17.210938 C 29.128906 17.335938 29.105469 17.460938 29.078125 17.585938 C 29.054688 17.714844 29.027344 17.847656 29 17.976562 C 28.863281 18.625 28.738281 19.378906 29.109375 19.96875 C 29.359375 20.195312 29.589844 20.203125 29.914062 20.199219 C 30.167969 20.171875 30.40625 20.105469 30.65625 20.039062 C 30.726562 20.246094 30.796875 20.453125 30.867188 20.660156 C 30.886719 20.71875 30.90625 20.777344 30.929688 20.835938 C 30.957031 20.921875 30.957031 20.921875 30.984375 21.007812 C 31.003906 21.058594 31.019531 21.109375 31.039062 21.164062 C 31.078125 21.304688 31.078125 21.304688 31.078125 21.515625 C 30.96875 21.550781 30.96875 21.550781 30.855469 21.585938 C 30.449219 21.761719 30.308594 22.105469 30.148438 22.496094 C 30.082031 22.683594 30.015625 22.871094 29.953125 23.0625 C 29.074219 22.683594 28.207031 22.277344 27.34375 21.867188 C 26.660156 21.542969 25.972656 21.222656 25.273438 20.921875 C 24.898438 20.757812 24.898438 20.757812 24.820312 20.601562 C 24.882812 20.453125 24.882812 20.453125 24.976562 20.265625 C 25.222656 19.742188 25.347656 19.199219 25.480469 18.636719 C 25.5 18.558594 25.519531 18.480469 25.539062 18.398438 C 25.558594 18.328125 25.574219 18.257812 25.59375 18.1875 C 25.675781 17.964844 25.757812 17.863281 25.945312 17.71875 C 26.148438 17.652344 26.148438 17.652344 26.382812 17.605469 C 26.46875 17.589844 26.558594 17.570312 26.648438 17.554688 C 26.78125 17.527344 26.78125 17.527344 26.921875 17.503906 C 27.097656 17.46875 27.273438 17.433594 27.453125 17.398438 C 27.539062 17.382812 27.628906 17.367188 27.71875 17.351562 C 28.070312 17.28125 28.417969 17.203125 28.769531 17.125 C 28.96875 17.085938 28.96875 17.085938 29.179688 17.085938 Z M 29.179688 17.085938 "/>
<path style=" stroke:none;fill-rule:nonzero;fill:rgb(46.666667%,40.784314%,15.686275%);fill-opacity:1;" d="M 23.203125 23.554688 C 23.941406 23.921875 24.671875 24.296875 25.398438 24.683594 C 25.5 24.738281 25.597656 24.789062 25.695312 24.839844 C 26.394531 25.214844 27.09375 25.589844 27.789062 25.960938 C 28.246094 26.207031 28.703125 26.449219 29.160156 26.691406 C 29.214844 26.71875 29.265625 26.746094 29.320312 26.777344 C 29.578125 26.910156 29.832031 27.046875 30.089844 27.179688 C 30.371094 27.332031 30.65625 27.480469 30.9375 27.632812 C 31.015625 27.675781 31.015625 27.675781 31.09375 27.714844 C 31.25 27.800781 31.402344 27.882812 31.558594 27.96875 C 31.605469 27.996094 31.652344 28.019531 31.703125 28.046875 C 31.949219 28.183594 32.132812 28.300781 32.273438 28.546875 C 32.332031 28.8125 32.332031 29.070312 32.199219 29.3125 C 32.074219 29.464844 31.957031 29.585938 31.78125 29.671875 C 31.363281 29.703125 31.09375 29.648438 30.726562 29.441406 C 30.679688 29.414062 30.632812 29.390625 30.585938 29.363281 C 30.4375 29.285156 30.289062 29.199219 30.136719 29.117188 C 30.03125 29.0625 29.925781 29.003906 29.820312 28.945312 C 29.597656 28.824219 29.378906 28.707031 29.160156 28.585938 C 28.691406 28.332031 28.226562 28.085938 27.757812 27.839844 C 27.132812 27.511719 26.511719 27.183594 25.894531 26.847656 C 25.851562 26.824219 25.808594 26.800781 25.761719 26.777344 C 25.679688 26.734375 25.59375 26.6875 25.507812 26.640625 C 24.746094 26.230469 23.980469 25.835938 23.203125 25.453125 C 23.203125 24.828125 23.203125 24.199219 23.203125 23.554688 Z M 23.203125 23.554688 "/>
<path style=" stroke:none;fill-rule:nonzero;fill:rgb(61.568627%,50.588235%,40.392157%);fill-opacity:1;" d="M 29.390625 55.125 C 31.59375 55.125 33.800781 55.125 36.070312 55.125 C 35.957031 55.347656 35.890625 55.460938 35.730469 55.632812 C 35.492188 55.902344 35.347656 56.1875 35.203125 56.515625 C 35.179688 56.566406 35.15625 56.621094 35.132812 56.675781 C 35.035156 56.882812 34.949219 57.085938 34.875 57.304688 C 34.222656 57.3125 33.570312 57.320312 32.917969 57.324219 C 32.613281 57.324219 32.3125 57.328125 32.007812 57.332031 C 31.714844 57.335938 31.421875 57.335938 31.128906 57.335938 C 31.019531 57.339844 30.90625 57.339844 30.792969 57.34375 C 30.636719 57.34375 30.480469 57.34375 30.324219 57.34375 C 30.191406 57.34375 30.191406 57.34375 30.054688 57.347656 C 29.8125 57.304688 29.8125 57.304688 29.390625 56.953125 C 29.390625 56.351562 29.390625 55.746094 29.390625 55.125 Z M 29.390625 55.125 "/>
<path style=" stroke:none;fill-rule:nonzero;fill:rgb(93.72549%,90.588235%,40.392157%);fill-opacity:1;" d="M 40.21875 20.390625 C 40.273438 20.429688 40.332031 20.472656 40.390625 20.511719 C 41.226562 21.132812 41.796875 22 42.257812 22.921875 C 41.449219 23.039062 41.449219 23.039062 41.0625 22.921875 C 40.804688 22.667969 40.660156 22.386719 40.5 22.066406 C 40.152344 21.429688 39.363281 20.691406 38.671875 20.460938 C 38.042969 20.40625 37.410156 20.519531 36.789062 20.597656 C 36.675781 20.613281 36.5625 20.628906 36.449219 20.640625 C 36.152344 20.679688 35.859375 20.71875 35.5625 20.753906 C 35.085938 20.816406 34.609375 20.875 34.136719 20.933594 C 33.972656 20.957031 33.804688 20.976562 33.640625 20.996094 C 33.539062 21.011719 33.4375 21.023438 33.335938 21.035156 C 33.203125 21.050781 33.203125 21.050781 33.070312 21.070312 C 32.835938 21.09375 32.835938 21.09375 32.484375 21.09375 C 32.414062 20.816406 32.34375 20.535156 32.273438 20.25 C 33.117188 20.128906 33.960938 20.015625 34.804688 19.898438 C 34.898438 19.886719 34.898438 19.886719 34.992188 19.875 C 35.359375 19.824219 35.726562 19.773438 36.09375 19.722656 C 36.210938 19.707031 36.328125 19.691406 36.445312 19.675781 C 37.902344 19.476562 38.96875 19.503906 40.21875 20.390625 Z M 40.21875 20.390625 "/>
<path style=" stroke:none;fill-rule:nonzero;fill:rgb(98.039216%,98.431373%,98.431373%);fill-opacity:1;" d="M 41.695312 24.46875 C 42.304688 24.503906 42.796875 24.667969 43.242188 25.101562 C 43.949219 26.058594 43.726562 27.132812 43.628906 28.25 C 43.617188 28.367188 43.609375 28.484375 43.597656 28.601562 C 43.574219 28.886719 43.546875 29.175781 43.523438 29.460938 C 43.140625 29.335938 42.777344 29.183594 42.410156 29.011719 C 42.351562 28.984375 42.289062 28.957031 42.226562 28.929688 C 42.140625 28.890625 42.140625 28.890625 42.050781 28.847656 C 41.996094 28.824219 41.945312 28.800781 41.890625 28.773438 C 41.765625 28.6875 41.765625 28.6875 41.707031 28.558594 C 41.691406 28.371094 41.722656 28.21875 41.761719 28.03125 C 41.851562 27.523438 41.855469 27.03125 41.851562 26.515625 C 41.855469 26.429688 41.855469 26.339844 41.855469 26.25 C 41.855469 25.640625 41.796875 25.066406 41.695312 24.46875 Z M 41.695312 24.46875 "/>
<path style=" stroke:none;fill-rule:nonzero;fill:rgb(44.705882%,37.254902%,30.196078%);fill-opacity:1;" d="M 38.726562 22.203125 C 39.699219 23.105469 40.316406 24.5 40.367188 25.816406 C 40.402344 27.304688 40.402344 27.304688 40.289062 27.914062 C 39.921875 27.804688 39.585938 27.648438 39.242188 27.484375 C 39.1875 27.457031 39.132812 27.429688 39.078125 27.40625 C 38.941406 27.339844 38.808594 27.277344 38.671875 27.210938 C 38.882812 27.144531 38.945312 27.136719 39.164062 27.210938 C 39.203125 25.828125 39.078125 24.546875 38.144531 23.445312 C 37.925781 23.21875 37.691406 23.011719 37.449219 22.8125 C 37.335938 22.710938 37.335938 22.710938 37.265625 22.570312 C 37.261719 22.429688 37.261719 22.289062 37.265625 22.148438 C 37.171875 22.125 37.078125 22.101562 36.984375 22.078125 C 37.164062 22.054688 37.34375 22.027344 37.523438 22.003906 C 37.574219 21.996094 37.625 21.988281 37.679688 21.980469 C 38.089844 21.925781 38.394531 21.917969 38.726562 22.203125 Z M 38.726562 22.203125 "/>
<path style=" stroke:none;fill-rule:nonzero;fill:rgb(46.27451%,40.392157%,16.078431%);fill-opacity:1;" d="M 27.101562 43.296875 C 27.179688 43.296875 27.261719 43.296875 27.34375 43.292969 C 27.710938 43.289062 28.078125 43.285156 28.445312 43.285156 C 28.636719 43.28125 28.832031 43.28125 29.023438 43.277344 C 29.304688 43.273438 29.582031 43.269531 29.863281 43.269531 C 29.949219 43.265625 30.035156 43.265625 30.125 43.261719 C 30.792969 43.265625 30.792969 43.265625 31.097656 43.515625 C 31.230469 43.648438 31.285156 43.722656 31.347656 43.902344 C 31.324219 44.257812 31.28125 44.464844 31.007812 44.71875 C 30.78125 44.859375 30.605469 44.878906 30.339844 44.878906 C 30.261719 44.878906 30.183594 44.882812 30.105469 44.882812 C 30.023438 44.882812 29.9375 44.882812 29.851562 44.882812 C 29.765625 44.882812 29.679688 44.882812 29.589844 44.882812 C 29.410156 44.886719 29.226562 44.886719 29.046875 44.886719 C 28.769531 44.886719 28.488281 44.886719 28.210938 44.890625 C 28.035156 44.890625 27.859375 44.890625 27.683594 44.890625 C 27.597656 44.890625 27.515625 44.894531 27.429688 44.894531 C 26.984375 44.890625 26.703125 44.882812 26.367188 44.578125 C 26.183594 44.335938 26.191406 44.097656 26.226562 43.804688 C 26.457031 43.421875 26.664062 43.304688 27.101562 43.296875 Z M 27.101562 43.296875 "/>
<path style=" stroke:none;fill-rule:nonzero;fill:rgb(45.882353%,40%,14.901961%);fill-opacity:1;" d="M 46.054688 32.554688 C 46.257812 32.679688 46.371094 32.765625 46.476562 32.976562 C 46.527344 33.25 46.535156 33.5 46.402344 33.746094 C 45.855469 34.398438 44.585938 35.714844 43.71875 35.816406 C 43.371094 35.78125 43.273438 35.679688 43.03125 35.4375 C 42.949219 35.277344 42.945312 35.171875 42.9375 34.992188 C 42.9375 34.941406 42.933594 34.886719 42.929688 34.832031 C 42.996094 34.464844 43.304688 34.246094 43.585938 34.027344 C 43.949219 33.734375 44.300781 33.4375 44.652344 33.128906 C 45.445312 32.441406 45.445312 32.441406 46.054688 32.554688 Z M 46.054688 32.554688 "/>
<path style=" stroke:none;fill-rule:nonzero;fill:rgb(48.235294%,42.352941%,17.647059%);fill-opacity:1;" d="M 39.246094 43.988281 C 39.394531 43.988281 39.546875 43.988281 39.695312 43.984375 C 40.601562 43.976562 40.601562 43.976562 40.992188 44.296875 C 41.164062 44.558594 41.179688 44.769531 41.132812 45.070312 C 40.984375 45.355469 40.871094 45.523438 40.570312 45.632812 C 40.25 45.660156 39.929688 45.65625 39.605469 45.65625 C 39.449219 45.65625 39.292969 45.65625 39.136719 45.65625 C 39.035156 45.65625 38.9375 45.65625 38.835938 45.65625 C 38.746094 45.660156 38.65625 45.660156 38.5625 45.660156 C 38.253906 45.625 38.082031 45.515625 37.847656 45.320312 C 37.675781 45.105469 37.664062 44.847656 37.6875 44.578125 C 38.011719 43.925781 38.617188 43.988281 39.246094 43.988281 Z M 39.246094 43.988281 "/>
<path style=" stroke:none;fill-rule:nonzero;fill:rgb(0.392157%,0.784314%,0%);fill-opacity:1;" d="M 48.09375 20.8125 C 48.390625 20.941406 48.511719 21.089844 48.65625 21.375 C 48.703125 21.699219 48.691406 22.027344 48.691406 22.355469 C 48.695312 22.445312 48.695312 22.53125 48.699219 22.625 C 48.699219 23.351562 48.699219 23.351562 48.488281 23.613281 C 48.234375 23.824219 48.082031 23.863281 47.75 23.859375 C 47.488281 23.816406 47.363281 23.671875 47.179688 23.484375 C 47.03125 23.191406 47.085938 22.808594 47.085938 22.484375 C 47.082031 22.390625 47.082031 22.292969 47.078125 22.199219 C 47.054688 21.308594 47.054688 21.308594 47.277344 21.035156 C 47.5625 20.800781 47.726562 20.789062 48.09375 20.8125 Z M 48.09375 20.8125 "/>
<path style=" stroke:none;fill-rule:nonzero;fill:rgb(47.058824%,40.784314%,16.078431%);fill-opacity:1;" d="M 38.882812 41.835938 C 39.144531 41.980469 39.28125 42.082031 39.445312 42.328125 C 39.480469 42.628906 39.464844 42.785156 39.320312 43.054688 C 39.105469 43.3125 38.976562 43.371094 38.640625 43.410156 C 37.804688 43.421875 37.804688 43.421875 37.554688 43.214844 C 37.335938 42.945312 37.296875 42.765625 37.304688 42.421875 C 37.351562 42.171875 37.449219 42.058594 37.648438 41.910156 C 38.039062 41.75 38.472656 41.769531 38.882812 41.835938 Z M 38.882812 41.835938 "/>
<path style=" stroke:none;fill-rule:nonzero;fill:rgb(87.843137%,88.235294%,88.627451%);fill-opacity:1;" d="M 41.90625 25.945312 C 41.929688 25.945312 41.953125 25.945312 41.976562 25.945312 C 41.972656 26.023438 41.96875 26.097656 41.964844 26.175781 C 41.953125 26.75 41.984375 27.179688 42.394531 27.605469 C 42.644531 27.859375 42.914062 28.042969 43.21875 28.222656 C 43.394531 28.332031 43.394531 28.332031 43.523438 28.476562 C 43.582031 28.8125 43.566406 29.125 43.523438 29.460938 C 43.136719 29.34375 42.777344 29.183594 42.410156 29.011719 C 42.351562 28.984375 42.289062 28.957031 42.226562 28.929688 C 42.140625 28.890625 42.140625 28.890625 42.050781 28.847656 C 41.996094 28.824219 41.945312 28.800781 41.890625 28.773438 C 41.765625 28.6875 41.765625 28.6875 41.710938 28.546875 C 41.691406 28.371094 41.71875 28.238281 41.757812 28.066406 C 41.886719 27.367188 41.882812 26.652344 41.90625 25.945312 Z M 41.90625 25.945312 "/>
<path style=" stroke:none;fill-rule:nonzero;fill:rgb(47.843137%,63.529412%,27.45098%);fill-opacity:1;" d="M 27.421875 18.703125 C 27.636719 18.824219 27.800781 18.972656 27.914062 19.195312 C 27.941406 19.492188 27.933594 19.652344 27.789062 19.921875 C 27.636719 20.101562 27.566406 20.167969 27.351562 20.25 C 27.023438 20.273438 26.777344 20.222656 26.507812 20.035156 C 26.332031 19.777344 26.253906 19.578125 26.296875 19.265625 C 26.546875 18.753906 26.863281 18.617188 27.421875 18.703125 Z M 27.421875 18.703125 "/>
<path style=" stroke:none;fill-rule:nonzero;fill:rgb(47.843137%,63.921569%,27.843137%);fill-opacity:1;" d="M 44.507812 16.101562 C 44.765625 16.246094 44.90625 16.347656 45.070312 16.59375 C 45.125 17.0625 45.125 17.0625 44.996094 17.285156 C 44.832031 17.484375 44.703125 17.632812 44.4375 17.664062 C 44.144531 17.675781 43.988281 17.675781 43.734375 17.515625 C 43.5 17.269531 43.5 17.082031 43.503906 16.753906 C 43.535156 16.515625 43.632812 16.402344 43.804688 16.242188 C 44.035156 16.082031 44.230469 16.070312 44.507812 16.101562 Z M 44.507812 16.101562 "/>
<path style=" stroke:none;fill-rule:nonzero;fill:rgb(47.45098%,63.529412%,27.45098%);fill-opacity:1;" d="M 28.335938 20.25 C 28.609375 20.457031 28.742188 20.65625 28.804688 20.992188 C 28.742188 21.3125 28.632812 21.429688 28.40625 21.65625 C 28.164062 21.777344 27.898438 21.761719 27.632812 21.726562 C 27.429688 21.601562 27.316406 21.515625 27.210938 21.304688 C 27.1875 20.933594 27.175781 20.6875 27.421875 20.390625 C 27.703125 20.148438 27.992188 20.117188 28.335938 20.25 Z M 28.335938 20.25 "/>
<path style=" stroke:none;fill-rule:nonzero;fill:rgb(93.72549%,92.156863%,62.352941%);fill-opacity:1;" d="M 41.414062 18.773438 C 42.390625 19.371094 43.316406 20.046875 44.226562 20.742188 C 44.15625 20.765625 44.085938 20.789062 44.015625 20.8125 C 44.015625 20.765625 44.015625 20.71875 44.015625 20.671875 C 43.875 20.648438 43.738281 20.625 43.59375 20.601562 C 43.59375 20.554688 43.59375 20.507812 43.59375 20.460938 C 43.539062 20.441406 43.484375 20.421875 43.429688 20.398438 C 43.242188 20.320312 43.242188 20.320312 43.03125 20.179688 C 43.03125 20.109375 43.03125 20.039062 43.03125 19.96875 C 42.988281 19.957031 42.945312 19.945312 42.902344 19.933594 C 42.519531 19.824219 42.359375 19.730469 42.117188 19.40625 C 41.933594 19.273438 41.75 19.148438 41.558594 19.023438 C 41.511719 18.988281 41.464844 18.953125 41.414062 18.914062 C 41.414062 18.867188 41.414062 18.820312 41.414062 18.773438 Z M 41.414062 18.773438 "/>
<path style=" stroke:none;fill-rule:nonzero;fill:rgb(86.666667%,85.490196%,73.72549%);fill-opacity:1;" d="M 23.203125 21.726562 C 23.472656 21.816406 23.714844 21.902344 23.96875 22.015625 C 24.023438 22.042969 24.078125 22.066406 24.132812 22.09375 C 24.175781 22.109375 24.214844 22.128906 24.257812 22.148438 C 24.234375 22.195312 24.210938 22.242188 24.1875 22.289062 C 23.734375 22.378906 23.734375 22.378906 23.554688 22.289062 C 23.507812 22.195312 23.460938 22.101562 23.414062 22.007812 C 23.367188 21.984375 23.320312 21.960938 23.273438 21.9375 C 23.273438 22.472656 23.273438 23.003906 23.273438 23.554688 C 23.25 23.554688 23.226562 23.554688 23.203125 23.554688 C 23.203125 22.953125 23.203125 22.347656 23.203125 21.726562 Z M 23.203125 21.726562 "/>
<path style=" stroke:none;fill-rule:nonzero;fill:rgb(94.509804%,95.686275%,94.901961%);fill-opacity:1;" d="M 51.257812 24.046875 C 51.328125 24.1875 51.328125 24.1875 51.28125 24.386719 C 51.183594 24.617188 51.070312 24.773438 50.90625 24.960938 C 50.90625 24.890625 50.90625 24.820312 50.90625 24.75 C 50.859375 24.75 50.8125 24.75 50.765625 24.75 C 50.765625 24.867188 50.765625 24.980469 50.765625 25.101562 C 50.648438 25.125 50.535156 25.148438 50.414062 25.171875 C 50.636719 24.738281 50.925781 24.402344 51.257812 24.046875 Z M 51.257812 24.046875 "/>
<path style=" stroke:none;fill-rule:nonzero;fill:rgb(50.588235%,61.568627%,30.588235%);fill-opacity:1;" d="M 47.039062 21.515625 C 47.0625 21.515625 47.085938 21.515625 47.109375 21.515625 C 47.109375 21.570312 47.109375 21.621094 47.113281 21.675781 C 47.113281 21.917969 47.121094 22.160156 47.125 22.402344 C 47.128906 22.488281 47.128906 22.570312 47.128906 22.65625 C 47.148438 23.265625 47.148438 23.265625 47.460938 23.765625 C 47.367188 23.8125 47.273438 23.859375 47.179688 23.90625 C 47.015625 23.527344 46.957031 23.210938 46.976562 22.800781 C 46.980469 22.6875 46.980469 22.6875 46.988281 22.574219 C 46.992188 22.496094 46.996094 22.417969 47 22.335938 C 47.003906 22.257812 47.007812 22.179688 47.011719 22.097656 C 47.019531 21.902344 47.027344 21.710938 47.039062 21.515625 Z M 47.039062 21.515625 "/>
<path style=" stroke:none;fill-rule:nonzero;fill:rgb(90.196078%,90.980392%,74.901961%);fill-opacity:1;" d="M 36.5625 37.265625 C 36.5625 37.40625 36.5625 37.542969 36.5625 37.6875 C 36.492188 37.722656 36.492188 37.722656 36.421875 37.757812 C 36.398438 37.710938 36.375 37.664062 36.351562 37.617188 C 36.332031 37.664062 36.3125 37.707031 36.292969 37.753906 C 36.210938 37.898438 36.210938 37.898438 36 37.96875 C 35.949219 38.109375 35.949219 38.109375 35.929688 38.25 C 35.882812 38.25 35.835938 38.25 35.789062 38.25 C 35.765625 38.296875 35.742188 38.34375 35.71875 38.390625 C 35.671875 38.367188 35.625 38.34375 35.578125 38.320312 C 36.351562 37.265625 36.351562 37.265625 36.5625 37.265625 Z M 36.5625 37.265625 "/>
<path style=" stroke:none;fill-rule:nonzero;fill:rgb(95.294118%,80.392157%,48.627451%);fill-opacity:1;" d="M 36.28125 18.773438 C 35.589844 19.019531 34.898438 19.03125 34.171875 19.054688 C 34.503906 18.867188 34.851562 18.84375 35.226562 18.796875 C 35.296875 18.785156 35.367188 18.777344 35.4375 18.765625 C 35.507812 18.757812 35.574219 18.746094 35.644531 18.738281 C 35.707031 18.730469 35.765625 18.71875 35.832031 18.710938 C 36 18.703125 36.121094 18.722656 36.28125 18.773438 Z M 36.28125 18.773438 "/>
<path style=" stroke:none;fill-rule:nonzero;fill:rgb(90.980392%,91.764706%,91.372549%);fill-opacity:1;" d="M 42.539062 54.421875 C 42.5625 54.421875 42.585938 54.421875 42.609375 54.421875 C 42.609375 54.5625 42.609375 54.699219 42.609375 54.84375 C 42.5625 54.84375 42.515625 54.84375 42.46875 54.84375 C 42.46875 54.890625 42.46875 54.9375 42.46875 54.984375 C 42.355469 55.082031 42.238281 55.175781 42.117188 55.265625 C 42.070312 55.242188 42.023438 55.21875 41.976562 55.195312 C 42.011719 55.152344 42.046875 55.109375 42.082031 55.0625 C 42.148438 54.976562 42.148438 54.976562 42.21875 54.886719 C 42.261719 54.832031 42.308594 54.773438 42.355469 54.714844 C 42.46875 54.570312 42.46875 54.570312 42.539062 54.421875 Z M 42.539062 54.421875 "/>
<path style=" stroke:none;fill-rule:nonzero;fill:rgb(91.372549%,83.921569%,44.705882%);fill-opacity:1;" d="M 34.171875 19.125 C 33.980469 19.21875 33.820312 19.199219 33.609375 19.195312 C 33.609375 19.242188 33.609375 19.289062 33.609375 19.335938 C 33.402344 19.335938 33.191406 19.335938 32.976562 19.335938 C 32.976562 19.3125 32.976562 19.289062 32.976562 19.265625 C 33.121094 19.226562 33.269531 19.191406 33.414062 19.15625 C 33.496094 19.136719 33.578125 19.113281 33.664062 19.09375 C 33.871094 19.058594 33.976562 19.050781 34.171875 19.125 Z M 34.171875 19.125 "/>
<path style=" stroke:none;fill-rule:nonzero;fill:rgb(91.764706%,88.627451%,69.411765%);fill-opacity:1;" d="M 45.5625 32.484375 C 45.910156 32.472656 46.160156 32.46875 46.476562 32.625 C 46.476562 32.742188 46.476562 32.855469 46.476562 32.976562 C 46.417969 32.921875 46.359375 32.863281 46.296875 32.804688 C 46.066406 32.609375 45.867188 32.574219 45.5625 32.554688 C 45.5625 32.53125 45.5625 32.507812 45.5625 32.484375 Z M 45.5625 32.484375 "/>
<path style=" stroke:none;fill-rule:nonzero;fill:rgb(91.764706%,92.941176%,91.764706%);fill-opacity:1;" d="M 50.203125 25.453125 C 50.25 25.5 50.296875 25.546875 50.34375 25.59375 C 50.316406 25.742188 50.316406 25.742188 50.273438 25.875 C 50.226562 25.875 50.179688 25.875 50.132812 25.875 C 50.109375 25.921875 50.085938 25.96875 50.0625 26.015625 C 50.015625 25.992188 49.96875 25.96875 49.921875 25.945312 C 50.015625 25.78125 50.109375 25.621094 50.203125 25.453125 Z M 50.203125 25.453125 "/>
<path style=" stroke:none;fill-rule:nonzero;fill:rgb(11.764706%,11.764706%,11.764706%);fill-opacity:1;" d="M 28.125 57.867188 C 28.390625 57.972656 28.519531 58.132812 28.6875 58.359375 C 28.617188 58.359375 28.546875 58.359375 28.476562 58.359375 C 28.378906 58.25 28.378906 58.25 28.289062 58.113281 C 28.257812 58.066406 28.226562 58.023438 28.195312 57.976562 C 28.160156 57.921875 28.160156 57.921875 28.125 57.867188 Z M 28.125 57.867188 "/>
<path style=" stroke:none;fill-rule:nonzero;fill:rgb(89.803922%,91.372549%,90.980392%);fill-opacity:1;" d="M 51.890625 23.484375 C 51.890625 23.695312 51.890625 23.695312 51.714844 23.882812 C 51.65625 23.9375 51.597656 23.992188 51.539062 24.046875 C 51.46875 24.023438 51.398438 24 51.328125 23.976562 C 51.515625 23.8125 51.699219 23.652344 51.890625 23.484375 Z M 51.890625 23.484375 "/>
<path style=" stroke:none;fill-rule:nonzero;fill:rgb(85.490196%,86.666667%,85.098039%);fill-opacity:1;" d="M 50.765625 24.609375 C 50.859375 24.796875 50.8125 24.902344 50.765625 25.101562 C 50.648438 25.125 50.535156 25.148438 50.414062 25.171875 C 50.6875 24.6875 50.6875 24.6875 50.765625 24.609375 Z M 50.765625 24.609375 "/>
<path style=" stroke:none;fill-rule:nonzero;fill:rgb(89.803922%,90.196078%,47.843137%);fill-opacity:1;" d="M 42.539062 22.710938 C 42.585938 22.710938 42.632812 22.710938 42.679688 22.710938 C 42.703125 22.757812 42.726562 22.804688 42.75 22.851562 C 42.820312 22.898438 42.890625 22.945312 42.960938 22.992188 C 42.777344 23.058594 42.703125 23.074219 42.523438 22.996094 C 42.480469 22.972656 42.441406 22.945312 42.398438 22.921875 C 42.445312 22.921875 42.492188 22.921875 42.539062 22.921875 C 42.539062 22.851562 42.539062 22.78125 42.539062 22.710938 Z M 42.539062 22.710938 "/>
</g>
</svg>
