<?xml version="1.0" encoding="UTF-8"?>
<!-- Generator: visioncortex VTracer 0.6.3 -->
<svg version="1.1" xmlns="http://www.w3.org/2000/svg" width="1024" height="1024">
<path d="M0 0 C337.92 0 675.84 0 1024 0 C1024 337.92 1024 675.84 1024 1024 C686.08 1024 348.16 1024 0 1024 C0 686.08 0 348.16 0 0 Z " fill="#FDFDFE" transform="translate(0,0)"/>
<path d="M0 0 C1.57 0.44 3.13 0.88 4.7 1.32 C8.78 2.47 12.86 3.65 16.93 4.83 C21.07 6.02 25.21 7.19 29.35 8.36 C34.73 9.88 40.1 11.41 45.48 12.96 C46.84 13.35 48.2 13.74 49.57 14.13 C52.37 14.93 55.15 15.77 57.91 16.72 C68.19 20.25 77.13 17.41 87.36 14.66 C89.38 14.12 91.39 13.59 93.41 13.06 C98.41 11.75 103.4 10.42 108.4 9.09 C112.64 7.96 116.88 6.84 121.13 5.73 C123.1 5.21 125.08 4.68 127.05 4.14 C128.26 3.83 129.47 3.51 130.71 3.18 C131.77 2.9 132.82 2.62 133.91 2.33 C142.04 0.77 147.24 2.37 154.04 6.73 C157.6 9.52 160.83 12.54 164.04 15.73 C164.67 16.32 165.29 16.92 165.94 17.53 C174.6 26.4 179.06 38.41 181.75 50.27 C183.24 56.79 184.52 62.35 190.29 66.23 C193.76 68.17 197.35 69.87 200.91 71.62 C213.67 77.9 213.67 77.9 219.04 82.73 C219.79 83.4 220.53 84.06 221.3 84.75 C231.91 94.77 238.27 107.78 239.22 122.48 C239.28 125.69 239.32 128.9 239.35 132.11 C239.38 133.22 239.41 134.33 239.44 135.47 C239.49 142.15 239.18 146.39 235.04 151.73 C232.59 153.96 232.59 153.96 229.91 155.92 C220.77 163.15 214.31 171.86 208.29 181.73 C207.83 182.46 207.38 183.19 206.91 183.94 C206.5 184.64 206.1 185.33 205.68 186.04 C205.31 186.66 204.95 187.27 204.57 187.91 C203.84 189.74 203.84 189.74 204.69 191.52 C206.07 193.87 206.07 193.87 208.09 196.44 C211.38 202.28 210.59 209.06 210.55 215.57 C210.56 217.09 210.57 218.62 210.57 220.14 C210.59 224.33 210.59 228.52 210.58 232.71 C210.57 237.23 210.59 241.74 210.6 246.26 C210.62 255.11 210.62 263.96 210.61 272.81 C210.61 280 210.61 287.2 210.61 294.39 C210.61 295.41 210.62 296.44 210.62 297.49 C210.62 299.57 210.62 301.65 210.62 303.73 C210.64 323.23 210.63 342.73 210.61 362.23 C210.6 380.08 210.61 397.92 210.64 415.76 C210.67 434.08 210.68 452.4 210.67 470.72 C210.67 472.79 210.67 474.86 210.67 476.94 C210.67 477.96 210.67 478.98 210.67 480.03 C210.67 487.21 210.68 494.39 210.69 501.58 C210.71 510.33 210.71 519.09 210.68 527.84 C210.67 532.31 210.67 536.78 210.69 541.24 C210.71 545.33 210.7 549.42 210.67 553.51 C210.67 554.99 210.67 556.47 210.69 557.95 C210.75 566.01 210.75 572.59 205.04 578.73 C198.23 584.82 191.29 586.05 182.4 585.83 C180.67 585.8 178.94 585.78 177.21 585.75 C176.3 585.73 175.4 585.72 174.46 585.7 C169.62 585.62 164.78 585.6 159.94 585.58 C153.79 585.54 147.65 585.49 141.5 585.36 C136.52 585.25 131.54 585.22 126.56 585.23 C124.67 585.22 122.78 585.19 120.89 585.13 C111.11 584.47 111.11 584.47 102.42 588.08 C99.61 591.38 97.8 595.02 96 598.93 C86.74 616.28 65.75 627.57 48.04 634.17 C41.37 636.68 37.82 639.44 33.71 645.43 C29.07 651.8 21.44 654.02 14.04 655.73 C10.71 656.11 7.42 656.15 4.07 656.13 C2.65 656.14 2.65 656.14 1.21 656.16 C-1.87 656.17 -4.94 656.17 -8.02 656.16 C-10.18 656.17 -12.34 656.17 -14.5 656.18 C-19.01 656.19 -23.52 656.19 -28.04 656.18 C-33.8 656.17 -39.56 656.19 -45.32 656.21 C-49.78 656.23 -54.23 656.23 -58.69 656.23 C-60.81 656.23 -62.94 656.23 -65.06 656.25 C-68.04 656.26 -71.01 656.25 -73.99 656.23 C-74.85 656.24 -75.72 656.25 -76.61 656.26 C-86.09 656.15 -95.24 652.53 -101.96 645.73 C-106.32 639.73 -109.09 634.53 -109.07 627.05 C-109.07 625.67 -109.07 625.67 -109.07 624.26 C-109.07 623.28 -109.06 622.29 -109.06 621.28 C-109.06 620.26 -109.06 619.25 -109.05 618.2 C-109.05 614.96 -109.04 611.72 -109.02 608.48 C-109.02 606.28 -109.01 604.08 -109.01 601.89 C-109 596.5 -108.98 591.12 -108.96 585.73 C-109.85 585.74 -110.73 585.75 -111.64 585.76 C-120 585.84 -128.35 585.9 -136.71 585.94 C-141 585.96 -145.3 585.99 -149.6 586.03 C-153.75 586.08 -157.89 586.1 -162.04 586.11 C-163.62 586.12 -165.2 586.13 -166.78 586.15 C-176.27 586.28 -183.58 586.28 -191.2 579.84 C-191.74 579.2 -192.28 578.57 -192.84 577.92 C-193.39 577.29 -193.94 576.67 -194.52 576.02 C-197.85 570.73 -198.25 564.97 -198.22 558.86 C-198.22 557.72 -198.22 557.72 -198.23 556.54 C-198.24 553.98 -198.23 551.42 -198.23 548.86 C-198.23 547 -198.24 545.15 -198.24 543.29 C-198.25 538.19 -198.25 533.09 -198.25 527.99 C-198.25 522.49 -198.26 516.99 -198.27 511.49 C-198.29 500.71 -198.29 489.94 -198.3 479.17 C-198.3 470.41 -198.3 461.65 -198.31 452.9 C-198.32 432.11 -198.33 411.33 -198.33 390.55 C-198.33 389.89 -198.33 389.22 -198.33 388.54 C-198.33 385.17 -198.33 381.8 -198.33 378.44 C-198.33 377.77 -198.33 377.1 -198.33 376.41 C-198.33 375.06 -198.33 373.7 -198.33 372.35 C-198.33 351.3 -198.35 330.26 -198.37 309.21 C-198.4 285.56 -198.42 261.91 -198.42 238.26 C-198.42 225.74 -198.42 213.22 -198.44 200.7 C-198.46 190.04 -198.47 179.38 -198.45 168.73 C-198.45 163.29 -198.45 157.85 -198.46 152.41 C-198.48 147.43 -198.48 142.45 -198.46 137.47 C-198.46 135.67 -198.46 133.87 -198.47 132.07 C-198.49 129.62 -198.48 127.17 -198.46 124.72 C-198.47 124.02 -198.48 123.33 -198.49 122.61 C-198.39 115.94 -195.86 110.99 -191.65 105.98 C-187.32 102.65 -181.55 101.84 -176.32 100.62 C-172.86 99.9 -172.86 99.9 -169.96 97.73 C-168.86 94.96 -168.86 94.96 -168.06 91.65 C-167.73 90.41 -167.39 89.16 -167.05 87.88 C-166.71 86.56 -166.36 85.24 -166.02 83.92 C-165.01 80.1 -164 76.28 -162.97 72.47 C-162.3 70 -161.66 67.53 -161.03 65.06 C-160.56 63.34 -160.56 63.34 -160.08 61.59 C-159.82 60.58 -159.55 59.57 -159.28 58.53 C-157.5 54.76 -155.39 53.08 -151.96 50.73 C-148.69 49.56 -148.69 49.56 -145.09 48.77 C-144.43 48.62 -143.76 48.48 -143.08 48.32 C-141.65 48.01 -140.21 47.7 -138.78 47.39 C-136.48 46.91 -134.19 46.4 -131.9 45.88 C-124.3 44.19 -116.69 42.65 -109.02 41.32 C-105.51 40.71 -102.01 40.07 -98.51 39.43 C-96.02 38.99 -93.52 38.61 -91.02 38.22 C-79.31 36.21 -74.02 32.33 -66.96 22.73 C-65.4 20.78 -63.8 18.85 -62.21 16.92 C-61.48 16.02 -60.75 15.12 -60 14.2 C-54.42 7.45 -48.74 2.83 -40.96 -1.27 C-40.35 -1.61 -39.74 -1.96 -39.11 -2.31 C-27.05 -8 -12.03 -3.53 0 0 Z " fill="#030202" transform="translate(504.9609375,182.26953125)"/>
<path d="M0 0 C4.65 1.45 9.04 3.3 13.45 5.35 C14.17 5.68 14.88 6.01 15.62 6.35 C17.98 7.44 20.33 8.53 22.69 9.62 C25.2 10.78 27.71 11.94 30.22 13.1 C31.93 13.89 33.65 14.69 35.37 15.48 C40.92 18.04 46.47 20.59 52.03 23.12 C52.75 23.45 53.47 23.78 54.21 24.11 C54.93 24.44 55.64 24.77 56.38 25.1 C72.87 32.61 89.29 40.27 105.67 48.01 C110.56 50.32 115.46 52.63 120.36 54.93 C149.64 68.69 178.9 82.48 208 96.61 C214.28 99.66 220.58 102.68 226.88 105.69 C227.78 106.12 228.68 106.55 229.6 106.99 C234.67 109.42 239.75 111.83 244.83 114.24 C247.12 115.33 249.4 116.41 251.69 117.5 C252.76 118 253.83 118.51 254.93 119.03 C256.43 119.74 256.43 119.74 257.95 120.47 C258.83 120.89 259.71 121.3 260.62 121.73 C262.94 122.97 264.94 124.36 267 126 C266.25 126.55 266.25 126.55 265.48 127.11 C254.83 134.89 244.28 142.74 234 151 C233.36 151.51 232.72 152.03 232.06 152.56 C220.22 162.08 208.5 171.73 197.26 181.96 C195.2 183.82 193.11 185.63 191 187.44 C186.94 190.96 183.2 194.78 179.44 198.61 C177.36 200.64 175.25 202.48 173 204.31 C164.98 211.28 159.16 219.94 154.56 229.44 C154.24 230.08 153.93 230.72 153.6 231.38 C147.87 243.93 147.55 256.98 147.57 270.48 C147.56 272.29 147.55 274.11 147.54 275.92 C147.51 280.81 147.5 285.69 147.49 290.57 C147.48 295.69 147.46 300.81 147.43 305.93 C147.39 315.61 147.36 325.28 147.34 334.96 C147.31 348.05 147.25 361.13 147.2 374.22 C147.11 394.81 147.06 415.41 147 436 C98.49 436 49.98 436 0 436 C0 309.61 0 183.22 0 53 C3.86 54.29 7.07 55.41 10.62 57.18 C11.48 57.61 12.34 58.04 13.23 58.48 C14.14 58.94 15.06 59.4 16 59.88 C16.97 60.36 17.94 60.85 18.93 61.35 C26.55 65.2 34.06 69.25 41.54 73.38 C48.47 77.19 55.47 80.87 62.5 84.5 C70.55 88.66 78.55 92.89 86.5 97.25 C87.4 97.74 88.3 98.23 89.22 98.74 C93.45 101.05 97.67 103.38 101.87 105.75 C103.37 106.58 104.87 107.42 106.38 108.25 C107.03 108.63 107.69 109.02 108.37 109.41 C113.13 112.02 116.57 112.51 122 112 C124.81 110.21 126.51 108.98 128 106 C128.31 103.96 128.31 103.96 128.38 101.69 C128.42 100.93 128.47 100.17 128.52 99.39 C127.74 95.82 125.84 94.08 123 92 C119.28 89.8 115.43 87.87 111.56 85.94 C109.29 84.78 107.02 83.62 104.75 82.46 C103.62 81.88 102.48 81.3 101.31 80.71 C96.49 78.22 91.74 75.62 87 73 C79.22 68.72 71.39 64.57 63.5 60.5 C54.67 55.94 45.91 51.26 37.2 46.47 C29.4 42.18 21.51 38.07 13.59 34.01 C11.81 33.09 10.05 32.16 8.3 31.21 C5.82 29.86 5.82 29.86 2.37 28.48 C-1.16 24.78 -0.61 21.37 -0.53 16.41 C-0.48 15.2 -0.43 13.99 -0.38 12.75 C-0.35 11.53 -0.32 10.31 -0.29 9.05 C-0.22 6.03 -0.12 3.02 0 0 Z " fill="#FEF8CD" transform="translate(330,309)"/>
<path d="M0 0 C0 113.85 0 227.7 0 345 C-63.69 345 -127.38 345 -193 345 C-193.06 314.85 -193.12 284.69 -193.19 253.62 C-193.21 244.11 -193.24 234.59 -193.27 224.79 C-193.28 213.16 -193.28 213.16 -193.29 207.71 C-193.29 203.91 -193.3 200.11 -193.32 196.31 C-193.34 191.46 -193.34 186.6 -193.34 181.75 C-193.34 179.97 -193.35 178.2 -193.36 176.42 C-193.47 158.64 -189.76 145.51 -177.29 132.27 C-174.64 129.64 -171.89 127.18 -169.03 124.78 C-166.75 122.78 -164.63 120.66 -162.5 118.5 C-159.17 115.13 -155.75 111.95 -152.15 108.87 C-149.62 106.67 -147.16 104.4 -144.69 102.12 C-139.29 97.2 -133.69 92.59 -128 88 C-126.82 87.03 -125.63 86.05 -124.45 85.07 C-114.7 77.04 -104.69 69.4 -94.53 61.88 C-92.04 60.03 -89.55 58.18 -87.07 56.32 C-77.19 48.99 -67.2 41.88 -57 35 C-56.39 34.59 -55.79 34.18 -55.16 33.75 C-45.44 27.17 -35.56 20.86 -25.61 14.63 C-23.78 13.49 -21.96 12.35 -20.14 11.2 C-17.24 9.38 -14.34 7.56 -11.44 5.75 C-10.53 5.18 -9.62 4.6 -8.68 4.01 C-7.83 3.49 -6.99 2.96 -6.12 2.42 C-5.37 1.95 -4.62 1.49 -3.85 1 C-2 0 -2 0 0 0 Z " fill="#FEF8CD" transform="translate(693,400)"/>
<path d="M0 0 C0.66 0 1.32 0 2 0 C2 113.85 2 227.7 2 345 C-61.69 345 -125.38 345 -191 345 C-191 335.43 -191 325.86 -191 316 C-136.88 316 -82.76 316 -27 316 C-27.33 236.8 -27.66 157.6 -28 76 C-29.32 77.65 -30.64 79.3 -32 81 C-36.56 86.06 -41.72 90.33 -47.02 94.59 C-49.11 96.28 -51.18 97.99 -53.23 99.73 C-53.77 100.18 -54.3 100.63 -54.85 101.1 C-56.36 102.37 -57.87 103.65 -59.37 104.93 C-62.83 107.65 -65.01 108.87 -69.38 109.44 C-74.19 108.86 -75.61 107.39 -79 104 C-80.14 101.71 -80.23 100.23 -80.31 97.69 C-80.37 96.55 -80.37 96.55 -80.43 95.39 C-79.5 90.18 -75.09 87.06 -71.12 83.94 C-65.95 79.8 -60.93 75.53 -55.95 71.16 C-45.7 62.27 -45.7 62.27 -38.12 62.6 C-34.93 63.2 -33.16 64.63 -31 67 C-31 67.66 -31 68.32 -31 69 C-30.01 69 -29.02 69 -28 69 C-27.94 67.8 -27.88 66.61 -27.81 65.38 C-27.08 59.55 -24.19 56.73 -19.62 53.12 C-16.11 51.62 -13.8 51.54 -10 52 C-6.02 53.67 -3.06 55.94 0 59 C0 39.53 0 20.06 0 0 Z " fill="#E3D398" transform="translate(691,400)"/>
<path d="M0 0 C0.33 0 0.66 0 1 0 C1 116.82 1 233.64 1 354 C39.94 354 78.88 354 119 354 C118.94 342.54 118.88 331.08 118.82 319.27 C118.8 311.97 118.77 304.68 118.76 297.39 C118.73 285.83 118.69 274.28 118.62 262.72 C118.57 254.3 118.54 245.88 118.53 237.47 C118.52 233.02 118.51 228.57 118.47 224.12 C118.14 181.84 118.14 181.84 128.19 162.12 C128.57 161.35 128.95 160.58 129.34 159.78 C137.12 144.48 148.56 132.4 160.56 120.31 C161.27 119.6 161.98 118.89 162.71 118.15 C167.31 113.56 172.07 109.23 177 105 C178.12 104.03 179.23 103.05 180.35 102.08 C186.65 96.63 193.03 91.33 199.6 86.22 C204.17 82.67 208.65 79.04 213.12 75.38 C217.93 71.46 222.75 67.57 227.69 63.81 C228.6 63.12 229.51 62.42 230.45 61.71 C233.04 59.98 235 58.83 238 58 C240.8 58.83 240.8 58.83 243.82 60.32 C244.91 60.86 246 61.39 247.13 61.94 C248.26 62.52 249.4 63.09 250.56 63.69 C251.7 64.24 252.84 64.8 254.01 65.37 C263.06 69.86 263.06 69.86 267 73 C266.25 73.55 266.25 73.55 265.48 74.11 C254.83 81.89 244.28 89.74 234 98 C233.36 98.51 232.72 99.03 232.06 99.56 C220.22 109.08 208.5 118.73 197.26 128.96 C195.2 130.82 193.11 132.63 191 134.44 C186.94 137.96 183.2 141.78 179.44 145.61 C177.36 147.64 175.25 149.48 173 151.31 C164.98 158.28 159.16 166.94 154.56 176.44 C154.24 177.08 153.93 177.72 153.6 178.38 C147.87 190.93 147.55 203.98 147.57 217.48 C147.56 219.29 147.55 221.11 147.54 222.92 C147.51 227.81 147.5 232.69 147.49 237.57 C147.48 242.69 147.46 247.81 147.43 252.93 C147.39 262.61 147.36 272.28 147.34 281.96 C147.31 295.05 147.25 308.13 147.2 321.22 C147.11 341.81 147.06 362.41 147 383 C98.49 383 49.98 383 0 383 C0 256.61 0 130.22 0 0 Z " fill="#E2D298" transform="translate(330,362)"/>
<path d="M0 0 C8.35 7.9 12.67 16.6 15.22 27.71 C18.15 40.29 22.96 51.29 34.26 58.51 C37.76 60.45 41.33 62.24 44.92 63.99 C62.57 72.64 62.57 72.64 67.9 81 C68.35 81.69 68.79 82.38 69.25 83.09 C73.38 91.12 73.58 102.25 71.9 111 C70.29 113.7 68.93 114.74 66.31 116.41 C52.61 125.47 40.17 149.22 36.52 164.75 C33.86 172.39 26.2 175.06 19.48 178.59 C14.7 181.21 10.13 184.16 5.52 187.07 C3.75 188.19 1.97 189.3 0.19 190.41 C-0.57 190.89 -1.32 191.37 -2.1 191.86 C-4.1 193 -4.1 193 -7.1 194 C-7.13 192.5 -7.15 191 -7.16 189.5 C-7.18 188.67 -7.19 187.83 -7.2 186.97 C-7.1 184 -6.73 181.11 -6.34 178.16 C-6.09 175.94 -6.01 173.76 -5.96 171.52 C-5.78 162.67 -5.19 155.32 -1.36 147.16 C2.05 138.59 2.21 129.85 2.2 120.73 C2.21 118.88 2.21 118.88 2.21 116.98 C2.22 114.38 2.22 111.77 2.21 109.17 C2.21 106.51 2.22 103.85 2.23 101.18 C2.26 97.33 2.26 93.47 2.26 89.61 C2.27 88.42 2.28 87.23 2.29 86 C2.28 84.9 2.28 83.79 2.27 82.65 C2.27 81.67 2.27 80.7 2.27 79.7 C1.75 75.91 0.2 73.18 -2.64 70.62 C-3.46 70.08 -3.46 70.08 -4.3 69.53 C-4.92 69.11 -5.55 68.69 -6.19 68.26 C-6.86 67.83 -7.53 67.39 -8.23 66.94 C-9.68 65.97 -11.12 65.01 -12.57 64.04 C-13.32 63.54 -14.07 63.04 -14.84 62.53 C-18.51 60.06 -22.12 57.5 -25.73 54.94 C-26.43 54.45 -27.13 53.95 -27.85 53.44 C-29.25 52.45 -30.64 51.46 -32.04 50.47 C-33.42 49.49 -34.8 48.51 -36.18 47.53 C-38.13 46.15 -40.09 44.77 -42.04 43.38 C-42.62 42.97 -43.21 42.55 -43.81 42.12 C-48.51 38.78 -50.31 36.92 -51.83 31.34 C-52.29 29.66 -52.29 29.66 -52.77 27.94 C-53.08 26.77 -53.4 25.59 -53.73 24.38 C-54.05 23.2 -54.38 22.01 -54.71 20.79 C-55.51 17.86 -56.31 14.94 -57.1 12 C-51.18 9.97 -45.24 8.14 -39.19 6.52 C-38.38 6.31 -37.57 6.09 -36.73 5.86 C-35.03 5.41 -33.33 4.96 -31.63 4.51 C-29.04 3.82 -26.46 3.11 -23.87 2.41 C-22.21 1.97 -20.54 1.53 -18.88 1.09 C-18.12 0.88 -17.36 0.67 -16.57 0.45 C-11.29 -0.92 -5.14 -2.44 0 0 Z " fill="#90B957" transform="translate(649.1015625,208.99609375)"/>
<path d="M0 0 C54.12 0 108.24 0 164 0 C154.51 14.23 140.95 22.2 125.15 27.91 C116.49 31.05 111.15 33.19 106.63 41.58 C104.45 44.82 102.63 45.56 99 47 C95.96 47.43 92.95 47.43 89.88 47.42 C88.53 47.43 88.53 47.43 87.15 47.45 C84.2 47.47 81.24 47.47 78.28 47.47 C76.22 47.48 74.16 47.48 72.09 47.49 C67.78 47.51 63.46 47.51 59.14 47.5 C53.61 47.5 48.09 47.53 42.56 47.57 C38.3 47.59 34.05 47.59 29.79 47.59 C27.75 47.59 25.71 47.6 23.67 47.62 C20.82 47.64 17.97 47.63 15.12 47.62 C14.28 47.63 13.45 47.64 12.58 47.66 C11.8 47.64 11.02 47.63 10.21 47.62 C9.2 47.62 9.2 47.62 8.17 47.62 C6 47 6 47 0 42 C0 28.14 0 14.28 0 0 Z " fill="#786250" transform="translate(418,768)"/>
<path d="M0 0 C1.25 -0 1.25 -0 2.53 -0 C15.06 0.03 24.19 1.3 34.38 8.94 C35.85 10.01 37.32 11.08 38.79 12.15 C39.56 12.71 40.33 13.27 41.12 13.85 C46.28 17.59 51.54 21.19 56.79 24.82 C57.58 25.37 58.38 25.92 59.2 26.5 C60.25 27.22 60.25 27.22 61.32 27.96 C62.06 28.51 62.8 29.06 63.56 29.62 C64.63 30.31 65.7 30.99 66.8 31.69 C68.75 33.35 69.47 34.26 70.08 36.77 C70.26 39.44 70.24 42.06 70.15 44.74 C70.14 45.71 70.13 46.68 70.12 47.68 C70.09 50.76 70.01 53.85 69.94 56.94 C69.91 59.03 69.88 61.13 69.86 63.23 C69.79 68.36 69.69 73.49 69.56 78.62 C66.41 77.1 63.68 75.32 60.81 73.31 C51.35 67.3 41.8 64.11 30.62 65.19 C26.9 65.34 26.9 65.34 23.56 64.62 C20.05 60.95 17.92 56.91 15.59 52.44 C10.5 43.43 -0.54 32.93 -10.44 29.62 C-19.36 28.84 -28.38 30.46 -37.21 31.59 C-38.82 31.8 -40.43 32 -42.04 32.2 C-46.25 32.73 -50.46 33.26 -54.67 33.8 C-61.43 34.66 -68.19 35.51 -74.94 36.36 C-77.3 36.65 -79.65 36.95 -82 37.25 C-83.44 37.43 -84.88 37.62 -86.33 37.8 C-87.58 37.96 -88.84 38.12 -90.13 38.28 C-92.94 38.57 -95.62 38.7 -98.44 38.62 C-99.44 35.33 -100.44 32.04 -101.44 28.75 C-101.72 27.81 -102.01 26.88 -102.3 25.91 C-102.58 25.01 -102.85 24.12 -103.12 23.2 C-103.5 21.95 -103.5 21.95 -103.89 20.69 C-104.44 18.62 -104.44 18.62 -104.44 16.62 C-85.92 10.48 -66.9 6.66 -47.62 3.81 C-46.09 3.58 -46.09 3.58 -44.53 3.35 C-29.67 1.18 -15.02 -0.04 0 0 Z " fill="#FDFA7E" transform="translate(560.4375,261.375)"/>
<path d="M0 0 C13.95 12.05 23.69 31.44 25.08 49.83 C25.98 72.55 25.98 72.55 24.08 82.83 C19.17 81.33 14.73 79.31 10.16 77.04 C9.39 76.66 8.63 76.29 7.84 75.9 C6.19 75.09 4.55 74.28 2.91 73.47 C-1.51 71.3 -5.93 69.14 -10.35 66.98 C-11.24 66.54 -12.14 66.1 -13.07 65.65 C-21.3 61.63 -29.57 57.71 -37.86 53.83 C-39.22 53.19 -40.58 52.55 -41.94 51.92 C-42.62 51.6 -43.3 51.28 -44.01 50.95 C-44.7 50.62 -45.39 50.3 -46.1 49.97 C-47.14 49.48 -47.14 49.48 -48.2 48.98 C-56.77 44.97 -65.32 40.91 -73.86 36.85 C-75.63 36.01 -77.4 35.17 -79.17 34.33 C-81.64 33.16 -84.11 31.99 -86.59 30.81 C-87.31 30.47 -88.04 30.12 -88.78 29.77 C-93.53 27.51 -98.23 25.19 -102.92 22.83 C-102.33 18 -101.61 13.93 -98.92 9.83 C-96.83 9.14 -96.83 9.14 -94.21 8.74 C-93.22 8.59 -92.23 8.43 -91.21 8.28 C-90.12 8.13 -89.04 7.98 -87.92 7.83 C-86.24 7.6 -86.24 7.6 -84.53 7.37 C-80.76 6.87 -76.97 6.41 -73.19 5.95 C-71.79 5.78 -70.38 5.61 -68.98 5.44 C-65.31 4.99 -61.64 4.54 -57.97 4.1 C-54.28 3.65 -50.59 3.2 -46.9 2.75 C-42.72 2.24 -38.54 1.73 -34.36 1.22 C-32.47 0.99 -32.47 0.99 -30.53 0.76 C-28.67 0.53 -28.67 0.53 -26.78 0.31 C-24.04 -0.03 -21.31 -0.39 -18.58 -0.77 C-17.86 -0.87 -17.14 -0.96 -16.4 -1.06 C-14.39 -1.34 -12.38 -1.62 -10.37 -1.9 C-6.4 -2.21 -3.43 -2.09 0 0 Z " fill="#9B7F65" transform="translate(548.921875,314.171875)"/>
<path d="M0 0 C0.91 0.26 1.82 0.52 2.76 0.78 C5.72 1.63 8.69 2.49 11.65 3.36 C13.71 3.95 15.76 4.54 17.81 5.13 C22.01 6.33 26.21 7.54 30.4 8.76 C35.34 10.19 40.28 11.59 45.23 12.98 C48.75 13.97 52.27 14.97 55.79 15.96 C57.44 16.43 59.09 16.9 60.75 17.36 C63.03 18 65.32 18.65 67.6 19.3 C68.27 19.48 68.94 19.67 69.63 19.86 C73.01 20.84 75.44 21.68 77.59 24.54 C78.54 26.7 78.54 26.7 79.28 29.04 C79.65 30.2 79.65 30.2 80.04 31.39 C80.59 33.54 80.59 33.54 80.59 36.54 C79.06 36.55 79.06 36.55 77.49 36.56 C33.26 36.82 -13.8 41.31 -55.04 58.65 C-57.41 59.54 -57.41 59.54 -60.41 59.54 C-57.62 44.17 -52.83 32.6 -42.03 21.28 C-38.76 17.77 -35.74 14.03 -32.68 10.34 C-22.82 -1.31 -14.9 -4.37 0 0 Z " fill="#BF3339" transform="translate(493.41015625,202.45703125)"/>
<path d="M0 0 C-0.18 0.89 -0.18 0.89 -0.37 1.8 C-0.72 3.56 -1.07 5.33 -1.42 7.09 C-1.79 8.95 -2.18 10.81 -2.58 12.66 C-4.48 21.91 -6.27 32.63 -1 41 C2.54 44.23 5.84 44.33 10.43 44.3 C14.06 43.88 17.47 42.93 21 42 C22.01 44.94 23 47.87 24 50.81 C24.29 51.65 24.57 52.48 24.87 53.34 C25.27 54.54 25.27 54.54 25.69 55.77 C25.94 56.51 26.19 57.25 26.45 58.01 C27 60 27 60 27 63 C25.42 63.5 25.42 63.5 23.81 64 C18.07 66.5 16.05 71.39 13.8 76.97 C12.82 79.63 11.89 82.3 11 85 C-1.49 79.59 -13.81 73.83 -26.11 68 C-35.86 63.39 -45.62 58.83 -55.53 54.56 C-60.89 52.21 -60.89 52.21 -62 50 C-61.13 47.87 -61.13 47.87 -59.79 45.21 C-56.27 37.77 -54.51 30.03 -52.6 22.06 C-52.32 20.95 -52.03 19.84 -51.75 18.69 C-51.51 17.69 -51.27 16.69 -51.02 15.67 C-49.81 12.5 -48.69 11.06 -46 9 C-43.11 8.04 -43.11 8.04 -39.76 7.4 C-38.53 7.16 -37.29 6.91 -36.02 6.66 C-34.09 6.3 -34.09 6.3 -32.12 5.94 C-29.61 5.45 -27.09 4.96 -24.57 4.46 C-23.33 4.23 -22.08 3.99 -20.8 3.75 C-15.79 2.76 -10.81 1.67 -5.82 0.55 C-3 0 -3 0 0 0 Z " fill="#8FB957" transform="translate(415,243)"/>
<path d="M0 0 C10.5 5.21 20.91 10.54 31.25 16.06 C32.65 16.81 34.04 17.55 35.44 18.3 C45.39 23.59 55.32 28.92 65.25 34.25 C71.74 37.73 78.23 41.19 84.74 44.62 C85.49 45.02 86.24 45.41 87.01 45.82 C90.65 47.74 94.29 49.66 97.93 51.57 C101.96 53.7 105.98 55.84 110 58 C111.1 58.59 111.1 58.59 112.21 59.19 C114.42 60.38 116.63 61.58 118.83 62.79 C119.5 63.15 120.18 63.51 120.87 63.89 C124.37 65.83 126.98 67.5 129 71 C129.82 74.77 129.86 78.47 127.95 81.88 C126.18 84.04 124.51 85.75 122 87 C116.06 87.43 112.2 86.65 106.98 83.7 C106.33 83.34 105.68 82.99 105 82.63 C102.87 81.48 100.75 80.3 98.62 79.12 C97.12 78.31 95.61 77.49 94.1 76.67 C90.96 74.97 87.83 73.27 84.7 71.55 C78.08 67.95 71.42 64.44 64.75 60.93 C55.91 56.27 47.08 51.59 38.27 46.85 C37.66 46.52 37.04 46.19 36.41 45.85 C35.2 45.2 33.99 44.54 32.77 43.89 C21.94 38.06 11.04 32.43 0 27 C0 18.09 0 9.18 0 0 Z " fill="#776828" transform="translate(330,335)"/>
<path d="M0 0 C31.35 0 62.7 0 95 0 C93.41 3.18 92.46 4.75 90.14 7.2 C86.77 11.04 84.74 15.11 82.69 19.75 C82.34 20.5 82 21.26 81.64 22.04 C80.29 25.01 79.03 27.9 78 31 C68.72 31.12 59.43 31.2 50.15 31.26 C45.84 31.29 41.53 31.32 37.21 31.38 C33.05 31.43 28.89 31.46 24.73 31.47 C23.14 31.48 21.55 31.5 19.97 31.53 C17.74 31.57 15.52 31.57 13.29 31.57 C11.39 31.58 11.39 31.58 9.45 31.6 C6 31 6 31 0 26 C0 17.42 0 8.84 0 0 Z " fill="#9D8167" transform="translate(418,784)"/>
<path d="M0 0 C0.8 0.57 1.61 1.14 2.44 1.72 C14.31 10.53 22.45 22.9 29 36 C17.51 37.66 17.51 37.66 12 36 C8.31 32.38 6.29 28.4 3.99 23.81 C-0.94 14.79 -12.18 4.27 -22 1 C-30.92 0.21 -39.94 1.83 -48.77 2.97 C-50.38 3.17 -51.99 3.37 -53.6 3.57 C-57.81 4.1 -62.02 4.64 -66.24 5.17 C-72.99 6.03 -79.75 6.88 -86.51 7.73 C-88.86 8.03 -91.21 8.33 -93.56 8.63 C-95 8.81 -96.45 8.99 -97.89 9.17 C-99.77 9.41 -99.77 9.41 -101.69 9.66 C-105 10 -105 10 -110 10 C-110.99 6.04 -111.98 2.08 -113 -2 C-101 -3.7 -89 -5.36 -77 -7 C-75.69 -7.18 -75.69 -7.18 -74.34 -7.36 C-69.11 -8.08 -63.88 -8.79 -58.64 -9.48 C-56.98 -9.7 -55.33 -9.92 -53.67 -10.15 C-32.94 -12.98 -17.79 -12.61 0 0 Z " fill="#EFE767" transform="translate(572,290)"/>
<path d="M0 0 C8.66 0.51 15.66 2.83 22 9 C32.04 22.6 28.91 37.87 27.5 53.75 C27.36 55.43 27.21 57.11 27.07 58.79 C26.72 62.86 26.36 66.93 26 71 C20.53 69.23 15.4 67.04 10.19 64.62 C9.32 64.24 8.45 63.85 7.55 63.45 C6.31 62.88 6.31 62.88 5.04 62.29 C4.29 61.95 3.54 61.6 2.76 61.25 C1 60 1 60 0.19 58.19 C-0.04 55.5 0.37 53.32 0.92 50.68 C2.22 43.47 2.29 36.43 2.25 29.12 C2.26 27.87 2.27 26.61 2.27 25.31 C2.26 16.68 1.44 8.5 0 0 Z " fill="#FAFBFB" transform="translate(593,348)"/>
<path d="M0 0 C13.86 12.87 22.63 32.67 23.38 51.44 C23.85 72.61 23.85 72.61 22.25 81.25 C17.04 79.67 12.27 77.47 7.38 75.12 C6.59 74.75 5.81 74.38 5 74 C3.08 73.08 1.17 72.17 -0.75 71.25 C2.26 70.32 3.12 70.21 6.25 71.25 C6.79 51.57 5.01 33.35 -8.25 17.69 C-11.35 14.47 -14.71 11.55 -18.15 8.7 C-19.75 7.25 -19.75 7.25 -20.75 5.25 C-20.79 3.25 -20.79 1.25 -20.75 -0.75 C-22.07 -1.08 -23.39 -1.41 -24.75 -1.75 C-22.19 -2.11 -19.63 -2.47 -17.06 -2.81 C-16.34 -2.92 -15.62 -3.02 -14.88 -3.13 C-9.02 -3.9 -4.68 -4.04 0 0 Z " fill="#725F4D" transform="translate(550.75,315.75)"/>
<path d="M0 0 C1.14 -0.02 2.28 -0.04 3.45 -0.06 C8.67 -0.12 13.89 -0.17 19.11 -0.2 C21.86 -0.21 24.61 -0.25 27.36 -0.3 C31.33 -0.37 35.29 -0.39 39.26 -0.41 C40.49 -0.44 41.71 -0.47 42.98 -0.5 C52.52 -0.47 52.52 -0.47 56.84 3.1 C58.72 4.99 59.5 6.05 60.38 8.59 C60.07 13.64 59.47 16.62 55.56 20.21 C52.33 22.2 49.83 22.47 46.06 22.5 C44.96 22.51 43.86 22.52 42.72 22.54 C41.54 22.54 40.35 22.54 39.13 22.54 C37.91 22.55 36.68 22.56 35.42 22.56 C32.84 22.57 30.25 22.58 27.66 22.58 C23.71 22.58 19.75 22.62 15.8 22.66 C13.28 22.66 10.77 22.67 8.26 22.67 C7.07 22.68 5.89 22.7 4.68 22.71 C-1.65 22.68 -5.67 22.54 -10.44 18.21 C-13.03 14.79 -12.94 11.38 -12.44 7.21 C-9.16 1.75 -6.2 0.1 0 0 Z " fill="#766729" transform="translate(385.440185546875,615.791259765625)"/>
<path d="M0 0 C2.87 1.79 4.49 2.98 6 6 C6.71 9.87 6.86 13.43 4.93 16.95 C-2.83 26.25 -20.91 44.95 -33.25 46.38 C-38.19 45.88 -39.54 44.46 -43 41 C-44.14 38.71 -44.23 37.23 -44.31 34.69 C-44.35 33.93 -44.39 33.17 -44.43 32.39 C-43.5 27.18 -39.09 24.06 -35.12 20.94 C-29.95 16.8 -24.93 12.53 -19.95 8.16 C-8.66 -1.63 -8.66 -1.63 0 0 Z " fill="#756626" transform="translate(655,463)"/>
<path d="M0 0 C2.13 -0 4.27 -0.04 6.4 -0.08 C19.27 -0.19 19.27 -0.19 24.84 4.37 C27.31 8.08 27.5 11.07 26.84 15.37 C24.75 19.4 23.1 21.8 18.84 23.37 C14.28 23.75 9.71 23.7 5.14 23.69 C2.91 23.68 0.68 23.71 -1.54 23.73 C-2.97 23.73 -4.39 23.73 -5.81 23.73 C-7.1 23.74 -8.39 23.74 -9.72 23.74 C-14.11 23.27 -16.55 21.68 -19.91 18.95 C-22.35 15.87 -22.49 12.19 -22.16 8.37 C-17.57 -0.89 -8.92 -0 0 0 Z " fill="#7B6C2D" transform="translate(558.161865234375,625.62939453125)"/>
<path d="M0 0 C4.23 1.83 5.97 3.92 8 8 C8.64 12.63 8.51 17.27 8.5 21.94 C8.53 23.2 8.56 24.46 8.59 25.76 C8.61 36.1 8.61 36.1 5.59 39.82 C2.02 42.82 -0.17 43.39 -4.89 43.36 C-8.62 42.72 -10.4 40.66 -13 38 C-15.1 33.81 -14.31 28.4 -14.35 23.79 C-14.37 22.44 -14.39 21.08 -14.43 19.73 C-14.79 7.06 -14.79 7.06 -11.6 3.14 C-7.55 -0.19 -5.25 -0.36 0 0 Z " fill="#010200" transform="translate(684,296)"/>
<path d="M0 0 C3.7 2.05 5.65 3.48 8 7 C8.48 11.26 8.27 13.49 6.25 17.31 C3.15 21.01 1.36 21.85 -3.46 22.37 C-15.33 22.57 -15.33 22.57 -18.88 19.62 C-21.99 15.78 -22.56 13.22 -22.44 8.33 C-21.77 4.79 -20.41 3.15 -17.53 1.04 C-12 -1.23 -5.81 -0.96 0 0 Z " fill="#786829" transform="translate(553,595)"/>
<path d="M0 0 C0.33 0 0.66 0 1 0 C0.94 1.09 0.89 2.18 0.83 3.3 C0.69 11.44 1.1 17.56 6.94 23.62 C10.5 27.2 14.32 29.86 18.69 32.38 C21.16 33.93 21.16 33.93 23 36 C23.84 40.78 23.6 45.2 23 50 C17.51 48.33 12.38 46.03 7.19 43.62 C6.32 43.24 5.45 42.85 4.55 42.45 C3.31 41.88 3.31 41.88 2.04 41.29 C1.29 40.95 0.54 40.6 -0.24 40.25 C-2 39 -2 39 -2.77 36.99 C-3.05 34.52 -2.66 32.62 -2.12 30.19 C-0.29 20.25 -0.32 10.08 0 0 Z " fill="#E0E1E2" transform="translate(596,369)"/>
<path d="M0 0 C3.07 1.7 5.41 3.81 7 7 C7.41 11.23 7.26 13.52 5.25 17.31 C3.07 19.91 2.07 20.81 -1 22 C-5.67 22.33 -9.14 21.59 -13 18.94 C-15.49 15.28 -16.6 12.44 -16 8 C-12.43 0.71 -7.94 -1.23 0 0 Z " fill="#7AA246" transform="translate(390,266)"/>
<path d="M0 0 C3.66 2.04 5.67 3.5 8 7 C8.77 13.67 8.77 13.67 6.95 16.82 C4.61 19.68 2.75 21.79 -0.99 22.24 C-5.15 22.37 -7.38 22.39 -11 20.12 C-14.32 16.59 -14.34 13.95 -14.29 9.26 C-13.86 5.89 -12.47 4.26 -10 2 C-6.73 -0.29 -3.93 -0.47 0 0 Z " fill="#7AA347" transform="translate(633,229)"/>
<path d="M0 0 C3.9 2.94 5.76 5.77 6.69 10.56 C5.78 15.09 4.25 16.75 1 20 C-2.46 21.73 -6.22 21.49 -10 21 C-12.87 19.21 -14.49 18.02 -16 15 C-16.35 9.71 -16.52 6.25 -13 2 C-8.98 -1.44 -4.89 -1.87 0 0 Z " fill="#79A246" transform="translate(403,288)"/>
<path d="M0 0 C13.88 8.52 27.06 18.13 40 28 C39.01 28.33 38.02 28.66 37 29 C37 28.34 37 27.68 37 27 C35.02 26.67 33.04 26.34 31 26 C31 25.34 31 24.68 31 24 C30.24 23.71 29.47 23.42 28.69 23.12 C26 22 26 22 23 20 C23 19.01 23 18.02 23 17 C22.4 16.84 21.79 16.68 21.17 16.52 C15.72 14.93 13.45 13.6 10 9 C7.4 7.09 4.75 5.31 2.05 3.55 C1.37 3.04 0.7 2.53 0 2 C0 1.34 0 0.68 0 0 Z " fill="#EFEB9F" transform="translate(589,267)"/>
<path d="M0 0 C3.81 1.27 7.26 2.48 10.88 4.12 C11.66 4.48 12.44 4.83 13.24 5.2 C13.82 5.46 14.4 5.73 15 6 C14.67 6.66 14.34 7.32 14 8 C7.57 9.29 7.57 9.29 5 8 C4.33 6.67 3.67 5.33 3 4 C2.34 3.67 1.68 3.34 1 3 C1 10.59 1 18.18 1 26 C0.67 26 0.34 26 0 26 C0 17.42 0 8.84 0 0 Z " fill="#DDDABC" transform="translate(330,309)"/>
<path d="M0 0 C1 2 1 2 0.31 4.81 C-1.04 8.1 -2.66 10.35 -5 13 C-5 12.01 -5 11.02 -5 10 C-5.66 10 -6.32 10 -7 10 C-7 11.65 -7 13.3 -7 15 C-8.65 15.33 -10.3 15.66 -12 16 C-8.85 9.83 -4.72 5.05 0 0 Z " fill="#F1F4F2" transform="translate(729,342)"/>
<path d="M0 0 C0.33 0 0.66 0 1 0 C1.01 0.76 1.02 1.51 1.03 2.29 C1.08 5.74 1.17 9.18 1.25 12.62 C1.26 13.81 1.28 15 1.29 16.23 C1.53 24.9 1.53 24.9 6 32 C4.68 32.66 3.36 33.32 2 34 C-0.31 28.62 -1.16 24.11 -0.88 18.26 C-0.81 16.66 -0.81 16.66 -0.73 15.03 C-0.68 13.93 -0.62 12.82 -0.56 11.69 C-0.51 10.57 -0.46 9.44 -0.4 8.29 C-0.27 5.52 -0.14 2.76 0 0 Z " fill="#819D4E" transform="translate(669,306)"/>
<path d="M0 0 C0 1.98 0 3.96 0 6 C-0.99 6.5 -0.99 6.5 -2 7 C-2.33 6.34 -2.66 5.68 -3 5 C-3.27 5.64 -3.54 6.28 -3.81 6.94 C-5 9 -5 9 -8 10 C-8.73 12.02 -8.73 12.02 -9 14 C-9.66 14 -10.32 14 -11 14 C-11.33 14.66 -11.66 15.32 -12 16 C-12.66 15.67 -13.32 15.34 -14 15 C-3.01 0 -3.01 0 0 0 Z " fill="#E6E8BF" transform="translate(520,530)"/>
<path d="M0 0 C-9.82 3.51 -19.69 3.69 -30 4 C-25.26 1.34 -20.32 1.01 -15 0.31 C-14 0.17 -13 0.03 -11.98 -0.12 C-11.01 -0.25 -10.05 -0.38 -9.06 -0.51 C-8.19 -0.63 -7.31 -0.75 -6.41 -0.87 C-4.02 -1 -2.27 -0.72 0 0 Z " fill="#F3CD7C" transform="translate(516,267)"/>
<path d="M0 0 C0.33 0 0.66 0 1 0 C1 1.98 1 3.96 1 6 C0.34 6 -0.32 6 -1 6 C-1 6.66 -1 7.32 -1 8 C-2.63 9.38 -4.29 10.72 -6 12 C-6.66 11.67 -7.32 11.34 -8 11 C-7.51 10.37 -7.01 9.75 -6.5 9.1 C-5.54 7.88 -5.54 7.88 -4.56 6.62 C-3.92 5.81 -3.29 5 -2.63 4.16 C-0.98 2.11 -0.98 2.11 0 0 Z " fill="#E8EAE9" transform="translate(605,774)"/>
<path d="M0 0 C-2.71 1.35 -5.01 1.07 -8 1 C-8 1.66 -8 2.32 -8 3 C-10.97 3 -13.94 3 -17 3 C-17 2.67 -17 2.34 -17 2 C-14.92 1.47 -12.84 0.95 -10.75 0.44 C-9.59 0.15 -8.43 -0.14 -7.23 -0.44 C-4.28 -0.95 -2.76 -1.03 0 0 Z " fill="#E9D672" transform="translate(486,272)"/>
<path d="M0 0 C4.92 -0.17 8.5 -0.25 13 2 C13 3.65 13 5.3 13 7 C12.15 6.2 11.31 5.39 10.44 4.56 C7.15 1.78 4.31 1.26 0 1 C0 0.67 0 0.34 0 0 Z " fill="#EAE2B1" transform="translate(648,462)"/>
<path d="M0 0 C0.66 0.66 1.32 1.32 2 2 C1.62 4.12 1.62 4.12 1 6 C0.34 6 -0.32 6 -1 6 C-1.33 6.66 -1.66 7.32 -2 8 C-2.66 7.67 -3.32 7.34 -4 7 C-2.68 4.69 -1.36 2.38 0 0 Z " fill="#EAEDEA" transform="translate(714,362)"/>
<path d="M0 0 C3.8 1.49 5.61 3.76 8 7 C7.01 7 6.02 7 5 7 C3.61 5.47 3.61 5.47 2.31 3.5 C1.88 2.85 1.44 2.2 0.99 1.53 C0.5 0.77 0.5 0.77 0 0 Z " fill="#1E1E1E" transform="translate(400,823)"/>
<path d="M0 0 C0 3 0 3 -2.5 5.69 C-3.33 6.45 -4.15 7.21 -5 8 C-5.99 7.67 -6.98 7.34 -8 7 C-5.36 4.69 -2.72 2.38 0 0 Z " fill="#E5E9E8" transform="translate(738,334)"/>
<path d="M0 0 C1.33 2.67 0.67 4.17 0 7 C-1.65 7.33 -3.3 7.66 -5 8 C-1.12 1.12 -1.12 1.12 0 0 Z " fill="#DADDD9" transform="translate(722,350)"/>
<path d="M0 0 C0.66 0 1.32 0 2 0 C2.33 0.66 2.66 1.32 3 2 C3.99 2.66 4.98 3.32 6 4 C3.39 4.93 2.36 5.15 -0.25 4.06 C-0.83 3.71 -1.4 3.36 -2 3 C-1.34 3 -0.68 3 0 3 C0 2.01 0 1.02 0 0 Z " fill="#E5E67A" transform="translate(605,323)"/>
</svg>
