<?xml version="1.0" encoding="UTF-8"?>
<!-- Generator: visioncortex VTracer 0.6.3 -->
<svg version="1.1" xmlns="http://www.w3.org/2000/svg" width="1024" height="1024">
<path d="M0 0 C337.92 0 675.84 0 1024 0 C1024 337.92 1024 675.84 1024 1024 C686.08 1024 348.16 1024 0 1024 C0 686.08 0 348.16 0 0 Z " fill="#FDFDFE" transform="translate(0,0)"/>
<path d="M0 0 C1.14 0 2.29 0 3.46 0 C22.28 0.04 40.32 1.16 58.88 4.38 C59.98 4.55 61.09 4.73 62.23 4.91 C121.46 14.37 181.45 42.04 225.5 83.18 C227.47 85 229.47 86.75 231.5 88.49 C236.65 92.99 241.48 97.79 246.31 102.62 C247.2 103.5 248.09 104.38 249.01 105.29 C255.07 111.33 260.55 117.68 265.88 124.38 C266.88 125.58 267.88 126.79 268.89 127.99 C281.53 143.29 292.18 160.09 301.88 177.38 C302.24 178.02 302.61 178.67 302.99 179.34 C323.1 214.81 336.13 255.88 340.88 296.38 C340.98 297.21 341.08 298.05 341.18 298.92 C351.41 387.46 327.15 477.47 272.25 547.75 C264.27 557.78 255.86 567.42 247.12 576.81 C246.52 577.46 245.92 578.11 245.3 578.78 C241.62 582.7 237.78 586.3 233.71 589.8 C231.39 591.8 229.17 593.9 226.94 596 C219.65 602.64 211.79 608.51 203.88 614.38 C202.94 615.07 202.94 615.07 201.99 615.78 C193.28 622.24 184.29 628.01 174.88 633.38 C174.07 633.84 173.27 634.3 172.44 634.77 C145 650.43 116.28 661.06 85.88 669.38 C85 669.61 84.13 669.85 83.23 670.1 C60.75 676.17 36.93 679.52 13.64 679.54 C12.59 679.55 11.55 679.55 10.48 679.55 C8.28 679.56 6.09 679.56 3.89 679.56 C0.61 679.56 -2.67 679.58 -5.96 679.6 C-25.88 679.66 -45.27 678.19 -64.81 674.25 C-65.57 674.1 -66.34 673.95 -67.12 673.79 C-81.74 670.88 -95.99 667.14 -110.12 662.38 C-111.61 661.88 -111.61 661.88 -113.13 661.37 C-153.79 647.54 -194.17 625.32 -225.54 595.79 C-227.63 593.83 -229.76 591.95 -231.93 590.08 C-236.19 586.37 -240.2 582.44 -244.19 578.44 C-244.86 577.77 -245.52 577.11 -246.21 576.42 C-298.08 524.46 -330.9 453.86 -340.12 381.38 C-340.24 380.48 -340.36 379.59 -340.48 378.67 C-348.18 318.41 -337.91 256.58 -313.12 201.38 C-312.75 200.53 -312.37 199.68 -311.98 198.81 C-298.16 167.87 -278.81 139.48 -256.12 114.38 C-255.4 113.56 -255.4 113.56 -254.65 112.73 C-245.98 103.07 -237.03 93.78 -227.12 85.38 C-226.22 84.58 -225.31 83.78 -224.37 82.96 C-215.4 75.14 -205.87 68.19 -196.12 61.38 C-195.5 60.93 -194.87 60.49 -194.23 60.04 C-149.61 28.67 -96.94 9.76 -43.12 2.38 C-41.19 2.1 -41.19 2.1 -39.21 1.83 C-26.16 0.12 -13.15 -0.02 0 0 Z " fill="#FCFDFD" transform="translate(511.125,173.625)"/>
<path d="M0 0 C7.62 5.21 13.77 11.46 18.12 19.69 C18.12 20.68 18.12 21.67 18.12 22.69 C18.71 22.85 19.29 23.01 19.9 23.17 C26.83 25.15 33.38 27.72 40 30.56 C41.12 31.04 42.24 31.52 43.39 32.01 C80.07 47.81 114.28 66.16 145.12 91.69 C145.9 92.33 145.9 92.33 146.7 92.98 C152.52 97.81 158.28 102.63 163.53 108.09 C165.27 109.84 167.11 111.41 169 113 C173.83 117.17 177.92 121.91 182.12 126.69 C183.58 128.27 185.04 129.85 186.5 131.44 C223.19 172.32 279.82 250.85 279.44 308.56 C279.43 309.89 279.43 309.89 279.42 311.24 C279.21 322.43 276.17 332.08 268.46 340.51 C261.69 346.66 254.31 349.64 245.2 349.97 C243.7 350.02 243.7 350.02 242.17 350.08 C240.51 350.13 240.51 350.13 238.81 350.19 C237.63 350.23 236.44 350.27 235.22 350.31 C220.78 350.78 206.33 351.04 191.89 351.29 C182.25 351.47 172.62 351.72 162.99 352.16 C152.7 352.62 142.41 352.92 132.12 353.19 C131.33 353.21 130.54 353.23 129.72 353.25 C122.33 353.44 114.94 353.63 107.55 353.81 C103.46 353.91 99.37 354.02 95.28 354.13 C93.74 354.17 92.21 354.2 90.68 354.24 C83.4 354.42 76.13 354.65 68.86 355.17 C60.4 355.77 51.93 356.05 43.45 356.32 C-12.26 358.13 -67.72 361.26 -123.26 365.89 C-131.66 366.59 -140.06 367.25 -148.46 367.89 C-164.18 369.08 -179.9 370.27 -195.59 371.82 C-196.54 371.91 -197.5 372 -198.49 372.1 C-202.96 372.54 -207.42 372.99 -211.88 373.47 C-219.98 374.31 -228.01 374.85 -236.15 374.9 C-236.93 374.91 -237.71 374.91 -238.51 374.92 C-249.93 374.86 -260.71 370.34 -269.13 362.62 C-278.17 353.05 -280.66 342.87 -280.33 330 C-280.04 324.7 -278.67 320.28 -276.79 315.36 C-276.14 313.6 -275.5 311.84 -274.86 310.08 C-274.53 309.18 -274.2 308.29 -273.86 307.37 C-272.29 303.1 -270.83 298.79 -269.37 294.49 C-244.78 222.94 -215.87 154.78 -161.75 100.31 C-161.24 99.8 -160.74 99.29 -160.22 98.76 C-153.45 91.95 -146.43 85.63 -138.88 79.69 C-137.83 78.85 -137.83 78.85 -136.76 78 C-128.63 71.54 -120.26 65.46 -111.62 59.69 C-110.32 58.81 -110.32 58.81 -109 57.92 C-104.42 54.88 -99.8 52.05 -94.98 49.41 C-85.04 44.39 -85.04 44.39 -78.11 36.18 C-77.37 32.65 -77.37 32.65 -77.17 29.11 C-76.25 18.44 -68.43 9.48 -60.63 2.75 C-42.91 -10.75 -18.95 -11.38 0 0 Z " fill="#FCD784" transform="translate(513.875,245.3125)"/>
<path d="M0 0 C1.14 0 2.29 0 3.46 0 C22.28 0.04 40.32 1.16 58.88 4.38 C59.98 4.55 61.09 4.73 62.23 4.91 C121.46 14.37 181.45 42.04 225.5 83.18 C227.47 85 229.47 86.75 231.5 88.49 C236.65 92.99 241.48 97.79 246.31 102.62 C247.2 103.5 248.09 104.38 249.01 105.29 C255.07 111.33 260.55 117.68 265.88 124.38 C266.88 125.58 267.88 126.79 268.89 127.99 C281.53 143.29 292.18 160.09 301.88 177.38 C302.24 178.02 302.61 178.67 302.99 179.34 C323.1 214.81 336.13 255.88 340.88 296.38 C340.98 297.21 341.08 298.05 341.18 298.92 C351.41 387.46 327.15 477.47 272.25 547.75 C264.27 557.78 255.86 567.42 247.12 576.81 C246.52 577.46 245.92 578.11 245.3 578.78 C241.62 582.7 237.78 586.3 233.71 589.8 C231.39 591.8 229.17 593.9 226.94 596 C219.65 602.64 211.79 608.51 203.88 614.38 C202.94 615.07 202.94 615.07 201.99 615.78 C193.28 622.24 184.29 628.01 174.88 633.38 C174.07 633.84 173.27 634.3 172.44 634.77 C145 650.43 116.28 661.06 85.88 669.38 C85 669.61 84.13 669.85 83.23 670.1 C60.75 676.17 36.93 679.52 13.64 679.54 C12.59 679.55 11.55 679.55 10.48 679.55 C8.28 679.56 6.09 679.56 3.89 679.56 C0.61 679.56 -2.67 679.58 -5.96 679.6 C-25.88 679.66 -45.27 678.19 -64.81 674.25 C-65.57 674.1 -66.34 673.95 -67.12 673.79 C-81.74 670.88 -95.99 667.14 -110.12 662.38 C-111.61 661.88 -111.61 661.88 -113.13 661.37 C-153.79 647.54 -194.17 625.32 -225.54 595.79 C-227.63 593.83 -229.76 591.95 -231.93 590.08 C-236.19 586.37 -240.2 582.44 -244.19 578.44 C-244.86 577.77 -245.52 577.11 -246.21 576.42 C-298.08 524.46 -330.9 453.86 -340.12 381.38 C-340.24 380.48 -340.36 379.59 -340.48 378.67 C-348.18 318.41 -337.91 256.58 -313.12 201.38 C-312.75 200.53 -312.37 199.68 -311.98 198.81 C-298.16 167.87 -278.81 139.48 -256.12 114.38 C-255.4 113.56 -255.4 113.56 -254.65 112.73 C-245.98 103.07 -237.03 93.78 -227.12 85.38 C-226.22 84.58 -225.31 83.78 -224.37 82.96 C-215.4 75.14 -205.87 68.19 -196.12 61.38 C-195.5 60.93 -194.87 60.49 -194.23 60.04 C-149.61 28.67 -96.94 9.76 -43.12 2.38 C-41.19 2.1 -41.19 2.1 -39.21 1.83 C-26.16 0.12 -13.15 -0.02 0 0 Z M-141.19 61.35 C-143.33 62.49 -145.5 63.58 -147.68 64.67 C-181.97 82.03 -215.87 108.39 -239.89 138.58 C-242.18 141.44 -244.55 144.22 -246.94 147 C-280.92 187.95 -302.38 239.28 -310.69 291.62 C-310.98 293.43 -311.27 295.25 -311.58 297.06 C-316.02 323.45 -315.79 351.88 -312.12 378.38 C-311.92 379.9 -311.92 379.9 -311.7 381.45 C-309.88 394.29 -307.6 406.87 -304.12 419.38 C-303.8 420.61 -303.8 420.61 -303.47 421.87 C-298.93 438.95 -292.72 455.44 -285.12 471.38 C-284.57 472.55 -284.57 472.55 -284.01 473.75 C-271.85 499.5 -256.04 523.1 -237.12 544.38 C-236.15 545.47 -236.15 545.47 -235.16 546.6 C-229.55 552.91 -223.72 558.96 -217.75 564.94 C-216.45 566.26 -216.45 566.26 -215.12 567.61 C-209.1 573.63 -202.81 579.11 -196.12 584.38 C-195.45 584.91 -194.77 585.45 -194.06 586.01 C-127.64 638.12 -42.8 659.7 40.58 649.85 C93.35 643.4 145.38 623.63 187.88 591.38 C188.75 590.71 188.75 590.71 189.65 590.04 C196.88 584.54 203.77 578.82 210.43 572.64 C212.54 570.68 214.69 568.8 216.88 566.94 C224.92 559.91 232.13 552.32 238.78 543.96 C240.65 541.65 242.6 539.49 244.62 537.31 C273.3 505.28 291.98 464.26 303.88 423.38 C304.11 422.56 304.35 421.75 304.59 420.91 C308.47 407.29 310.63 393.47 312.47 379.45 C312.81 376.85 313.18 374.25 313.57 371.66 C316.69 348.86 316.14 324.11 312.88 301.38 C312.64 299.71 312.64 299.71 312.4 298.01 C303.12 233.66 275.87 176.26 231.88 128.38 C231.37 127.82 230.86 127.26 230.34 126.69 C222.13 117.56 222.13 117.56 213.12 109.25 C211.28 107.71 209.48 106.14 207.69 104.53 C192.61 91.07 176.14 79.83 158.88 69.38 C158.22 68.97 157.56 68.57 156.89 68.16 C110.59 40.03 54.61 27.15 0.81 27.19 C-0.19 27.19 -0.19 27.19 -1.21 27.19 C-49.07 27.28 -98.93 38.65 -141.19 61.35 Z " fill="#020202" transform="translate(511.125,173.625)"/>
<path d="M0 0 C7.62 5.21 13.77 11.46 18.12 19.69 C18.12 20.68 18.12 21.67 18.12 22.69 C18.71 22.85 19.29 23.01 19.9 23.17 C26.83 25.15 33.38 27.72 40 30.56 C41.12 31.04 42.24 31.52 43.39 32.01 C80.07 47.81 114.28 66.16 145.12 91.69 C145.9 92.33 145.9 92.33 146.7 92.98 C152.52 97.81 158.28 102.63 163.53 108.09 C165.27 109.84 167.11 111.41 169 113 C173.83 117.17 177.92 121.91 182.12 126.69 C183.58 128.27 185.04 129.85 186.5 131.44 C223.19 172.32 279.82 250.85 279.44 308.56 C279.43 309.89 279.43 309.89 279.42 311.24 C279.21 322.43 276.17 332.08 268.46 340.51 C261.69 346.66 254.31 349.64 245.2 349.97 C243.7 350.02 243.7 350.02 242.17 350.08 C240.51 350.13 240.51 350.13 238.81 350.19 C237.63 350.23 236.44 350.27 235.22 350.31 C220.78 350.78 206.33 351.04 191.89 351.29 C182.25 351.47 172.62 351.72 162.99 352.16 C152.7 352.62 142.41 352.92 132.12 353.19 C131.33 353.21 130.54 353.23 129.72 353.25 C122.33 353.44 114.94 353.63 107.55 353.81 C103.46 353.91 99.37 354.02 95.28 354.13 C93.74 354.17 92.21 354.2 90.68 354.24 C83.4 354.42 76.13 354.65 68.86 355.17 C60.4 355.77 51.93 356.05 43.45 356.32 C-12.26 358.13 -67.72 361.26 -123.26 365.89 C-131.66 366.59 -140.06 367.25 -148.46 367.89 C-164.18 369.08 -179.9 370.27 -195.59 371.82 C-196.54 371.91 -197.5 372 -198.49 372.1 C-202.96 372.54 -207.42 372.99 -211.88 373.47 C-219.98 374.31 -228.01 374.85 -236.15 374.9 C-236.93 374.91 -237.71 374.91 -238.51 374.92 C-249.93 374.86 -260.71 370.34 -269.13 362.62 C-278.17 353.05 -280.66 342.87 -280.33 330 C-280.04 324.7 -278.67 320.28 -276.79 315.36 C-276.14 313.6 -275.5 311.84 -274.86 310.08 C-274.53 309.18 -274.2 308.29 -273.86 307.37 C-272.29 303.1 -270.83 298.79 -269.37 294.49 C-244.78 222.94 -215.87 154.78 -161.75 100.31 C-161.24 99.8 -160.74 99.29 -160.22 98.76 C-153.45 91.95 -146.43 85.63 -138.88 79.69 C-137.83 78.85 -137.83 78.85 -136.76 78 C-128.63 71.54 -120.26 65.46 -111.62 59.69 C-110.32 58.81 -110.32 58.81 -109 57.92 C-104.42 54.88 -99.8 52.05 -94.98 49.41 C-85.04 44.39 -85.04 44.39 -78.11 36.18 C-77.37 32.65 -77.37 32.65 -77.17 29.11 C-76.25 18.44 -68.43 9.48 -60.63 2.75 C-42.91 -10.75 -18.95 -11.38 0 0 Z M22.12 53.69 C21.77 54.74 21.42 55.79 21.06 56.87 C18.18 65.18 15.36 72.28 9.12 78.69 C8.11 79.75 8.11 79.75 7.07 80.83 C-2.4 89.94 -14.29 94.11 -27.31 93.94 C-28.06 93.93 -28.81 93.92 -29.58 93.91 C-43.47 93.63 -54.52 88.65 -64.67 79.01 C-67.73 75.78 -70.4 72.38 -72.88 68.69 C-77.56 70.31 -81.45 72.81 -85.56 75.5 C-86.67 76.22 -86.67 76.22 -87.8 76.96 C-101.15 85.75 -113.87 95.14 -125.88 105.69 C-126.57 106.29 -127.27 106.89 -127.99 107.5 C-129.97 109.21 -131.93 110.94 -133.88 112.69 C-134.34 113.11 -134.81 113.52 -135.3 113.96 C-147.85 125.2 -158.69 137.28 -168.88 150.69 C-169.32 151.26 -169.76 151.84 -170.22 152.43 C-184.84 171.47 -196.18 192.25 -206.88 213.69 C-207.28 214.49 -207.68 215.28 -208.09 216.11 C-219.7 239.41 -228.34 264.1 -237.24 288.52 C-237.61 289.52 -237.97 290.53 -238.35 291.56 C-239.08 293.56 -239.8 295.57 -240.53 297.58 C-242.43 302.82 -244.39 308.04 -246.43 313.23 C-246.85 314.31 -247.27 315.38 -247.7 316.49 C-248.49 318.53 -249.3 320.57 -250.13 322.6 C-252.34 328.3 -253.89 333.54 -252.88 339.69 C-250.72 343.3 -248.72 345.1 -244.88 346.69 C-242.68 346.99 -242.68 346.99 -240.33 346.95 C-238.99 346.96 -238.99 346.96 -237.61 346.97 C-236.65 346.96 -235.68 346.95 -234.69 346.94 C-233.69 346.93 -232.69 346.93 -231.66 346.92 C-212.07 346.92 -212.07 346.92 -192.88 343.69 C-193.18 342.92 -193.49 342.16 -193.81 341.38 C-196.57 334.4 -197.43 326.97 -194.82 319.77 C-192.33 315.1 -189.3 310.84 -186.16 306.58 C-183.33 302.71 -180.56 298.81 -177.84 294.86 C-177.18 293.9 -176.51 292.93 -175.83 291.94 C-174.48 289.97 -173.13 288 -171.79 286.03 C-159.91 268.79 -159.91 268.79 -151.88 266.69 C-143.6 265.66 -136.61 266.53 -129.88 271.69 C-126.18 275.71 -123.89 279.58 -123.12 285 C-122.32 288.75 -122.32 288.75 -119.79 289.83 C-118.02 290.45 -116.25 291.06 -114.48 291.65 C-108.82 293.9 -105.25 298.48 -102.44 303.75 C-99.46 311.29 -99.47 320.31 -102.69 327.75 C-104.27 330.81 -106.1 333.73 -107.88 336.69 C-106.59 336.59 -106.59 336.59 -105.28 336.5 C-28.57 330.97 48.27 328.29 125.12 325.69 C121.04 321.59 121.04 321.59 116.75 317.71 C116.16 317.21 115.56 316.7 114.95 316.18 C114.05 315.41 114.05 315.41 113.12 314.62 C112.52 314.11 111.92 313.59 111.3 313.06 C108.68 310.82 106.05 308.63 103.33 306.5 C99.3 303.19 97.43 299.94 96.74 294.85 C96.46 287.22 97.47 281.63 102.71 275.97 C106.88 272.37 110.33 271.37 115.75 270.56 C119.81 269.78 121.56 269.4 124.15 266.12 C125.68 263.02 126.94 259.93 128.12 256.69 C131.94 248.07 136.39 241.58 145.22 237.57 C152.7 235.29 160.48 235.51 167.62 238.75 C175.14 243.15 179.44 249.48 182.12 257.69 C182.59 261.11 182.55 264.43 182.44 267.88 C182.42 268.79 182.41 269.71 182.4 270.65 C182.3 275.95 181.92 281.17 181.38 286.44 C180.9 291.8 181.69 294.8 184.18 299.48 C186.34 304.55 185.96 310.17 184.25 315.32 C183.3 317.5 182.27 319.6 181.12 321.69 C180.8 322.35 180.46 323.01 180.12 323.69 C193.92 323.71 207.71 323.72 221.49 323.53 C223.61 323.51 225.73 323.5 227.84 323.49 C230.95 323.48 234.05 323.44 237.16 323.39 C238.57 323.4 238.57 323.4 240.02 323.41 C245.39 323.33 245.39 323.33 249.71 320.35 C253.34 313.5 251.73 303.76 249.69 296.56 C231.67 245.01 202.85 189.78 165.21 149.92 C163.38 147.96 161.63 145.96 159.88 143.93 C156.15 139.65 152.21 135.62 148.19 131.62 C147.52 130.96 146.86 130.29 146.17 129.6 C115.58 99.06 77.36 76.61 37.94 59.5 C36.93 59.06 36.93 59.06 35.89 58.61 C33.98 57.78 32.06 56.96 30.14 56.14 C29.03 55.67 27.92 55.2 26.77 54.71 C24.29 53.57 24.29 53.57 22.12 53.69 Z " fill="#020201" transform="translate(513.875,245.3125)"/>
<path d="M0 0 C16.67 -0.45 32.87 0.83 49.39 3.08 C50.22 3.18 51.05 3.29 51.9 3.4 C108.71 10.84 160.36 38.91 201.39 78.08 C202.4 79.03 202.4 79.03 203.43 80 C208.57 84.95 212.96 90.5 217.39 96.08 C218.18 97.06 218.98 98.03 219.8 99.04 C252.4 140.01 268.29 189.94 263.39 242.08 C260.72 238.78 258.81 235.21 256.89 231.45 C242.87 204.75 225.15 179.81 205.39 157.08 C204.78 156.38 204.18 155.68 203.56 154.95 C192.63 142.24 192.63 142.24 180.42 130.8 C177.96 128.72 175.62 126.52 173.26 124.33 C166.91 118.55 160.24 113.25 153.39 108.08 C152.71 107.56 152.03 107.05 151.33 106.52 C139.82 97.86 127.9 90.2 115.39 83.08 C114.47 82.55 113.54 82.03 112.6 81.48 C94.65 71.3 76.1 62.51 56.81 55.16 C55.57 54.68 54.32 54.2 53.08 53.72 C50.72 52.81 48.35 51.93 45.96 51.08 C37.13 47.7 37.13 47.7 34.89 43.07 C34.38 41.74 33.88 40.41 33.39 39.08 C25.27 27.88 14.04 20.48 0.39 18.08 C-15.68 16.41 -29.21 18.72 -42.21 28.91 C-51.91 37.65 -56.8 47.92 -58.26 60.78 C-60.32 65.79 -64.05 67.44 -68.61 70.08 C-70.24 71.08 -71.87 72.08 -73.49 73.09 C-74.32 73.59 -75.15 74.1 -76.01 74.62 C-91.63 84.13 -106.43 94.53 -120.61 106.08 C-121.4 106.71 -121.4 106.71 -122.21 107.35 C-130.78 114.25 -138.63 121.89 -146.43 129.64 C-146.92 130.12 -147.4 130.61 -147.91 131.1 C-154.6 137.74 -160.79 144.65 -166.61 152.08 C-167.15 152.76 -167.69 153.45 -168.25 154.15 C-196.04 189.93 -216.99 230.63 -232.61 273.08 C-244.91 260.78 -245.8 230.62 -245.99 214.02 C-245.7 175.31 -230.63 137.8 -207.61 107.08 C-206.96 106.19 -206.96 106.19 -206.29 105.29 C-194.31 89.18 -180.3 74.59 -164.61 62.08 C-163.54 61.2 -162.47 60.32 -161.39 59.45 C-116.31 22.9 -57.89 1.73 0 0 Z " fill="#C79D6C" transform="translate(494.61474609375,220.921875)"/>
<path d="M0 0 C9.49 5.35 14.75 17.1 17.7 27.15 C18 28.28 18 28.28 18.31 29.44 C19.69 33.95 22.38 36.06 26 38.93 C30.06 42.35 32.65 46.63 33.18 51.98 C33.36 58.72 32.46 62.8 28.94 68.56 C28.61 68.89 28.28 69.22 27.94 69.56 C28.98 69.79 30.02 70.02 31.09 70.26 C48.21 74.2 61.13 81.33 70.94 96.56 C78.83 110.85 79.69 125.06 75.26 140.62 C71.21 153.47 62.37 163.72 50.69 170.28 C43.7 173.54 36.69 175.86 28.94 175.56 C28.97 176.12 29.01 176.68 29.04 177.25 C29.33 185.2 27.73 190.66 22.69 196.88 C17.05 202.8 12.58 203.75 4.56 204.12 C-2.56 203.97 -6.99 202.59 -12.06 197.56 C-17.74 191.06 -18.44 185.57 -18.44 177.16 C-17.97 172.71 -16.58 169.99 -13.96 166.43 C-12.8 164.57 -12.8 164.57 -13.74 162.51 C-14.99 160.67 -16.28 159.11 -17.81 157.5 C-27.25 146.63 -30.65 133.78 -30.29 119.58 C-29.83 113.58 -28.55 108.06 -26.06 102.56 C-26.64 102.46 -27.22 102.36 -27.81 102.25 C-33.33 100.56 -37.81 95.6 -40.5 90.62 C-42.27 86.65 -42.75 82.89 -43.06 78.56 C-43.95 78.32 -44.83 78.08 -45.75 77.82 C-54.96 74.32 -61.53 65.54 -65.88 57 C-68.46 49.31 -68.38 40.44 -65 33.06 C-62.4 28.59 -59.31 25.46 -55.06 22.56 C-54.2 21.96 -53.33 21.37 -52.44 20.75 C-48.89 19.5 -46.48 19.52 -42.75 19.5 C-38.8 19.28 -36.74 19.11 -33.64 16.6 C-32.19 14.88 -30.77 13.13 -29.39 11.35 C-26.77 8.21 -23.97 5.91 -20.69 3.5 C-19.69 2.77 -18.69 2.03 -17.66 1.28 C-12.13 -2.37 -6.01 -2.57 0 0 Z " fill="#030201" transform="translate(537.0625,352.4375)"/>
<path d="M0 0 C5.79 3.29 9.53 7.19 12 13.38 C12.31 14.64 12.31 14.64 12.62 15.94 C13.73 15.89 13.73 15.89 14.86 15.83 C24.87 15.57 34.08 16.57 41.96 23.23 C46.86 28.26 47.89 32.91 48.12 39.88 C47.97 46.01 46.74 50.67 43.62 55.94 C48.98 55.64 48.98 55.64 53.06 52.38 C53.58 51.57 54.09 50.77 54.62 49.94 C58.79 51.69 62.03 54.54 65.5 57.38 C66.84 58.46 68.17 59.54 69.51 60.62 C70.19 61.18 70.87 61.73 71.57 62.29 C73.56 63.88 75.56 65.45 77.58 67 C78.21 67.48 78.84 67.97 79.48 68.47 C80.67 69.38 81.86 70.29 83.06 71.2 C86.43 73.8 89.1 76.5 91.62 79.94 C90.31 81.59 88.99 83.24 87.62 84.94 C88.55 85.96 88.55 85.96 89.5 87 C91.87 90.28 92.68 93.03 93.62 96.94 C93.96 97.93 94.28 98.92 94.62 99.94 C94.96 103.47 95 107.01 95.06 110.56 C95.11 111.52 95.15 112.48 95.2 113.47 C95.32 120.97 93.38 125.22 88.62 130.94 C87.84 131.89 87.05 132.85 86.25 133.83 C85.17 135 85.17 135 84.06 136.19 C82.9 137.44 82.9 137.44 81.72 138.72 C79.4 141.18 77.08 143.61 74.62 145.94 C74.1 146.47 73.58 147 73.04 147.54 C61.33 158.74 48.48 161.34 32.85 161.15 C19.14 160.75 7.79 154.78 -2.09 145.42 C-13.15 133.43 -16.9 119.24 -16.67 103.32 C-16.42 97.45 -14.66 92.32 -12.38 86.94 C-11.71 85.27 -11.04 83.6 -10.38 81.94 C-10.94 81.8 -11.5 81.67 -12.08 81.53 C-18.72 79.83 -25.2 77.72 -31.69 75.5 C-32.55 75.21 -33.41 74.92 -34.29 74.63 C-44.3 71.15 -52.03 65.27 -57.38 55.94 C-60.16 48.98 -61.03 40.63 -58.5 33.46 C-55.17 27.78 -50.31 23.26 -44.31 20.56 C-41.24 19.91 -38.5 19.79 -35.38 19.94 C-35.31 18.95 -35.25 17.96 -35.19 16.94 C-34.32 11.2 -31.65 6.78 -27.15 3.13 C-18.68 -2.63 -9.65 -4.47 0 0 Z " fill="#030201" transform="translate(405.375,389.0625)"/>
<path d="M0 0 C1.4 -0.02 1.4 -0.02 2.82 -0.04 C3.84 -0.05 4.85 -0.05 5.89 -0.06 C7.45 -0.07 7.45 -0.07 9.04 -0.09 C11.25 -0.1 13.46 -0.11 15.67 -0.12 C19.03 -0.14 22.39 -0.18 25.75 -0.22 C27.9 -0.23 30.05 -0.24 32.2 -0.25 C33.7 -0.28 33.7 -0.28 35.22 -0.3 C42.43 -0.28 48.82 0.9 54.36 5.82 C59.33 11.05 61.54 16.65 61.51 23.8 C61.88 29.14 64.4 32.09 67.7 36.05 C75.8 45.83 80.86 54.31 80.02 67.4 C78.89 75.78 75.21 81.57 68.59 86.77 C60.74 92.08 52.65 91.5 43.51 91.18 C43.24 91.93 42.98 92.68 42.7 93.45 C39.94 99.76 34.5 103.6 28.4 106.45 C21.33 109.16 12.86 109.49 5.61 107.31 C-2.02 103.73 -7.57 98.91 -10.93 91.11 C-12.27 87.36 -12.91 84.2 -12.49 80.18 C-13.44 80.14 -14.39 80.09 -15.37 80.05 C-22.45 79 -28.63 74.73 -32.99 69.18 C-38 62.19 -38.31 54.49 -37.49 46.18 C-36.58 43.15 -35.3 40.76 -33.49 38.18 C-33.11 37.62 -32.72 37.07 -32.32 36.5 C-30.19 33.72 -28.47 32.17 -25.3 30.61 C-21.25 27.1 -21.68 23.67 -21.09 18.51 C-20.02 12.58 -17.14 8.23 -12.39 4.55 C-8.22 1.88 -4.99 0.06 0 0 Z " fill="#020202" transform="translate(411.490478515625,615.822998046875)"/>
<path d="M0 0 C1.04 -0.01 2.08 -0.01 3.15 -0.02 C5.35 -0.03 7.54 -0.03 9.74 -0.03 C13.08 -0.04 16.43 -0.08 19.77 -0.11 C21.91 -0.12 24.05 -0.12 26.19 -0.12 C27.18 -0.14 28.17 -0.15 29.2 -0.17 C36.73 -0.12 42.07 1.48 47.75 6.52 C48.7 7.64 48.7 7.64 49.67 8.77 C50.64 9.89 50.64 9.89 51.63 11.02 C54.55 15.08 55.43 18.33 55.42 23.27 C55.66 26.35 55.8 27.82 57.96 30.07 C59.36 31.05 60.78 31.99 62.22 32.91 C66.51 35.86 68.69 39.85 70.61 44.59 C72.38 54.27 71.64 61.82 66.12 70.09 C61 76.72 55.25 78.99 47.29 80.34 C47.2 82.01 47.2 82.01 47.11 83.71 C46.02 92 41.98 98.78 35.44 103.93 C27.81 108.92 19.21 109.42 10.29 108.34 C3.25 106.04 -3.82 101.84 -7.39 95.21 C-9.48 91.97 -9.48 91.97 -13.28 91.71 C-14.65 91.71 -16.02 91.73 -17.39 91.77 C-25.5 91.63 -30.53 90.09 -36.66 84.58 C-42.6 78.42 -45.83 71.41 -46.21 62.84 C-45.77 52.6 -40.43 43.72 -33.8 36.16 C-29.36 31.04 -28.21 27.84 -27.99 21.11 C-27.33 14.64 -23.98 9.14 -19.21 4.84 C-13.25 0 -7.37 0.02 0 0 Z " fill="#020202" transform="translate(577.70703125,615.6640625)"/>
<path d="M0 0 C7.66 5.49 14.2 12.47 16 22 C16.8 32.55 15.58 41.83 8.73 50.18 C1.17 58.13 -6.8 61.25 -17.69 61.62 C-27.1 61.65 -34.79 58.31 -42.06 52.29 C-43.64 50.61 -44.81 48.97 -46 47 C-46.61 46.09 -46.61 46.09 -47.23 45.16 C-51.59 37.39 -51.44 26.63 -49.27 18.15 C-48.34 15.94 -47.3 14.01 -46 12 C-45.64 11.38 -45.28 10.76 -44.9 10.12 C-40.86 3.78 -34.56 -1.17 -27.39 -3.53 C-18 -5.39 -8.41 -4.7 0 0 Z " fill="#BF443A" transform="translate(578,447)"/>
<path d="M0 0 C7.27 6.09 12.85 12.72 13.86 22.4 C14.5 33.16 12.68 41.91 5.43 50.26 C-1.64 56.99 -10.51 60.49 -20.22 60.33 C-29.19 59.57 -37.29 55.77 -43.5 49.23 C-50.35 40.65 -51.92 31.84 -51.01 21.1 C-49.86 13.57 -45.27 6.64 -39.7 1.58 C-27.41 -7.45 -12.81 -8.9 0 0 Z " fill="#C0453A" transform="translate(460.7109375,469.8828125)"/>
<path d="M0 0 C1.21 -0.01 1.21 -0.01 2.44 -0.02 C4.14 -0.03 5.85 -0.02 7.55 -0.01 C10.15 0 12.75 -0.03 15.35 -0.07 C17 -0.07 18.66 -0.07 20.31 -0.06 C21.09 -0.08 21.86 -0.09 22.66 -0.1 C26.55 -0.04 28.29 0.22 31.17 2.92 C33.04 6.24 32.85 8.12 32.47 11.88 C32.33 16.58 32.39 19.16 35.59 22.69 C36.95 23.99 38.3 25.28 39.66 26.57 C41.31 28.5 42.93 30.46 44.53 32.44 C45.67 33.83 45.67 33.83 46.84 35.25 C50.37 39.75 50.3 43.99 49.66 49.57 C47.67 52.7 46.3 53.34 42.84 54.57 C39.2 54.57 37.47 53.42 34.45 51.51 C31.37 49.89 29.03 50 25.66 50.57 C21.62 53.42 19.97 56.77 17.72 61.13 C15.22 65.84 13.65 68.53 8.66 70.57 C4.38 70.64 2.37 70.12 -1.02 67.51 C-3.93 63.83 -3.98 60.94 -3.91 56.44 C-3.67 51.16 -3.67 51.16 -6 46.63 C-8.78 45.37 -11.19 44.97 -14.22 44.63 C-19.82 43.82 -23.3 42.61 -27.34 38.57 C-28.04 31.58 -28.04 31.58 -25.41 27.75 C-22.1 25.39 -19.22 24.31 -15.33 23.24 C-13.14 22.66 -13.14 22.66 -11.34 20.57 C-11.06 18.59 -11.06 18.59 -11.16 16.38 C-11.17 15.58 -11.18 14.78 -11.19 13.95 C-11.31 11.31 -11.31 11.31 -12.09 7.75 C-12.34 4.57 -12.34 4.57 -10.88 2.4 C-7.37 -0.14 -4.18 -0.03 0 0 Z " fill="#67A147" transform="translate(421.34375,634.43359375)"/>
<path d="M0 0 C1.18 -0.01 1.18 -0.01 2.38 -0.01 C4.03 -0.01 5.68 -0.01 7.34 0.01 C9.87 0.03 12.39 0.01 14.92 -0.02 C16.53 -0.01 18.14 -0.01 19.75 0 C20.5 -0.01 21.26 -0.02 22.04 -0.02 C25.52 0.04 27.53 0.28 30.38 2.36 C33.09 6.3 31.5 10.62 30.84 15.12 C30.59 18.59 30.59 18.59 32.56 21.38 C34.93 23.58 36.28 24.34 39.38 25.09 C43.18 26.22 45.55 27.14 47.88 30.53 C48.94 33.41 48.94 33.41 48.88 36.53 C47.35 39.78 46.84 40.71 43.88 42.53 C40.02 43.51 36.31 44.16 32.37 44.7 C28.48 45.63 27.07 46.2 24.88 49.53 C24.4 53.35 24.44 57.05 24.44 60.9 C23.74 65.38 22.39 66.76 18.88 69.53 C15.56 70.78 15.56 70.78 11.88 70.53 C5.49 66.97 2.29 61.3 -0.8 54.89 C-2.04 52.26 -2.04 52.26 -5.12 50.53 C-10.96 49.87 -13.42 51.26 -18.12 54.53 C-20.69 55.03 -20.69 55.03 -23.12 54.53 C-25.77 52.72 -27.68 51.42 -29.12 48.53 C-29.9 42.23 -28.76 39 -25.05 33.91 C-22.19 30.38 -19.18 27.01 -16.08 23.7 C-12.21 19.41 -11.98 17.25 -12.25 11.59 C-12.31 10.37 -12.38 9.14 -12.45 7.88 C-12.12 4.53 -12.12 4.53 -10.61 2.36 C-7.18 -0.16 -4.09 -0.04 0 0 Z " fill="#68A248" transform="translate(581.125,634.46875)"/>
<path d="M0 0 C7.04 5.46 11.09 12.72 12.39 21.51 C13.04 31.44 10.7 39.84 4.17 47.53 C2.47 49.12 0.79 50.36 -1.19 51.6 C-1.81 52.01 -2.43 52.42 -3.07 52.84 C-10.21 56.78 -18.31 56.52 -26.19 55.6 C-29.94 54.42 -32.97 52.83 -36.19 50.6 C-37.06 50.02 -37.06 50.02 -37.95 49.43 C-44.08 44.89 -47.81 37.99 -49.19 30.6 C-50.08 21.68 -48.67 14.52 -43.46 7.15 C-32.11 -6.56 -15.21 -9.75 0 0 Z " fill="#C1453A" transform="translate(504.1875,263.40234375)"/>
<path d="M0 0 C0.12 0.58 0.25 1.15 0.38 1.75 C1.46 5.66 2.99 8.27 6 11 C6.66 8.69 7.32 6.38 8 4 C8.99 4 9.98 4 11 4 C10.48 6.76 9.89 9.33 9 12 C8.06 23.94 9.98 31.81 17.36 41.15 C20.82 45.06 24.24 48.27 29.1 50.28 C32 52 32 52 33.21 54.86 C33.57 56.5 33.57 56.5 33.94 58.19 C36.06 66.09 39.35 70.87 46.44 75 C47.28 75.33 48.13 75.66 49 76 C48.55 78.31 48.11 80.61 47.49 82.88 C45.09 92.12 45.53 101.62 47 111 C46.36 111.1 45.72 111.21 45.06 111.31 C44.38 111.54 43.7 111.77 43 112 C42.5 113.49 42.5 113.49 42 115 C37.54 110.78 35.41 107.9 34.06 102 C33.3 98.72 32.32 96.53 30 94 C31.32 92.35 32.64 90.7 34 89 C28.2 83.58 22.25 78.55 15.92 73.75 C10.49 69.64 5.24 65.35 0 61 C-3.16 62.37 -3.99 62.99 -6 66 C-9.62 66.19 -9.62 66.19 -13 66 C-12.5 64.8 -12.01 63.61 -11.5 62.38 C-9.03 54.89 -8.33 45.8 -11.56 38.44 C-15.88 31.42 -22.13 29.36 -29.84 27.48 C-30.91 27.24 -30.91 27.24 -32 27 C-32 26.67 -32 26.34 -32 26 C-31.24 26 -30.48 25.99 -29.7 25.99 C-26.69 25.88 -23.93 25.69 -21 25 C-18.68 22.13 -18.68 22.13 -18 19 C-17.34 19 -16.68 19 -16 19 C-16 18.34 -16 17.68 -16 17 C-16.66 16.67 -17.32 16.34 -18 16 C-16.82 15.63 -15.65 15.26 -14.44 14.88 C-9.21 12.89 -4.71 10.01 -1.9 5.05 C-1.18 3.4 -0.58 1.7 0 0 Z " fill="#FAD583" transform="translate(462,379)"/>
<path d="M0 0 C3.68 1.44 4.8 2.77 6.88 6.12 C7.65 8.15 8.35 10.17 8.97 12.26 C10.18 14.75 11.53 15.66 13.88 17.12 C16.3 17.56 16.3 17.56 18.9 17.5 C19.86 17.51 20.82 17.53 21.8 17.55 C23.81 17.56 25.81 17.56 27.81 17.56 C35.14 17.71 35.14 17.71 39.05 19.94 C40.88 22.12 40.88 22.12 41.06 25.69 C39.76 31.78 37.65 38.61 32.24 42.22 C29.06 43.91 25.79 45.28 22.45 46.62 C19.43 47.89 17.27 49.09 14.75 51.12 C11.88 53.12 11.88 53.12 9.61 52.89 C6.45 52.01 3.36 51.01 0.25 49.95 C-0.37 49.73 -0.99 49.52 -1.63 49.3 C-2.94 48.85 -4.25 48.4 -5.56 47.94 C-7.55 47.25 -9.54 46.57 -11.53 45.89 C-12.81 45.45 -14.09 45.01 -15.37 44.57 C-16.52 44.17 -17.67 43.78 -18.86 43.37 C-25.07 41 -29.1 39.29 -32.12 33.12 C-32.68 30.15 -32.53 28.22 -32.12 25.12 C-29.01 21.92 -25.95 21.57 -21.62 21.06 C-16.1 20.43 -16.1 20.43 -11.12 18.12 C-9.86 15.59 -10.02 13.64 -9.94 10.81 C-9.61 6.96 -9.34 4.55 -6.44 1.88 C-3.12 0.12 -3.12 0.12 0 0 Z " fill="#67A147" transform="translate(395.125,403.875)"/>
<path d="M0 0 C3.64 1.21 3.9 2 5.62 5.31 C7.6 9.39 8.33 12.74 8.56 17.25 C8.82 22.32 9.38 25.2 13 29 C15.01 30.42 17.05 31.71 19.2 32.92 C21 34 21 34 23 36 C23 37.32 23 38.64 23 40 C17.84 42.46 13.01 42.28 7.38 42.36 C3 43.19 1.54 44.36 -1 48 C-1.18 50.82 -1.15 53.11 -0.88 55.88 C-0.67 59.79 -0.52 63.06 -2.36 66.64 C-5.01 69.43 -6.82 70.89 -10.69 71.25 C-13.94 69.49 -15.17 68.27 -17 65 C-17.23 63.19 -17.39 61.38 -17.5 59.56 C-17.85 54.51 -18.33 51.75 -22 48 C-25 46.15 -28.05 44.44 -31.14 42.73 C-35.67 39.99 -38.3 37.09 -40 32 C-40.45 25.77 -40.45 25.77 -38.88 23.06 C-36.07 21.47 -34.18 21.63 -31 22 C-30.01 22.52 -29.02 23.03 -28 23.56 C-24.34 25.31 -22.83 25.22 -19 24 C-16.13 22.74 -16.13 22.74 -14 20 C-13.58 18.28 -13.21 16.55 -12.88 14.81 C-11.39 8.31 -7.71 5.47 -2.59 1.48 C-1.74 0.99 -0.88 0.5 0 0 Z " fill="#67A247" transform="translate(529,369)"/>
<path d="M0 0 C4.49 2.29 6.78 4.53 9 9 C9.39 11.88 9.39 11.88 9.4 15.07 C9.42 16.27 9.43 17.48 9.44 18.71 C9.44 20 9.44 21.29 9.43 22.62 C9.44 23.97 9.44 25.31 9.45 26.66 C9.46 29.48 9.46 32.29 9.45 35.11 C9.43 38.71 9.45 42.31 9.48 45.91 C9.5 48.68 9.5 51.46 9.5 54.24 C9.5 56.21 9.51 58.18 9.53 60.15 C9.44 71.33 9.44 71.33 5 76 C0.95 78.64 -2.18 79.7 -7 79 C-11.43 76.66 -13.8 74.47 -16 70 C-16.4 67.09 -16.4 67.09 -16.44 63.85 C-16.45 62.63 -16.47 61.42 -16.49 60.16 C-16.5 58.85 -16.5 57.54 -16.5 56.2 C-16.51 54.83 -16.52 53.46 -16.53 52.1 C-16.55 49.24 -16.56 46.38 -16.56 43.52 C-16.56 39.87 -16.6 36.22 -16.65 32.57 C-16.68 29.75 -16.69 26.93 -16.69 24.1 C-16.69 22.11 -16.72 20.11 -16.76 18.12 C-16.68 8 -16.68 8 -13.08 3.68 C-9.14 -0.14 -5.42 -0.73 0 0 Z " fill="#030303" transform="translate(515,633)"/>
<path d="M0 0 C2.94 1.85 4.54 3.85 6 7 C6.87 14.3 6.13 21.56 5.25 28.83 C4.14 38.38 4.14 38.38 8.06 46.88 C8.63 47.55 9.2 48.23 9.79 48.93 C11 51 11 51 10.75 53.7 C10 56 10 56 9 57 C7.53 57.15 6.06 57.23 4.59 57.28 C3.68 57.32 2.77 57.36 1.84 57.39 C0.4 57.45 0.4 57.45 -1.06 57.5 C-2.93 57.57 -4.79 57.64 -6.66 57.72 C-7.57 57.75 -8.47 57.79 -9.41 57.83 C-11.79 57.99 -14.05 58.32 -16.4 58.73 C-20 59 -20 59 -22.44 57.77 C-23.14 57.12 -23.84 56.48 -24.56 55.81 C-27.63 53.08 -30.69 50.44 -33.97 47.97 C-34.66 47.45 -35.34 46.93 -36.05 46.39 C-37.42 45.35 -38.79 44.32 -40.17 43.3 C-44.87 39.67 -44.87 39.67 -45.55 36.26 C-45 34 -45 34 -43 32 C-39.68 31.3 -36.38 30.74 -33.03 30.23 C-27.09 29.24 -23.35 27.87 -19.69 22.81 C-17.99 19.94 -16.5 16.99 -15.05 13.99 C-14.7 13.27 -14.35 12.56 -13.99 11.82 C-13.3 10.37 -12.61 8.92 -11.94 7.46 C-9.5 2.34 -9.5 2.34 -6.9 0.56 C-4.2 -0.23 -2.81 -0.6 0 0 Z " fill="#66A147" transform="translate(672,500)"/>
<path d="M0 0 C4.31 2.42 6.87 4.78 9.62 8.88 C10.22 9.72 10.82 10.57 11.44 11.44 C13.93 18.66 13.76 26.32 10.62 33.31 C7.15 39.34 2.58 42.69 -3.81 45.25 C-11.73 46.64 -17.55 46.45 -24.38 41.88 C-29.52 37.55 -33.86 31.57 -34.61 24.71 C-34.84 17.09 -33.55 11.31 -28.28 5.61 C-19.87 -2.18 -10.88 -5.06 0 0 Z " fill="#040301" transform="translate(652.375,404.125)"/>
<path d="M0 0 C4.41 3.46 7.55 7.28 9.01 12.75 C9.8 19.71 10.16 26.84 6.41 33 C1.93 38.61 -2.74 42.62 -9.99 43.75 C-16.86 44.46 -22.33 43.94 -27.99 39.75 C-34.38 33.82 -36.98 28.72 -37.43 20 C-37.27 12.78 -35.28 7 -30.09 1.86 C-20.84 -5.48 -10.1 -6.37 0 0 Z " fill="#040301" transform="translate(453.98828125,352.25390625)"/>
<path d="M0 0 C5.66 3.23 9.5 7.82 11.56 14 C12.18 21.91 12.73 29.55 7.56 36 C1.74 42.23 -3.25 44.99 -11.81 45.38 C-18.68 45.24 -23 43.05 -28.19 38.69 C-34.08 31.65 -35.23 27.03 -34.94 17.73 C-34.03 10.93 -31.34 6.6 -26.27 2.06 C-18.22 -3.6 -8.94 -3.94 0 0 Z " fill="#030201" transform="translate(605.4375,338)"/>
<path d="M0 0 C2.5 0.43 2.5 0.43 4.32 2.06 C5.82 5.08 5.63 7.03 5.37 10.37 C5.27 15.24 5.27 15.24 7.37 19.62 C11.1 21.78 13.88 21.97 18.12 22.2 C21.24 22.51 23.11 23.42 25.5 25.43 C27.58 28.09 27.49 29.5 27.43 32.93 C26.5 36.43 26.5 36.43 24.5 38.75 C18.11 42.34 10.21 42.88 3.04 43.98 C2.18 44.11 1.32 44.24 0.43 44.38 C-1.38 44.66 -3.19 44.93 -5 45.2 C-7.76 45.62 -10.52 46.05 -13.29 46.49 C-15.05 46.75 -16.82 47.02 -18.58 47.29 C-19.81 47.48 -19.81 47.48 -21.07 47.68 C-25.15 48.28 -28.47 48.62 -32.5 47.43 C-33.33 45.42 -33.33 45.42 -33.5 42.43 C-32.12 39.61 -30.22 37.18 -28.32 34.68 C-27.2 33.17 -26.09 31.66 -24.98 30.14 C-24.12 28.98 -24.12 28.98 -23.24 27.79 C-21.01 24.76 -18.86 21.67 -16.72 18.57 C-4.34 0.75 -4.34 0.75 0 0 Z " fill="#67A047" transform="translate(367.50390625,529.56640625)"/>
<path d="M0 0 C1.27 -0.01 2.53 -0.01 3.84 -0.02 C7.79 0.26 10.88 1.03 14.62 2.25 C14.62 2.91 14.62 3.57 14.62 4.25 C15.95 4.25 17.26 4.25 18.62 4.25 C18.46 5.1 18.29 5.94 18.12 6.81 C17.61 10.34 17.55 13.69 17.62 17.25 C16.97 17.25 16.3 17.25 15.62 17.25 C15.62 17.91 15.62 18.57 15.62 19.25 C14.35 19.11 13.07 18.96 11.76 18.81 C10.09 18.62 8.42 18.44 6.75 18.25 C5.49 18.11 5.49 18.11 4.2 17.96 C3.39 17.87 2.59 17.78 1.76 17.69 C0.64 17.56 0.64 17.56 -0.5 17.43 C-2.39 17.22 -2.39 17.22 -4.38 17.25 C-5.03 21.87 -5.7 26.49 -6.38 31.25 C-4.73 31.91 -3.08 32.57 -1.38 33.25 C-1.38 34.24 -1.38 35.23 -1.38 36.25 C-2.86 35.75 -2.86 35.75 -4.38 35.25 C-8.15 34.69 -11.81 34.23 -15.11 36.38 C-17.43 38.87 -18.34 40.96 -18.75 44.31 C-15.84 50.53 -8.4 52.32 -2.31 54.56 C-0.67 55.13 0.98 55.7 2.62 56.25 C2.62 56.91 2.62 57.57 2.62 58.25 C7.58 58.25 12.52 58.25 17.62 58.25 C17.62 58.91 17.62 59.57 17.62 60.25 C15.98 60.25 14.33 60.25 12.62 60.25 C12.62 60.91 12.62 61.57 12.62 62.25 C9.46 63.3 7.07 63.45 3.75 63.5 C2.21 63.54 2.21 63.54 0.63 63.58 C-2.77 63.21 -4.52 62.06 -7.38 60.25 C-8.47 60.31 -9.56 60.37 -10.69 60.44 C-15.97 60.17 -18.75 57.99 -22.38 54.25 C-29.26 44.64 -30.43 35.82 -29.38 24.25 C-28.52 20.84 -27.27 18.19 -25.38 15.25 C-25.01 14.63 -24.65 14.01 -24.28 13.37 C-18.62 4.49 -10.43 -0.04 0 0 Z " fill="#C3453A" transform="translate(557.375,443.75)"/>
<path d="M0 0 C3.62 0.56 3.62 0.56 6.62 3.19 C8.62 6.56 8.62 6.56 8.57 9.32 C7.33 13.59 5.17 16.41 2.44 19.88 C1.91 20.56 1.39 21.24 0.85 21.94 C-3.35 27.36 -7.66 32.69 -12 38 C-12.6 38.74 -13.21 39.48 -13.83 40.24 C-14.39 40.92 -14.96 41.61 -15.54 42.31 C-16.29 43.22 -16.29 43.22 -17.05 44.14 C-19.03 46.26 -20.3 46.55 -23.19 46.94 C-26.38 46.56 -26.38 46.56 -29.25 44.44 C-31.38 41.56 -31.38 41.56 -31.94 38.62 C-30.74 32.1 -25.25 26.82 -21.12 21.81 C-19.97 20.4 -18.81 18.98 -17.65 17.57 C-17.09 16.88 -16.53 16.2 -15.95 15.5 C-13.25 12.19 -10.61 8.84 -7.96 5.48 C-3.98 0.66 -3.98 0.66 0 0 Z " fill="#A3341D" transform="translate(334.375,475.4375)"/>
<path d="M0 0 C7.75 2.67 12.23 10.13 17.21 16.33 C20.51 20.32 24.01 24.07 27.56 27.84 C30.59 31.38 31.67 33.11 31.5 37.81 C30.62 41.25 30.62 41.25 29 43.19 C25.42 44.79 23.52 44.96 19.62 44.25 C13.79 39.96 9.43 33.67 4.94 28.07 C1.91 24.38 -1.29 20.86 -4.53 17.34 C-7.08 14.45 -8.31 12.75 -8.81 8.88 C-8.38 5.25 -8.38 5.25 -6.31 2.25 C-3.38 0.25 -3.38 0.25 0 0 Z " fill="#A1331C" transform="translate(691.375,446.75)"/>
<path d="M0 0 C2.55 0.99 3.8 1.79 5.45 3.95 C5.95 6.82 5.95 6.82 5.45 9.95 C3.39 12.82 3.39 12.82 0.45 14.95 C-5.5 15.9 -12 14.22 -17.55 11.95 C-19.88 10.03 -19.88 10.03 -21.55 7.95 C-21.63 4.06 -21.02 2.48 -18.42 -0.43 C-12.34 -3.86 -6.37 -1.68 0 0 Z " fill="#6B0F07" transform="translate(574.546875,463.05078125)"/>
<path d="M0 0 C5.22 1.39 9.83 3.14 13.75 6.94 C15.03 9.58 15.26 11.09 14.75 14 C12.74 16.78 11.23 17.83 8 19 C2.17 19 -1.81 16.11 -6.31 12.62 C-8.25 10 -8.25 10 -8.31 6.94 C-6.61 2.23 -5.23 0 0 0 Z " fill="#681007" transform="translate(546.25,479)"/>
<path d="M0 0 C4.59 3.64 6.61 9.72 7.56 15.31 C7 18 7 18 4.88 20.44 C2 22 2 22 -1 22.25 C-5.41 20.41 -6.96 17.18 -9 13 C-10.18 9.45 -10.27 6.73 -10 3 C-7.78 -1.05 -4.2 -0.45 0 0 Z " fill="#691008" transform="translate(486,282)"/>
<path d="M0 0 C3.36 2.49 4.8 3.91 5.56 8.06 C5 11 5 11 3.5 13.38 C-0.01 15.66 -2.92 15.81 -7 15 C-9.5 13.44 -9.5 13.44 -11 11 C-11.56 7.5 -11.56 7.5 -11 4 C-7.71 0.22 -4.95 -0.93 0 0 Z " fill="#6C0D06" transform="translate(456,493)"/>
<path d="M0 0 C4.85 1.53 4.85 1.53 6.38 4.06 C7.38 7.44 7.38 7.44 7.38 11.06 C4.94 14.52 3.5 15.86 -0.69 16.62 C-4.34 15.93 -5.48 15.08 -7.62 12.06 C-8.69 9.19 -8.69 9.19 -8.62 6.06 C-6.13 1.77 -5.09 0.09 0 0 Z " fill="#691007" transform="translate(431.625,471.9375)"/>
<path d="M0 0 C3 0.56 3 0.56 5.44 2.69 C7 5.56 7 5.56 7 8.69 C6 11.56 6 11.56 4.38 13.5 C0.92 15.04 -1.4 14.5 -5 13.56 C-7.33 10.07 -7.5 8.67 -7 4.56 C-4.89 1.47 -3.69 0.69 0 0 Z " fill="#BD423C" transform="translate(642,418.4375)"/>
<path d="M0 0 C2.31 1.62 2.31 1.62 4 4 C4.61 7.67 4.49 9.29 2.38 12.38 C-0.71 14.49 -2.33 14.61 -6 14 C-8.44 12.44 -8.44 12.44 -10 10 C-10 6.18 -9.85 3.94 -7.25 1.06 C-4.51 -0.23 -3 -0.52 0 0 Z " fill="#C1443D" transform="translate(443,365)"/>
<path d="M0 0 C2.38 1.06 2.38 1.06 4 3 C4.56 6.44 4.56 6.44 4 10 C1.88 12.5 1.88 12.5 -1 14 C-4.54 14 -6.26 13.65 -8.94 11.31 C-10.4 8.13 -9.99 6.32 -9 3 C-6.69 -0.65 -4.08 -0.5 0 0 Z " fill="#C0473A" transform="translate(545,526)"/>
<path d="M0 0 C2.87 0.09 3.78 0.16 6.12 1.94 C7.47 5.43 6.99 7.8 6.06 11.38 C2.57 13.7 1.17 13.88 -2.94 13.38 C-5.38 11.81 -5.38 11.81 -6.94 9.38 C-6.73 3.38 -6.39 0.61 0 0 Z " fill="#C0443C" transform="translate(593.9375,352.625)"/>
<path d="M0 0 C0 0.33 0 0.66 0 1 C-5.87 1.17 -11.74 1.33 -17.61 1.48 C-19.61 1.54 -21.61 1.59 -23.6 1.65 C-26.48 1.73 -29.35 1.81 -32.23 1.88 C-33.11 1.91 -34 1.93 -34.92 1.96 C-39.42 2.07 -43.56 1.94 -48 1 C-48 0.67 -48 0.34 -48 0 C-31.92 -1.29 -16.08 -1.11 0 0 Z " fill="#E0C381" transform="translate(584,572)"/>
<path d="M0 0 C0 0.33 0 0.66 0 1 C-4.27 1.2 -8.54 1.38 -12.81 1.56 C-14.61 1.65 -14.61 1.65 -16.44 1.73 C-23.72 2.03 -30.76 1.89 -38 1 C-38 0.67 -38 0.34 -38 0 C-25.21 -1.39 -12.8 -0.9 0 0 Z " fill="#E2C580" transform="translate(486,576)"/>
<path d="M0 0 C12.67 -0.18 12.67 -0.18 18 1 C18 1.33 18 1.66 18 2 C9.58 2.5 9.58 2.5 1 3 C0.67 2.01 0.34 1.02 0 0 Z " fill="#E2C27F" transform="translate(299,588)"/>
<path d="M0 0 C0.33 0.99 0.66 1.98 1 3 C0.38 3.58 -0.24 4.15 -0.88 4.75 C-3.03 6.8 -3.03 6.8 -3.94 9 C-5.4 11.75 -7.52 13.17 -10 15 C-10.66 14.67 -11.32 14.34 -12 14 C-11.3 13.24 -10.6 12.48 -9.88 11.7 C-8.96 10.7 -8.04 9.69 -7.12 8.69 C-6.66 8.19 -6.2 7.69 -5.73 7.17 C-3.61 4.86 -1.74 2.62 0 0 Z " fill="#151414" transform="translate(751,715)"/>
<path d="M0 0 C0.33 0 0.66 0 1 0 C1.66 6.27 2.32 12.54 3 19 C2.01 18.67 1.02 18.34 0 18 C0 12.06 0 6.12 0 0 Z " fill="#F5EDE2" transform="translate(249,445)"/>
<path d="M0 0 C0.62 1.81 0.62 1.81 1 4 C-1.07 7.11 -1.76 7.57 -5 9 C-6.34 9.66 -7.67 10.33 -9 11 C-8.07 9.73 -7.13 8.46 -6.19 7.19 C-5.67 6.48 -5.14 5.77 -4.61 5.04 C-3.17 3.21 -1.68 1.6 0 0 Z " fill="#E9EBEA" transform="translate(779,726)"/>
<path d="M0 0 C0.98 0.03 1.97 0.05 2.98 0.08 C3.73 0.12 4.48 0.15 5.25 0.19 C5.25 0.52 5.25 0.85 5.25 1.19 C4.22 1.24 4.22 1.24 3.17 1.3 C2.27 1.37 1.37 1.43 0.44 1.5 C-0.46 1.56 -1.35 1.62 -2.27 1.68 C-5.1 2.26 -5.88 3.09 -7.75 5.19 C-8.41 5.19 -9.07 5.19 -9.75 5.19 C-9.75 6.18 -9.75 7.17 -9.75 8.19 C-10.41 8.19 -11.07 8.19 -11.75 8.19 C-9.65 1.72 -6.76 -0.24 0 0 Z " fill="#16280E" transform="translate(538.75,410.8125)"/>
<path d="M0 0 C0.66 0 1.32 0 2 0 C1.34 5.61 0.68 11.22 0 17 C-0.33 17 -0.66 17 -1 17 C-2.52 5.48 -2.52 5.48 0 0 Z " fill="#CDB577" transform="translate(571,347)"/>
<path d="M0 0 C3.88 1.75 3.88 1.75 5 4 C4.67 4.66 4.34 5.32 4 6 C4.66 6 5.32 6 6 6 C5.67 9.63 5.34 13.26 5 17 C4.67 17 4.34 17 4 17 C3.88 16.11 3.76 15.22 3.63 14.3 C3.47 13.13 3.3 11.96 3.12 10.75 C2.96 9.59 2.8 8.43 2.63 7.23 C2.08 4.42 1.44 2.45 0 0 Z " fill="#CFB678" transform="translate(449,415)"/>
<path d="M0 0 C0.66 0.33 1.32 0.66 2 1 C-1.3 4.63 -4.6 8.26 -8 12 C-8.33 11.01 -8.66 10.02 -9 9 C-6.03 6.03 -3.06 3.06 0 0 Z " fill="#181918" transform="translate(764,741)"/>
<path d="M0 0 C2.48 0.5 2.48 0.5 5 1 C5 2.32 5 3.64 5 5 C4.34 5 3.68 5 3 5 C3 7.97 3 10.94 3 14 C2.67 14 2.34 14 2 14 C1.34 9.38 0.68 4.76 0 0 Z " fill="#D4B877" transform="translate(461,361)"/>
<path d="M0 0 C0 3 0 3 -2.38 5.69 C-5 8 -5 8 -7 8 C-7.33 8.99 -7.66 9.98 -8 11 C-8.99 10.67 -9.98 10.34 -11 10 C-5.56 5.05 -5.56 5.05 0 0 Z " fill="#181818" transform="translate(283,260)"/>
<path d="M0 0 C0.66 0.33 1.32 0.66 2 1 C1.81 2.88 1.81 2.88 1 5 C-1.31 6.12 -1.31 6.12 -4 7 C-5.34 7.65 -6.68 8.31 -8 9 C-6.66 4.99 -4.47 4.24 -1 2 C-0.67 1.34 -0.34 0.68 0 0 Z " fill="#19150B" transform="translate(440,310)"/>
<path d="M0 0 C0.66 0.66 1.32 1.32 2 2 C-1.63 3.98 -5.26 5.96 -9 8 C-6.64 3.28 -4.95 1.65 0 0 Z " fill="#EDEDED" transform="translate(327,225)"/>
<path d="M0 0 C0.99 0.66 1.98 1.32 3 2 C0.36 4.31 -2.28 6.62 -5 9 C-5.66 8.67 -6.32 8.34 -7 8 C-4.69 5.36 -2.38 2.72 0 0 Z " fill="#EAECEB" transform="translate(273,310)"/>
<path d="M0 0 C0.99 0.33 1.98 0.66 3 1 C0.47 3.8 -1.2 5.46 -5 6 C-3.35 4.02 -1.7 2.04 0 0 Z " fill="#DFE1E0" transform="translate(749,758)"/>
<path d="M0 0 C3.15 3.42 3.56 6.44 4 11 C1.97 9.58 1.1 8.45 0.58 6.02 C0.34 4.02 0.16 2.01 0 0 Z " fill="#1C170F" transform="translate(388,522)"/>
<path d="M0 0 C0.33 0 0.66 0 1 0 C1.33 4.29 1.66 8.58 2 13 C1.01 13 0.02 13 -1 13 C-0.67 8.71 -0.34 4.42 0 0 Z " fill="#BCA569" transform="translate(617,355)"/>
<path d="M0 0 C1.65 0 3.3 0 5 0 C0.38 4.88 0.38 4.88 -3 6 C-2.67 5.01 -2.34 4.02 -2 3 C-1.34 3 -0.68 3 0 3 C0 2.01 0 1.02 0 0 Z " fill="#E9E9E9" transform="translate(300,242)"/>
<path d="M0 0 C-0.33 0.66 -0.66 1.32 -1 2 C-4.63 1.67 -8.26 1.34 -12 1 C-12 0.67 -12 0.34 -12 0 C-7.68 -0.76 -4.26 -1.16 0 0 Z " fill="#D6BC7A" transform="translate(377,510)"/>
<path d="M0 0 C3.47 1.49 3.47 1.49 7 3 C6.67 3.66 6.34 4.32 6 5 C4.35 4.67 2.7 4.34 1 4 C0.67 2.68 0.34 1.36 0 0 Z " fill="#1B110B" transform="translate(587,291)"/>
<path d="M0 0 C0.66 0 1.32 0 2 0 C1.25 2.94 1.25 2.94 0 6 C-2.12 6.88 -2.12 6.88 -4 7 C-2.68 4.69 -1.36 2.38 0 0 Z " fill="#171616" transform="translate(779,677)"/>
<path d="M0 0 C1 4 1 4 0 7 C-1.65 7.33 -3.3 7.66 -5 8 C-3.35 5.36 -1.7 2.72 0 0 Z " fill="#E2C57C" transform="translate(615,369)"/>
<path d="M0 0 C0.33 0.99 0.66 1.98 1 3 C-0.44 5.19 -0.44 5.19 -2 7 C-2.99 6.67 -3.98 6.34 -5 6 C-3.35 4.02 -1.7 2.04 0 0 Z " fill="#151415" transform="translate(269,273)"/>
</svg>
