<?xml version="1.0" encoding="UTF-8"?>
<svg xmlns="http://www.w3.org/2000/svg" xmlns:xlink="http://www.w3.org/1999/xlink" width="72px" height="72px" viewBox="0 0 72 72" version="1.1">
<g id="surface1">
<!-- <path style=" stroke:none;fill-rule:nonzero;fill:rgb(99.215686%,99.215686%,99.607843%);fill-opacity:1;" d="M 0 0 C 23.761719 0 47.519531 0 72 0 C 72 23.761719 72 47.519531 72 72 C 48.238281 72 24.480469 72 0 72 C 0 48.238281 0 24.480469 0 0 Z M 0 0 "/> -->
<path style=" stroke:none;fill-rule:nonzero;fill:rgb(98.823529%,99.215686%,99.215686%);fill-opacity:1;" d="M 35.9375 12.207031 C 36.019531 12.207031 36.097656 12.207031 36.183594 12.207031 C 37.503906 12.210938 38.773438 12.289062 40.078125 12.515625 C 40.15625 12.527344 40.234375 12.539062 40.3125 12.554688 C 44.480469 13.21875 48.695312 15.164062 51.792969 18.054688 C 51.933594 18.183594 52.074219 18.308594 52.214844 18.429688 C 52.578125 18.746094 52.917969 19.082031 53.257812 19.421875 C 53.320312 19.484375 53.382812 19.546875 53.445312 19.609375 C 53.875 20.035156 54.257812 20.480469 54.632812 20.953125 C 54.703125 21.039062 54.773438 21.121094 54.84375 21.207031 C 55.734375 22.28125 56.480469 23.464844 57.164062 24.679688 C 57.191406 24.726562 57.214844 24.769531 57.242188 24.816406 C 58.65625 27.3125 59.574219 30.199219 59.90625 33.046875 C 59.914062 33.105469 59.921875 33.164062 59.925781 33.226562 C 60.648438 39.453125 58.941406 45.78125 55.082031 50.722656 C 54.519531 51.425781 53.929688 52.105469 53.3125 52.765625 C 53.273438 52.8125 53.230469 52.855469 53.1875 52.902344 C 52.925781 53.179688 52.65625 53.433594 52.371094 53.679688 C 52.207031 53.820312 52.050781 53.964844 51.894531 54.113281 C 51.382812 54.582031 50.828125 54.992188 50.273438 55.40625 C 50.207031 55.457031 50.207031 55.457031 50.140625 55.503906 C 49.527344 55.960938 48.894531 56.363281 48.234375 56.742188 C 48.179688 56.773438 48.121094 56.808594 48.0625 56.839844 C 46.132812 57.941406 44.113281 58.6875 41.976562 59.273438 C 41.914062 59.289062 41.855469 59.308594 41.789062 59.324219 C 40.210938 59.75 38.535156 59.988281 36.898438 59.988281 C 36.824219 59.988281 36.75 59.988281 36.675781 59.988281 C 36.519531 59.988281 36.367188 59.988281 36.210938 59.988281 C 35.980469 59.988281 35.75 59.992188 35.519531 59.992188 C 34.117188 59.996094 32.753906 59.894531 31.382812 59.617188 C 31.328125 59.605469 31.273438 59.59375 31.21875 59.582031 C 30.191406 59.378906 29.1875 59.117188 28.195312 58.78125 C 28.089844 58.746094 28.089844 58.746094 27.984375 58.710938 C 25.125 57.738281 22.285156 56.175781 20.082031 54.097656 C 19.933594 53.960938 19.785156 53.828125 19.632812 53.699219 C 19.332031 53.4375 19.050781 53.160156 18.769531 52.878906 C 18.722656 52.832031 18.675781 52.785156 18.625 52.738281 C 14.980469 49.085938 12.671875 44.121094 12.023438 39.023438 C 12.015625 38.960938 12.007812 38.898438 12 38.832031 C 11.457031 34.597656 12.179688 30.25 13.921875 26.367188 C 13.949219 26.308594 13.976562 26.246094 14.003906 26.1875 C 14.972656 24.011719 16.335938 22.015625 17.929688 20.25 C 17.980469 20.191406 17.980469 20.191406 18.035156 20.132812 C 18.644531 19.457031 19.273438 18.800781 19.96875 18.210938 C 20.03125 18.15625 20.097656 18.097656 20.164062 18.042969 C 20.792969 17.492188 21.464844 17.003906 22.148438 16.523438 C 22.191406 16.492188 22.238281 16.460938 22.28125 16.429688 C 25.417969 14.222656 29.121094 12.894531 32.90625 12.375 C 33.042969 12.355469 33.042969 12.355469 33.179688 12.335938 C 34.097656 12.214844 35.015625 12.207031 35.9375 12.207031 Z M 35.9375 12.207031 "/>
<path style=" stroke:none;fill-rule:nonzero;fill:rgb(98.823529%,84.313725%,51.764706%);fill-opacity:1;" d="M 36.132812 17.25 C 36.667969 17.613281 37.101562 18.054688 37.40625 18.632812 C 37.40625 18.703125 37.40625 18.773438 37.40625 18.84375 C 37.449219 18.855469 37.488281 18.867188 37.53125 18.878906 C 38.019531 19.015625 38.480469 19.199219 38.945312 19.398438 C 39.023438 19.429688 39.101562 19.464844 39.183594 19.5 C 41.761719 20.609375 44.167969 21.902344 46.335938 23.695312 C 46.390625 23.742188 46.390625 23.742188 46.445312 23.785156 C 46.855469 24.125 47.261719 24.464844 47.628906 24.847656 C 47.753906 24.972656 47.882812 25.082031 48.015625 25.195312 C 48.355469 25.488281 48.640625 25.820312 48.9375 26.15625 C 49.039062 26.265625 49.140625 26.378906 49.246094 26.492188 C 51.824219 29.363281 55.808594 34.886719 55.78125 38.945312 C 55.777344 39.039062 55.777344 39.039062 55.777344 39.132812 C 55.765625 39.917969 55.550781 40.597656 55.007812 41.191406 C 54.53125 41.625 54.011719 41.832031 53.371094 41.855469 C 53.265625 41.859375 53.265625 41.859375 53.160156 41.863281 C 53.042969 41.867188 53.042969 41.867188 52.921875 41.871094 C 52.839844 41.875 52.757812 41.875 52.671875 41.878906 C 51.65625 41.914062 50.640625 41.929688 49.625 41.949219 C 48.945312 41.960938 48.269531 41.980469 47.59375 42.011719 C 46.867188 42.042969 46.144531 42.0625 45.421875 42.082031 C 45.367188 42.082031 45.308594 42.085938 45.253906 42.085938 C 44.734375 42.101562 44.214844 42.113281 43.695312 42.125 C 43.40625 42.132812 43.117188 42.140625 42.832031 42.148438 C 42.722656 42.152344 42.617188 42.152344 42.507812 42.15625 C 41.996094 42.167969 41.484375 42.183594 40.972656 42.222656 C 40.378906 42.261719 39.78125 42.285156 39.1875 42.300781 C 35.269531 42.429688 31.371094 42.648438 27.464844 42.976562 C 26.875 43.023438 26.285156 43.070312 25.691406 43.117188 C 24.589844 43.199219 23.484375 43.28125 22.378906 43.390625 C 22.3125 43.398438 22.246094 43.40625 22.175781 43.410156 C 21.859375 43.441406 21.546875 43.472656 21.234375 43.507812 C 20.664062 43.566406 20.101562 43.605469 19.527344 43.609375 C 19.472656 43.609375 19.417969 43.609375 19.363281 43.609375 C 18.558594 43.605469 17.800781 43.289062 17.207031 42.746094 C 16.574219 42.074219 16.398438 41.355469 16.421875 40.453125 C 16.441406 40.078125 16.539062 39.769531 16.671875 39.421875 C 16.714844 39.296875 16.761719 39.175781 16.804688 39.050781 C 16.828125 38.988281 16.851562 38.925781 16.875 38.859375 C 16.988281 38.558594 17.089844 38.257812 17.191406 37.953125 C 18.921875 32.925781 20.953125 28.132812 24.757812 24.300781 C 24.792969 24.265625 24.828125 24.230469 24.867188 24.191406 C 25.34375 23.714844 25.835938 23.269531 26.367188 22.851562 C 26.441406 22.792969 26.441406 22.792969 26.515625 22.734375 C 27.085938 22.277344 27.675781 21.851562 28.285156 21.445312 C 28.375 21.382812 28.375 21.382812 28.46875 21.320312 C 28.789062 21.105469 29.113281 20.910156 29.453125 20.722656 C 30.152344 20.371094 30.152344 20.371094 30.640625 19.792969 C 30.691406 19.542969 30.691406 19.542969 30.707031 19.296875 C 30.769531 18.546875 31.320312 17.914062 31.867188 17.441406 C 33.113281 16.492188 34.800781 16.449219 36.132812 17.25 Z M 36.132812 17.25 "/>
<path style=" stroke:none;fill-rule:nonzero;fill:rgb(0.784314%,0.784314%,0.784314%);fill-opacity:1;" d="M 35.9375 12.207031 C 36.019531 12.207031 36.097656 12.207031 36.183594 12.207031 C 37.503906 12.210938 38.773438 12.289062 40.078125 12.515625 C 40.15625 12.527344 40.234375 12.539062 40.3125 12.554688 C 44.480469 13.21875 48.695312 15.164062 51.792969 18.054688 C 51.933594 18.183594 52.074219 18.308594 52.214844 18.429688 C 52.578125 18.746094 52.917969 19.082031 53.257812 19.421875 C 53.320312 19.484375 53.382812 19.546875 53.445312 19.609375 C 53.875 20.035156 54.257812 20.480469 54.632812 20.953125 C 54.703125 21.039062 54.773438 21.121094 54.84375 21.207031 C 55.734375 22.28125 56.480469 23.464844 57.164062 24.679688 C 57.191406 24.726562 57.214844 24.769531 57.242188 24.816406 C 58.65625 27.3125 59.574219 30.199219 59.90625 33.046875 C 59.914062 33.105469 59.921875 33.164062 59.925781 33.226562 C 60.648438 39.453125 58.941406 45.78125 55.082031 50.722656 C 54.519531 51.425781 53.929688 52.105469 53.3125 52.765625 C 53.273438 52.8125 53.230469 52.855469 53.1875 52.902344 C 52.925781 53.179688 52.65625 53.433594 52.371094 53.679688 C 52.207031 53.820312 52.050781 53.964844 51.894531 54.113281 C 51.382812 54.582031 50.828125 54.992188 50.273438 55.40625 C 50.207031 55.457031 50.207031 55.457031 50.140625 55.503906 C 49.527344 55.960938 48.894531 56.363281 48.234375 56.742188 C 48.179688 56.773438 48.121094 56.808594 48.0625 56.839844 C 46.132812 57.941406 44.113281 58.6875 41.976562 59.273438 C 41.914062 59.289062 41.855469 59.308594 41.789062 59.324219 C 40.210938 59.75 38.535156 59.988281 36.898438 59.988281 C 36.824219 59.988281 36.75 59.988281 36.675781 59.988281 C 36.519531 59.988281 36.367188 59.988281 36.210938 59.988281 C 35.980469 59.988281 35.75 59.992188 35.519531 59.992188 C 34.117188 59.996094 32.753906 59.894531 31.382812 59.617188 C 31.328125 59.605469 31.273438 59.59375 31.21875 59.582031 C 30.191406 59.378906 29.1875 59.117188 28.195312 58.78125 C 28.089844 58.746094 28.089844 58.746094 27.984375 58.710938 C 25.125 57.738281 22.285156 56.175781 20.082031 54.097656 C 19.933594 53.960938 19.785156 53.828125 19.632812 53.699219 C 19.332031 53.4375 19.050781 53.160156 18.769531 52.878906 C 18.722656 52.832031 18.675781 52.785156 18.625 52.738281 C 14.980469 49.085938 12.671875 44.121094 12.023438 39.023438 C 12.015625 38.960938 12.007812 38.898438 12 38.832031 C 11.457031 34.597656 12.179688 30.25 13.921875 26.367188 C 13.949219 26.308594 13.976562 26.246094 14.003906 26.1875 C 14.972656 24.011719 16.335938 22.015625 17.929688 20.25 C 17.980469 20.191406 17.980469 20.191406 18.035156 20.132812 C 18.644531 19.457031 19.273438 18.800781 19.96875 18.210938 C 20.03125 18.15625 20.097656 18.097656 20.164062 18.042969 C 20.792969 17.492188 21.464844 17.003906 22.148438 16.523438 C 22.191406 16.492188 22.238281 16.460938 22.28125 16.429688 C 25.417969 14.222656 29.121094 12.894531 32.90625 12.375 C 33.042969 12.355469 33.042969 12.355469 33.179688 12.335938 C 34.097656 12.214844 35.015625 12.207031 35.9375 12.207031 Z M 26.011719 16.523438 C 25.859375 16.601562 25.707031 16.679688 25.554688 16.753906 C 23.144531 17.976562 20.761719 19.828125 19.070312 21.953125 C 18.910156 22.152344 18.742188 22.347656 18.574219 22.542969 C 16.1875 25.421875 14.675781 29.03125 14.09375 32.710938 C 14.074219 32.839844 14.050781 32.96875 14.03125 33.09375 C 13.71875 34.949219 13.734375 36.949219 13.992188 38.8125 C 14.007812 38.917969 14.007812 38.917969 14.023438 39.027344 C 14.148438 39.929688 14.308594 40.816406 14.554688 41.695312 C 14.578125 41.78125 14.578125 41.78125 14.601562 41.871094 C 14.921875 43.070312 15.355469 44.230469 15.890625 45.351562 C 15.929688 45.433594 15.929688 45.433594 15.96875 45.519531 C 16.824219 47.328125 17.9375 48.988281 19.265625 50.484375 C 19.335938 50.5625 19.335938 50.5625 19.402344 50.640625 C 19.796875 51.085938 20.207031 51.511719 20.628906 51.929688 C 20.71875 52.023438 20.71875 52.023438 20.8125 52.117188 C 21.234375 52.542969 21.679688 52.925781 22.148438 53.296875 C 22.195312 53.335938 22.242188 53.371094 22.292969 53.410156 C 26.964844 57.074219 32.929688 58.59375 38.792969 57.902344 C 42.503906 57.445312 46.160156 56.058594 49.148438 53.789062 C 49.210938 53.742188 49.210938 53.742188 49.273438 53.695312 C 49.78125 53.308594 50.265625 52.90625 50.734375 52.472656 C 50.882812 52.332031 51.035156 52.203125 51.1875 52.070312 C 51.753906 51.578125 52.261719 51.042969 52.726562 50.457031 C 52.859375 50.292969 52.996094 50.140625 53.136719 49.988281 C 55.15625 47.734375 56.46875 44.851562 57.304688 41.976562 C 57.320312 41.917969 57.339844 41.863281 57.355469 41.804688 C 57.628906 40.84375 57.78125 39.875 57.910156 38.886719 C 57.933594 38.707031 57.957031 38.523438 57.988281 38.339844 C 58.207031 36.738281 58.167969 34.996094 57.9375 33.398438 C 57.921875 33.28125 57.921875 33.28125 57.902344 33.160156 C 57.25 28.636719 55.335938 24.601562 52.242188 21.234375 C 52.207031 21.195312 52.171875 21.15625 52.132812 21.117188 C 51.558594 20.472656 51.558594 20.472656 50.921875 19.890625 C 50.792969 19.78125 50.667969 19.671875 50.542969 19.558594 C 49.480469 18.613281 48.324219 17.820312 47.109375 17.085938 C 47.0625 17.058594 47.015625 17.03125 46.96875 17 C 43.714844 15.023438 39.777344 14.117188 35.996094 14.121094 C 35.925781 14.121094 35.925781 14.121094 35.851562 14.121094 C 32.488281 14.125 28.984375 14.925781 26.011719 16.523438 Z M 26.011719 16.523438 "/>
<path style=" stroke:none;fill-rule:nonzero;fill:rgb(0.784314%,0.784314%,0.392157%);fill-opacity:1;" d="M 36.132812 17.25 C 36.667969 17.613281 37.101562 18.054688 37.40625 18.632812 C 37.40625 18.703125 37.40625 18.773438 37.40625 18.84375 C 37.449219 18.855469 37.488281 18.867188 37.53125 18.878906 C 38.019531 19.015625 38.480469 19.199219 38.945312 19.398438 C 39.023438 19.429688 39.101562 19.464844 39.183594 19.5 C 41.761719 20.609375 44.167969 21.902344 46.335938 23.695312 C 46.390625 23.742188 46.390625 23.742188 46.445312 23.785156 C 46.855469 24.125 47.261719 24.464844 47.628906 24.847656 C 47.753906 24.972656 47.882812 25.082031 48.015625 25.195312 C 48.355469 25.488281 48.640625 25.820312 48.9375 26.15625 C 49.039062 26.265625 49.140625 26.378906 49.246094 26.492188 C 51.824219 29.363281 55.808594 34.886719 55.78125 38.945312 C 55.777344 39.039062 55.777344 39.039062 55.777344 39.132812 C 55.765625 39.917969 55.550781 40.597656 55.007812 41.191406 C 54.53125 41.625 54.011719 41.832031 53.371094 41.855469 C 53.265625 41.859375 53.265625 41.859375 53.160156 41.863281 C 53.042969 41.867188 53.042969 41.867188 52.921875 41.871094 C 52.839844 41.875 52.757812 41.875 52.671875 41.878906 C 51.65625 41.914062 50.640625 41.929688 49.625 41.949219 C 48.945312 41.960938 48.269531 41.980469 47.59375 42.011719 C 46.867188 42.042969 46.144531 42.0625 45.421875 42.082031 C 45.367188 42.082031 45.308594 42.085938 45.253906 42.085938 C 44.734375 42.101562 44.214844 42.113281 43.695312 42.125 C 43.40625 42.132812 43.117188 42.140625 42.832031 42.148438 C 42.722656 42.152344 42.617188 42.152344 42.507812 42.15625 C 41.996094 42.167969 41.484375 42.183594 40.972656 42.222656 C 40.378906 42.261719 39.78125 42.285156 39.1875 42.300781 C 35.269531 42.429688 31.371094 42.648438 27.464844 42.976562 C 26.875 43.023438 26.285156 43.070312 25.691406 43.117188 C 24.589844 43.199219 23.484375 43.28125 22.378906 43.390625 C 22.3125 43.398438 22.246094 43.40625 22.175781 43.410156 C 21.859375 43.441406 21.546875 43.472656 21.234375 43.507812 C 20.664062 43.566406 20.101562 43.605469 19.527344 43.609375 C 19.472656 43.609375 19.417969 43.609375 19.363281 43.609375 C 18.558594 43.605469 17.800781 43.289062 17.207031 42.746094 C 16.574219 42.074219 16.398438 41.355469 16.421875 40.453125 C 16.441406 40.078125 16.539062 39.769531 16.671875 39.421875 C 16.714844 39.296875 16.761719 39.175781 16.804688 39.050781 C 16.828125 38.988281 16.851562 38.925781 16.875 38.859375 C 16.988281 38.558594 17.089844 38.257812 17.191406 37.953125 C 18.921875 32.925781 20.953125 28.132812 24.757812 24.300781 C 24.792969 24.265625 24.828125 24.230469 24.867188 24.191406 C 25.34375 23.714844 25.835938 23.269531 26.367188 22.851562 C 26.441406 22.792969 26.441406 22.792969 26.515625 22.734375 C 27.085938 22.277344 27.675781 21.851562 28.285156 21.445312 C 28.375 21.382812 28.375 21.382812 28.46875 21.320312 C 28.789062 21.105469 29.113281 20.910156 29.453125 20.722656 C 30.152344 20.371094 30.152344 20.371094 30.640625 19.792969 C 30.691406 19.542969 30.691406 19.542969 30.707031 19.296875 C 30.769531 18.546875 31.320312 17.914062 31.867188 17.441406 C 33.113281 16.492188 34.800781 16.449219 36.132812 17.25 Z M 37.6875 21.023438 C 37.664062 21.097656 37.636719 21.171875 37.613281 21.246094 C 37.410156 21.832031 37.210938 22.332031 36.773438 22.78125 C 36.703125 22.855469 36.703125 22.855469 36.628906 22.933594 C 35.964844 23.574219 35.128906 23.867188 34.210938 23.855469 C 34.160156 23.851562 34.105469 23.851562 34.050781 23.851562 C 33.074219 23.832031 32.296875 23.480469 31.585938 22.804688 C 31.371094 22.578125 31.183594 22.335938 31.007812 22.078125 C 30.679688 22.191406 30.40625 22.367188 30.117188 22.558594 C 30.039062 22.609375 30.039062 22.609375 29.957031 22.660156 C 29.019531 23.277344 28.125 23.9375 27.28125 24.679688 C 27.230469 24.722656 27.183594 24.765625 27.132812 24.808594 C 26.992188 24.925781 26.855469 25.050781 26.71875 25.171875 C 26.6875 25.203125 26.652344 25.230469 26.617188 25.261719 C 25.734375 26.050781 24.972656 26.902344 24.257812 27.84375 C 24.226562 27.882812 24.195312 27.925781 24.164062 27.964844 C 23.136719 29.304688 22.339844 30.765625 21.585938 32.273438 C 21.558594 32.328125 21.53125 32.386719 21.5 32.445312 C 20.683594 34.082031 20.078125 35.816406 19.449219 37.535156 C 19.425781 37.605469 19.398438 37.675781 19.371094 37.75 C 19.320312 37.890625 19.269531 38.03125 19.21875 38.171875 C 19.085938 38.539062 18.949219 38.90625 18.804688 39.273438 C 18.773438 39.347656 18.746094 39.421875 18.714844 39.5 C 18.660156 39.644531 18.601562 39.789062 18.542969 39.929688 C 18.390625 40.332031 18.28125 40.699219 18.351562 41.132812 C 18.503906 41.386719 18.644531 41.511719 18.914062 41.625 C 19.070312 41.644531 19.070312 41.644531 19.234375 41.644531 C 19.328125 41.644531 19.328125 41.644531 19.425781 41.644531 C 19.492188 41.644531 19.5625 41.644531 19.628906 41.644531 C 19.699219 41.640625 19.769531 41.640625 19.84375 41.640625 C 21.21875 41.640625 21.21875 41.640625 22.570312 41.414062 C 22.550781 41.359375 22.527344 41.308594 22.503906 41.25 C 22.308594 40.761719 22.25 40.238281 22.433594 39.730469 C 22.609375 39.402344 22.820312 39.105469 23.042969 38.804688 C 23.242188 38.53125 23.4375 38.257812 23.628906 37.980469 C 23.675781 37.914062 23.722656 37.84375 23.769531 37.777344 C 23.863281 37.636719 23.957031 37.5 24.054688 37.359375 C 24.886719 36.148438 24.886719 36.148438 25.453125 36 C 26.035156 35.929688 26.527344 35.988281 27 36.351562 C 27.261719 36.632812 27.421875 36.90625 27.476562 37.289062 C 27.53125 37.550781 27.53125 37.550781 27.710938 37.628906 C 27.832031 37.671875 27.957031 37.714844 28.082031 37.753906 C 28.480469 37.914062 28.730469 38.234375 28.929688 38.605469 C 29.136719 39.136719 29.136719 39.769531 28.910156 40.292969 C 28.800781 40.507812 28.671875 40.714844 28.546875 40.921875 C 28.636719 40.914062 28.636719 40.914062 28.730469 40.910156 C 34.121094 40.519531 39.527344 40.332031 44.929688 40.148438 C 44.640625 39.859375 44.640625 39.859375 44.339844 39.585938 C 44.300781 39.550781 44.257812 39.515625 44.214844 39.480469 C 44.152344 39.425781 44.152344 39.425781 44.085938 39.371094 C 44.042969 39.335938 44 39.296875 43.957031 39.261719 C 43.773438 39.101562 43.589844 38.949219 43.398438 38.800781 C 43.113281 38.566406 42.980469 38.339844 42.933594 37.980469 C 42.914062 37.445312 42.984375 37.050781 43.355469 36.652344 C 43.648438 36.398438 43.890625 36.328125 44.269531 36.273438 C 44.554688 36.21875 44.679688 36.191406 44.859375 35.960938 C 44.96875 35.742188 45.058594 35.523438 45.140625 35.296875 C 45.410156 34.691406 45.722656 34.234375 46.34375 33.953125 C 46.867188 33.792969 47.414062 33.808594 47.917969 34.035156 C 48.445312 34.34375 48.75 34.789062 48.9375 35.367188 C 48.96875 35.609375 48.96875 35.839844 48.960938 36.082031 C 48.957031 36.148438 48.957031 36.210938 48.957031 36.277344 C 48.949219 36.652344 48.921875 37.019531 48.886719 37.390625 C 48.851562 37.765625 48.90625 37.976562 49.082031 38.304688 C 49.234375 38.664062 49.207031 39.058594 49.085938 39.417969 C 49.019531 39.574219 48.949219 39.71875 48.867188 39.867188 C 48.84375 39.914062 48.820312 39.960938 48.796875 40.007812 C 49.765625 40.007812 50.738281 40.011719 51.707031 39.996094 C 51.855469 39.996094 52.003906 39.996094 52.152344 39.992188 C 52.371094 39.992188 52.589844 39.992188 52.808594 39.988281 C 52.90625 39.988281 52.90625 39.988281 53.007812 39.988281 C 53.386719 39.984375 53.386719 39.984375 53.691406 39.773438 C 53.945312 39.292969 53.832031 38.605469 53.6875 38.101562 C 52.421875 34.476562 50.394531 30.59375 47.75 27.789062 C 47.621094 27.652344 47.496094 27.511719 47.375 27.367188 C 47.109375 27.066406 46.835938 26.785156 46.550781 26.503906 C 46.503906 26.457031 46.457031 26.410156 46.410156 26.359375 C 44.257812 24.214844 41.570312 22.636719 38.800781 21.433594 C 38.726562 21.402344 38.726562 21.402344 38.65625 21.371094 C 38.519531 21.3125 38.386719 21.253906 38.25 21.195312 C 38.171875 21.164062 38.09375 21.128906 38.015625 21.09375 C 37.839844 21.015625 37.839844 21.015625 37.6875 21.023438 Z M 37.6875 21.023438 "/>
<path style=" stroke:none;fill-rule:nonzero;fill:rgb(78.039216%,61.568627%,42.352941%);fill-opacity:1;" d="M 34.777344 15.535156 C 35.949219 15.5 37.089844 15.59375 38.25 15.75 C 38.308594 15.757812 38.367188 15.765625 38.425781 15.773438 C 42.421875 16.296875 46.054688 18.269531 48.9375 21.023438 C 49.007812 21.089844 49.007812 21.089844 49.082031 21.160156 C 49.441406 21.507812 49.75 21.898438 50.0625 22.289062 C 50.117188 22.359375 50.175781 22.425781 50.230469 22.496094 C 52.523438 25.378906 53.640625 28.890625 53.296875 32.554688 C 53.109375 32.324219 52.976562 32.070312 52.839844 31.808594 C 51.855469 29.929688 50.609375 28.175781 49.21875 26.578125 C 49.175781 26.527344 49.132812 26.480469 49.089844 26.429688 C 48.320312 25.535156 48.320312 25.535156 47.464844 24.730469 C 47.289062 24.585938 47.125 24.429688 46.960938 24.277344 C 46.511719 23.867188 46.042969 23.496094 45.5625 23.132812 C 45.515625 23.097656 45.46875 23.058594 45.417969 23.023438 C 44.609375 22.414062 43.769531 21.875 42.890625 21.375 C 42.828125 21.335938 42.761719 21.300781 42.695312 21.261719 C 41.433594 20.546875 40.128906 19.929688 38.773438 19.410156 C 38.683594 19.378906 38.597656 19.34375 38.511719 19.3125 C 38.34375 19.246094 38.175781 19.183594 38.007812 19.125 C 37.386719 18.886719 37.386719 18.886719 37.230469 18.5625 C 37.195312 18.46875 37.160156 18.375 37.125 18.28125 C 36.554688 17.492188 35.765625 16.972656 34.804688 16.804688 C 33.675781 16.6875 32.722656 16.851562 31.808594 17.566406 C 31.128906 18.179688 30.785156 18.902344 30.679688 19.808594 C 30.535156 20.160156 30.273438 20.277344 29.953125 20.460938 C 29.839844 20.53125 29.722656 20.601562 29.609375 20.671875 C 29.550781 20.707031 29.492188 20.742188 29.433594 20.78125 C 28.335938 21.449219 27.292969 22.179688 26.296875 22.992188 C 26.242188 23.035156 26.242188 23.035156 26.183594 23.082031 C 25.582031 23.566406 25.03125 24.105469 24.480469 24.648438 C 24.449219 24.683594 24.414062 24.71875 24.378906 24.75 C 23.90625 25.21875 23.472656 25.703125 23.0625 26.226562 C 23.023438 26.273438 22.988281 26.324219 22.949219 26.371094 C 20.992188 28.886719 19.519531 31.75 18.421875 34.734375 C 17.558594 33.871094 17.496094 31.75 17.480469 30.582031 C 17.5 27.859375 18.5625 25.222656 20.179688 23.0625 C 20.226562 23 20.226562 23 20.273438 22.9375 C 21.113281 21.804688 22.101562 20.777344 23.203125 19.898438 C 23.277344 19.835938 23.355469 19.773438 23.429688 19.714844 C 26.597656 17.144531 30.707031 15.65625 34.777344 15.535156 Z M 34.777344 15.535156 "/>
<path style=" stroke:none;fill-rule:nonzero;fill:rgb(1.176471%,0.784314%,0.392157%);fill-opacity:1;" d="M 37.761719 24.78125 C 38.429688 25.15625 38.800781 25.984375 39.007812 26.691406 C 39.027344 26.769531 39.027344 26.769531 39.050781 26.851562 C 39.148438 27.167969 39.335938 27.316406 39.589844 27.519531 C 39.875 27.757812 40.058594 28.058594 40.09375 28.4375 C 40.109375 28.910156 40.042969 29.195312 39.796875 29.601562 C 39.773438 29.625 39.75 29.648438 39.726562 29.671875 C 39.800781 29.6875 39.871094 29.703125 39.949219 29.722656 C 41.152344 29.996094 42.058594 30.5 42.75 31.570312 C 43.304688 32.574219 43.367188 33.574219 43.054688 34.667969 C 42.769531 35.570312 42.148438 36.292969 41.328125 36.753906 C 40.835938 36.984375 40.34375 37.144531 39.796875 37.125 C 39.800781 37.164062 39.800781 37.203125 39.804688 37.242188 C 39.824219 37.800781 39.710938 38.1875 39.359375 38.625 C 38.960938 39.039062 38.648438 39.105469 38.082031 39.132812 C 37.582031 39.121094 37.269531 39.023438 36.914062 38.671875 C 36.515625 38.214844 36.464844 37.828125 36.464844 37.238281 C 36.5 36.925781 36.597656 36.734375 36.78125 36.484375 C 36.863281 36.351562 36.863281 36.351562 36.796875 36.207031 C 36.707031 36.078125 36.617188 35.96875 36.511719 35.855469 C 35.847656 35.089844 35.605469 34.1875 35.632812 33.1875 C 35.664062 32.765625 35.753906 32.378906 35.929688 31.992188 C 35.890625 31.984375 35.847656 31.976562 35.808594 31.96875 C 35.417969 31.851562 35.105469 31.503906 34.914062 31.152344 C 34.789062 30.875 34.757812 30.609375 34.734375 30.304688 C 34.671875 30.289062 34.609375 30.269531 34.546875 30.253906 C 33.898438 30.007812 33.4375 29.390625 33.128906 28.789062 C 32.949219 28.246094 32.953125 27.625 33.191406 27.105469 C 33.375 26.789062 33.59375 26.570312 33.890625 26.367188 C 33.953125 26.324219 34.011719 26.285156 34.074219 26.238281 C 34.324219 26.152344 34.492188 26.152344 34.757812 26.152344 C 35.035156 26.136719 35.179688 26.125 35.398438 25.949219 C 35.5 25.828125 35.597656 25.703125 35.695312 25.578125 C 35.878906 25.359375 36.078125 25.195312 36.308594 25.027344 C 36.378906 24.976562 36.449219 24.921875 36.519531 24.871094 C 36.910156 24.613281 37.339844 24.601562 37.761719 24.78125 Z M 37.761719 24.78125 "/>
<path style=" stroke:none;fill-rule:nonzero;fill:rgb(1.176471%,0.784314%,0.392157%);fill-opacity:1;" d="M 28.503906 27.355469 C 28.910156 27.585938 29.171875 27.863281 29.347656 28.296875 C 29.367188 28.386719 29.367188 28.386719 29.390625 28.476562 C 29.46875 28.472656 29.46875 28.472656 29.546875 28.46875 C 30.25 28.449219 30.898438 28.519531 31.453125 28.988281 C 31.796875 29.34375 31.871094 29.671875 31.886719 30.160156 C 31.875 30.589844 31.789062 30.917969 31.570312 31.289062 C 31.945312 31.269531 31.945312 31.269531 32.234375 31.039062 C 32.269531 30.980469 32.304688 30.925781 32.34375 30.867188 C 32.636719 30.992188 32.863281 31.191406 33.109375 31.390625 C 33.203125 31.464844 33.296875 31.542969 33.390625 31.617188 C 33.4375 31.65625 33.484375 31.695312 33.535156 31.734375 C 33.675781 31.847656 33.816406 31.957031 33.957031 32.066406 C 34.003906 32.101562 34.046875 32.136719 34.089844 32.171875 C 34.175781 32.234375 34.257812 32.296875 34.34375 32.363281 C 34.578125 32.546875 34.769531 32.734375 34.945312 32.976562 C 34.851562 33.09375 34.761719 33.207031 34.664062 33.328125 C 34.730469 33.398438 34.730469 33.398438 34.796875 33.472656 C 34.960938 33.703125 35.019531 33.898438 35.085938 34.171875 C 35.109375 34.242188 35.132812 34.3125 35.15625 34.382812 C 35.179688 34.632812 35.183594 34.878906 35.1875 35.128906 C 35.191406 35.195312 35.191406 35.265625 35.195312 35.335938 C 35.207031 35.863281 35.070312 36.160156 34.734375 36.5625 C 34.679688 36.628906 34.625 36.695312 34.566406 36.765625 C 34.492188 36.847656 34.492188 36.847656 34.414062 36.933594 C 34.332031 37.019531 34.332031 37.019531 34.25 37.109375 C 34.085938 37.28125 33.921875 37.453125 33.75 37.617188 C 33.714844 37.65625 33.675781 37.691406 33.636719 37.730469 C 32.816406 38.515625 31.910156 38.699219 30.8125 38.6875 C 29.847656 38.660156 29.050781 38.238281 28.355469 37.582031 C 27.578125 36.738281 27.316406 35.738281 27.332031 34.621094 C 27.347656 34.207031 27.472656 33.847656 27.632812 33.46875 C 27.679688 33.351562 27.726562 33.234375 27.773438 33.117188 C 27.734375 33.109375 27.695312 33.097656 27.652344 33.089844 C 27.1875 32.96875 26.730469 32.820312 26.273438 32.664062 C 26.214844 32.644531 26.152344 32.625 26.09375 32.601562 C 25.386719 32.359375 24.84375 31.945312 24.46875 31.289062 C 24.273438 30.800781 24.210938 30.210938 24.390625 29.707031 C 24.625 29.308594 24.964844 28.992188 25.386719 28.800781 C 25.601562 28.757812 25.796875 28.746094 26.015625 28.757812 C 26.019531 28.6875 26.023438 28.617188 26.027344 28.546875 C 26.089844 28.144531 26.277344 27.832031 26.59375 27.574219 C 27.191406 27.171875 27.824219 27.042969 28.503906 27.355469 Z M 28.503906 27.355469 "/>
<path style=" stroke:none;fill-rule:nonzero;fill:rgb(0.784314%,0.784314%,0.784314%);fill-opacity:1;" d="M 28.933594 43.300781 C 29.03125 43.296875 29.03125 43.296875 29.132812 43.296875 C 29.203125 43.296875 29.273438 43.296875 29.347656 43.296875 C 29.457031 43.296875 29.457031 43.296875 29.570312 43.292969 C 29.722656 43.292969 29.878906 43.292969 30.035156 43.292969 C 30.269531 43.289062 30.507812 43.289062 30.742188 43.285156 C 30.894531 43.285156 31.046875 43.28125 31.195312 43.28125 C 31.300781 43.28125 31.300781 43.28125 31.410156 43.277344 C 31.917969 43.28125 32.367188 43.363281 32.753906 43.710938 C 33.105469 44.078125 33.261719 44.472656 33.257812 44.972656 C 33.285156 45.347656 33.460938 45.554688 33.691406 45.835938 C 34.261719 46.523438 34.617188 47.117188 34.558594 48.039062 C 34.480469 48.628906 34.222656 49.035156 33.753906 49.402344 C 33.203125 49.773438 32.636719 49.734375 31.992188 49.710938 C 31.972656 49.765625 31.953125 49.816406 31.933594 49.871094 C 31.742188 50.3125 31.359375 50.585938 30.929688 50.785156 C 30.433594 50.976562 29.835938 51 29.328125 50.84375 C 28.789062 50.59375 28.402344 50.253906 28.164062 49.707031 C 28.070312 49.441406 28.023438 49.21875 28.054688 48.9375 C 27.988281 48.933594 27.921875 48.929688 27.851562 48.929688 C 27.355469 48.855469 26.917969 48.554688 26.613281 48.164062 C 26.261719 47.671875 26.238281 47.132812 26.296875 46.546875 C 26.359375 46.335938 26.449219 46.164062 26.578125 45.984375 C 26.605469 45.945312 26.632812 45.90625 26.660156 45.867188 C 26.808594 45.671875 26.929688 45.5625 27.152344 45.453125 C 27.4375 45.207031 27.410156 44.964844 27.449219 44.601562 C 27.523438 44.183594 27.726562 43.878906 28.0625 43.621094 C 28.355469 43.433594 28.582031 43.304688 28.933594 43.300781 Z M 28.933594 43.300781 "/>
<path style=" stroke:none;fill-rule:nonzero;fill:rgb(0.784314%,0.784314%,0.784314%);fill-opacity:1;" d="M 40.621094 43.289062 C 40.691406 43.289062 40.765625 43.289062 40.839844 43.289062 C 40.996094 43.285156 41.148438 43.285156 41.304688 43.285156 C 41.539062 43.285156 41.773438 43.285156 42.011719 43.28125 C 42.160156 43.28125 42.3125 43.28125 42.460938 43.28125 C 42.53125 43.277344 42.601562 43.277344 42.671875 43.277344 C 43.203125 43.28125 43.578125 43.394531 43.976562 43.746094 C 44.042969 43.824219 44.042969 43.824219 44.113281 43.90625 C 44.179688 43.984375 44.179688 43.984375 44.25 44.0625 C 44.457031 44.347656 44.515625 44.578125 44.515625 44.925781 C 44.535156 45.140625 44.542969 45.246094 44.695312 45.402344 C 44.792969 45.472656 44.894531 45.539062 44.996094 45.601562 C 45.296875 45.808594 45.449219 46.089844 45.585938 46.425781 C 45.710938 47.105469 45.65625 47.636719 45.269531 48.21875 C 44.910156 48.683594 44.503906 48.84375 43.945312 48.9375 C 43.9375 49.054688 43.9375 49.054688 43.933594 49.175781 C 43.855469 49.757812 43.570312 50.234375 43.113281 50.597656 C 42.574219 50.949219 41.972656 50.984375 41.34375 50.90625 C 40.847656 50.746094 40.351562 50.449219 40.101562 49.984375 C 39.953125 49.753906 39.953125 49.753906 39.6875 49.738281 C 39.589844 49.738281 39.492188 49.738281 39.398438 49.742188 C 38.828125 49.730469 38.472656 49.625 38.042969 49.234375 C 37.625 48.804688 37.398438 48.308594 37.371094 47.707031 C 37.402344 46.988281 37.777344 46.363281 38.242188 45.832031 C 38.554688 45.472656 38.636719 45.246094 38.652344 44.773438 C 38.699219 44.316406 38.933594 43.929688 39.269531 43.628906 C 39.6875 43.289062 40.101562 43.289062 40.621094 43.289062 Z M 40.621094 43.289062 "/>
<path style=" stroke:none;fill-rule:nonzero;fill:rgb(74.901961%,26.666667%,22.745098%);fill-opacity:1;" d="M 40.640625 31.429688 C 41.179688 31.816406 41.640625 32.304688 41.765625 32.976562 C 41.820312 33.71875 41.734375 34.371094 41.253906 34.957031 C 40.722656 35.515625 40.164062 35.734375 39.398438 35.761719 C 38.734375 35.765625 38.195312 35.53125 37.683594 35.105469 C 37.570312 34.988281 37.488281 34.871094 37.40625 34.734375 C 37.363281 34.671875 37.363281 34.671875 37.320312 34.605469 C 37.011719 34.058594 37.023438 33.300781 37.175781 32.707031 C 37.242188 32.550781 37.316406 32.414062 37.40625 32.273438 C 37.429688 32.230469 37.457031 32.1875 37.484375 32.140625 C 37.769531 31.695312 38.210938 31.347656 38.714844 31.179688 C 39.375 31.050781 40.050781 31.097656 40.640625 31.429688 Z M 40.640625 31.429688 "/>
<path style=" stroke:none;fill-rule:nonzero;fill:rgb(75.294118%,27.058824%,22.745098%);fill-opacity:1;" d="M 32.394531 33.039062 C 32.90625 33.46875 33.296875 33.933594 33.367188 34.613281 C 33.414062 35.371094 33.285156 35.984375 32.777344 36.574219 C 32.277344 37.046875 31.65625 37.292969 30.972656 37.28125 C 30.339844 37.226562 29.773438 36.960938 29.335938 36.5 C 28.851562 35.898438 28.742188 35.277344 28.808594 34.523438 C 28.886719 33.992188 29.210938 33.503906 29.601562 33.148438 C 30.464844 32.515625 31.492188 32.414062 32.394531 33.039062 Z M 32.394531 33.039062 "/>
<path style=" stroke:none;fill-rule:nonzero;fill:rgb(40.392157%,63.137255%,27.843137%);fill-opacity:1;" d="M 29.625 44.609375 C 29.710938 44.609375 29.710938 44.609375 29.796875 44.605469 C 29.917969 44.605469 30.035156 44.605469 30.15625 44.609375 C 30.339844 44.609375 30.523438 44.605469 30.703125 44.605469 C 30.820312 44.605469 30.9375 44.605469 31.054688 44.605469 C 31.109375 44.601562 31.164062 44.601562 31.21875 44.601562 C 31.492188 44.605469 31.613281 44.625 31.816406 44.8125 C 31.949219 45.046875 31.933594 45.179688 31.910156 45.445312 C 31.898438 45.773438 31.902344 45.957031 32.128906 46.203125 C 32.222656 46.296875 32.320312 46.386719 32.414062 46.476562 C 32.53125 46.613281 32.644531 46.75 32.757812 46.890625 C 32.835938 46.988281 32.835938 46.988281 32.917969 47.085938 C 33.167969 47.402344 33.164062 47.703125 33.117188 48.09375 C 32.976562 48.3125 32.882812 48.359375 32.636719 48.445312 C 32.382812 48.445312 32.261719 48.363281 32.046875 48.230469 C 31.832031 48.117188 31.667969 48.125 31.429688 48.164062 C 31.144531 48.363281 31.03125 48.601562 30.871094 48.90625 C 30.695312 49.238281 30.585938 49.425781 30.234375 49.570312 C 29.933594 49.574219 29.792969 49.539062 29.554688 49.355469 C 29.347656 49.097656 29.347656 48.894531 29.351562 48.578125 C 29.367188 48.207031 29.367188 48.207031 29.203125 47.886719 C 29.007812 47.796875 28.839844 47.769531 28.625 47.746094 C 28.230469 47.691406 27.988281 47.605469 27.703125 47.320312 C 27.652344 46.828125 27.652344 46.828125 27.839844 46.558594 C 28.070312 46.394531 28.273438 46.316406 28.546875 46.242188 C 28.703125 46.203125 28.703125 46.203125 28.828125 46.054688 C 28.847656 45.914062 28.847656 45.914062 28.839844 45.761719 C 28.839844 45.703125 28.839844 45.648438 28.839844 45.589844 C 28.832031 45.402344 28.832031 45.402344 28.777344 45.152344 C 28.757812 44.929688 28.757812 44.929688 28.859375 44.777344 C 29.109375 44.597656 29.332031 44.605469 29.625 44.609375 Z M 29.625 44.609375 "/>
<path style=" stroke:none;fill-rule:nonzero;fill:rgb(40.784314%,63.529412%,28.235294%);fill-opacity:1;" d="M 40.859375 44.609375 C 40.941406 44.609375 40.941406 44.609375 41.027344 44.609375 C 41.144531 44.609375 41.257812 44.609375 41.375 44.613281 C 41.554688 44.613281 41.730469 44.613281 41.910156 44.609375 C 42.023438 44.609375 42.136719 44.609375 42.25 44.609375 C 42.300781 44.609375 42.355469 44.609375 42.410156 44.609375 C 42.65625 44.613281 42.796875 44.628906 42.996094 44.777344 C 43.1875 45.054688 43.074219 45.359375 43.027344 45.675781 C 43.011719 45.917969 43.011719 45.917969 43.148438 46.113281 C 43.316406 46.269531 43.410156 46.324219 43.628906 46.375 C 43.894531 46.453125 44.0625 46.519531 44.226562 46.757812 C 44.300781 46.960938 44.300781 46.960938 44.296875 47.179688 C 44.191406 47.40625 44.152344 47.472656 43.945312 47.601562 C 43.675781 47.671875 43.414062 47.714844 43.136719 47.753906 C 42.863281 47.820312 42.765625 47.859375 42.609375 48.09375 C 42.574219 48.363281 42.578125 48.621094 42.578125 48.894531 C 42.53125 49.207031 42.433594 49.304688 42.1875 49.5 C 41.953125 49.585938 41.953125 49.585938 41.695312 49.570312 C 41.246094 49.320312 41.019531 48.921875 40.804688 48.46875 C 40.71875 48.285156 40.71875 48.285156 40.5 48.164062 C 40.089844 48.117188 39.917969 48.214844 39.585938 48.445312 C 39.40625 48.480469 39.40625 48.480469 39.234375 48.445312 C 39.046875 48.316406 38.914062 48.226562 38.8125 48.023438 C 38.757812 47.582031 38.839844 47.351562 39.097656 46.996094 C 39.300781 46.746094 39.511719 46.511719 39.730469 46.277344 C 40 45.976562 40.019531 45.824219 40 45.425781 C 39.996094 45.339844 39.988281 45.253906 39.984375 45.164062 C 40.007812 44.929688 40.007812 44.929688 40.113281 44.777344 C 40.355469 44.601562 40.574219 44.609375 40.859375 44.609375 Z M 40.859375 44.609375 "/>
<path style=" stroke:none;fill-rule:nonzero;fill:rgb(75.686275%,27.058824%,22.745098%);fill-opacity:1;" d="M 35.449219 18.519531 C 35.945312 18.90625 36.230469 19.414062 36.320312 20.03125 C 36.367188 20.730469 36.203125 21.320312 35.742188 21.863281 C 35.625 21.972656 35.507812 22.0625 35.367188 22.148438 C 35.324219 22.175781 35.28125 22.207031 35.234375 22.234375 C 34.734375 22.511719 34.164062 22.496094 33.609375 22.429688 C 33.34375 22.347656 33.132812 22.234375 32.90625 22.078125 C 32.84375 22.039062 32.84375 22.039062 32.78125 21.996094 C 32.351562 21.675781 32.089844 21.191406 31.992188 20.671875 C 31.929688 20.042969 32.027344 19.542969 32.394531 19.023438 C 33.191406 18.058594 34.382812 17.835938 35.449219 18.519531 Z M 35.449219 18.519531 "/>
<path style=" stroke:none;fill-rule:nonzero;fill:rgb(98.039216%,83.529412%,51.372549%);fill-opacity:1;" d="M 32.484375 26.648438 C 32.492188 26.6875 32.5 26.730469 32.511719 26.773438 C 32.585938 27.046875 32.695312 27.230469 32.90625 27.421875 C 32.953125 27.257812 33 27.097656 33.046875 26.929688 C 33.117188 26.929688 33.1875 26.929688 33.257812 26.929688 C 33.222656 27.125 33.179688 27.304688 33.117188 27.492188 C 33.050781 28.332031 33.1875 28.886719 33.703125 29.542969 C 33.949219 29.816406 34.1875 30.042969 34.53125 30.183594 C 34.734375 30.304688 34.734375 30.304688 34.820312 30.503906 C 34.84375 30.621094 34.84375 30.621094 34.871094 30.738281 C 35.019531 31.296875 35.25 31.632812 35.75 31.921875 C 35.808594 31.945312 35.867188 31.96875 35.929688 31.992188 C 35.898438 32.15625 35.867188 32.316406 35.824219 32.476562 C 35.65625 33.125 35.6875 33.792969 35.789062 34.453125 C 35.742188 34.460938 35.699219 34.46875 35.652344 34.476562 C 35.605469 34.492188 35.558594 34.507812 35.507812 34.523438 C 35.472656 34.628906 35.472656 34.628906 35.4375 34.734375 C 35.125 34.4375 34.972656 34.234375 34.878906 33.820312 C 34.824219 33.589844 34.757812 33.4375 34.59375 33.257812 C 34.6875 33.140625 34.78125 33.027344 34.875 32.90625 C 34.46875 32.523438 34.046875 32.171875 33.605469 31.835938 C 33.222656 31.546875 32.851562 31.242188 32.484375 30.9375 C 32.261719 31.035156 32.203125 31.078125 32.0625 31.289062 C 31.808594 31.300781 31.808594 31.300781 31.570312 31.289062 C 31.605469 31.203125 31.640625 31.121094 31.675781 31.035156 C 31.847656 30.507812 31.898438 29.867188 31.671875 29.351562 C 31.367188 28.859375 30.929688 28.710938 30.386719 28.582031 C 30.3125 28.5625 30.3125 28.5625 30.234375 28.546875 C 30.234375 28.523438 30.234375 28.5 30.234375 28.476562 C 30.289062 28.476562 30.339844 28.476562 30.394531 28.476562 C 30.609375 28.46875 30.800781 28.453125 31.007812 28.40625 C 31.171875 28.203125 31.171875 28.203125 31.21875 27.984375 C 31.265625 27.984375 31.3125 27.984375 31.359375 27.984375 C 31.359375 27.9375 31.359375 27.890625 31.359375 27.84375 C 31.3125 27.820312 31.265625 27.796875 31.21875 27.773438 C 31.300781 27.746094 31.382812 27.722656 31.46875 27.695312 C 31.835938 27.554688 32.152344 27.351562 32.351562 27.003906 C 32.402344 26.886719 32.445312 26.769531 32.484375 26.648438 Z M 32.484375 26.648438 "/>
<path style=" stroke:none;fill-rule:nonzero;fill:rgb(40.392157%,63.137255%,27.843137%);fill-opacity:1;" d="M 27.78125 28.398438 C 28.039062 28.5 28.121094 28.59375 28.265625 28.828125 C 28.320312 28.96875 28.371094 29.113281 28.414062 29.257812 C 28.496094 29.433594 28.59375 29.5 28.757812 29.601562 C 28.929688 29.632812 28.929688 29.632812 29.109375 29.628906 C 29.179688 29.628906 29.246094 29.628906 29.316406 29.632812 C 29.457031 29.632812 29.597656 29.632812 29.738281 29.632812 C 30.253906 29.644531 30.253906 29.644531 30.527344 29.800781 C 30.65625 29.953125 30.65625 29.953125 30.667969 30.203125 C 30.578125 30.632812 30.429688 31.113281 30.050781 31.367188 C 29.824219 31.484375 29.59375 31.582031 29.359375 31.675781 C 29.148438 31.765625 28.996094 31.847656 28.820312 31.992188 C 28.617188 32.132812 28.617188 32.132812 28.457031 32.117188 C 28.234375 32.054688 28.019531 31.984375 27.800781 31.910156 C 27.757812 31.894531 27.710938 31.878906 27.667969 31.863281 C 27.574219 31.832031 27.484375 31.800781 27.390625 31.769531 C 27.25 31.71875 27.113281 31.671875 26.972656 31.625 C 26.882812 31.59375 26.792969 31.5625 26.703125 31.53125 C 26.621094 31.503906 26.539062 31.476562 26.457031 31.445312 C 26.019531 31.28125 25.734375 31.160156 25.523438 30.726562 C 25.484375 30.515625 25.496094 30.382812 25.523438 30.164062 C 25.742188 29.9375 25.957031 29.914062 26.261719 29.878906 C 26.648438 29.832031 26.648438 29.832031 27 29.671875 C 27.089844 29.492188 27.078125 29.355469 27.082031 29.15625 C 27.105469 28.886719 27.125 28.71875 27.328125 28.53125 C 27.5625 28.40625 27.5625 28.40625 27.78125 28.398438 Z M 27.78125 28.398438 "/>
<path style=" stroke:none;fill-rule:nonzero;fill:rgb(40.392157%,63.529412%,27.843137%);fill-opacity:1;" d="M 37.195312 25.945312 C 37.453125 26.03125 37.46875 26.085938 37.589844 26.320312 C 37.730469 26.605469 37.78125 26.839844 37.796875 27.15625 C 37.816406 27.515625 37.855469 27.71875 38.109375 27.984375 C 38.25 28.085938 38.394531 28.175781 38.546875 28.261719 C 38.671875 28.335938 38.671875 28.335938 38.8125 28.476562 C 38.8125 28.570312 38.8125 28.664062 38.8125 28.757812 C 38.449219 28.929688 38.109375 28.917969 37.714844 28.921875 C 37.40625 28.980469 37.304688 29.0625 37.125 29.320312 C 37.113281 29.519531 37.113281 29.679688 37.132812 29.875 C 37.148438 30.148438 37.160156 30.378906 37.03125 30.632812 C 36.84375 30.828125 36.714844 30.929688 36.445312 30.953125 C 36.214844 30.832031 36.128906 30.746094 36 30.515625 C 35.984375 30.386719 35.972656 30.261719 35.964844 30.132812 C 35.941406 29.777344 35.90625 29.585938 35.648438 29.320312 C 35.4375 29.191406 35.222656 29.070312 35.003906 28.949219 C 34.6875 28.757812 34.503906 28.554688 34.382812 28.195312 C 34.351562 27.757812 34.351562 27.757812 34.460938 27.566406 C 34.660156 27.453125 34.792969 27.464844 35.015625 27.492188 C 35.085938 27.527344 35.15625 27.566406 35.226562 27.601562 C 35.484375 27.726562 35.589844 27.71875 35.859375 27.632812 C 36.0625 27.542969 36.0625 27.542969 36.210938 27.351562 C 36.242188 27.230469 36.265625 27.109375 36.289062 26.988281 C 36.394531 26.53125 36.652344 26.328125 37.011719 26.050781 C 37.074219 26.015625 37.132812 25.980469 37.195312 25.945312 Z M 37.195312 25.945312 "/>
<path style=" stroke:none;fill-rule:nonzero;fill:rgb(1.176471%,1.176471%,1.176471%);fill-opacity:1;" d="M 36.210938 44.507812 C 36.527344 44.667969 36.6875 44.828125 36.84375 45.140625 C 36.871094 45.34375 36.871094 45.34375 36.871094 45.566406 C 36.875 45.652344 36.875 45.738281 36.875 45.824219 C 36.875 45.914062 36.875 46.003906 36.875 46.097656 C 36.875 46.191406 36.875 46.289062 36.875 46.382812 C 36.875 46.582031 36.875 46.777344 36.875 46.976562 C 36.875 47.230469 36.875 47.484375 36.878906 47.734375 C 36.878906 47.929688 36.878906 48.125 36.878906 48.320312 C 36.878906 48.460938 36.878906 48.597656 36.882812 48.738281 C 36.875 49.523438 36.875 49.523438 36.5625 49.851562 C 36.277344 50.039062 36.058594 50.113281 35.71875 50.0625 C 35.40625 49.898438 35.242188 49.742188 35.085938 49.429688 C 35.058594 49.226562 35.058594 49.226562 35.054688 48.996094 C 35.054688 48.910156 35.054688 48.828125 35.050781 48.738281 C 35.050781 48.644531 35.050781 48.554688 35.050781 48.460938 C 35.050781 48.363281 35.050781 48.265625 35.046875 48.171875 C 35.046875 47.96875 35.046875 47.769531 35.046875 47.566406 C 35.046875 47.3125 35.042969 47.054688 35.039062 46.796875 C 35.039062 46.601562 35.039062 46.402344 35.039062 46.203125 C 35.039062 46.0625 35.035156 45.921875 35.03125 45.78125 C 35.039062 45.070312 35.039062 45.070312 35.292969 44.765625 C 35.566406 44.496094 35.828125 44.457031 36.210938 44.507812 Z M 36.210938 44.507812 "/>
<path style=" stroke:none;fill-rule:nonzero;fill:rgb(40%,63.137255%,27.843137%);fill-opacity:1;" d="M 47.25 35.15625 C 47.457031 35.285156 47.570312 35.425781 47.671875 35.648438 C 47.734375 36.160156 47.679688 36.671875 47.617188 37.183594 C 47.542969 37.855469 47.542969 37.855469 47.816406 38.453125 C 47.855469 38.5 47.898438 38.546875 47.9375 38.597656 C 48.023438 38.742188 48.023438 38.742188 48.007812 38.933594 C 47.953125 39.09375 47.953125 39.09375 47.882812 39.164062 C 47.78125 39.175781 47.675781 39.179688 47.574219 39.183594 C 47.507812 39.1875 47.445312 39.1875 47.378906 39.191406 C 47.277344 39.195312 47.277344 39.195312 47.175781 39.199219 C 47.042969 39.203125 46.914062 39.210938 46.78125 39.214844 C 46.71875 39.21875 46.65625 39.21875 46.589844 39.222656 C 46.421875 39.234375 46.261719 39.257812 46.097656 39.285156 C 45.84375 39.304688 45.84375 39.304688 45.671875 39.21875 C 45.621094 39.171875 45.574219 39.128906 45.523438 39.082031 C 45.308594 38.886719 45.09375 38.703125 44.863281 38.527344 C 44.8125 38.492188 44.765625 38.457031 44.714844 38.417969 C 44.617188 38.34375 44.523438 38.273438 44.425781 38.199219 C 44.09375 37.945312 44.09375 37.945312 44.046875 37.707031 C 44.085938 37.546875 44.085938 37.546875 44.226562 37.40625 C 44.460938 37.355469 44.691406 37.316406 44.925781 37.28125 C 45.34375 37.210938 45.609375 37.117188 45.867188 36.761719 C 45.984375 36.558594 46.089844 36.351562 46.191406 36.140625 C 46.214844 36.089844 46.242188 36.039062 46.265625 35.988281 C 46.316406 35.886719 46.363281 35.785156 46.410156 35.679688 C 46.582031 35.320312 46.582031 35.320312 46.765625 35.195312 C 46.953125 35.140625 47.050781 35.113281 47.25 35.15625 Z M 47.25 35.15625 "/>
<path style=" stroke:none;fill-rule:nonzero;fill:rgb(1.568627%,1.176471%,0.392157%);fill-opacity:1;" d="M 45.871094 28.414062 C 46.171875 28.585938 46.351562 28.75 46.546875 29.039062 C 46.589844 29.097656 46.632812 29.160156 46.675781 29.21875 C 46.847656 29.726562 46.835938 30.265625 46.617188 30.757812 C 46.371094 31.179688 46.050781 31.417969 45.601562 31.597656 C 45.046875 31.695312 44.636719 31.679688 44.15625 31.359375 C 43.792969 31.054688 43.488281 30.636719 43.4375 30.152344 C 43.421875 29.617188 43.511719 29.210938 43.882812 28.808594 C 44.472656 28.261719 45.105469 28.058594 45.871094 28.414062 Z M 45.871094 28.414062 "/>
<path style=" stroke:none;fill-rule:nonzero;fill:rgb(1.568627%,1.176471%,0.392157%);fill-opacity:1;" d="M 31.921875 24.769531 C 32.230469 25.011719 32.453125 25.28125 32.554688 25.664062 C 32.609375 26.152344 32.636719 26.65625 32.371094 27.089844 C 32.058594 27.484375 31.726562 27.765625 31.21875 27.84375 C 30.734375 27.894531 30.351562 27.855469 29.953125 27.5625 C 29.503906 27.144531 29.320312 26.789062 29.289062 26.175781 C 29.300781 25.667969 29.441406 25.261719 29.804688 24.898438 C 30.457031 24.382812 31.210938 24.320312 31.921875 24.769531 Z M 31.921875 24.769531 "/>
<path style=" stroke:none;fill-rule:nonzero;fill:rgb(1.176471%,0.784314%,0.392157%);fill-opacity:1;" d="M 42.570312 23.765625 C 42.96875 23.992188 43.238281 24.316406 43.382812 24.75 C 43.425781 25.304688 43.464844 25.84375 43.101562 26.296875 C 42.691406 26.734375 42.339844 26.929688 41.738281 26.957031 C 41.257812 26.945312 40.953125 26.792969 40.585938 26.484375 C 40.171875 25.992188 40.09375 25.667969 40.113281 25.011719 C 40.175781 24.535156 40.367188 24.230469 40.722656 23.910156 C 41.289062 23.511719 41.941406 23.488281 42.570312 23.765625 Z M 42.570312 23.765625 "/>
<path style=" stroke:none;fill-rule:nonzero;fill:rgb(40.392157%,62.745098%,27.843137%);fill-opacity:1;" d="M 25.839844 37.234375 C 26.015625 37.265625 26.015625 37.265625 26.144531 37.378906 C 26.25 37.59375 26.234375 37.730469 26.21875 37.964844 C 26.210938 38.308594 26.210938 38.308594 26.359375 38.613281 C 26.621094 38.765625 26.816406 38.78125 27.113281 38.796875 C 27.332031 38.816406 27.464844 38.882812 27.632812 39.023438 C 27.78125 39.210938 27.773438 39.308594 27.769531 39.550781 C 27.703125 39.796875 27.703125 39.796875 27.5625 39.960938 C 27.113281 40.210938 26.558594 40.25 26.054688 40.328125 C 25.992188 40.335938 25.933594 40.347656 25.871094 40.355469 C 25.742188 40.375 25.617188 40.394531 25.488281 40.414062 C 25.292969 40.441406 25.101562 40.472656 24.90625 40.503906 C 24.78125 40.523438 24.65625 40.542969 24.535156 40.558594 C 24.445312 40.574219 24.445312 40.574219 24.359375 40.585938 C 24.070312 40.628906 23.839844 40.652344 23.554688 40.570312 C 23.496094 40.429688 23.496094 40.429688 23.484375 40.21875 C 23.582031 40.019531 23.714844 39.847656 23.847656 39.671875 C 23.925781 39.566406 24.003906 39.460938 24.082031 39.355469 C 24.144531 39.273438 24.144531 39.273438 24.207031 39.1875 C 24.363281 38.976562 24.515625 38.757812 24.664062 38.539062 C 25.535156 37.289062 25.535156 37.289062 25.839844 37.234375 Z M 25.839844 37.234375 "/>
<path style=" stroke:none;fill-rule:nonzero;fill:rgb(76.470588%,27.058824%,22.745098%);fill-opacity:1;" d="M 39.191406 31.203125 C 39.28125 31.199219 39.367188 31.199219 39.460938 31.199219 C 39.738281 31.21875 39.957031 31.273438 40.21875 31.359375 C 40.21875 31.40625 40.21875 31.453125 40.21875 31.5 C 40.3125 31.5 40.402344 31.5 40.5 31.5 C 40.488281 31.558594 40.476562 31.617188 40.464844 31.679688 C 40.429688 31.929688 40.425781 32.164062 40.429688 32.414062 C 40.382812 32.414062 40.335938 32.414062 40.289062 32.414062 C 40.289062 32.460938 40.289062 32.507812 40.289062 32.554688 C 40.199219 32.542969 40.109375 32.535156 40.015625 32.523438 C 39.898438 32.511719 39.78125 32.496094 39.664062 32.484375 C 39.578125 32.472656 39.578125 32.472656 39.484375 32.464844 C 39.429688 32.457031 39.371094 32.453125 39.3125 32.445312 C 39.234375 32.4375 39.234375 32.4375 39.15625 32.425781 C 39.023438 32.410156 39.023438 32.410156 38.882812 32.414062 C 38.835938 32.738281 38.789062 33.0625 38.742188 33.398438 C 38.859375 33.445312 38.972656 33.492188 39.09375 33.539062 C 39.09375 33.609375 39.09375 33.679688 39.09375 33.75 C 38.988281 33.714844 38.988281 33.714844 38.882812 33.679688 C 38.617188 33.640625 38.359375 33.609375 38.128906 33.757812 C 37.964844 33.933594 37.902344 34.082031 37.871094 34.316406 C 38.078125 34.753906 38.601562 34.878906 39.027344 35.039062 C 39.144531 35.078125 39.257812 35.117188 39.375 35.15625 C 39.375 35.203125 39.375 35.25 39.375 35.296875 C 39.722656 35.296875 40.070312 35.296875 40.429688 35.296875 C 40.429688 35.34375 40.429688 35.390625 40.429688 35.4375 C 40.3125 35.4375 40.199219 35.4375 40.078125 35.4375 C 40.078125 35.484375 40.078125 35.53125 40.078125 35.578125 C 39.855469 35.652344 39.6875 35.664062 39.453125 35.664062 C 39.347656 35.667969 39.347656 35.667969 39.234375 35.671875 C 38.996094 35.644531 38.871094 35.566406 38.671875 35.4375 C 38.59375 35.441406 38.519531 35.445312 38.4375 35.449219 C 38.066406 35.433594 37.871094 35.277344 37.617188 35.015625 C 37.132812 34.339844 37.050781 33.71875 37.125 32.90625 C 37.183594 32.667969 37.273438 32.480469 37.40625 32.273438 C 37.433594 32.230469 37.457031 32.1875 37.484375 32.140625 C 37.882812 31.515625 38.457031 31.199219 39.191406 31.203125 Z M 39.191406 31.203125 "/>
<path style=" stroke:none;fill-rule:nonzero;fill:rgb(63.921569%,20.392157%,11.372549%);fill-opacity:1;" d="M 23.511719 33.429688 C 23.765625 33.46875 23.765625 33.46875 23.976562 33.652344 C 24.117188 33.890625 24.117188 33.890625 24.113281 34.085938 C 24.027344 34.382812 23.875 34.582031 23.683594 34.828125 C 23.644531 34.875 23.609375 34.921875 23.570312 34.972656 C 23.273438 35.351562 22.972656 35.726562 22.667969 36.101562 C 22.625 36.152344 22.582031 36.207031 22.539062 36.257812 C 22.5 36.304688 22.457031 36.355469 22.417969 36.402344 C 22.367188 36.46875 22.367188 36.46875 22.3125 36.53125 C 22.171875 36.683594 22.082031 36.703125 21.878906 36.730469 C 21.65625 36.703125 21.65625 36.703125 21.453125 36.554688 C 21.304688 36.351562 21.304688 36.351562 21.265625 36.144531 C 21.347656 35.6875 21.734375 35.316406 22.027344 34.960938 C 22.105469 34.863281 22.1875 34.765625 22.269531 34.664062 C 22.308594 34.617188 22.347656 34.566406 22.390625 34.519531 C 22.578125 34.285156 22.765625 34.050781 22.949219 33.816406 C 23.230469 33.476562 23.230469 33.476562 23.511719 33.429688 Z M 23.511719 33.429688 "/>
<path style=" stroke:none;fill-rule:nonzero;fill:rgb(63.137255%,20%,10.980392%);fill-opacity:1;" d="M 48.613281 31.414062 C 49.15625 31.601562 49.472656 32.125 49.824219 32.558594 C 50.054688 32.839844 50.300781 33.105469 50.550781 33.371094 C 50.761719 33.617188 50.839844 33.738281 50.828125 34.070312 C 50.765625 34.3125 50.765625 34.3125 50.652344 34.449219 C 50.398438 34.5625 50.265625 34.574219 49.992188 34.523438 C 49.582031 34.222656 49.273438 33.78125 48.960938 33.386719 C 48.746094 33.125 48.523438 32.878906 48.292969 32.632812 C 48.113281 32.429688 48.027344 32.308594 47.992188 32.035156 C 48.023438 31.78125 48.023438 31.78125 48.167969 31.570312 C 48.375 31.429688 48.375 31.429688 48.613281 31.414062 Z M 48.613281 31.414062 "/>
<path style=" stroke:none;fill-rule:nonzero;fill:rgb(41.960784%,5.882353%,2.745098%);fill-opacity:1;" d="M 40.398438 32.558594 C 40.578125 32.628906 40.664062 32.683594 40.78125 32.835938 C 40.816406 33.039062 40.816406 33.039062 40.78125 33.257812 C 40.636719 33.460938 40.636719 33.460938 40.429688 33.609375 C 40.011719 33.675781 39.554688 33.558594 39.164062 33.398438 C 39 33.261719 39 33.261719 38.882812 33.117188 C 38.878906 32.84375 38.917969 32.734375 39.101562 32.527344 C 39.53125 32.285156 39.949219 32.441406 40.398438 32.558594 Z M 40.398438 32.558594 "/>
<path style=" stroke:none;fill-rule:nonzero;fill:rgb(40.784314%,6.27451%,2.745098%);fill-opacity:1;" d="M 38.40625 33.679688 C 38.773438 33.777344 39.097656 33.902344 39.375 34.167969 C 39.464844 34.351562 39.480469 34.460938 39.445312 34.664062 C 39.304688 34.859375 39.199219 34.933594 38.96875 35.015625 C 38.5625 35.015625 38.28125 34.8125 37.964844 34.566406 C 37.828125 34.382812 37.828125 34.382812 37.824219 34.167969 C 37.945312 33.835938 38.039062 33.679688 38.40625 33.679688 Z M 38.40625 33.679688 "/>
<path style=" stroke:none;fill-rule:nonzero;fill:rgb(41.176471%,6.27451%,3.137255%);fill-opacity:1;" d="M 34.171875 19.828125 C 34.496094 20.085938 34.636719 20.511719 34.703125 20.90625 C 34.664062 21.09375 34.664062 21.09375 34.515625 21.265625 C 34.3125 21.375 34.3125 21.375 34.101562 21.390625 C 33.792969 21.261719 33.683594 21.035156 33.539062 20.742188 C 33.457031 20.492188 33.449219 20.300781 33.46875 20.039062 C 33.625 19.753906 33.875 19.796875 34.171875 19.828125 Z M 34.171875 19.828125 "/>
<path style=" stroke:none;fill-rule:nonzero;fill:rgb(42.352941%,5.098039%,2.352941%);fill-opacity:1;" d="M 32.0625 34.664062 C 32.296875 34.839844 32.398438 34.9375 32.453125 35.230469 C 32.414062 35.4375 32.414062 35.4375 32.308594 35.605469 C 32.0625 35.765625 31.855469 35.777344 31.570312 35.71875 C 31.394531 35.609375 31.394531 35.609375 31.289062 35.4375 C 31.25 35.191406 31.25 35.191406 31.289062 34.945312 C 31.519531 34.679688 31.714844 34.597656 32.0625 34.664062 Z M 32.0625 34.664062 "/>
<path style=" stroke:none;fill-rule:nonzero;fill:rgb(41.176471%,6.27451%,2.745098%);fill-opacity:1;" d="M 30.347656 33.183594 C 30.691406 33.289062 30.691406 33.289062 30.796875 33.46875 C 30.867188 33.707031 30.867188 33.707031 30.867188 33.960938 C 30.695312 34.203125 30.59375 34.296875 30.300781 34.351562 C 30.042969 34.304688 29.964844 34.242188 29.8125 34.03125 C 29.738281 33.828125 29.738281 33.828125 29.742188 33.609375 C 29.917969 33.308594 29.992188 33.1875 30.347656 33.183594 Z M 30.347656 33.183594 "/>
<path style=" stroke:none;fill-rule:nonzero;fill:rgb(74.117647%,25.882353%,23.529412%);fill-opacity:1;" d="M 45.140625 29.421875 C 45.351562 29.460938 45.351562 29.460938 45.523438 29.609375 C 45.632812 29.8125 45.632812 29.8125 45.632812 30.03125 C 45.5625 30.234375 45.5625 30.234375 45.449219 30.371094 C 45.207031 30.480469 45.042969 30.441406 44.789062 30.375 C 44.625 30.128906 44.613281 30.03125 44.648438 29.742188 C 44.796875 29.523438 44.882812 29.46875 45.140625 29.421875 Z M 45.140625 29.421875 "/>
<path style=" stroke:none;fill-rule:nonzero;fill:rgb(75.686275%,26.666667%,23.921569%);fill-opacity:1;" d="M 31.148438 25.664062 C 31.3125 25.777344 31.3125 25.777344 31.429688 25.945312 C 31.472656 26.203125 31.464844 26.316406 31.316406 26.535156 C 31.097656 26.683594 30.984375 26.691406 30.726562 26.648438 C 30.554688 26.539062 30.554688 26.539062 30.445312 26.367188 C 30.445312 26.097656 30.457031 25.941406 30.640625 25.738281 C 30.832031 25.648438 30.9375 25.628906 31.148438 25.664062 Z M 31.148438 25.664062 "/>
<path style=" stroke:none;fill-rule:nonzero;fill:rgb(75.294118%,27.843137%,22.745098%);fill-opacity:1;" d="M 38.320312 36.984375 C 38.488281 37.058594 38.488281 37.058594 38.601562 37.195312 C 38.640625 37.4375 38.640625 37.4375 38.601562 37.6875 C 38.453125 37.863281 38.453125 37.863281 38.25 37.96875 C 38 37.96875 37.878906 37.945312 37.691406 37.78125 C 37.589844 37.554688 37.617188 37.429688 37.6875 37.195312 C 37.851562 36.9375 38.035156 36.949219 38.320312 36.984375 Z M 38.320312 36.984375 "/>
<path style=" stroke:none;fill-rule:nonzero;fill:rgb(75.294118%,26.666667%,23.529412%);fill-opacity:1;" d="M 41.761719 24.792969 C 41.964844 24.800781 42.027344 24.804688 42.191406 24.929688 C 42.285156 25.175781 42.253906 25.34375 42.1875 25.59375 C 41.941406 25.757812 41.84375 25.769531 41.554688 25.734375 C 41.382812 25.625 41.382812 25.625 41.273438 25.453125 C 41.289062 25.03125 41.3125 24.835938 41.761719 24.792969 Z M 41.761719 24.792969 "/>
<path style=" stroke:none;fill-rule:nonzero;fill:rgb(87.843137%,76.470588%,50.588235%);fill-opacity:1;" d="M 41.0625 40.21875 C 41.0625 40.242188 41.0625 40.265625 41.0625 40.289062 C 40.648438 40.300781 40.238281 40.3125 39.824219 40.324219 C 39.683594 40.328125 39.542969 40.332031 39.402344 40.335938 C 39.199219 40.339844 39 40.347656 38.796875 40.351562 C 38.734375 40.351562 38.671875 40.355469 38.605469 40.355469 C 38.289062 40.363281 38 40.355469 37.6875 40.289062 C 37.6875 40.265625 37.6875 40.242188 37.6875 40.21875 C 38.816406 40.128906 39.933594 40.140625 41.0625 40.21875 Z M 41.0625 40.21875 "/>
<path style=" stroke:none;fill-rule:nonzero;fill:rgb(88.627451%,77.254902%,50.196078%);fill-opacity:1;" d="M 34.171875 40.5 C 34.171875 40.523438 34.171875 40.546875 34.171875 40.570312 C 33.871094 40.585938 33.570312 40.597656 33.269531 40.609375 C 33.144531 40.617188 33.144531 40.617188 33.015625 40.621094 C 32.503906 40.644531 32.007812 40.632812 31.5 40.570312 C 31.5 40.546875 31.5 40.523438 31.5 40.5 C 32.398438 40.402344 33.273438 40.4375 34.171875 40.5 Z M 34.171875 40.5 "/>
<path style=" stroke:none;fill-rule:nonzero;fill:rgb(88.627451%,76.078431%,49.803922%);fill-opacity:1;" d="M 21.023438 41.34375 C 21.914062 41.332031 21.914062 41.332031 22.289062 41.414062 C 22.289062 41.4375 22.289062 41.460938 22.289062 41.484375 C 21.695312 41.519531 21.695312 41.519531 21.09375 41.554688 C 21.070312 41.484375 21.046875 41.414062 21.023438 41.34375 Z M 21.023438 41.34375 "/>
<path style=" stroke:none;fill-rule:nonzero;fill:rgb(8.235294%,7.843137%,7.843137%);fill-opacity:1;" d="M 52.804688 50.273438 C 52.828125 50.34375 52.851562 50.414062 52.875 50.484375 C 52.832031 50.523438 52.789062 50.566406 52.742188 50.609375 C 52.589844 50.75 52.589844 50.75 52.527344 50.90625 C 52.425781 51.101562 52.277344 51.199219 52.101562 51.328125 C 52.054688 51.304688 52.007812 51.28125 51.960938 51.257812 C 52.011719 51.203125 52.058594 51.152344 52.109375 51.097656 C 52.175781 51.027344 52.238281 50.953125 52.304688 50.882812 C 52.335938 50.847656 52.367188 50.8125 52.402344 50.777344 C 52.550781 50.613281 52.683594 50.457031 52.804688 50.273438 Z M 52.804688 50.273438 "/>
<path style=" stroke:none;fill-rule:nonzero;fill:rgb(96.078431%,92.941176%,88.627451%);fill-opacity:1;" d="M 17.507812 31.289062 C 17.53125 31.289062 17.554688 31.289062 17.578125 31.289062 C 17.625 31.730469 17.671875 32.171875 17.71875 32.625 C 17.648438 32.601562 17.578125 32.578125 17.507812 32.554688 C 17.507812 32.136719 17.507812 31.71875 17.507812 31.289062 Z M 17.507812 31.289062 "/>
<path style=" stroke:none;fill-rule:nonzero;fill:rgb(91.372549%,92.156863%,91.764706%);fill-opacity:1;" d="M 54.773438 51.046875 C 54.816406 51.175781 54.816406 51.175781 54.84375 51.328125 C 54.699219 51.546875 54.648438 51.578125 54.421875 51.679688 C 54.328125 51.726562 54.234375 51.773438 54.140625 51.820312 C 54.207031 51.730469 54.273438 51.640625 54.339844 51.550781 C 54.375 51.503906 54.410156 51.453125 54.449219 51.402344 C 54.550781 51.273438 54.65625 51.160156 54.773438 51.046875 Z M 54.773438 51.046875 "/>
<path style=" stroke:none;fill-rule:nonzero;fill:rgb(8.627451%,15.686275%,5.490196%);fill-opacity:1;" d="M 37.882812 28.886719 C 37.949219 28.886719 38.019531 28.890625 38.089844 28.890625 C 38.144531 28.894531 38.195312 28.894531 38.25 28.898438 C 38.25 28.921875 38.25 28.945312 38.25 28.96875 C 38.175781 28.972656 38.175781 28.972656 38.105469 28.976562 C 38.039062 28.980469 37.976562 28.984375 37.910156 28.992188 C 37.847656 28.996094 37.785156 29 37.722656 29.003906 C 37.523438 29.042969 37.46875 29.101562 37.335938 29.25 C 37.289062 29.25 37.242188 29.25 37.195312 29.25 C 37.195312 29.320312 37.195312 29.390625 37.195312 29.460938 C 37.148438 29.460938 37.101562 29.460938 37.054688 29.460938 C 37.203125 29.007812 37.40625 28.867188 37.882812 28.886719 Z M 37.882812 28.886719 "/>
<path style=" stroke:none;fill-rule:nonzero;fill:rgb(80.392157%,70.980392%,46.666667%);fill-opacity:1;" d="M 40.148438 24.398438 C 40.195312 24.398438 40.242188 24.398438 40.289062 24.398438 C 40.242188 24.792969 40.195312 25.1875 40.148438 25.59375 C 40.125 25.59375 40.101562 25.59375 40.078125 25.59375 C 39.972656 24.785156 39.972656 24.785156 40.148438 24.398438 Z M 40.148438 24.398438 "/>
<path style=" stroke:none;fill-rule:nonzero;fill:rgb(81.176471%,71.372549%,47.058824%);fill-opacity:1;" d="M 31.570312 29.179688 C 31.84375 29.304688 31.84375 29.304688 31.921875 29.460938 C 31.898438 29.507812 31.875 29.554688 31.851562 29.601562 C 31.898438 29.601562 31.945312 29.601562 31.992188 29.601562 C 31.96875 29.855469 31.945312 30.113281 31.921875 30.375 C 31.898438 30.375 31.875 30.375 31.851562 30.375 C 31.84375 30.3125 31.835938 30.25 31.824219 30.183594 C 31.8125 30.101562 31.800781 30.019531 31.789062 29.9375 C 31.777344 29.855469 31.765625 29.773438 31.753906 29.6875 C 31.714844 29.492188 31.671875 29.351562 31.570312 29.179688 Z M 31.570312 29.179688 "/>
<path style=" stroke:none;fill-rule:nonzero;fill:rgb(9.411765%,9.803922%,9.411765%);fill-opacity:1;" d="M 53.71875 52.101562 C 53.765625 52.125 53.8125 52.148438 53.859375 52.171875 C 53.628906 52.425781 53.394531 52.683594 53.15625 52.945312 C 53.132812 52.875 53.109375 52.804688 53.085938 52.734375 C 53.292969 52.527344 53.503906 52.316406 53.71875 52.101562 Z M 53.71875 52.101562 "/>
<path style=" stroke:none;fill-rule:nonzero;fill:rgb(83.137255%,72.156863%,46.666667%);fill-opacity:1;" d="M 32.414062 25.382812 C 32.589844 25.417969 32.589844 25.417969 32.765625 25.453125 C 32.765625 25.546875 32.765625 25.640625 32.765625 25.734375 C 32.71875 25.734375 32.671875 25.734375 32.625 25.734375 C 32.625 25.941406 32.625 26.152344 32.625 26.367188 C 32.601562 26.367188 32.578125 26.367188 32.554688 26.367188 C 32.507812 26.042969 32.460938 25.71875 32.414062 25.382812 Z M 32.414062 25.382812 "/>
<path style=" stroke:none;fill-rule:nonzero;fill:rgb(9.411765%,9.411765%,9.411765%);fill-opacity:1;" d="M 19.898438 18.28125 C 19.898438 18.492188 19.898438 18.492188 19.730469 18.679688 C 19.546875 18.84375 19.546875 18.84375 19.40625 18.84375 C 19.382812 18.914062 19.359375 18.984375 19.335938 19.054688 C 19.265625 19.03125 19.195312 19.007812 19.125 18.984375 C 19.507812 18.636719 19.507812 18.636719 19.898438 18.28125 Z M 19.898438 18.28125 "/>
<path style=" stroke:none;fill-rule:nonzero;fill:rgb(9.803922%,8.235294%,4.313725%);fill-opacity:1;" d="M 30.9375 21.796875 C 30.984375 21.820312 31.03125 21.84375 31.078125 21.867188 C 31.066406 22 31.066406 22 31.007812 22.148438 C 30.84375 22.226562 30.84375 22.226562 30.65625 22.289062 C 30.5625 22.335938 30.46875 22.382812 30.375 22.429688 C 30.46875 22.148438 30.625 22.09375 30.867188 21.9375 C 30.890625 21.890625 30.914062 21.84375 30.9375 21.796875 Z M 30.9375 21.796875 "/>
<path style=" stroke:none;fill-rule:nonzero;fill:rgb(92.941176%,92.941176%,92.941176%);fill-opacity:1;" d="M 22.992188 15.820312 C 23.039062 15.867188 23.085938 15.914062 23.132812 15.960938 C 22.878906 16.101562 22.621094 16.238281 22.359375 16.382812 C 22.523438 16.050781 22.644531 15.9375 22.992188 15.820312 Z M 22.992188 15.820312 "/>
<path style=" stroke:none;fill-rule:nonzero;fill:rgb(91.764706%,92.54902%,92.156863%);fill-opacity:1;" d="M 19.195312 21.796875 C 19.265625 21.84375 19.335938 21.890625 19.40625 21.9375 C 19.21875 22.101562 19.035156 22.261719 18.84375 22.429688 C 18.796875 22.40625 18.75 22.382812 18.703125 22.359375 C 18.867188 22.171875 19.027344 21.988281 19.195312 21.796875 Z M 19.195312 21.796875 "/>
<path style=" stroke:none;fill-rule:nonzero;fill:rgb(87.45098%,88.235294%,87.843137%);fill-opacity:1;" d="M 52.664062 53.296875 C 52.734375 53.320312 52.804688 53.34375 52.875 53.367188 C 52.695312 53.5625 52.578125 53.679688 52.3125 53.71875 C 52.429688 53.578125 52.542969 53.441406 52.664062 53.296875 Z M 52.664062 53.296875 "/>
<path style=" stroke:none;fill-rule:nonzero;fill:rgb(10.980392%,9.019608%,5.882353%);fill-opacity:1;" d="M 27.28125 36.703125 C 27.503906 36.945312 27.53125 37.15625 27.5625 37.476562 C 27.417969 37.375 27.359375 37.296875 27.320312 37.125 C 27.304688 36.984375 27.292969 36.84375 27.28125 36.703125 Z M 27.28125 36.703125 "/>
<path style=" stroke:none;fill-rule:nonzero;fill:rgb(73.72549%,64.705882%,41.176471%);fill-opacity:1;" d="M 43.382812 24.960938 C 43.40625 24.960938 43.429688 24.960938 43.453125 24.960938 C 43.476562 25.261719 43.5 25.5625 43.523438 25.875 C 43.453125 25.875 43.382812 25.875 43.3125 25.875 C 43.335938 25.574219 43.359375 25.273438 43.382812 24.960938 Z M 43.382812 24.960938 "/>
<path style=" stroke:none;fill-rule:nonzero;fill:rgb(91.372549%,91.372549%,91.372549%);fill-opacity:1;" d="M 21.09375 17.015625 C 21.210938 17.015625 21.324219 17.015625 21.445312 17.015625 C 21.121094 17.359375 21.121094 17.359375 20.882812 17.4375 C 20.90625 17.367188 20.929688 17.296875 20.953125 17.226562 C 21 17.226562 21.046875 17.226562 21.09375 17.226562 C 21.09375 17.15625 21.09375 17.085938 21.09375 17.015625 Z M 21.09375 17.015625 "/>
<path style=" stroke:none;fill-rule:nonzero;fill:rgb(83.921569%,73.72549%,47.843137%);fill-opacity:1;" d="M 26.507812 35.859375 C 26.484375 35.90625 26.460938 35.953125 26.4375 36 C 26.183594 35.976562 25.925781 35.953125 25.664062 35.929688 C 25.664062 35.90625 25.664062 35.882812 25.664062 35.859375 C 25.96875 35.804688 26.207031 35.777344 26.507812 35.859375 Z M 26.507812 35.859375 "/>
<path style=" stroke:none;fill-rule:nonzero;fill:rgb(10.588235%,6.666667%,4.313725%);fill-opacity:1;" d="M 41.273438 20.460938 C 41.515625 20.566406 41.515625 20.566406 41.765625 20.671875 C 41.742188 20.71875 41.71875 20.765625 41.695312 20.8125 C 41.578125 20.789062 41.464844 20.765625 41.34375 20.742188 C 41.320312 20.648438 41.296875 20.554688 41.273438 20.460938 Z M 41.273438 20.460938 "/>
<path style=" stroke:none;fill-rule:nonzero;fill:rgb(9.019608%,8.627451%,8.627451%);fill-opacity:1;" d="M 54.773438 47.601562 C 54.820312 47.601562 54.867188 47.601562 54.914062 47.601562 C 54.859375 47.808594 54.859375 47.808594 54.773438 48.023438 C 54.625 48.085938 54.625 48.085938 54.492188 48.09375 C 54.585938 47.929688 54.679688 47.769531 54.773438 47.601562 Z M 54.773438 47.601562 "/>
<path style=" stroke:none;fill-rule:nonzero;fill:rgb(88.627451%,77.254902%,48.627451%);fill-opacity:1;" d="M 43.242188 25.945312 C 43.3125 26.226562 43.3125 26.226562 43.242188 26.4375 C 43.125 26.460938 43.011719 26.484375 42.890625 26.507812 C 43.007812 26.320312 43.121094 26.136719 43.242188 25.945312 Z M 43.242188 25.945312 "/>
<path style=" stroke:none;fill-rule:nonzero;fill:rgb(8.235294%,7.843137%,8.235294%);fill-opacity:1;" d="M 18.914062 19.195312 C 18.9375 19.265625 18.960938 19.335938 18.984375 19.40625 C 18.882812 19.558594 18.882812 19.558594 18.773438 19.6875 C 18.703125 19.664062 18.632812 19.640625 18.5625 19.617188 C 18.679688 19.476562 18.792969 19.339844 18.914062 19.195312 Z M 18.914062 19.195312 "/>
</g>
</svg>
