<?xml version="1.0" encoding="UTF-8"?>
<svg xmlns="http://www.w3.org/2000/svg" xmlns:xlink="http://www.w3.org/1999/xlink" width="72px" height="72px" viewBox="0 0 72 72" version="1.1">
<g id="surface1">
<!-- <path style=" stroke:none;fill-rule:nonzero;fill:rgb(99.215686%,99.215686%,99.215686%);fill-opacity:1;" d="M 0 0 C 23.761719 0 47.519531 0 72 0 C 72 23.761719 72 47.519531 72 72 C 48.238281 72 24.480469 72 0 72 C 0 48.238281 0 24.480469 0 0 Z M 0 0 "/> -->
<path style=" stroke:none;fill-rule:nonzero;fill:rgb(99.215686%,91.372549%,70.196078%);fill-opacity:1;" d="M 34.105469 10.945312 C 34.269531 10.945312 34.433594 10.945312 34.597656 10.945312 C 40.902344 10.953125 40.902344 10.953125 42.890625 12.9375 C 43.6875 13.847656 43.972656 14.902344 43.96875 16.085938 C 43.96875 16.175781 43.96875 16.269531 43.964844 16.363281 C 43.957031 17.316406 43.859375 18.253906 43.734375 19.195312 C 43.726562 19.257812 43.71875 19.320312 43.710938 19.386719 C 43.449219 21.46875 42.519531 23.238281 41.546875 25.0625 C 41.511719 25.125 41.511719 25.125 41.476562 25.1875 C 41.261719 25.59375 41.046875 25.992188 40.78125 26.367188 C 40.851562 26.371094 40.851562 26.371094 40.925781 26.378906 C 41.398438 26.414062 41.851562 26.492188 42.316406 26.589844 C 44.976562 27.140625 47.683594 27.464844 50.390625 27.710938 C 52.539062 27.910156 54.671875 28.167969 56.777344 28.648438 C 56.949219 28.6875 57.121094 28.722656 57.292969 28.757812 C 58.011719 28.910156 58.714844 29.101562 59.414062 29.320312 C 59.476562 29.339844 59.542969 29.359375 59.605469 29.378906 C 65.742188 31.269531 65.742188 31.269531 67.109375 33.796875 C 67.75 35.09375 67.710938 36.597656 67.273438 37.953125 C 66.867188 39.027344 66.25 39.984375 65.601562 40.921875 C 65.554688 40.992188 65.554688 40.992188 65.503906 41.066406 C 65.015625 41.777344 64.496094 42.457031 63.941406 43.121094 C 63.8125 43.28125 63.683594 43.445312 63.554688 43.605469 C 63.027344 44.265625 62.480469 44.898438 61.90625 45.515625 C 61.769531 45.664062 61.632812 45.816406 61.5 45.972656 C 61.144531 46.382812 60.769531 46.777344 60.394531 47.171875 C 60.253906 47.324219 60.113281 47.476562 59.972656 47.628906 C 59.210938 48.4375 58.460938 49.234375 57.585938 49.921875 C 57.519531 49.976562 57.449219 50.03125 57.382812 50.089844 C 56.734375 50.601562 56.042969 51.035156 55.335938 51.46875 C 55.261719 51.515625 55.191406 51.558594 55.113281 51.605469 C 53.398438 52.664062 51.648438 53.652344 49.851562 54.5625 C 49.777344 54.597656 49.707031 54.636719 49.628906 54.671875 C 48.394531 55.292969 47.132812 55.828125 45.84375 56.320312 C 45.757812 56.351562 45.675781 56.386719 45.585938 56.417969 C 42.894531 57.441406 40.109375 58.40625 37.253906 58.824219 C 37.199219 58.832031 37.140625 58.84375 37.085938 58.851562 C 36.308594 58.96875 35.535156 59.003906 34.75 59.007812 C 34.660156 59.007812 34.566406 59.007812 34.472656 59.007812 C 34.28125 59.007812 34.089844 59.007812 33.898438 59.007812 C 33.703125 59.007812 33.511719 59.011719 33.320312 59.011719 C 32.019531 59.023438 30.75 58.957031 29.460938 58.78125 C 29.40625 58.773438 29.351562 58.765625 29.296875 58.757812 C 29 58.71875 28.707031 58.675781 28.414062 58.628906 C 28.28125 58.605469 28.28125 58.605469 28.148438 58.582031 C 23.78125 57.851562 19.507812 56.53125 15.75 54.140625 C 15.703125 54.109375 15.65625 54.082031 15.609375 54.050781 C 14.46875 53.324219 13.378906 52.515625 12.375 51.609375 C 12.332031 51.570312 12.289062 51.53125 12.246094 51.492188 C 8.988281 48.554688 6.925781 44.738281 6.242188 40.402344 C 6.222656 40.292969 6.222656 40.292969 6.207031 40.183594 C 5.292969 34.046875 7.414062 26.835938 11.070312 21.859375 C 11.921875 20.742188 12.867188 19.707031 13.921875 18.773438 C 13.976562 18.726562 13.976562 18.726562 14.03125 18.675781 C 19.175781 14.117188 25.808594 11.035156 34.105469 10.945312 Z M 34.105469 10.945312 "/>
<path style=" stroke:none;fill-rule:nonzero;fill:rgb(0.784314%,0.784314%,0.392157%);fill-opacity:1;" d="M 34.105469 10.945312 C 34.269531 10.945312 34.433594 10.945312 34.597656 10.945312 C 40.902344 10.953125 40.902344 10.953125 42.890625 12.9375 C 43.6875 13.847656 43.972656 14.902344 43.96875 16.085938 C 43.96875 16.175781 43.96875 16.269531 43.964844 16.363281 C 43.957031 17.316406 43.859375 18.253906 43.734375 19.195312 C 43.726562 19.257812 43.71875 19.320312 43.710938 19.386719 C 43.449219 21.46875 42.519531 23.238281 41.546875 25.0625 C 41.511719 25.125 41.511719 25.125 41.476562 25.1875 C 41.261719 25.59375 41.046875 25.992188 40.78125 26.367188 C 40.851562 26.371094 40.851562 26.371094 40.925781 26.378906 C 41.398438 26.414062 41.851562 26.492188 42.316406 26.589844 C 44.976562 27.140625 47.683594 27.464844 50.390625 27.710938 C 52.539062 27.910156 54.671875 28.167969 56.777344 28.648438 C 56.949219 28.6875 57.121094 28.722656 57.292969 28.757812 C 58.011719 28.910156 58.714844 29.101562 59.414062 29.320312 C 59.476562 29.339844 59.542969 29.359375 59.605469 29.378906 C 65.742188 31.269531 65.742188 31.269531 67.109375 33.796875 C 67.75 35.09375 67.710938 36.597656 67.273438 37.953125 C 66.867188 39.027344 66.25 39.984375 65.601562 40.921875 C 65.554688 40.992188 65.554688 40.992188 65.503906 41.066406 C 65.015625 41.777344 64.496094 42.457031 63.941406 43.121094 C 63.8125 43.28125 63.683594 43.445312 63.554688 43.605469 C 63.027344 44.265625 62.480469 44.898438 61.90625 45.515625 C 61.769531 45.664062 61.632812 45.816406 61.5 45.972656 C 61.144531 46.382812 60.769531 46.777344 60.394531 47.171875 C 60.253906 47.324219 60.113281 47.476562 59.972656 47.628906 C 59.210938 48.4375 58.460938 49.234375 57.585938 49.921875 C 57.519531 49.976562 57.449219 50.03125 57.382812 50.089844 C 56.734375 50.601562 56.042969 51.035156 55.335938 51.46875 C 55.261719 51.515625 55.191406 51.558594 55.113281 51.605469 C 53.398438 52.664062 51.648438 53.652344 49.851562 54.5625 C 49.777344 54.597656 49.707031 54.636719 49.628906 54.671875 C 48.394531 55.292969 47.132812 55.828125 45.84375 56.320312 C 45.757812 56.351562 45.675781 56.386719 45.585938 56.417969 C 42.894531 57.441406 40.109375 58.40625 37.253906 58.824219 C 37.199219 58.832031 37.140625 58.84375 37.085938 58.851562 C 36.308594 58.96875 35.535156 59.003906 34.75 59.007812 C 34.660156 59.007812 34.566406 59.007812 34.472656 59.007812 C 34.28125 59.007812 34.089844 59.007812 33.898438 59.007812 C 33.703125 59.007812 33.511719 59.011719 33.320312 59.011719 C 32.019531 59.023438 30.75 58.957031 29.460938 58.78125 C 29.40625 58.773438 29.351562 58.765625 29.296875 58.757812 C 29 58.71875 28.707031 58.675781 28.414062 58.628906 C 28.28125 58.605469 28.28125 58.605469 28.148438 58.582031 C 23.78125 57.851562 19.507812 56.53125 15.75 54.140625 C 15.703125 54.109375 15.65625 54.082031 15.609375 54.050781 C 14.46875 53.324219 13.378906 52.515625 12.375 51.609375 C 12.332031 51.570312 12.289062 51.53125 12.246094 51.492188 C 8.988281 48.554688 6.925781 44.738281 6.242188 40.402344 C 6.222656 40.292969 6.222656 40.292969 6.207031 40.183594 C 5.292969 34.046875 7.414062 26.835938 11.070312 21.859375 C 11.921875 20.742188 12.867188 19.707031 13.921875 18.773438 C 13.976562 18.726562 13.976562 18.726562 14.03125 18.675781 C 19.175781 14.117188 25.808594 11.035156 34.105469 10.945312 Z M 21.707031 15.925781 C 21.511719 16.035156 21.3125 16.144531 21.113281 16.253906 C 19.742188 17.015625 18.425781 17.847656 17.15625 18.773438 C 17.109375 18.808594 17.058594 18.84375 17.007812 18.878906 C 16.460938 19.277344 15.933594 19.683594 15.441406 20.148438 C 15.292969 20.285156 15.144531 20.421875 14.988281 20.554688 C 14.242188 21.203125 13.535156 21.917969 12.9375 22.710938 C 12.902344 22.753906 12.871094 22.796875 12.835938 22.84375 C 9.28125 27.507812 7.476562 34.234375 8.195312 40.027344 C 8.59375 42.917969 9.757812 45.621094 11.601562 47.882812 C 11.648438 47.9375 11.648438 47.9375 11.695312 47.996094 C 12.519531 49.011719 13.441406 49.972656 14.484375 50.765625 C 14.574219 50.835938 14.660156 50.90625 14.746094 50.972656 C 15.902344 51.882812 17.140625 52.648438 18.421875 53.367188 C 18.464844 53.390625 18.507812 53.417969 18.554688 53.441406 C 21.75 55.257812 25.402344 56.105469 29 56.699219 C 29.050781 56.707031 29.101562 56.714844 29.15625 56.722656 C 30.570312 56.957031 31.972656 57.046875 33.40625 57.039062 C 33.644531 57.035156 33.886719 57.035156 34.125 57.035156 C 37.0625 57.03125 39.765625 56.316406 42.539062 55.40625 C 42.585938 55.390625 42.628906 55.375 42.675781 55.363281 C 45.703125 54.375 48.605469 53.089844 51.359375 51.5 C 51.5625 51.382812 51.765625 51.273438 51.96875 51.160156 C 53.738281 50.179688 55.5 49.121094 56.996094 47.753906 C 57.203125 47.566406 57.414062 47.386719 57.628906 47.207031 C 57.742188 47.117188 57.742188 47.117188 57.726562 46.96875 C 57.820312 46.921875 57.914062 46.875 58.007812 46.828125 C 58.007812 46.78125 58.007812 46.734375 58.007812 46.6875 C 58.050781 46.667969 58.089844 46.652344 58.136719 46.632812 C 58.300781 46.539062 58.382812 46.453125 58.503906 46.304688 C 58.714844 46.054688 58.9375 45.828125 59.167969 45.597656 C 59.429688 45.339844 59.679688 45.078125 59.914062 44.800781 C 60.050781 44.648438 60.1875 44.496094 60.324219 44.347656 C 60.660156 43.988281 60.980469 43.617188 61.289062 43.234375 C 61.4375 43.050781 61.59375 42.867188 61.75 42.6875 C 62.265625 42.097656 62.742188 41.480469 63.210938 40.851562 C 63.246094 40.808594 63.277344 40.761719 63.3125 40.714844 C 65.199219 38.253906 65.199219 38.253906 65.671875 35.296875 C 65.46875 34.527344 65.019531 33.941406 64.398438 33.460938 C 64.269531 33.386719 64.269531 33.386719 64.128906 33.410156 C 63.925781 33.492188 63.871094 33.605469 63.753906 33.792969 C 63.710938 33.863281 63.667969 33.933594 63.625 34.003906 C 63.578125 34.078125 63.53125 34.15625 63.484375 34.234375 C 63.382812 34.394531 63.28125 34.554688 63.179688 34.714844 C 63.15625 34.757812 63.128906 34.796875 63.101562 34.839844 C 62.414062 35.9375 61.714844 37.042969 60.890625 38.039062 C 60.847656 38.09375 60.847656 38.09375 60.804688 38.148438 C 59.933594 39.210938 58.988281 40.253906 57.941406 41.148438 C 57.765625 41.300781 57.59375 41.457031 57.421875 41.617188 C 57.042969 41.960938 56.652344 42.289062 56.25 42.609375 C 56.195312 42.652344 56.144531 42.695312 56.089844 42.738281 C 55.714844 43.027344 55.40625 43.234375 54.914062 43.171875 C 54.574219 43 54.410156 42.832031 54.28125 42.46875 C 54.230469 42.058594 54.320312 41.878906 54.5625 41.554688 C 54.699219 41.410156 54.839844 41.277344 54.988281 41.144531 C 55.027344 41.109375 55.070312 41.074219 55.109375 41.035156 C 55.421875 40.753906 55.742188 40.492188 56.070312 40.230469 C 56.300781 40.035156 56.507812 39.828125 56.71875 39.609375 C 56.855469 39.472656 57 39.34375 57.148438 39.214844 C 57.445312 38.957031 57.726562 38.6875 58.003906 38.410156 C 58.054688 38.359375 58.101562 38.308594 58.152344 38.257812 C 58.472656 37.9375 58.769531 37.609375 59.046875 37.25 C 59.207031 37.050781 59.367188 36.859375 59.535156 36.667969 C 59.894531 36.238281 60.207031 35.785156 60.511719 35.316406 C 60.566406 35.230469 60.621094 35.152344 60.675781 35.070312 C 60.757812 34.941406 60.839844 34.816406 60.921875 34.691406 C 61.113281 34.398438 61.308594 34.109375 61.503906 33.820312 C 61.554688 33.742188 61.609375 33.664062 61.660156 33.585938 C 61.761719 33.441406 61.859375 33.292969 61.960938 33.148438 C 62.027344 33.046875 62.027344 33.046875 62.09375 32.949219 C 62.132812 32.890625 62.171875 32.832031 62.214844 32.773438 C 62.3125 32.625 62.3125 32.625 62.296875 32.414062 C 59.210938 31.222656 56.070312 30.4375 52.792969 29.992188 C 52.621094 29.964844 52.449219 29.941406 52.277344 29.917969 C 51.523438 29.8125 50.765625 29.742188 50.011719 29.671875 C 48.457031 29.527344 46.914062 29.355469 45.371094 29.132812 C 45.261719 29.117188 45.15625 29.101562 45.046875 29.085938 C 38.328125 28.125 38.328125 28.125 37.542969 27.207031 C 37.335938 26.890625 37.285156 26.597656 37.335938 26.226562 C 37.476562 25.964844 37.578125 25.832031 37.828125 25.664062 C 37.988281 25.648438 37.988281 25.648438 38.171875 25.652344 C 38.230469 25.652344 38.289062 25.652344 38.351562 25.652344 C 38.535156 25.664062 38.703125 25.695312 38.882812 25.734375 C 39.476562 24.710938 40.050781 23.675781 40.605469 22.632812 C 40.699219 22.457031 40.792969 22.28125 40.886719 22.105469 C 40.933594 22.015625 40.980469 21.929688 41.027344 21.839844 C 41.066406 21.769531 41.105469 21.699219 41.144531 21.625 C 41.222656 21.449219 41.222656 21.449219 41.15625 21.296875 C 39.777344 19.363281 37.226562 18.554688 34.996094 18.144531 C 34.078125 17.992188 33.140625 17.953125 32.210938 17.914062 C 32.117188 17.910156 32.027344 17.90625 31.929688 17.902344 C 31.855469 17.902344 31.78125 17.898438 31.703125 17.898438 C 31.394531 17.839844 31.164062 17.699219 30.984375 17.441406 C 30.863281 17.0625 30.882812 16.699219 31.0625 16.347656 C 31.265625 16.121094 31.398438 16.042969 31.703125 16.007812 C 31.96875 16.003906 32.230469 16 32.496094 16 C 32.546875 16 32.597656 16 32.648438 16 C 35.714844 16.003906 39.089844 16.851562 41.503906 18.820312 C 41.621094 18.917969 41.621094 18.917969 41.765625 18.984375 C 41.789062 18.835938 41.808594 18.6875 41.832031 18.539062 C 41.851562 18.417969 41.851562 18.417969 41.867188 18.289062 C 41.960938 17.625 41.996094 16.957031 42.007812 16.28125 C 42.011719 16.203125 42.015625 16.121094 42.015625 16.039062 C 42.027344 15.277344 41.773438 14.714844 41.273438 14.144531 C 37.496094 10.679688 25.695312 13.683594 21.707031 15.925781 Z M 21.707031 15.925781 "/>
<path style=" stroke:none;fill-rule:nonzero;fill:rgb(90.588235%,72.54902%,40.392157%);fill-opacity:1;" d="M 41.273438 14.144531 C 41.867188 14.820312 42.039062 15.445312 42.003906 16.328125 C 42 16.417969 42 16.503906 41.996094 16.59375 C 41.992188 16.804688 41.984375 17.015625 41.976562 17.226562 C 41.953125 17.226562 41.929688 17.226562 41.90625 17.226562 C 41.90625 17.183594 41.90625 17.136719 41.90625 17.09375 C 41.882812 16.589844 41.75 16.324219 41.414062 15.960938 C 41.355469 15.890625 41.355469 15.890625 41.292969 15.820312 C 40.703125 15.175781 39.910156 14.773438 39.09375 14.484375 C 38.988281 14.445312 38.988281 14.445312 38.878906 14.410156 C 37.511719 13.972656 36.0625 13.957031 34.640625 13.964844 C 34.519531 13.964844 34.519531 13.964844 34.390625 13.964844 C 27.671875 13.996094 21.84375 16.097656 16.144531 21.53125 C 16.066406 21.613281 16.066406 21.613281 15.984375 21.691406 C 15.660156 22.019531 15.347656 22.359375 15.046875 22.710938 C 14.980469 22.789062 14.914062 22.863281 14.847656 22.9375 C 11.691406 26.558594 10.121094 30.480469 9.632812 35.226562 C 9.625 35.304688 9.617188 35.386719 9.605469 35.46875 C 9.574219 35.910156 9.574219 35.910156 9.742188 36.304688 C 9.886719 36.445312 10.039062 36.574219 10.195312 36.703125 C 10.273438 36.789062 10.351562 36.875 10.421875 36.960938 C 10.640625 37.214844 10.863281 37.457031 11.085938 37.699219 C 11.125 37.738281 11.160156 37.777344 11.195312 37.816406 C 11.382812 38.019531 11.570312 38.222656 11.757812 38.421875 C 11.964844 38.644531 12.171875 38.867188 12.375 39.09375 C 12.425781 39.144531 12.472656 39.199219 12.523438 39.253906 C 12.671875 39.425781 12.789062 39.566406 12.808594 39.796875 C 12.761719 40.230469 12.621094 40.554688 12.410156 40.933594 C 12.34375 41.054688 12.28125 41.175781 12.21875 41.296875 C 12.117188 41.484375 12.015625 41.667969 11.910156 41.859375 C 11.8125 42.039062 11.714844 42.222656 11.617188 42.40625 C 11.585938 42.460938 11.554688 42.515625 11.523438 42.574219 C 11.34375 42.917969 11.28125 43.132812 11.390625 43.523438 C 11.5 43.730469 11.5 43.730469 11.640625 43.933594 C 11.882812 44.296875 12.0625 44.671875 12.230469 45.074219 C 12.574219 45.886719 13.085938 46.496094 13.6875 47.144531 C 13.828125 47.296875 13.964844 47.449219 14.097656 47.609375 C 14.386719 47.941406 14.714844 48.226562 15.046875 48.515625 C 15.113281 48.574219 15.179688 48.632812 15.25 48.695312 C 18.695312 51.707031 23.035156 53.433594 27.484375 54.285156 C 27.546875 54.296875 27.609375 54.308594 27.671875 54.320312 C 29.570312 54.6875 31.445312 54.929688 33.382812 54.925781 C 33.449219 54.925781 33.515625 54.925781 33.585938 54.925781 C 38.265625 54.917969 42.917969 53.363281 47.109375 51.328125 C 47.160156 51.304688 47.210938 51.28125 47.261719 51.253906 C 47.535156 51.121094 47.804688 50.988281 48.074219 50.847656 C 48.191406 50.789062 48.3125 50.726562 48.429688 50.667969 C 50.636719 49.546875 52.777344 48.246094 54.703125 46.6875 C 54.753906 46.648438 54.800781 46.609375 54.851562 46.566406 C 55.484375 46.058594 56.097656 45.535156 56.6875 44.976562 C 56.828125 44.84375 56.972656 44.710938 57.117188 44.578125 C 57.222656 44.476562 57.328125 44.378906 57.4375 44.277344 C 57.484375 44.234375 57.535156 44.1875 57.585938 44.140625 C 57.871094 43.871094 58.136719 43.59375 58.390625 43.296875 C 58.523438 43.144531 58.667969 43 58.816406 42.855469 C 59.054688 42.621094 59.28125 42.378906 59.5 42.125 C 59.640625 41.957031 59.785156 41.796875 59.933594 41.636719 C 60.230469 41.304688 60.519531 40.964844 60.796875 40.617188 C 60.863281 40.535156 60.929688 40.453125 60.992188 40.371094 C 61.542969 39.695312 62.050781 38.992188 62.539062 38.265625 C 62.566406 38.230469 62.589844 38.1875 62.617188 38.148438 C 63.410156 37.035156 63.410156 37.035156 63.671875 35.738281 C 63.609375 35.484375 63.496094 35.371094 63.28125 35.226562 C 63.164062 35.199219 63.046875 35.175781 62.929688 35.15625 C 63.273438 34.542969 63.648438 33.96875 64.054688 33.398438 C 64.542969 33.488281 64.925781 33.871094 65.203125 34.265625 C 65.265625 34.371094 65.332031 34.484375 65.390625 34.59375 C 65.433594 34.671875 65.433594 34.671875 65.476562 34.75 C 65.839844 35.5 65.742188 36.355469 65.488281 37.121094 C 65.167969 38.007812 64.667969 38.820312 64.125 39.585938 C 64.070312 39.664062 64.015625 39.746094 63.957031 39.824219 C 63.367188 40.664062 62.738281 41.46875 62.085938 42.257812 C 61.984375 42.382812 61.882812 42.507812 61.78125 42.632812 C 61.167969 43.382812 60.53125 44.109375 59.867188 44.820312 C 59.765625 44.929688 59.664062 45.039062 59.5625 45.152344 C 59.214844 45.535156 58.863281 45.910156 58.492188 46.269531 C 58.355469 46.402344 58.355469 46.402344 58.246094 46.5625 C 58.195312 46.625 58.195312 46.625 58.148438 46.6875 C 58.101562 46.6875 58.054688 46.6875 58.007812 46.6875 C 57.960938 46.78125 57.914062 46.871094 57.867188 46.96875 C 57.820312 46.96875 57.773438 46.96875 57.726562 46.96875 C 57.726562 47.015625 57.726562 47.0625 57.726562 47.109375 C 57.621094 47.214844 57.621094 47.214844 57.476562 47.332031 C 57.285156 47.492188 57.105469 47.660156 56.933594 47.835938 C 55.113281 49.667969 52.441406 50.949219 50.179688 52.144531 C 50 52.238281 49.820312 52.332031 49.644531 52.429688 C 44.917969 54.960938 39.292969 57.035156 33.886719 57.035156 C 33.648438 57.035156 33.40625 57.039062 33.167969 57.039062 C 31.761719 57.042969 30.386719 56.929688 29 56.699219 C 28.917969 56.683594 28.917969 56.683594 28.835938 56.671875 C 25.351562 56.09375 21.988281 55.199219 18.835938 53.574219 C 18.75 53.53125 18.660156 53.488281 18.574219 53.441406 C 16.59375 52.4375 14.75 51.109375 13.148438 49.570312 C 13.109375 49.53125 13.066406 49.492188 13.027344 49.453125 C 12.492188 48.933594 11.988281 48.402344 11.53125 47.8125 C 11.449219 47.710938 11.449219 47.710938 11.367188 47.609375 C 10.082031 46.015625 9.234375 44.136719 8.648438 42.1875 C 8.632812 42.140625 8.617188 42.089844 8.601562 42.039062 C 8.109375 40.46875 8.058594 38.773438 8.058594 37.136719 C 8.058594 37.070312 8.058594 37.003906 8.058594 36.933594 C 8.058594 35.753906 8.132812 34.582031 8.367188 33.425781 C 8.382812 33.351562 8.394531 33.28125 8.410156 33.207031 C 9.191406 29.5625 10.613281 25.53125 13.007812 22.640625 C 13.054688 22.585938 13.054688 22.585938 13.097656 22.527344 C 13.875 21.574219 14.742188 20.65625 15.710938 19.898438 C 15.90625 19.746094 16.089844 19.585938 16.277344 19.421875 C 16.792969 18.992188 17.351562 18.621094 17.910156 18.25 C 18.054688 18.152344 18.199219 18.054688 18.339844 17.957031 C 19.390625 17.238281 20.492188 16.601562 21.609375 15.992188 C 21.746094 15.917969 21.882812 15.84375 22.019531 15.769531 C 25.96875 13.605469 37.582031 10.757812 41.273438 14.144531 Z M 41.273438 14.144531 "/>
<path style=" stroke:none;fill-rule:nonzero;fill:rgb(90.588235%,72.54902%,40.392157%);fill-opacity:1;" d="M 61.875 32.273438 C 62.015625 32.320312 62.152344 32.367188 62.296875 32.414062 C 62.25 32.65625 62.160156 32.820312 62.023438 33.023438 C 61.960938 33.121094 61.960938 33.121094 61.894531 33.21875 C 61.851562 33.289062 61.804688 33.359375 61.757812 33.429688 C 61.710938 33.5 61.660156 33.570312 61.613281 33.644531 C 61.515625 33.796875 61.417969 33.945312 61.316406 34.09375 C 61.179688 34.300781 61.042969 34.507812 60.90625 34.71875 C 59.695312 36.554688 58.292969 38.316406 56.605469 39.742188 C 56.414062 39.90625 56.234375 40.074219 56.050781 40.246094 C 55.777344 40.5 55.5 40.738281 55.207031 40.96875 C 54.855469 41.253906 54.488281 41.566406 54.28125 41.976562 C 54.253906 42.34375 54.285156 42.582031 54.492188 42.890625 C 54.679688 43.066406 54.8125 43.167969 55.074219 43.175781 C 55.316406 43.152344 55.527344 43.109375 55.757812 43.03125 C 55.726562 43.335938 55.542969 43.476562 55.328125 43.679688 C 55.257812 43.75 55.183594 43.820312 55.113281 43.886719 C 55.078125 43.921875 55.046875 43.957031 55.011719 43.988281 C 54.84375 44.15625 54.691406 44.335938 54.542969 44.519531 C 54.160156 44.929688 53.832031 45.078125 53.296875 45.234375 C 52.488281 45.484375 51.742188 45.816406 51.117188 46.40625 C 51.035156 46.574219 51.035156 46.574219 51.007812 46.753906 C 50.941406 47.082031 50.8125 47.316406 50.554688 47.53125 C 50.246094 47.71875 49.921875 47.878906 49.597656 48.039062 C 49.503906 48.089844 49.410156 48.136719 49.316406 48.183594 C 49.132812 48.273438 48.949219 48.367188 48.765625 48.460938 C 48.453125 48.617188 48.148438 48.777344 47.839844 48.941406 C 47.734375 48.996094 47.628906 49.054688 47.523438 49.109375 C 47.339844 49.203125 47.15625 49.300781 46.976562 49.398438 C 44.523438 50.703125 42.011719 51.84375 39.304688 52.523438 C 39.257812 52.535156 39.207031 52.546875 39.15625 52.5625 C 37.664062 52.929688 36.085938 52.980469 34.558594 52.976562 C 34.296875 52.976562 34.035156 52.976562 33.773438 52.980469 C 32.78125 52.984375 31.867188 52.960938 30.953125 52.542969 C 30.878906 52.511719 30.804688 52.484375 30.726562 52.453125 C 30.609375 52.523438 30.492188 52.59375 30.375 52.664062 C 29.765625 52.738281 29.183594 52.59375 28.59375 52.453125 C 28.5 52.429688 28.402344 52.40625 28.304688 52.386719 C 28.058594 52.328125 27.8125 52.265625 27.566406 52.207031 C 27.429688 52.175781 27.292969 52.140625 27.15625 52.109375 C 23.613281 51.242188 20.167969 49.976562 17.507812 47.390625 C 17.464844 47.351562 17.421875 47.308594 17.378906 47.265625 C 16.664062 46.574219 16.023438 45.851562 15.4375 45.042969 C 15.394531 44.984375 15.394531 44.984375 15.347656 44.917969 C 15.089844 44.558594 14.921875 44.257812 14.976562 43.804688 C 15.148438 43.46875 15.34375 43.273438 15.679688 43.101562 C 16.078125 43.042969 16.347656 43.148438 16.664062 43.382812 C 16.828125 43.550781 16.96875 43.730469 17.113281 43.917969 C 17.191406 44.019531 17.273438 44.121094 17.351562 44.222656 C 17.410156 44.292969 17.410156 44.292969 17.46875 44.367188 C 17.617188 44.558594 17.773438 44.742188 17.929688 44.925781 C 18 45.007812 18 45.007812 18.070312 45.089844 C 18.238281 45.234375 18.347656 45.246094 18.5625 45.28125 C 18.710938 45.367188 18.710938 45.367188 18.871094 45.480469 C 21.234375 47.023438 24.164062 48 26.992188 48.117188 C 27.410156 48.144531 27.640625 48.253906 27.953125 48.523438 C 28.042969 48.597656 28.132812 48.667969 28.222656 48.738281 C 28.265625 48.773438 28.308594 48.808594 28.355469 48.84375 C 29.480469 49.722656 30.964844 50.140625 32.34375 50.414062 C 32.398438 50.425781 32.449219 50.4375 32.503906 50.449219 C 34.808594 50.945312 37.597656 50.769531 39.65625 49.570312 C 39.882812 49.421875 40.085938 49.257812 40.289062 49.078125 C 40.335938 49.039062 40.382812 48.996094 40.433594 48.957031 C 40.8125 48.609375 41.042969 48.21875 41.285156 47.769531 C 41.347656 47.652344 41.347656 47.652344 41.414062 47.53125 C 41.453125 47.453125 41.492188 47.375 41.53125 47.292969 C 41.707031 47.09375 41.734375 47.078125 41.984375 47.050781 C 42.101562 47.042969 42.214844 47.042969 42.328125 47.039062 C 42.445312 47.035156 42.5625 47.027344 42.675781 47.023438 C 42.855469 47.015625 43.035156 47.007812 43.214844 47.003906 C 44.15625 46.964844 44.753906 46.585938 45.484375 46.015625 C 47.246094 44.628906 48.949219 44 51.1875 43.945312 C 51.203125 43.898438 51.214844 43.851562 51.230469 43.804688 C 52.105469 41.035156 53.679688 39.558594 56.039062 37.96875 C 56.238281 37.832031 56.441406 37.695312 56.640625 37.558594 C 56.6875 37.53125 56.730469 37.5 56.777344 37.46875 C 57.292969 37.117188 57.6875 36.769531 58.023438 36.246094 C 58.921875 34.902344 59.960938 33.675781 61.277344 32.726562 C 61.320312 32.695312 61.363281 32.664062 61.40625 32.632812 C 61.71875 32.414062 61.71875 32.414062 61.875 32.414062 C 61.875 32.367188 61.875 32.320312 61.875 32.273438 Z M 61.875 32.273438 "/>
<path style=" stroke:none;fill-rule:nonzero;fill:rgb(1.176471%,0.784314%,0.392157%);fill-opacity:1;" d="M 37.59375 37.042969 C 38 37.226562 38.308594 37.496094 38.632812 37.800781 C 39.511719 38.625 40.46875 39.246094 41.550781 39.765625 C 41.964844 39.972656 42.289062 40.171875 42.539062 40.570312 C 42.769531 41.261719 42.546875 41.953125 42.238281 42.582031 C 41.601562 43.710938 40.566406 44.410156 39.445312 45 C 39.390625 45.027344 39.339844 45.058594 39.285156 45.085938 C 39.113281 45.175781 38.941406 45.265625 38.769531 45.351562 C 38.714844 45.378906 38.664062 45.40625 38.609375 45.4375 C 37.902344 45.78125 37.195312 45.652344 36.460938 45.457031 C 36.390625 45.4375 36.316406 45.417969 36.242188 45.402344 C 34.742188 45 32.925781 44.414062 32.097656 42.988281 C 31.730469 42.277344 31.625 41.453125 31.855469 40.675781 C 32.09375 40.167969 32.4375 39.765625 32.835938 39.375 C 32.914062 39.296875 32.914062 39.296875 32.996094 39.214844 C 33.863281 38.390625 34.925781 37.835938 35.980469 37.28125 C 36.109375 37.210938 36.242188 37.140625 36.371094 37.066406 C 36.761719 36.898438 37.191406 36.917969 37.59375 37.042969 Z M 37.59375 37.042969 "/>
<path style=" stroke:none;fill-rule:nonzero;fill:rgb(1.176471%,0.784314%,0.392157%);fill-opacity:1;" d="M 27.667969 29.609375 C 28.632812 30.34375 29.453125 31.5 29.636719 32.722656 C 29.671875 33.371094 29.457031 33.714844 29.035156 34.195312 C 28.875 34.367188 28.710938 34.53125 28.546875 34.695312 C 28.488281 34.753906 28.429688 34.8125 28.367188 34.871094 C 27.402344 35.8125 26.300781 36.605469 24.902344 36.664062 C 23.941406 36.632812 23.113281 36.246094 22.289062 35.789062 C 22.242188 35.761719 22.195312 35.738281 22.148438 35.710938 C 20.484375 34.78125 20.484375 34.78125 20.207031 33.894531 C 20.136719 33.527344 20.125 33.175781 20.277344 32.828125 C 20.445312 32.644531 20.605469 32.507812 20.804688 32.355469 C 21.234375 32.019531 21.472656 31.652344 21.71875 31.171875 C 21.742188 31.125 21.765625 31.078125 21.792969 31.03125 C 21.835938 30.9375 21.882812 30.847656 21.925781 30.753906 C 22.238281 30.132812 22.6875 29.910156 23.332031 29.695312 C 23.4375 29.660156 23.542969 29.628906 23.644531 29.59375 C 23.804688 29.542969 23.964844 29.492188 24.121094 29.441406 C 24.226562 29.40625 24.328125 29.375 24.429688 29.339844 C 24.476562 29.324219 24.523438 29.308594 24.570312 29.292969 C 25.605469 28.96875 26.742188 29.003906 27.667969 29.609375 Z M 27.667969 29.609375 "/>
<path style=" stroke:none;fill-rule:nonzero;fill:rgb(1.176471%,0.392157%,0.392157%);fill-opacity:1;" d="M 27.222656 19.578125 C 27.53125 19.746094 27.792969 19.945312 28.054688 20.179688 C 28.097656 20.21875 28.140625 20.253906 28.183594 20.292969 C 28.851562 20.910156 29.4375 21.898438 29.496094 22.820312 C 29.480469 24.027344 28.683594 25.367188 27.863281 26.214844 C 26.898438 27.121094 25.683594 27.378906 24.394531 27.367188 C 24.316406 27.371094 24.238281 27.371094 24.15625 27.371094 C 23.238281 27.367188 22.398438 27.179688 21.726562 26.507812 C 21.246094 25.886719 21.175781 25.238281 21.234375 24.46875 C 21.285156 24.179688 21.359375 23.90625 21.445312 23.625 C 21.464844 23.558594 21.484375 23.488281 21.503906 23.421875 C 21.777344 22.570312 22.359375 22.164062 23.0625 21.65625 C 23.605469 21.261719 23.976562 20.714844 24.335938 20.15625 C 25.003906 19.140625 26.160156 19.105469 27.222656 19.578125 Z M 27.222656 19.578125 "/>
<path style=" stroke:none;fill-rule:nonzero;fill:rgb(1.176471%,0.784314%,0.784314%);fill-opacity:1;" d="M 18.28125 22.007812 C 18.515625 22.15625 18.71875 22.320312 18.84375 22.570312 C 18.921875 23.175781 18.707031 23.496094 18.351562 23.976562 C 18.242188 24.117188 18.132812 24.253906 18.023438 24.394531 C 15.710938 27.328125 14.890625 31.058594 14.898438 34.722656 C 14.898438 34.914062 14.898438 35.101562 14.894531 35.292969 C 14.894531 36.492188 14.945312 37.679688 15.085938 38.871094 C 15.25 40.273438 15.25 40.273438 14.976562 40.710938 C 14.78125 40.9375 14.644531 41.042969 14.339844 41.078125 C 13.953125 41.09375 13.726562 41.050781 13.429688 40.78125 C 13.269531 40.5 13.183594 40.257812 13.140625 39.9375 C 13.128906 39.855469 13.117188 39.773438 13.109375 39.6875 C 13.089844 39.554688 13.089844 39.554688 13.074219 39.417969 C 13.066406 39.371094 13.0625 39.328125 13.054688 39.28125 C 12.339844 33.660156 12.902344 27.851562 16.382812 23.203125 C 16.414062 23.160156 16.445312 23.121094 16.476562 23.078125 C 17.4375 21.777344 17.4375 21.777344 18.28125 22.007812 Z M 18.28125 22.007812 "/>
<path style=" stroke:none;fill-rule:nonzero;fill:rgb(1.176471%,0.784314%,0.392157%);fill-opacity:1;" d="M 27.1875 38.472656 C 28.015625 38.945312 28.542969 39.535156 28.910156 40.414062 C 29.273438 41.804688 28.707031 43.101562 28.054688 44.296875 C 28.015625 44.367188 27.976562 44.441406 27.9375 44.515625 C 27.582031 45.136719 27.582031 45.136719 27.28125 45.28125 C 25.875 45.507812 23.90625 44.808594 22.746094 44.039062 C 22.167969 43.613281 21.605469 43.070312 21.480469 42.335938 C 21.460938 41.992188 21.449219 41.730469 21.636719 41.433594 C 21.8125 41.25 21.996094 41.085938 22.1875 40.917969 C 22.949219 40.210938 23.554688 39.453125 24.144531 38.597656 C 24.898438 37.519531 26.183594 37.96875 27.1875 38.472656 Z M 27.1875 38.472656 "/>
<path style=" stroke:none;fill-rule:nonzero;fill:rgb(1.176471%,0.784314%,0.392157%);fill-opacity:1;" d="M 50.414062 45.703125 C 50.691406 45.839844 50.859375 46.050781 50.976562 46.335938 C 51.027344 46.652344 51.007812 46.90625 50.871094 47.195312 C 50.472656 47.632812 49.890625 47.875 49.371094 48.140625 C 49.226562 48.21875 49.082031 48.292969 48.9375 48.367188 C 48.867188 48.40625 48.792969 48.441406 48.71875 48.480469 C 48.488281 48.601562 48.253906 48.722656 48.023438 48.847656 C 47.859375 48.929688 47.699219 49.015625 47.539062 49.101562 C 47.347656 49.199219 47.164062 49.300781 46.972656 49.398438 C 44.519531 50.703125 42.011719 51.84375 39.304688 52.523438 C 39.257812 52.535156 39.207031 52.546875 39.15625 52.5625 C 38.855469 52.636719 38.554688 52.6875 38.25 52.734375 C 38.191406 52.742188 38.132812 52.753906 38.070312 52.761719 C 37.015625 52.925781 35.960938 52.96875 34.890625 52.976562 C 34.75 52.980469 34.605469 52.980469 34.464844 52.984375 C 34.261719 52.988281 34.058594 52.988281 33.855469 52.988281 C 33.792969 52.988281 33.734375 52.988281 33.667969 52.992188 C 33.371094 52.988281 33.175781 52.96875 32.941406 52.777344 C 32.679688 52.503906 32.632812 52.339844 32.597656 51.964844 C 32.605469 51.664062 32.710938 51.488281 32.90625 51.257812 C 33.21875 50.980469 33.488281 50.964844 33.898438 50.960938 C 34 50.957031 34.105469 50.953125 34.207031 50.953125 C 34.261719 50.953125 34.3125 50.949219 34.371094 50.949219 C 39.785156 50.835938 44.230469 48.660156 48.902344 46.085938 C 49.007812 46.03125 49.113281 45.972656 49.21875 45.914062 C 49.292969 45.871094 49.371094 45.832031 49.449219 45.789062 C 49.769531 45.648438 50.074219 45.648438 50.414062 45.703125 Z M 50.414062 45.703125 "/>
<path style=" stroke:none;fill-rule:nonzero;fill:rgb(1.176471%,0.784314%,0.392157%);fill-opacity:1;" d="M 16.171875 43.101562 C 16.59375 43.300781 16.824219 43.542969 17.101562 43.910156 C 17.183594 44.011719 17.265625 44.113281 17.34375 44.214844 C 17.382812 44.265625 17.421875 44.316406 17.464844 44.367188 C 17.742188 44.710938 18.046875 45.03125 18.351562 45.351562 C 18.390625 45.390625 18.429688 45.433594 18.46875 45.476562 C 20.257812 47.359375 22.429688 48.503906 24.890625 49.289062 C 24.96875 49.3125 25.046875 49.339844 25.128906 49.367188 C 26.667969 49.867188 28.230469 50.304688 29.824219 50.601562 C 30.316406 50.699219 30.644531 50.835938 30.9375 51.257812 C 31.046875 51.476562 31.027344 51.648438 31.007812 51.890625 C 30.914062 52.167969 30.792969 52.386719 30.582031 52.59375 C 29.9375 52.8125 29.234375 52.605469 28.59375 52.453125 C 28.5 52.429688 28.402344 52.40625 28.304688 52.386719 C 28.058594 52.328125 27.8125 52.265625 27.566406 52.207031 C 27.429688 52.175781 27.292969 52.140625 27.15625 52.109375 C 23.613281 51.242188 20.167969 49.976562 17.507812 47.390625 C 17.464844 47.351562 17.421875 47.308594 17.378906 47.265625 C 16.664062 46.574219 16.023438 45.851562 15.4375 45.042969 C 15.410156 45.003906 15.378906 44.960938 15.347656 44.917969 C 15.089844 44.558594 14.921875 44.257812 14.976562 43.804688 C 15.238281 43.300781 15.589844 43.019531 16.171875 43.101562 Z M 16.171875 43.101562 "/>
<path style=" stroke:none;fill-rule:nonzero;fill:rgb(1.176471%,0.784314%,0.392157%);fill-opacity:1;" d="M 46.0625 31.710938 C 46.539062 32.042969 46.851562 32.539062 47.1875 33.003906 C 47.921875 34.015625 48.9375 34.582031 50.136719 34.886719 C 50.539062 34.996094 50.867188 35.132812 51.109375 35.496094 C 51.242188 35.871094 51.238281 36.101562 51.070312 36.464844 C 50.351562 37.503906 49.242188 38.320312 48.09375 38.8125 C 48.042969 38.835938 47.988281 38.859375 47.933594 38.886719 C 47.167969 39.175781 46.121094 39.136719 45.367188 38.84375 C 44.984375 38.589844 44.777344 38.207031 44.582031 37.804688 C 44.558594 37.757812 44.535156 37.710938 44.511719 37.660156 C 43.867188 36.328125 43.5 34.765625 43.914062 33.300781 C 44.28125 32.34375 44.929688 31.347656 46.0625 31.710938 Z M 46.0625 31.710938 "/>
<path style=" stroke:none;fill-rule:nonzero;fill:rgb(1.176471%,0.784314%,0.392157%);fill-opacity:1;" d="M 33.703125 27.144531 C 34.746094 27.5625 35.363281 28.15625 35.804688 29.175781 C 36.234375 30.320312 35.851562 31.644531 35.375 32.703125 C 35.351562 32.753906 35.332031 32.804688 35.308594 32.855469 C 35.144531 33.195312 34.988281 33.410156 34.664062 33.609375 C 34.144531 33.726562 33.632812 33.503906 33.152344 33.332031 C 33.03125 33.289062 33.03125 33.289062 32.910156 33.246094 C 31.835938 32.855469 30.664062 32.398438 30.140625 31.304688 C 30.074219 30.976562 30.023438 30.636719 30.09375 30.304688 C 30.246094 30.128906 30.246094 30.128906 30.445312 29.953125 C 30.511719 29.894531 30.578125 29.835938 30.648438 29.773438 C 30.699219 29.730469 30.699219 29.730469 30.75 29.683594 C 31.371094 29.132812 31.777344 28.527344 32.136719 27.785156 C 32.480469 27.109375 32.996094 26.921875 33.703125 27.144531 Z M 33.703125 27.144531 "/>
<path style=" stroke:none;fill-rule:nonzero;fill:rgb(80.392157%,18.039216%,23.921569%);fill-opacity:1;" d="M 37.113281 38.84375 C 37.277344 38.960938 37.40625 39.082031 37.542969 39.230469 C 38.453125 40.167969 39.5625 40.8125 40.710938 41.414062 C 40.464844 42.289062 39.664062 42.789062 38.914062 43.214844 C 38.792969 43.28125 38.675781 43.34375 38.558594 43.410156 C 38.5 43.441406 38.445312 43.472656 38.386719 43.503906 C 37.832031 43.796875 37.394531 43.855469 36.773438 43.695312 C 36.722656 43.683594 36.671875 43.667969 36.617188 43.65625 C 35.542969 43.375 34.410156 43 33.75 42.046875 C 33.644531 41.730469 33.597656 41.4375 33.75 41.132812 C 33.855469 40.980469 33.972656 40.847656 34.101562 40.710938 C 34.167969 40.640625 34.167969 40.640625 34.234375 40.566406 C 34.777344 40.03125 35.449219 39.652344 36.101562 39.269531 C 36.222656 39.199219 36.339844 39.125 36.457031 39.054688 C 36.863281 38.804688 36.863281 38.804688 37.113281 38.84375 Z M 37.113281 38.84375 "/>
<path style=" stroke:none;fill-rule:nonzero;fill:rgb(90.980392%,72.941176%,40.392157%);fill-opacity:1;" d="M 28.394531 16.21875 C 28.445312 16.21875 28.496094 16.21875 28.550781 16.214844 C 28.945312 16.214844 29.171875 16.304688 29.449219 16.582031 C 29.5625 16.789062 29.558594 16.921875 29.53125 17.15625 C 29.410156 17.425781 29.308594 17.539062 29.039062 17.648438 C 28.863281 17.671875 28.863281 17.671875 28.660156 17.683594 C 28.585938 17.6875 28.511719 17.691406 28.4375 17.695312 C 28.355469 17.699219 28.277344 17.707031 28.195312 17.710938 C 26.1875 17.847656 24.777344 18.355469 23.207031 19.632812 C 22.621094 20.105469 22 20.53125 21.375 20.953125 C 21.320312 20.988281 21.265625 21.027344 21.210938 21.066406 C 21.058594 21.167969 20.90625 21.265625 20.753906 21.367188 C 20.710938 21.394531 20.667969 21.425781 20.621094 21.457031 C 20.324219 21.644531 20.109375 21.695312 19.757812 21.65625 C 19.539062 21.546875 19.4375 21.464844 19.355469 21.230469 C 19.300781 20.929688 19.292969 20.804688 19.46875 20.539062 C 19.730469 20.25 20.066406 20.050781 20.394531 19.839844 C 20.53125 19.753906 20.664062 19.667969 20.796875 19.578125 C 20.859375 19.535156 20.925781 19.496094 20.992188 19.449219 C 21.445312 19.148438 21.875 18.808594 22.300781 18.46875 C 24.144531 17.003906 26.015625 16.253906 28.394531 16.21875 Z M 28.394531 16.21875 "/>
<path style=" stroke:none;fill-rule:nonzero;fill:rgb(79.607843%,17.647059%,23.921569%);fill-opacity:1;" d="M 26.707031 31.179688 C 27.203125 31.53125 27.632812 32.160156 27.738281 32.761719 C 27.6875 33.066406 27.515625 33.21875 27.300781 33.421875 C 27.257812 33.460938 27.214844 33.5 27.171875 33.539062 C 26.527344 34.148438 25.828125 34.796875 24.902344 34.84375 C 24.203125 34.816406 23.628906 34.460938 23.027344 34.132812 C 22.980469 34.105469 22.929688 34.078125 22.882812 34.050781 C 22.625 33.90625 22.417969 33.761719 22.21875 33.539062 C 22.320312 33.449219 22.320312 33.449219 22.425781 33.359375 C 22.863281 32.925781 23.207031 32.328125 23.4375 31.761719 C 23.59375 31.507812 23.777344 31.449219 24.046875 31.359375 C 24.144531 31.320312 24.242188 31.285156 24.34375 31.246094 C 25.160156 30.953125 25.898438 30.71875 26.707031 31.179688 Z M 26.707031 31.179688 "/>
<path style=" stroke:none;fill-rule:nonzero;fill:rgb(79.607843%,17.647059%,23.921569%);fill-opacity:1;" d="M 25.945312 21.09375 C 26.394531 21.09375 26.691406 21.359375 27 21.65625 C 27.667969 22.484375 27.667969 22.484375 27.640625 22.9375 C 27.535156 23.773438 26.992188 24.628906 26.367188 25.171875 C 25.792969 25.566406 25.136719 25.617188 24.460938 25.621094 C 24.390625 25.621094 24.324219 25.625 24.253906 25.625 C 23.746094 25.628906 23.519531 25.535156 23.140625 25.195312 C 22.960938 24.824219 23.035156 24.421875 23.15625 24.042969 C 23.320312 23.667969 23.574219 23.496094 23.910156 23.273438 C 24.242188 23.046875 24.527344 22.773438 24.820312 22.5 C 24.863281 22.460938 24.90625 22.421875 24.953125 22.378906 C 25.285156 22.074219 25.519531 21.714844 25.761719 21.339844 C 25.875 21.164062 25.875 21.164062 25.945312 21.09375 Z M 25.945312 21.09375 "/>
<path style=" stroke:none;fill-rule:nonzero;fill:rgb(90.196078%,72.54902%,40.392157%);fill-opacity:1;" d="M 32.625 18 C 35.441406 17.90625 38.421875 18.734375 40.570312 20.601562 C 40.570312 20.625 40.570312 20.648438 40.570312 20.671875 C 40.488281 20.679688 40.410156 20.6875 40.324219 20.699219 C 40.273438 20.703125 40.222656 20.710938 40.167969 20.714844 C 40.050781 20.726562 39.933594 20.738281 39.820312 20.75 C 39.476562 20.789062 39.152344 20.84375 38.816406 20.921875 C 38.460938 20.980469 38.296875 20.933594 37.996094 20.734375 C 37.929688 20.6875 37.867188 20.640625 37.804688 20.59375 C 37.222656 20.179688 36.554688 20.132812 35.867188 20.050781 C 34.6875 19.898438 33.730469 19.4375 32.90625 18.5625 C 32.625 18.175781 32.625 18.175781 32.625 18 Z M 32.625 18 "/>
<path style=" stroke:none;fill-rule:nonzero;fill:rgb(89.803922%,72.54902%,40.392157%);fill-opacity:1;" d="M 15.328125 30.023438 C 15.445312 30.199219 15.511719 30.335938 15.585938 30.527344 C 15.808594 31.03125 16.167969 31.367188 16.582031 31.71875 C 16.929688 32.023438 17 32.230469 17.042969 32.691406 C 17.007812 33.625 16.585938 34.460938 16.21875 35.300781 C 15.972656 35.859375 15.757812 36.417969 15.566406 36.996094 C 15.542969 37.066406 15.519531 37.132812 15.496094 37.203125 C 15.382812 37.554688 15.289062 37.902344 15.222656 38.265625 C 15.1875 38.390625 15.1875 38.390625 15.046875 38.53125 C 14.933594 38.082031 14.890625 37.648438 14.867188 37.1875 C 14.863281 37.128906 14.859375 37.066406 14.859375 37.003906 C 14.828125 36.320312 14.820312 35.636719 14.824219 34.953125 C 14.824219 34.859375 14.824219 34.859375 14.824219 34.757812 C 14.824219 33.808594 14.84375 32.867188 14.976562 31.921875 C 14.984375 31.863281 14.992188 31.800781 15 31.738281 C 15.082031 31.160156 15.179688 30.589844 15.328125 30.023438 Z M 15.328125 30.023438 "/>
<path style=" stroke:none;fill-rule:nonzero;fill:rgb(94.117647%,72.941176%,16.862745%);fill-opacity:1;" d="M 25.3125 39.726562 C 25.84375 39.761719 26.292969 39.972656 26.707031 40.3125 C 27.039062 40.71875 27.269531 41.023438 27.242188 41.570312 C 27.136719 42.261719 26.863281 42.859375 26.507812 43.453125 C 25.394531 43.421875 24.210938 42.949219 23.34375 42.257812 C 23.429688 41.992188 23.550781 41.9375 23.765625 41.765625 C 23.988281 41.519531 24.191406 41.253906 24.398438 40.992188 C 24.429688 40.953125 24.460938 40.914062 24.492188 40.871094 C 24.585938 40.75 24.683594 40.628906 24.777344 40.507812 C 24.804688 40.472656 24.835938 40.433594 24.867188 40.394531 C 25.03125 40.179688 25.179688 39.960938 25.3125 39.726562 Z M 25.3125 39.726562 "/>
<path style=" stroke:none;fill-rule:nonzero;fill:rgb(99.607843%,99.215686%,98.823529%);fill-opacity:1;" d="M 32.90625 35.648438 C 33.136719 35.792969 33.230469 35.886719 33.296875 36.148438 C 33.3125 36.328125 33.304688 36.460938 33.257812 36.632812 C 32.949219 37.003906 32.515625 37.203125 32.097656 37.429688 C 31.832031 37.570312 31.582031 37.722656 31.339844 37.898438 C 31.289062 37.9375 31.242188 37.972656 31.191406 38.007812 C 31.097656 38.078125 31.003906 38.148438 30.914062 38.21875 C 30.613281 38.4375 30.394531 38.496094 30.023438 38.484375 C 29.882812 38.460938 29.882812 38.460938 29.667969 38.324219 C 29.507812 38.074219 29.492188 37.925781 29.492188 37.636719 C 29.597656 37.210938 29.980469 36.984375 30.320312 36.757812 C 30.394531 36.707031 30.394531 36.707031 30.46875 36.65625 C 32.128906 35.546875 32.128906 35.546875 32.90625 35.648438 Z M 32.90625 35.648438 "/>
<path style=" stroke:none;fill-rule:nonzero;fill:rgb(11.372549%,40%,13.72549%);fill-opacity:1;" d="M 32.625 45.773438 C 32.839844 45.910156 32.839844 45.910156 32.976562 46.125 C 33.039062 46.472656 33.035156 46.738281 32.84375 47.039062 C 32.796875 47.085938 32.746094 47.132812 32.695312 47.179688 C 32.648438 47.226562 32.601562 47.273438 32.554688 47.320312 C 32.601562 47.375 32.644531 47.429688 32.691406 47.488281 C 32.917969 47.773438 32.9375 47.9375 32.90625 48.304688 C 32.792969 48.519531 32.691406 48.675781 32.496094 48.824219 C 32.1875 48.914062 31.945312 48.910156 31.648438 48.769531 C 31.21875 48.445312 30.652344 47.902344 30.554688 47.355469 C 30.554688 47.296875 30.554688 47.238281 30.554688 47.179688 C 30.554688 47.121094 30.550781 47.0625 30.550781 47.003906 C 30.636719 46.570312 31.027344 46.34375 31.367188 46.109375 C 31.414062 46.074219 31.457031 46.042969 31.503906 46.011719 C 31.917969 45.722656 32.128906 45.652344 32.625 45.773438 Z M 32.625 45.773438 "/>
<path style=" stroke:none;fill-rule:nonzero;fill:rgb(99.215686%,98.039216%,98.431373%);fill-opacity:1;" d="M 36.511719 40.429688 C 36.609375 40.460938 36.710938 40.492188 36.8125 40.527344 C 37.332031 40.683594 37.828125 40.765625 38.367188 40.8125 C 38.613281 40.851562 38.753906 40.914062 38.953125 41.0625 C 39.125 41.320312 39.144531 41.535156 39.09375 41.835938 C 38.96875 42.035156 38.882812 42.152344 38.671875 42.257812 C 37.664062 42.347656 36.128906 42.195312 35.320312 41.527344 C 35.191406 41.367188 35.15625 41.203125 35.140625 41.003906 C 35.167969 40.765625 35.277344 40.628906 35.421875 40.449219 C 35.753906 40.261719 36.152344 40.332031 36.511719 40.429688 Z M 36.511719 40.429688 "/>
<path style=" stroke:none;fill-rule:nonzero;fill:rgb(23.921569%,25.882353%,11.764706%);fill-opacity:1;" d="M 18.421875 39.515625 C 18.753906 39.703125 18.957031 39.914062 19.179688 40.21875 C 19.257812 40.328125 19.257812 40.328125 19.339844 40.4375 C 19.570312 40.78125 19.667969 40.988281 19.617188 41.414062 C 19.34375 41.960938 18.742188 42.402344 18.164062 42.605469 C 17.878906 42.652344 17.742188 42.621094 17.476562 42.492188 C 17.238281 42.273438 17.171875 42.160156 17.128906 41.84375 C 17.171875 41.5 17.335938 41.289062 17.59375 41.070312 C 17.636719 41.046875 17.675781 41.019531 17.71875 40.992188 C 17.648438 40.886719 17.648438 40.886719 17.578125 40.777344 C 17.425781 40.507812 17.386719 40.316406 17.4375 40.007812 C 17.695312 39.582031 17.933594 39.476562 18.421875 39.515625 Z M 18.421875 39.515625 "/>
<path style=" stroke:none;fill-rule:nonzero;fill:rgb(99.215686%,90.980392%,69.803922%);fill-opacity:1;" d="M 9.351562 37.757812 C 9.582031 37.945312 9.796875 38.121094 9.988281 38.351562 C 10.269531 38.683594 10.570312 39 10.867188 39.316406 C 10.90625 39.359375 10.945312 39.398438 10.984375 39.441406 C 11.019531 39.476562 11.050781 39.511719 11.085938 39.550781 C 11.179688 39.65625 11.179688 39.65625 11.320312 39.867188 C 11.296875 40.191406 11.195312 40.429688 11.042969 40.714844 C 11.003906 40.792969 10.960938 40.871094 10.917969 40.949219 C 10.875 41.03125 10.832031 41.113281 10.789062 41.195312 C 10.746094 41.277344 10.703125 41.359375 10.65625 41.441406 C 10.550781 41.644531 10.445312 41.847656 10.335938 42.046875 C 10.289062 42.046875 10.242188 42.046875 10.195312 42.046875 C 10.105469 41.929688 10.105469 41.929688 10.007812 41.769531 C 9.953125 41.683594 9.953125 41.683594 9.898438 41.59375 C 9.859375 41.53125 9.820312 41.46875 9.78125 41.40625 C 9.707031 41.285156 9.632812 41.164062 9.558594 41.042969 C 9.523438 40.988281 9.488281 40.929688 9.453125 40.867188 C 9.347656 40.695312 9.347656 40.695312 9.183594 40.492188 C 9.035156 40.226562 9.046875 40.003906 9.074219 39.710938 C 9.078125 39.65625 9.082031 39.601562 9.085938 39.542969 C 9.136719 38.941406 9.242188 38.351562 9.351562 37.757812 Z M 9.351562 37.757812 "/>
<path style=" stroke:none;fill-rule:nonzero;fill:rgb(24.313725%,26.27451%,12.54902%);fill-opacity:1;" d="M 46.476562 41.273438 C 46.6875 41.398438 46.859375 41.542969 46.96875 41.765625 C 46.972656 41.957031 46.976562 42.144531 46.972656 42.335938 C 46.972656 42.390625 46.972656 42.441406 46.972656 42.496094 C 46.972656 42.628906 46.96875 42.761719 46.96875 42.890625 C 47.050781 42.902344 47.050781 42.902344 47.132812 42.914062 C 47.320312 42.960938 47.320312 42.960938 47.484375 43.148438 C 47.613281 43.40625 47.648438 43.523438 47.601562 43.804688 C 47.464844 44.097656 47.335938 44.238281 47.039062 44.355469 C 46.683594 44.46875 46.363281 44.546875 45.984375 44.507812 C 45.738281 44.367188 45.582031 44.21875 45.492188 43.945312 C 45.472656 43.636719 45.46875 43.328125 45.46875 43.019531 C 45.464844 42.921875 45.464844 42.816406 45.460938 42.71875 C 45.457031 42.570312 45.457031 42.421875 45.457031 42.277344 C 45.453125 42.1875 45.453125 42.101562 45.453125 42.011719 C 45.503906 41.6875 45.613281 41.574219 45.84375 41.34375 C 46.066406 41.234375 46.230469 41.25 46.476562 41.273438 Z M 46.476562 41.273438 "/>
<path style=" stroke:none;fill-rule:nonzero;fill:rgb(94.117647%,73.333333%,16.862745%);fill-opacity:1;" d="M 45.492188 33.820312 C 45.722656 34.035156 45.914062 34.261719 46.109375 34.511719 C 46.796875 35.375 47.691406 35.914062 48.726562 36.28125 C 48.265625 36.800781 47.59375 37.210938 46.898438 37.289062 C 46.46875 37.308594 46.46875 37.308594 46.265625 37.265625 C 45.988281 37.003906 45.863281 36.664062 45.726562 36.316406 C 45.703125 36.265625 45.683594 36.210938 45.660156 36.15625 C 45.453125 35.640625 45.410156 35.203125 45.414062 34.652344 C 45.414062 34.585938 45.414062 34.523438 45.410156 34.457031 C 45.414062 34.363281 45.414062 34.363281 45.414062 34.269531 C 45.414062 34.214844 45.414062 34.15625 45.414062 34.101562 C 45.421875 33.960938 45.421875 33.960938 45.492188 33.820312 Z M 45.492188 33.820312 "/>
<path style=" stroke:none;fill-rule:nonzero;fill:rgb(1.960784%,1.568627%,1.176471%);fill-opacity:1;" d="M 36.140625 21.375 C 36.394531 21.492188 36.625 21.617188 36.789062 21.847656 C 36.949219 22.320312 36.792969 22.683594 36.585938 23.105469 C 36.558594 23.15625 36.535156 23.210938 36.511719 23.261719 C 36.335938 23.632812 36.136719 23.914062 35.785156 24.140625 C 35.523438 24.230469 35.277344 24.195312 35.015625 24.117188 C 34.765625 23.945312 34.617188 23.773438 34.523438 23.484375 C 34.46875 23.015625 34.632812 22.710938 34.847656 22.3125 C 34.894531 22.222656 34.894531 22.222656 34.941406 22.132812 C 35.214844 21.617188 35.503906 21.277344 36.140625 21.375 Z M 36.140625 21.375 "/>
<path style=" stroke:none;fill-rule:nonzero;fill:rgb(99.215686%,99.215686%,98.431373%);fill-opacity:1;" d="M 39.9375 31.007812 C 40.21875 31.171875 40.34375 31.328125 40.429688 31.640625 C 40.511719 32.085938 40.515625 32.527344 40.523438 32.980469 C 40.523438 33.054688 40.527344 33.128906 40.527344 33.207031 C 40.53125 33.644531 40.519531 33.914062 40.21875 34.242188 C 39.953125 34.417969 39.828125 34.421875 39.515625 34.382812 C 39.308594 34.257812 39.132812 34.113281 39.023438 33.890625 C 38.992188 33.535156 38.976562 33.175781 38.964844 32.816406 C 38.960938 32.699219 38.953125 32.578125 38.949219 32.460938 C 38.9375 32.289062 38.929688 32.117188 38.925781 31.941406 C 38.921875 31.890625 38.917969 31.835938 38.914062 31.78125 C 38.910156 31.574219 38.910156 31.410156 39.042969 31.246094 C 39.363281 30.972656 39.535156 30.949219 39.9375 31.007812 Z M 39.9375 31.007812 "/>
<path style=" stroke:none;fill-rule:nonzero;fill:rgb(63.529412%,22.352941%,21.568627%);fill-opacity:1;" d="M 33.328125 28.96875 C 33.625 29.003906 33.75 29.078125 33.9375 29.308594 C 33.980469 29.355469 34.019531 29.402344 34.0625 29.453125 C 34.386719 29.894531 34.359375 30.332031 34.3125 30.867188 C 34.230469 31.207031 34.117188 31.535156 33.960938 31.851562 C 33.507812 31.769531 33.121094 31.636719 32.707031 31.433594 C 32.65625 31.410156 32.605469 31.386719 32.550781 31.359375 C 32.046875 31.117188 32.046875 31.117188 31.851562 30.9375 C 31.851562 30.890625 31.851562 30.84375 31.851562 30.796875 C 31.929688 30.726562 32.011719 30.660156 32.09375 30.59375 C 32.613281 30.152344 33.011719 29.570312 33.328125 28.96875 Z M 33.328125 28.96875 "/>
<path style=" stroke:none;fill-rule:nonzero;fill:rgb(99.215686%,98.039216%,98.431373%);fill-opacity:1;" d="M 26.367188 21.867188 C 26.613281 22.074219 26.707031 22.195312 26.746094 22.515625 C 26.710938 22.847656 26.597656 23.058594 26.429688 23.34375 C 26.386719 23.417969 26.386719 23.417969 26.34375 23.492188 C 25.863281 24.296875 25.863281 24.296875 25.523438 24.46875 C 25.230469 24.496094 25.078125 24.5 24.828125 24.335938 C 24.648438 24.15625 24.617188 24.089844 24.578125 23.839844 C 24.585938 23.445312 24.816406 23.128906 25.015625 22.796875 C 25.070312 22.699219 25.070312 22.699219 25.128906 22.597656 C 25.441406 22.0625 25.703125 21.722656 26.367188 21.867188 Z M 26.367188 21.867188 "/>
<path style=" stroke:none;fill-rule:nonzero;fill:rgb(99.607843%,99.215686%,98.431373%);fill-opacity:1;" d="M 18.703125 29.320312 C 18.917969 29.457031 18.917969 29.457031 19.054688 29.671875 C 19.082031 29.902344 19.078125 30.074219 19.054688 30.304688 C 19.050781 30.351562 19.046875 30.398438 19.042969 30.445312 C 19.03125 30.601562 19.015625 30.761719 19 30.921875 C 18.996094 30.972656 18.992188 31.023438 18.988281 31.074219 C 18.953125 31.414062 18.875 31.609375 18.632812 31.851562 C 18.40625 31.964844 18.171875 31.957031 17.929688 31.921875 C 17.730469 31.796875 17.613281 31.710938 17.507812 31.5 C 17.460938 31.039062 17.515625 30.585938 17.589844 30.132812 C 17.597656 30.085938 17.605469 30.035156 17.613281 29.988281 C 17.65625 29.742188 17.707031 29.613281 17.882812 29.429688 C 18.164062 29.265625 18.386719 29.257812 18.703125 29.320312 Z M 18.703125 29.320312 "/>
<path style=" stroke:none;fill-rule:nonzero;fill:rgb(99.215686%,97.647059%,98.039216%);fill-opacity:1;" d="M 26.140625 31.515625 C 26.375 31.699219 26.421875 31.832031 26.46875 32.125 C 26.421875 32.460938 26.21875 32.660156 25.960938 32.867188 C 25.820312 32.964844 25.675781 33.054688 25.53125 33.144531 C 25.484375 33.175781 25.4375 33.207031 25.386719 33.238281 C 25.070312 33.4375 24.851562 33.515625 24.46875 33.46875 C 24.230469 33.335938 24.085938 33.238281 24 32.96875 C 23.976562 32.71875 23.992188 32.554688 24.148438 32.351562 C 24.296875 32.21875 24.449219 32.105469 24.609375 31.992188 C 24.671875 31.945312 24.734375 31.902344 24.796875 31.855469 C 25.226562 31.542969 25.601562 31.273438 26.140625 31.515625 Z M 26.140625 31.515625 "/>
<path style=" stroke:none;fill-rule:nonzero;fill:rgb(12.156863%,41.176471%,14.117647%);fill-opacity:1;" d="M 53.4375 36 C 53.648438 36.121094 53.820312 36.269531 53.929688 36.492188 C 53.945312 36.6875 53.953125 36.878906 53.957031 37.070312 C 53.957031 37.125 53.960938 37.179688 53.964844 37.234375 C 53.96875 37.523438 53.949219 37.703125 53.761719 37.933594 C 53.492188 38.191406 53.324219 38.207031 52.964844 38.203125 C 52.710938 38.164062 52.601562 38.023438 52.453125 37.828125 C 52.34375 37.609375 52.363281 37.382812 52.359375 37.140625 C 52.359375 37.09375 52.355469 37.042969 52.355469 36.992188 C 52.351562 36.628906 52.425781 36.429688 52.664062 36.140625 C 52.921875 35.96875 53.136719 35.941406 53.4375 36 Z M 53.4375 36 "/>
<path style=" stroke:none;fill-rule:nonzero;fill:rgb(99.607843%,99.215686%,98.039216%);fill-opacity:1;" d="M 55.335938 33.328125 C 55.417969 33.339844 55.417969 33.339844 55.5 33.347656 C 55.773438 33.394531 55.953125 33.457031 56.183594 33.613281 C 56.347656 33.859375 56.371094 34.011719 56.355469 34.300781 C 56.300781 34.542969 56.160156 34.65625 55.96875 34.804688 C 55.664062 34.957031 55.21875 34.851562 54.902344 34.761719 C 54.644531 34.664062 54.464844 34.566406 54.351562 34.3125 C 54.3125 34.089844 54.304688 33.898438 54.351562 33.679688 C 54.640625 33.328125 54.886719 33.269531 55.335938 33.328125 Z M 55.335938 33.328125 "/>
<path style=" stroke:none;fill-rule:nonzero;fill:rgb(9.019608%,9.411765%,8.627451%);fill-opacity:1;" d="M 59.695312 47.671875 C 59.71875 47.742188 59.742188 47.8125 59.765625 47.882812 C 59.300781 48.347656 58.835938 48.8125 58.359375 49.289062 C 58.289062 49.078125 58.289062 49.078125 58.320312 48.914062 C 58.460938 48.675781 58.632812 48.5625 58.859375 48.414062 C 59.003906 48.292969 59.0625 48.195312 59.132812 48.023438 C 59.226562 48.046875 59.320312 48.070312 59.414062 48.09375 C 59.390625 48 59.367188 47.90625 59.34375 47.8125 C 59.414062 47.789062 59.484375 47.765625 59.554688 47.742188 C 59.601562 47.765625 59.648438 47.789062 59.695312 47.8125 C 59.695312 47.765625 59.695312 47.71875 59.695312 47.671875 Z M 59.695312 47.671875 "/>
<path style=" stroke:none;fill-rule:nonzero;fill:rgb(5.490196%,4.705882%,3.137255%);fill-opacity:1;" d="M 33.160156 27.066406 C 33.246094 27.066406 33.246094 27.066406 33.335938 27.066406 C 33.402344 27.070312 33.402344 27.070312 33.46875 27.070312 C 33.328125 27.140625 33.1875 27.210938 33.046875 27.28125 C 33 27.257812 32.953125 27.234375 32.90625 27.210938 C 32.890625 27.253906 32.871094 27.300781 32.851562 27.347656 C 32.765625 27.492188 32.765625 27.492188 32.621094 27.53125 C 32.554688 27.546875 32.554688 27.546875 32.484375 27.5625 C 32.460938 27.632812 32.4375 27.703125 32.414062 27.773438 C 32.34375 27.773438 32.273438 27.773438 32.203125 27.773438 C 32.296875 27.460938 32.429688 27.324219 32.695312 27.140625 C 32.863281 27.054688 32.972656 27.0625 33.160156 27.066406 Z M 33.160156 27.066406 "/>
<path style=" stroke:none;fill-rule:nonzero;fill:rgb(7.058824%,7.058824%,7.058824%);fill-opacity:1;" d="M 14.484375 18.28125 C 14.507812 18.351562 14.53125 18.421875 14.554688 18.492188 C 14.386719 18.65625 14.21875 18.816406 14.050781 18.980469 C 14.003906 19.027344 13.953125 19.074219 13.90625 19.121094 C 13.835938 19.1875 13.835938 19.1875 13.765625 19.253906 C 13.722656 19.296875 13.679688 19.335938 13.636719 19.378906 C 13.476562 19.492188 13.34375 19.519531 13.148438 19.546875 C 13.230469 19.464844 13.308594 19.386719 13.390625 19.304688 C 13.464844 19.230469 13.539062 19.152344 13.617188 19.078125 C 13.894531 18.796875 14.179688 18.535156 14.484375 18.28125 Z M 14.484375 18.28125 "/>
<path style=" stroke:none;fill-rule:nonzero;fill:rgb(25.098039%,48.235294%,21.960784%);fill-opacity:1;" d="M 52.382812 36.5625 C 52.429688 36.5625 52.476562 36.5625 52.523438 36.5625 C 52.527344 36.621094 52.527344 36.679688 52.53125 36.738281 C 52.535156 36.816406 52.539062 36.890625 52.546875 36.972656 C 52.550781 37.046875 52.554688 37.121094 52.558594 37.199219 C 52.597656 37.417969 52.632812 37.484375 52.804688 37.617188 C 52.734375 37.6875 52.664062 37.757812 52.59375 37.828125 C 52.523438 37.78125 52.453125 37.734375 52.382812 37.6875 C 52.367188 37.492188 52.363281 37.3125 52.371094 37.117188 C 52.371094 37.0625 52.371094 37.011719 52.371094 36.957031 C 52.375 36.824219 52.378906 36.691406 52.382812 36.5625 Z M 52.382812 36.5625 "/>
<path style=" stroke:none;fill-rule:nonzero;fill:rgb(75.294118%,62.745098%,39.215686%);fill-opacity:1;" d="M 29.671875 56.742188 C 29.859375 56.738281 30.050781 56.738281 30.238281 56.738281 C 30.292969 56.738281 30.34375 56.738281 30.398438 56.734375 C 30.726562 56.734375 31.035156 56.757812 31.359375 56.8125 C 31.359375 56.859375 31.359375 56.90625 31.359375 56.953125 C 30.171875 56.886719 30.171875 56.886719 29.671875 56.8125 C 29.671875 56.789062 29.671875 56.765625 29.671875 56.742188 Z M 29.671875 56.742188 "/>
<path style=" stroke:none;fill-rule:nonzero;fill:rgb(21.176471%,1.568627%,3.137255%);fill-opacity:1;" d="M 26.15625 25.382812 C 26.085938 25.40625 26.015625 25.429688 25.945312 25.453125 C 25.945312 25.5 25.945312 25.546875 25.945312 25.59375 C 25.496094 25.652344 25.058594 25.671875 24.605469 25.667969 C 24.542969 25.667969 24.484375 25.667969 24.421875 25.667969 C 24.273438 25.667969 24.125 25.664062 23.976562 25.664062 C 23.976562 25.640625 23.976562 25.617188 23.976562 25.59375 C 24.058594 25.589844 24.140625 25.589844 24.226562 25.585938 C 24.800781 25.5625 25.328125 25.535156 25.878906 25.347656 C 26.015625 25.3125 26.015625 25.3125 26.15625 25.382812 Z M 26.15625 25.382812 "/>
<path style=" stroke:none;fill-rule:nonzero;fill:rgb(74.901961%,70.980392%,54.901961%);fill-opacity:1;" d="M 43.734375 34.171875 C 43.757812 34.171875 43.78125 34.171875 43.804688 34.171875 C 43.808594 34.210938 43.808594 34.25 43.808594 34.292969 C 43.816406 34.476562 43.828125 34.65625 43.835938 34.839844 C 43.839844 34.902344 43.839844 34.964844 43.84375 35.027344 C 43.863281 35.402344 43.894531 35.769531 43.945312 36.140625 C 43.898438 36.140625 43.851562 36.140625 43.804688 36.140625 C 43.648438 35.707031 43.660156 35.335938 43.691406 34.878906 C 43.695312 34.8125 43.699219 34.742188 43.703125 34.671875 C 43.710938 34.507812 43.722656 34.339844 43.734375 34.171875 Z M 43.734375 34.171875 "/>
<path style=" stroke:none;fill-rule:nonzero;fill:rgb(90.588235%,84.313725%,64.705882%);fill-opacity:1;" d="M 38.460938 25.3125 C 38.507812 25.335938 38.554688 25.359375 38.601562 25.382812 C 38.460938 25.59375 38.460938 25.59375 38.320312 25.621094 C 38.238281 25.625 38.238281 25.625 38.15625 25.628906 C 37.878906 25.648438 37.703125 25.707031 37.476562 25.875 C 37.453125 25.804688 37.429688 25.734375 37.40625 25.664062 C 37.476562 25.617188 37.546875 25.570312 37.617188 25.523438 C 37.640625 25.476562 37.664062 25.429688 37.6875 25.382812 C 37.828125 25.40625 37.964844 25.429688 38.105469 25.453125 C 38.273438 25.46875 38.273438 25.46875 38.460938 25.3125 Z M 38.460938 25.3125 "/>
<path style=" stroke:none;fill-rule:nonzero;fill:rgb(9.019608%,8.627451%,5.882353%);fill-opacity:1;" d="M 42.117188 42.46875 C 42.164062 42.492188 42.210938 42.515625 42.257812 42.539062 C 42.179688 42.664062 42.101562 42.792969 42.023438 42.917969 C 41.960938 43.023438 41.960938 43.023438 41.894531 43.128906 C 41.765625 43.3125 41.765625 43.3125 41.554688 43.453125 C 41.53125 43.382812 41.507812 43.3125 41.484375 43.242188 C 41.707031 42.921875 41.707031 42.921875 41.90625 42.820312 C 41.929688 42.75 41.953125 42.679688 41.976562 42.609375 C 42.023438 42.609375 42.070312 42.609375 42.117188 42.609375 C 42.117188 42.5625 42.117188 42.515625 42.117188 42.46875 Z M 42.117188 42.46875 "/>
<path style=" stroke:none;fill-rule:nonzero;fill:rgb(84.705882%,66.666667%,21.960784%);fill-opacity:1;" d="M 25.3125 43.171875 C 25.667969 43.210938 26.015625 43.25 26.367188 43.3125 C 26.367188 43.265625 26.367188 43.21875 26.367188 43.171875 C 26.460938 43.195312 26.554688 43.21875 26.648438 43.242188 C 26.578125 43.347656 26.578125 43.347656 26.507812 43.453125 C 26.09375 43.421875 25.710938 43.371094 25.3125 43.242188 C 25.3125 43.21875 25.3125 43.195312 25.3125 43.171875 Z M 25.3125 43.171875 "/>
<path style=" stroke:none;fill-rule:nonzero;fill:rgb(77.647059%,64.313725%,38.431373%);fill-opacity:1;" d="M 8.789062 31.710938 C 8.8125 31.710938 8.835938 31.710938 8.859375 31.710938 C 8.835938 32.011719 8.8125 32.3125 8.789062 32.625 C 8.742188 32.625 8.695312 32.625 8.648438 32.625 C 8.648438 32.765625 8.648438 32.902344 8.648438 33.046875 C 8.601562 33.046875 8.554688 33.046875 8.507812 33.046875 C 8.550781 32.585938 8.660156 32.15625 8.789062 31.710938 Z M 8.789062 31.710938 "/>
<path style=" stroke:none;fill-rule:nonzero;fill:rgb(89.803922%,84.313725%,64.313725%);fill-opacity:1;" d="M 28.054688 29.882812 C 28.148438 29.929688 28.242188 29.976562 28.335938 30.023438 C 28.386719 30.039062 28.4375 30.054688 28.488281 30.070312 C 28.617188 30.164062 28.617188 30.164062 28.671875 30.417969 C 28.679688 30.535156 28.679688 30.535156 28.6875 30.65625 C 28.570312 30.539062 28.453125 30.421875 28.335938 30.304688 C 28.28125 30.253906 28.226562 30.203125 28.171875 30.152344 C 28.054688 30.023438 28.054688 30.023438 28.054688 29.882812 Z M 28.054688 29.882812 "/>
<path style=" stroke:none;fill-rule:nonzero;fill:rgb(91.372549%,91.764706%,91.372549%);fill-opacity:1;" d="M 61.101562 46.335938 C 61.125 46.429688 61.148438 46.523438 61.171875 46.617188 C 60.984375 46.78125 60.800781 46.941406 60.609375 47.109375 C 60.5625 47.085938 60.515625 47.0625 60.46875 47.039062 C 60.675781 46.808594 60.886719 46.574219 61.101562 46.335938 Z M 61.101562 46.335938 "/>
<path style=" stroke:none;fill-rule:nonzero;fill:rgb(22.745098%,44.313725%,18.823529%);fill-opacity:1;" d="M 32.328125 45.730469 C 32.382812 45.738281 32.4375 45.746094 32.496094 45.753906 C 32.558594 45.761719 32.558594 45.761719 32.625 45.773438 C 32.601562 45.820312 32.578125 45.867188 32.554688 45.914062 C 32.378906 45.941406 32.378906 45.941406 32.164062 45.957031 C 32.09375 45.964844 32.019531 45.96875 31.949219 45.972656 C 31.894531 45.976562 31.839844 45.980469 31.78125 45.984375 C 31.757812 45.9375 31.734375 45.890625 31.710938 45.84375 C 31.933594 45.710938 32.070312 45.691406 32.328125 45.730469 Z M 32.328125 45.730469 "/>
<path style=" stroke:none;fill-rule:nonzero;fill:rgb(12.156863%,8.627451%,3.529412%);fill-opacity:1;" d="M 58.992188 45.703125 C 59.0625 45.726562 59.132812 45.75 59.203125 45.773438 C 58.957031 46.027344 58.703125 46.253906 58.429688 46.476562 C 58.382812 46.453125 58.335938 46.429688 58.289062 46.40625 C 58.519531 46.175781 58.753906 45.941406 58.992188 45.703125 Z M 58.992188 45.703125 "/>
<path style=" stroke:none;fill-rule:nonzero;fill:rgb(88.235294%,81.960784%,63.137255%);fill-opacity:1;" d="M 29.601562 32.273438 C 29.695312 32.296875 29.789062 32.320312 29.882812 32.34375 C 29.859375 32.414062 29.835938 32.484375 29.8125 32.554688 C 29.765625 32.554688 29.71875 32.554688 29.671875 32.554688 C 29.71875 32.878906 29.765625 33.203125 29.8125 33.539062 C 29.601562 33.328125 29.601562 33.328125 29.582031 33.078125 C 29.582031 32.980469 29.585938 32.882812 29.589844 32.789062 C 29.589844 32.738281 29.589844 32.6875 29.589844 32.636719 C 29.59375 32.515625 29.597656 32.394531 29.601562 32.273438 Z M 29.601562 32.273438 "/>
<path style=" stroke:none;fill-rule:nonzero;fill:rgb(93.72549%,84.705882%,61.960784%);fill-opacity:1;" d="M 39.867188 20.671875 C 40.550781 20.605469 40.550781 20.605469 40.769531 20.765625 C 40.863281 20.882812 40.863281 20.882812 40.992188 21.09375 C 40.785156 21.058594 40.785156 21.058594 40.570312 21.023438 C 40.570312 20.953125 40.570312 20.882812 40.570312 20.8125 C 40.339844 20.789062 40.105469 20.765625 39.867188 20.742188 C 39.867188 20.71875 39.867188 20.695312 39.867188 20.671875 Z M 39.867188 20.671875 "/>
<path style=" stroke:none;fill-rule:nonzero;fill:rgb(12.156863%,9.803922%,6.27451%);fill-opacity:1;" d="M 20.53125 32.554688 C 20.554688 32.601562 20.578125 32.648438 20.601562 32.695312 C 20.535156 32.839844 20.464844 32.980469 20.390625 33.117188 C 20.34375 33.117188 20.296875 33.117188 20.25 33.117188 C 20.25 33.324219 20.25 33.535156 20.25 33.75 C 20.226562 33.75 20.203125 33.75 20.179688 33.75 C 20.144531 33.277344 20.152344 32.992188 20.460938 32.625 C 20.484375 32.601562 20.507812 32.578125 20.53125 32.554688 Z M 20.53125 32.554688 "/>
<path style=" stroke:none;fill-rule:nonzero;fill:rgb(14.509804%,14.117647%,14.117647%);fill-opacity:1;" d="M 13.078125 19.546875 C 13.101562 19.59375 13.125 19.640625 13.148438 19.6875 C 12.859375 20.160156 12.859375 20.160156 12.597656 20.246094 C 12.523438 20.246094 12.523438 20.246094 12.445312 20.25 C 12.511719 20.171875 12.578125 20.09375 12.644531 20.015625 C 12.679688 19.972656 12.714844 19.929688 12.753906 19.886719 C 12.859375 19.769531 12.964844 19.65625 13.078125 19.546875 Z M 13.078125 19.546875 "/>
<path style=" stroke:none;fill-rule:nonzero;fill:rgb(13.333333%,11.372549%,8.235294%);fill-opacity:1;" d="M 33.160156 27.066406 C 33.246094 27.066406 33.246094 27.066406 33.335938 27.066406 C 33.402344 27.070312 33.402344 27.070312 33.46875 27.070312 C 33.195312 27.210938 32.917969 27.324219 32.625 27.421875 C 32.652344 27.285156 32.652344 27.285156 32.695312 27.140625 C 32.863281 27.054688 32.972656 27.0625 33.160156 27.066406 Z M 33.160156 27.066406 "/>
<path style=" stroke:none;fill-rule:nonzero;fill:rgb(85.882353%,80%,58.823529%);fill-opacity:1;" d="M 46.96875 41.90625 C 46.992188 41.90625 47.015625 41.90625 47.039062 41.90625 C 47.042969 41.949219 47.046875 41.992188 47.050781 42.035156 C 47.054688 42.09375 47.058594 42.152344 47.066406 42.210938 C 47.070312 42.265625 47.074219 42.320312 47.082031 42.378906 C 47.101562 42.558594 47.101562 42.558594 47.25 42.75 C 47.226562 42.820312 47.203125 42.890625 47.179688 42.960938 C 47.109375 42.9375 47.039062 42.914062 46.96875 42.890625 C 46.96875 42.566406 46.96875 42.242188 46.96875 41.90625 Z M 46.96875 41.90625 "/>
<path style=" stroke:none;fill-rule:nonzero;fill:rgb(12.54902%,12.941176%,7.843137%);fill-opacity:1;" d="M 59.695312 39.234375 C 59.742188 39.234375 59.789062 39.234375 59.835938 39.234375 C 59.738281 39.460938 59.628906 39.589844 59.441406 39.742188 C 59.375 39.800781 59.375 39.800781 59.304688 39.855469 C 59.273438 39.882812 59.238281 39.910156 59.203125 39.9375 C 59.226562 39.84375 59.25 39.75 59.273438 39.65625 C 59.320312 39.65625 59.367188 39.65625 59.414062 39.65625 C 59.460938 39.5625 59.507812 39.46875 59.554688 39.375 C 59.601562 39.375 59.648438 39.375 59.695312 39.375 C 59.695312 39.328125 59.695312 39.28125 59.695312 39.234375 Z M 59.695312 39.234375 "/>
<path style=" stroke:none;fill-rule:nonzero;fill:rgb(90.588235%,85.098039%,65.098039%);fill-opacity:1;" d="M 43.945312 36.210938 C 44.117188 36.46875 44.15625 36.683594 44.226562 36.984375 C 44.15625 36.984375 44.085938 36.984375 44.015625 36.984375 C 43.992188 36.867188 43.964844 36.753906 43.941406 36.636719 C 43.925781 36.574219 43.914062 36.507812 43.898438 36.441406 C 43.890625 36.390625 43.882812 36.335938 43.875 36.28125 C 43.898438 36.257812 43.921875 36.234375 43.945312 36.210938 Z M 43.945312 36.210938 "/>
<path style=" stroke:none;fill-rule:nonzero;fill:rgb(87.843137%,82.745098%,62.745098%);fill-opacity:1;" d="M 47.320312 33.1875 C 47.445312 33.195312 47.445312 33.195312 47.601562 33.257812 C 47.757812 33.472656 47.757812 33.472656 47.882812 33.679688 C 47.8125 33.679688 47.742188 33.679688 47.671875 33.679688 C 47.320312 33.296875 47.320312 33.296875 47.320312 33.1875 Z M 47.320312 33.1875 "/>
<path style=" stroke:none;fill-rule:nonzero;fill:rgb(88.235294%,82.745098%,65.098039%);fill-opacity:1;" d="M 17.085938 46.96875 C 17.167969 47.035156 17.246094 47.101562 17.328125 47.171875 C 17.371094 47.207031 17.417969 47.246094 17.464844 47.285156 C 17.578125 47.390625 17.578125 47.390625 17.648438 47.53125 C 17.484375 47.519531 17.484375 47.519531 17.296875 47.460938 C 17.085938 47.175781 17.085938 47.175781 17.085938 46.96875 Z M 17.085938 46.96875 "/>
<path style=" stroke:none;fill-rule:nonzero;fill:rgb(87.843137%,81.960784%,62.745098%);fill-opacity:1;" d="M 15.75 28.476562 C 15.773438 28.523438 15.796875 28.570312 15.820312 28.617188 C 15.867188 28.617188 15.914062 28.617188 15.960938 28.617188 C 15.9375 28.734375 15.914062 28.847656 15.890625 28.96875 C 15.796875 28.992188 15.703125 29.015625 15.609375 29.039062 C 15.65625 28.851562 15.703125 28.667969 15.75 28.476562 Z M 15.75 28.476562 "/>
<path style=" stroke:none;fill-rule:nonzero;fill:rgb(80%,65.882353%,37.647059%);fill-opacity:1;" d="M 10.898438 26.015625 C 10.945312 26.085938 10.992188 26.15625 11.039062 26.226562 C 10.972656 26.445312 10.886719 26.597656 10.757812 26.789062 C 10.710938 26.789062 10.664062 26.789062 10.617188 26.789062 C 10.652344 26.6875 10.683594 26.582031 10.71875 26.480469 C 10.738281 26.425781 10.753906 26.367188 10.773438 26.308594 C 10.828125 26.15625 10.828125 26.15625 10.898438 26.015625 Z M 10.898438 26.015625 "/>
<path style=" stroke:none;fill-rule:nonzero;fill:rgb(9.411765%,7.843137%,4.705882%);fill-opacity:1;" d="M 40.710938 18.210938 C 41.242188 18.503906 41.242188 18.503906 41.414062 18.703125 C 41.179688 18.703125 41.054688 18.671875 40.851562 18.5625 C 40.757812 18.378906 40.757812 18.378906 40.710938 18.210938 Z M 40.710938 18.210938 "/>
<path style=" stroke:none;fill-rule:nonzero;fill:rgb(87.45098%,87.843137%,87.058824%);fill-opacity:1;" d="M 60.117188 47.390625 C 60.117188 47.617188 60.074219 47.75 59.976562 47.953125 C 59.90625 47.988281 59.90625 47.988281 59.835938 48.023438 C 59.777344 47.90625 59.777344 47.90625 59.765625 47.742188 C 59.9375 47.546875 59.9375 47.546875 60.117188 47.390625 Z M 60.117188 47.390625 "/>
<path style=" stroke:none;fill-rule:nonzero;fill:rgb(89.411765%,84.313725%,66.666667%);fill-opacity:1;" d="M 22.992188 44.15625 C 23.246094 44.273438 23.503906 44.386719 23.765625 44.507812 C 23.71875 44.554688 23.671875 44.601562 23.625 44.648438 C 23.449219 44.578125 23.449219 44.578125 23.273438 44.507812 C 23.273438 44.460938 23.273438 44.414062 23.273438 44.367188 C 23.179688 44.34375 23.085938 44.320312 22.992188 44.296875 C 22.992188 44.25 22.992188 44.203125 22.992188 44.15625 Z M 22.992188 44.15625 "/>
<path style=" stroke:none;fill-rule:nonzero;fill:rgb(90.588235%,91.372549%,90.588235%);fill-opacity:1;" d="M 64.96875 41.695312 C 65.027344 41.808594 65.027344 41.808594 65.039062 41.976562 C 64.875 42.203125 64.875 42.203125 64.6875 42.398438 C 64.640625 42.398438 64.59375 42.398438 64.546875 42.398438 C 64.664062 42.148438 64.8125 41.921875 64.96875 41.695312 Z M 64.96875 41.695312 "/>
<path style=" stroke:none;fill-rule:nonzero;fill:rgb(90.196078%,84.313725%,65.098039%);fill-opacity:1;" d="M 54.28125 30.234375 C 54.488281 30.257812 54.699219 30.28125 54.914062 30.304688 C 54.773438 30.445312 54.773438 30.445312 54.519531 30.453125 C 54.441406 30.449219 54.363281 30.449219 54.28125 30.445312 C 54.28125 30.375 54.28125 30.304688 54.28125 30.234375 Z M 54.28125 30.234375 "/>
<path style=" stroke:none;fill-rule:nonzero;fill:rgb(98.039216%,87.45098%,88.235294%);fill-opacity:1;" d="M 24.75 24.1875 C 24.867188 24.1875 24.980469 24.1875 25.101562 24.1875 C 25.125 24.234375 25.148438 24.28125 25.171875 24.328125 C 25.351562 24.375 25.351562 24.375 25.523438 24.398438 C 25.523438 24.421875 25.523438 24.445312 25.523438 24.46875 C 25.074219 24.503906 25.074219 24.503906 24.859375 24.328125 C 24.824219 24.28125 24.789062 24.234375 24.75 24.1875 Z M 24.75 24.1875 "/>
<path style=" stroke:none;fill-rule:nonzero;fill:rgb(9.019608%,9.019608%,8.627451%);fill-opacity:1;" d="M 10.6875 49.851562 C 10.988281 49.984375 11.121094 50.15625 11.320312 50.414062 C 11.25 50.414062 11.179688 50.414062 11.109375 50.414062 C 10.996094 50.289062 10.996094 50.289062 10.886719 50.132812 C 10.847656 50.082031 10.8125 50.027344 10.773438 49.976562 C 10.746094 49.933594 10.714844 49.894531 10.6875 49.851562 Z M 10.6875 49.851562 "/>
<path style=" stroke:none;fill-rule:nonzero;fill:rgb(91.372549%,91.372549%,90.980392%);fill-opacity:1;" d="M 41.34375 25.3125 C 41.390625 25.40625 41.4375 25.5 41.484375 25.59375 C 41.390625 25.6875 41.296875 25.78125 41.203125 25.875 C 41.15625 25.851562 41.109375 25.828125 41.0625 25.804688 C 41.15625 25.640625 41.25 25.480469 41.34375 25.3125 Z M 41.34375 25.3125 "/>
<path style=" stroke:none;fill-rule:nonzero;fill:rgb(84.705882%,83.921569%,62.352941%);fill-opacity:1;" d="M 32.976562 46.265625 C 33 46.265625 33.023438 46.265625 33.046875 46.265625 C 33.070312 46.496094 33.09375 46.730469 33.117188 46.96875 C 33.046875 47.003906 33.046875 47.003906 32.976562 47.039062 C 32.929688 46.992188 32.882812 46.945312 32.835938 46.898438 C 32.859375 46.875 32.882812 46.851562 32.90625 46.828125 C 32.921875 46.734375 32.933594 46.636719 32.945312 46.542969 C 32.957031 46.453125 32.964844 46.359375 32.976562 46.265625 Z M 32.976562 46.265625 "/>
<path style=" stroke:none;fill-rule:nonzero;fill:rgb(86.27451%,80.784314%,62.745098%);fill-opacity:1;" d="M 27 29.109375 C 26.953125 29.15625 26.90625 29.203125 26.859375 29.25 C 26.667969 29.246094 26.488281 29.210938 26.296875 29.179688 C 26.566406 29 26.691406 29.050781 27 29.109375 Z M 27 29.109375 "/>
<path style=" stroke:none;fill-rule:nonzero;fill:rgb(10.196078%,9.019608%,6.666667%);fill-opacity:1;" d="M 32.0625 27.914062 C 32.132812 27.914062 32.203125 27.914062 32.273438 27.914062 C 32.226562 28.03125 32.179688 28.144531 32.132812 28.265625 C 32.085938 28.265625 32.039062 28.265625 31.992188 28.265625 C 31.992188 28.3125 31.992188 28.359375 31.992188 28.40625 C 31.945312 28.382812 31.898438 28.359375 31.851562 28.335938 C 31.921875 28.195312 31.992188 28.058594 32.0625 27.914062 Z M 32.0625 27.914062 "/>
<path style=" stroke:none;fill-rule:nonzero;fill:rgb(65.098039%,14.901961%,20.392157%);fill-opacity:1;" d="M 25.03125 22.289062 C 25.097656 22.5 25.105469 22.5625 25.03125 22.78125 C 25.03125 22.734375 25.03125 22.6875 25.03125 22.640625 C 24.914062 22.664062 24.800781 22.6875 24.679688 22.710938 C 24.796875 22.570312 24.910156 22.433594 25.03125 22.289062 Z M 25.03125 22.289062 "/>
<path style=" stroke:none;fill-rule:nonzero;fill:rgb(92.941176%,92.941176%,92.54902%);fill-opacity:1;" d="M 9.703125 48.796875 C 9.75 48.796875 9.796875 48.796875 9.84375 48.796875 C 9.941406 48.933594 10.035156 49.074219 10.125 49.21875 C 10.007812 49.195312 9.894531 49.171875 9.773438 49.148438 C 9.75 49.03125 9.726562 48.917969 9.703125 48.796875 Z M 9.703125 48.796875 "/>
<path style=" stroke:none;fill-rule:nonzero;fill:rgb(10.196078%,9.803922%,6.666667%);fill-opacity:1;" d="M 39.445312 27.914062 C 39.585938 27.914062 39.722656 27.914062 39.867188 27.914062 C 39.890625 27.984375 39.914062 28.054688 39.9375 28.125 C 39.75 28.101562 39.566406 28.078125 39.375 28.054688 C 39.398438 28.007812 39.421875 27.960938 39.445312 27.914062 Z M 39.445312 27.914062 "/>
</g>
</svg>
