<?xml version="1.0" encoding="UTF-8"?>
<!-- Generator: visioncortex VTracer 0.6.3 -->
<svg version="1.1" xmlns="http://www.w3.org/2000/svg" width="1024" height="1024">
<path d="M0 0 C337.92 0 675.84 0 1024 0 C1024 337.92 1024 675.84 1024 1024 C686.08 1024 348.16 1024 0 1024 C0 686.08 0 348.16 0 0 Z " fill="#FDFDFD" transform="translate(0,0)"/>
<path d="M0 0 C2.32 0.01 4.65 0.01 6.97 0.01 C96.62 0.11 96.62 0.11 124.92 28.32 C136.27 41.28 140.3 56.27 140.23 73.07 C140.23 74.38 140.23 75.7 140.22 77.05 C140.11 90.58 138.71 103.91 136.92 117.32 C136.81 118.22 136.7 119.12 136.58 120.05 C132.88 149.66 119.66 174.79 105.79 200.76 C105.32 201.65 105.32 201.65 104.83 202.56 C101.75 208.31 98.7 213.99 94.92 219.32 C95.92 219.39 95.92 219.39 96.95 219.46 C103.69 219.99 110.13 221.07 116.73 222.51 C154.59 230.34 193.11 234.91 231.57 238.45 C262.12 241.26 292.48 244.94 322.43 251.76 C324.87 252.31 327.32 252.83 329.77 253.34 C339.99 255.5 349.95 258.21 359.92 261.32 C360.83 261.6 361.73 261.87 362.66 262.16 C449.93 289.04 449.93 289.04 469.35 324.96 C478.49 343.43 477.93 364.82 471.7 384.09 C465.94 399.35 457.15 412.96 447.92 426.32 C447.23 427.33 447.23 427.33 446.52 428.37 C439.57 438.51 432.18 448.15 424.33 457.6 C422.46 459.88 420.62 462.19 418.79 464.51 C411.33 473.85 403.52 482.85 395.39 491.63 C393.42 493.77 391.5 495.93 389.61 498.13 C384.53 503.97 379.19 509.58 373.89 515.22 C371.87 517.37 369.86 519.52 367.84 521.68 C357.04 533.22 346.39 544.54 333.92 554.32 C332.96 555.1 332 555.87 331.01 556.68 C321.79 564.01 311.95 570.17 301.92 576.32 C300.88 576.96 299.84 577.61 298.76 578.27 C274.39 593.33 249.5 607.4 223.92 620.32 C222.88 620.84 221.85 621.36 220.78 621.9 C203.21 630.72 185.28 638.32 166.92 645.32 C165.71 645.78 164.51 646.24 163.27 646.72 C125 661.28 85.36 674.99 44.73 680.94 C43.95 681.06 43.16 681.18 42.35 681.31 C31.3 682.96 20.3 683.48 9.13 683.52 C7.84 683.53 6.54 683.53 5.21 683.54 C2.48 683.55 -0.26 683.55 -2.99 683.56 C-5.73 683.56 -8.47 683.58 -11.21 683.6 C-29.69 683.75 -47.76 682.84 -66.08 680.32 C-66.85 680.22 -67.62 680.11 -68.42 680.01 C-72.61 679.45 -76.78 678.82 -80.96 678.13 C-82.85 677.82 -82.85 677.82 -84.77 677.5 C-146.87 667.1 -207.64 648.3 -261.08 614.32 C-261.74 613.9 -262.4 613.48 -263.08 613.05 C-279.29 602.7 -294.8 591.21 -309.08 578.32 C-309.69 577.77 -310.3 577.23 -310.92 576.66 C-357.23 534.85 -386.6 480.58 -396.33 418.94 C-396.58 417.39 -396.58 417.39 -396.83 415.81 C-409.8 328.53 -379.66 225.97 -327.64 155.19 C-315.51 139.29 -302.06 124.57 -287.08 111.32 C-286.32 110.64 -286.32 110.64 -285.55 109.95 C-212.36 45.12 -118.02 1.25 0 0 Z " fill="#FDE9B3" transform="translate(485.08056640625,155.68234634399414)"/>
<path d="M0 0 C2.32 0.01 4.65 0.01 6.97 0.01 C96.62 0.11 96.62 0.11 124.92 28.32 C136.27 41.28 140.3 56.27 140.23 73.07 C140.23 74.38 140.23 75.7 140.22 77.05 C140.11 90.58 138.71 103.91 136.92 117.32 C136.81 118.22 136.7 119.12 136.58 120.05 C132.88 149.66 119.66 174.79 105.79 200.76 C105.32 201.65 105.32 201.65 104.83 202.56 C101.75 208.31 98.7 213.99 94.92 219.32 C95.92 219.39 95.92 219.39 96.95 219.46 C103.69 219.99 110.13 221.07 116.73 222.51 C154.59 230.34 193.11 234.91 231.57 238.45 C262.12 241.26 292.48 244.94 322.43 251.76 C324.87 252.31 327.32 252.83 329.77 253.34 C339.99 255.5 349.95 258.21 359.92 261.32 C360.83 261.6 361.73 261.87 362.66 262.16 C449.93 289.04 449.93 289.04 469.35 324.96 C478.49 343.43 477.93 364.82 471.7 384.09 C465.94 399.35 457.15 412.96 447.92 426.32 C447.23 427.33 447.23 427.33 446.52 428.37 C439.57 438.51 432.18 448.15 424.33 457.6 C422.46 459.88 420.62 462.19 418.79 464.51 C411.33 473.85 403.52 482.85 395.39 491.63 C393.42 493.77 391.5 495.93 389.61 498.13 C384.53 503.97 379.19 509.58 373.89 515.22 C371.87 517.37 369.86 519.52 367.84 521.68 C357.04 533.22 346.39 544.54 333.92 554.32 C332.96 555.1 332 555.87 331.01 556.68 C321.79 564.01 311.95 570.17 301.92 576.32 C300.88 576.96 299.84 577.61 298.76 578.27 C274.39 593.33 249.5 607.4 223.92 620.32 C222.88 620.84 221.85 621.36 220.78 621.9 C203.21 630.72 185.28 638.32 166.92 645.32 C165.71 645.78 164.51 646.24 163.27 646.72 C125 661.28 85.36 674.99 44.73 680.94 C43.95 681.06 43.16 681.18 42.35 681.31 C31.3 682.96 20.3 683.48 9.13 683.52 C7.84 683.53 6.54 683.53 5.21 683.54 C2.48 683.55 -0.26 683.55 -2.99 683.56 C-5.73 683.56 -8.47 683.58 -11.21 683.6 C-29.69 683.75 -47.76 682.84 -66.08 680.32 C-66.85 680.22 -67.62 680.11 -68.42 680.01 C-72.61 679.45 -76.78 678.82 -80.96 678.13 C-82.85 677.82 -82.85 677.82 -84.77 677.5 C-146.87 667.1 -207.64 648.3 -261.08 614.32 C-261.74 613.9 -262.4 613.48 -263.08 613.05 C-279.29 602.7 -294.8 591.21 -309.08 578.32 C-309.69 577.77 -310.3 577.23 -310.92 576.66 C-357.23 534.85 -386.6 480.58 -396.33 418.94 C-396.58 417.39 -396.58 417.39 -396.83 415.81 C-409.8 328.53 -379.66 225.97 -327.64 155.19 C-315.51 139.29 -302.06 124.57 -287.08 111.32 C-286.32 110.64 -286.32 110.64 -285.55 109.95 C-212.36 45.12 -118.02 1.25 0 0 Z M-176.36 70.8 C-179.16 72.36 -181.97 73.92 -184.78 75.47 C-204.3 86.29 -223.05 98.16 -241.08 111.32 C-241.77 111.82 -242.47 112.32 -243.18 112.84 C-250.96 118.5 -258.45 124.26 -265.46 130.87 C-267.57 132.84 -269.71 134.74 -271.9 136.63 C-282.52 145.89 -292.6 156.05 -301.08 167.32 C-301.56 167.94 -302.03 168.56 -302.52 169.2 C-353.09 235.53 -378.75 331.2 -368.52 413.57 C-362.85 454.71 -346.31 493.16 -320.08 525.32 C-319.43 526.12 -319.43 526.12 -318.77 526.94 C-307.04 541.37 -293.89 555.04 -279.08 566.32 C-277.83 567.3 -276.58 568.29 -275.34 569.28 C-258.92 582.21 -241.29 593.11 -223.08 603.32 C-222.46 603.67 -221.84 604.03 -221.2 604.39 C-175.77 630.22 -123.78 642.28 -72.64 650.69 C-71.91 650.81 -71.19 650.94 -70.44 651.06 C-50.31 654.39 -30.37 655.64 -9.97 655.52 C-6.56 655.51 -3.14 655.5 0.28 655.5 C42.05 655.44 80.49 645.25 119.92 632.32 C120.57 632.11 121.22 631.89 121.89 631.68 C164.9 617.63 206.18 599.35 245.39 576.76 C248.26 575.12 251.15 573.52 254.04 571.92 C279.17 557.99 304.25 542.94 325.51 523.5 C328.45 520.83 331.48 518.27 334.52 515.73 C336.15 514.41 336.15 514.41 335.92 512.32 C337.24 511.66 338.56 511 339.92 510.32 C339.92 509.66 339.92 509 339.92 508.32 C340.52 508.06 341.11 507.8 341.73 507.53 C344.1 506.22 345.28 504.97 346.98 502.88 C349.97 499.34 353.12 496.07 356.42 492.82 C360.12 489.16 363.67 485.43 367.05 481.47 C368.95 479.29 370.9 477.16 372.86 475.05 C377.63 469.91 382.17 464.67 386.56 459.21 C388.71 456.57 390.92 453.99 393.16 451.43 C400.48 443.02 407.24 434.24 413.92 425.32 C414.4 424.68 414.89 424.04 415.38 423.38 C442.18 388.4 442.18 388.4 448.92 346.32 C446.05 335.4 439.65 327.02 430.81 320.22 C428.98 319.15 428.98 319.15 427 319.47 C424.09 320.66 423.3 322.27 421.66 324.93 C421.04 325.92 420.43 326.91 419.79 327.92 C419.13 329 418.47 330.08 417.79 331.19 C416.36 333.48 414.93 335.76 413.5 338.04 C413.13 338.64 412.76 339.23 412.37 339.84 C402.61 355.41 392.63 371.13 380.92 385.32 C380.3 386.08 380.3 386.08 379.67 386.85 C367.32 401.96 353.86 416.83 339 429.52 C336.49 431.69 334.05 433.94 331.61 436.19 C326.21 441.11 320.64 445.78 314.92 450.32 C314.16 450.92 313.41 451.52 312.63 452.14 C307.3 456.27 302.94 459.18 295.92 458.32 C291.07 455.85 288.73 453.46 286.92 448.32 C286.19 442.48 287.46 439.95 290.92 435.32 C292.84 433.27 294.89 431.38 296.98 429.51 C297.55 428.99 298.12 428.47 298.71 427.93 C303.13 423.94 307.72 420.2 312.36 416.47 C315.63 413.72 318.6 410.74 321.56 407.65 C323.55 405.68 325.58 403.86 327.69 402.03 C331.91 398.37 335.91 394.52 339.86 390.57 C340.56 389.87 341.26 389.17 341.98 388.45 C346.51 383.86 350.74 379.21 354.7 374.12 C356.95 371.28 359.28 368.54 361.64 365.79 C366.77 359.69 371.2 353.24 375.54 346.57 C376.31 345.4 377.08 344.24 377.84 343.07 C379.02 341.28 380.2 339.49 381.38 337.69 C384.1 333.55 386.86 329.43 389.64 325.33 C390.39 324.22 391.14 323.12 391.89 322.01 C393.3 319.92 394.72 317.83 396.14 315.74 C397.09 314.34 397.09 314.34 398.05 312.91 C398.61 312.09 399.16 311.28 399.74 310.43 C401.16 308.29 401.16 308.29 400.92 305.32 C357.03 288.39 312.37 277.2 265.78 270.85 C263.33 270.51 260.88 270.17 258.42 269.81 C247.7 268.31 236.94 267.32 226.17 266.32 C204.11 264.24 182.13 261.83 160.2 258.65 C158.66 258.43 157.12 258.2 155.58 257.98 C60.04 244.29 60.04 244.29 48.86 231.26 C45.9 226.77 45.18 222.62 45.92 217.32 C47.93 213.57 49.37 211.68 52.92 209.32 C55.22 209.09 55.22 209.09 57.79 209.13 C58.64 209.14 59.48 209.14 60.35 209.15 C62.95 209.32 65.37 209.78 67.92 210.32 C76.37 195.76 84.51 181.05 92.4 166.18 C93.73 163.68 95.08 161.18 96.43 158.7 C97.1 157.45 97.76 156.19 98.42 154.94 C98.97 153.92 99.51 152.91 100.08 151.86 C101.17 149.39 101.17 149.39 100.26 147.2 C80.65 119.7 44.37 108.18 12.62 102.35 C-0.44 100.18 -13.75 99.63 -26.97 99.12 C-28.29 99.06 -29.6 99 -30.96 98.94 C-32.03 98.91 -33.1 98.89 -34.2 98.86 C-38.58 98.04 -41.87 96.06 -44.43 92.37 C-46.14 86.98 -45.84 81.84 -43.33 76.82 C-40.43 73.59 -38.55 72.47 -34.21 72.01 C-30.44 71.94 -26.67 71.88 -22.89 71.88 C-22.19 71.88 -21.49 71.88 -20.77 71.88 C22.88 71.95 70.89 84.01 105.21 111.97 C106.89 113.39 106.89 113.39 108.92 114.32 C109.24 112.21 109.55 110.11 109.86 108.01 C110.12 106.25 110.12 106.25 110.38 104.45 C111.67 94.96 112.2 85.46 112.36 75.88 C112.4 74.74 112.45 73.6 112.5 72.43 C112.64 61.62 109.05 53.57 101.92 45.51 C48.18 -3.77 -119.62 38.94 -176.36 70.8 Z " fill="#020201" transform="translate(485.08056640625,155.68234634399414)"/>
<path d="M0 0 C8.45 9.57 10.91 18.47 10.38 31.06 C10.35 32.3 10.32 33.53 10.29 34.8 C10.22 37.81 10.13 40.81 10 43.81 C9.67 43.81 9.34 43.81 9 43.81 C9 43.18 8.99 42.55 8.99 41.91 C8.67 34.78 6.79 31 2 25.81 C1.15 24.83 1.15 24.83 0.28 23.82 C-8.13 14.66 -19.41 8.93 -31 4.81 C-32.51 4.27 -32.51 4.27 -34.05 3.73 C-53.48 -2.47 -74.12 -2.71 -94.31 -2.56 C-96.08 -2.56 -96.08 -2.56 -97.88 -2.55 C-193.46 -2.11 -276.31 27.73 -357.38 105.06 C-358.5 106.18 -358.5 106.18 -359.65 107.32 C-364.3 111.99 -368.71 116.81 -373 121.81 C-373.95 122.9 -374.9 123.98 -375.85 125.06 C-420.74 176.52 -443.04 232.33 -450 299.81 C-450.13 300.95 -450.25 302.08 -450.38 303.25 C-450.81 309.51 -450.81 309.51 -448.46 315.14 C-446.4 317.16 -444.23 318.98 -442 320.81 C-440.89 322.02 -439.8 323.25 -438.75 324.5 C-435.68 328.07 -432.51 331.54 -429.31 335 C-428.8 335.55 -428.29 336.1 -427.77 336.67 C-425.11 339.54 -422.45 342.41 -419.77 345.26 C-416.81 348.41 -413.9 351.6 -411 354.81 C-410.3 355.56 -409.6 356.32 -408.88 357.09 C-406.77 359.55 -405.1 361.51 -404.85 364.83 C-405.52 370.98 -407.52 375.6 -410.51 380.98 C-411.42 382.69 -412.33 384.41 -413.25 386.12 C-414.69 388.79 -416.13 391.45 -417.59 394.12 C-418.99 396.71 -420.38 399.31 -421.76 401.91 C-422.2 402.7 -422.64 403.49 -423.09 404.3 C-425.68 409.21 -426.54 412.23 -425 417.81 C-423.46 420.77 -423.46 420.77 -421.44 423.62 C-418 428.83 -415.46 434.13 -413.06 439.88 C-408.14 451.44 -400.89 460.11 -392.34 469.29 C-390.33 471.46 -388.41 473.67 -386.5 475.94 C-382.38 480.66 -377.73 484.72 -373 488.81 C-372.04 489.66 -371.09 490.5 -370.1 491.37 C-321.09 534.18 -259.41 558.73 -196.12 570.88 C-195.24 571.05 -194.36 571.22 -193.46 571.39 C-166.45 576.61 -139.79 580.03 -112.25 580 C-111.3 580 -110.34 580 -109.36 580 C-42.75 579.86 23.39 557.75 83 528.81 C83.71 528.47 84.42 528.13 85.15 527.77 C89.04 525.89 92.89 523.96 96.72 521.98 C98.41 521.12 100.09 520.26 101.78 519.4 C133.16 503.47 163.59 484.99 191 462.81 C191.7 462.25 192.41 461.68 193.13 461.1 C202.13 453.88 210.84 446.42 219.22 438.49 C221.25 436.58 223.29 434.68 225.34 432.79 C226.85 431.38 228.36 429.97 229.88 428.56 C230.58 427.91 231.28 427.26 232 426.59 C236.07 422.78 239.82 418.83 243.45 414.6 C245.36 412.4 247.4 410.35 249.5 408.31 C252.89 404.96 256.09 401.52 259.2 397.9 C261.22 395.56 263.29 393.28 265.38 391 C269.63 386.27 273.71 381.44 277.68 376.46 C278.6 375.31 279.54 374.15 280.47 373 C288.3 363.36 295.51 353.36 302.44 343.06 C302.81 342.51 303.19 341.95 303.58 341.38 C314.84 325.53 314.84 325.53 318.56 307.1 C317.67 303.46 316.07 301.86 313 299.81 C311.34 299.43 309.68 299.09 308 298.81 C312.87 290.11 318.23 281.93 324 273.81 C330.92 275.07 336.41 280.53 340.31 286.12 C341.24 287.67 342.14 289.23 343 290.81 C343.62 291.92 343.62 291.92 344.25 293.05 C349.37 303.68 348.01 315.86 344.41 326.73 C339.82 339.35 332.72 350.9 325 361.81 C324.21 362.94 323.42 364.07 322.63 365.2 C314.24 377.13 305.29 388.57 296 399.81 C294.56 401.58 293.12 403.35 291.69 405.12 C282.94 415.8 273.88 426.15 264.47 436.23 C263.01 437.81 261.56 439.39 260.12 440.98 C255.17 446.42 250.16 451.75 244.88 456.88 C242.94 458.78 242.94 458.78 241.38 461.06 C240.69 461.93 240.69 461.93 240 462.81 C239.34 462.81 238.68 462.81 238 462.81 C237.34 464.13 236.68 465.45 236 466.81 C235.34 466.81 234.68 466.81 234 466.81 C234 467.47 234 468.13 234 468.81 C232.5 470.29 232.5 470.29 230.44 472 C227.71 474.27 225.17 476.63 222.7 479.17 C196.86 505.19 158.84 523.42 126.65 540.41 C124.11 541.76 121.57 543.11 119.04 544.48 C51.84 580.48 -28.16 610 -105.06 610 C-108.46 610 -111.87 610.02 -115.27 610.04 C-135.28 610.09 -154.83 608.48 -174.56 605.19 C-175.72 605 -175.72 605 -176.9 604.8 C-226.45 596.61 -274.3 583.89 -319.12 560.78 C-320.36 560.14 -321.6 559.51 -322.84 558.88 C-351.01 544.58 -377.24 525.71 -400 503.81 C-400.57 503.26 -401.14 502.72 -401.73 502.15 C-409.36 494.76 -416.48 487.22 -423 478.81 C-424.16 477.39 -424.16 477.39 -425.35 475.95 C-443.59 453.23 -455.68 426.56 -464 398.81 C-464.22 398.12 -464.43 397.43 -464.66 396.72 C-471.66 374.36 -472.38 350.24 -472.38 327 C-472.38 326.04 -472.38 325.07 -472.38 324.08 C-472.38 307.29 -471.34 290.67 -468 274.19 C-467.79 273.17 -467.59 272.14 -467.37 271.09 C-456.3 219.26 -436.03 161.93 -402 120.81 C-401.35 120.02 -401.35 120.02 -400.7 119.21 C-389.66 105.63 -377.35 92.57 -363.54 81.8 C-360.78 79.64 -358.15 77.36 -355.5 75.06 C-348.16 68.93 -340.24 63.66 -332.29 58.35 C-330.24 56.97 -328.19 55.58 -326.15 54.18 C-311.2 44 -295.56 34.9 -279.67 26.27 C-277.73 25.21 -275.78 24.15 -273.84 23.08 C-217.69 -7.68 -52.52 -48.16 0 0 Z " fill="#E7B967" transform="translate(587,201.1875)"/>
<path d="M0 0 C1.98 0.66 3.96 1.32 6 2 C5.36 5.43 4.03 7.78 2.11 10.68 C1.21 12.06 1.21 12.06 0.29 13.46 C-0.36 14.45 -1.02 15.43 -1.69 16.44 C-2.36 17.45 -3.03 18.47 -3.72 19.52 C-5.12 21.64 -6.52 23.75 -7.92 25.87 C-9.89 28.83 -11.84 31.8 -13.79 34.77 C-31.02 60.89 -50.96 85.93 -74.96 106.24 C-77.64 108.55 -80.22 110.97 -82.81 113.38 C-86.7 116.98 -90.66 120.39 -94.81 123.69 C-99.81 127.71 -105.08 132.17 -108 138 C-108.4 143.23 -107.93 146.61 -105 151 C-102.31 153.49 -100.46 154.97 -96.71 155.05 C-93.29 154.71 -90.27 154.09 -87 153 C-87.47 157.35 -90.07 159.33 -93.12 162.25 C-94.13 163.22 -95.14 164.2 -96.14 165.18 C-96.64 165.66 -97.13 166.14 -97.63 166.63 C-100 169 -102.14 171.56 -104.27 174.15 C-109.73 179.99 -114.41 182.1 -122 184.31 C-133.51 187.9 -144.11 192.61 -153 201 C-154.15 203.41 -154.15 203.41 -154.56 205.94 C-155.52 210.63 -157.34 213.92 -161 217 C-165.41 219.69 -170 221.97 -174.62 224.25 C-175.95 224.92 -177.27 225.59 -178.6 226.26 C-181.21 227.58 -183.83 228.9 -186.45 230.21 C-190.87 232.44 -195.25 234.74 -199.62 237.06 C-201.12 237.85 -202.62 238.64 -204.12 239.43 C-206.72 240.79 -209.31 242.16 -211.89 243.54 C-246.8 262.12 -282.51 278.34 -321 288 C-321.69 288.18 -322.39 288.35 -323.1 288.53 C-344.34 293.77 -366.75 294.52 -388.51 294.45 C-392.22 294.44 -395.94 294.47 -399.65 294.5 C-413.75 294.54 -426.77 294.25 -439.78 288.28 C-440.84 287.86 -441.9 287.44 -443 287 C-444.68 287.98 -446.34 288.98 -448 290 C-456.64 291.08 -464.96 288.99 -473.31 287 C-474.68 286.68 -476.05 286.36 -477.42 286.04 C-480.94 285.21 -484.46 284.36 -487.97 283.5 C-489.9 283.03 -491.82 282.56 -493.75 282.09 C-544.16 269.77 -593.18 251.8 -631 215 C-631.6 214.42 -632.2 213.84 -632.82 213.24 C-643.01 203.37 -652.1 193.11 -660.44 181.62 C-661.08 180.75 -661.08 180.75 -661.73 179.86 C-665.39 174.71 -667.79 170.42 -667 164 C-664.53 159.24 -661.78 156.44 -657 154 C-651.33 153.17 -647.52 154.68 -643 158 C-640.66 160.38 -638.65 162.97 -636.62 165.62 C-635.49 167.06 -634.36 168.49 -633.23 169.92 C-632.41 170.96 -632.41 170.96 -631.57 172.02 C-629.43 174.72 -627.25 177.34 -625 179.94 C-624.01 181.1 -624.01 181.1 -623 182.28 C-620.63 184.32 -619.05 184.49 -616 185 C-613.91 186.21 -613.91 186.21 -611.62 187.81 C-578 209.76 -536.31 223.66 -496.09 225.31 C-490.14 225.72 -486.87 227.26 -482.44 231.12 C-481.16 232.14 -479.88 233.15 -478.59 234.16 C-477.98 234.65 -477.37 235.14 -476.73 235.64 C-460.72 248.16 -439.61 254.13 -420 258 C-419.25 258.16 -418.51 258.32 -417.74 258.49 C-384.97 265.58 -345.3 263.05 -316 246 C-312.79 243.87 -309.88 241.56 -307 239 C-306.33 238.43 -305.65 237.86 -304.96 237.27 C-299.54 232.35 -296.3 226.75 -292.86 220.37 C-291.94 218.7 -291.94 218.7 -291 217 C-290.45 215.89 -289.9 214.78 -289.33 213.63 C-286.81 210.79 -286.42 210.58 -282.88 210.15 C-281.25 210.07 -279.63 210.03 -278 210 C-276.34 209.92 -274.68 209.84 -273.03 209.75 C-270.48 209.65 -267.93 209.56 -265.37 209.48 C-251.98 208.94 -243.5 203.57 -233.13 195.42 C-208.03 175.73 -183.84 166.78 -152 166 C-151.79 165.34 -151.59 164.68 -151.38 164 C-138.96 124.59 -116.53 103.61 -83 81 C-80.14 79.07 -77.29 77.13 -74.44 75.19 C-73.79 74.76 -73.15 74.32 -72.49 73.88 C-65.18 68.9 -59.55 63.96 -54.75 56.5 C-42.01 37.4 -27.2 19.94 -8.5 6.44 C-7.89 6 -7.28 5.55 -6.65 5.1 C-2.25 2 -2.25 2 0 2 C0 1.34 0 0.68 0 0 Z " fill="#E7B967" transform="translate(880,459)"/>
<path d="M0 0 C5.79 2.64 10.19 6.47 14.8 10.8 C27.31 22.51 40.93 31.37 56.31 38.77 C62.18 41.68 66.79 44.55 70.35 50.19 C73.63 60.02 70.45 69.86 66.07 78.82 C57.04 94.88 42.31 104.8 26.35 113.19 C25.6 113.59 24.85 114 24.07 114.41 C21.64 115.7 19.19 116.95 16.73 118.19 C15.98 118.59 15.22 118.99 14.45 119.4 C4.42 124.3 -5.66 122.46 -16.09 119.69 C-17.11 119.43 -18.14 119.16 -19.2 118.89 C-40.54 113.17 -66.35 104.88 -78.16 84.6 C-83.36 74.48 -84.86 62.76 -81.62 51.69 C-78.22 44.47 -73.3 38.76 -67.65 33.19 C-66.52 32.07 -66.52 32.07 -65.38 30.92 C-53.01 19.2 -37.9 11.28 -22.94 3.4 C-21.07 2.41 -19.21 1.4 -17.36 0.38 C-11.82 -2.04 -5.72 -1.75 0 0 Z " fill="#030201" transform="translate(534.6484375,526.80859375)"/>
<path d="M0 0 C13.73 10.45 25.4 26.92 28.01 44.29 C28.5 53.5 25.42 58.43 19.45 65.24 C17.18 67.66 14.86 70.01 12.5 72.34 C11.66 73.17 10.83 74 9.97 74.85 C-3.78 88.25 -19.45 99.54 -39.31 100.34 C-53.01 99.89 -64.77 94.43 -76.5 87.9 C-77.17 87.53 -77.83 87.17 -78.52 86.79 C-102.15 73.58 -102.15 73.58 -106.11 60.97 C-107.11 55.72 -107.3 50.72 -105.12 45.78 C-102.74 43.17 -100.42 41.23 -97.62 39.09 C-91.48 34.31 -88.1 29.08 -84.61 22.21 C-84.27 21.55 -83.93 20.89 -83.58 20.22 C-82.92 18.92 -82.28 17.62 -81.65 16.31 C-77.2 7.44 -70.84 4.29 -61.65 1.23 C-60.17 0.75 -58.69 0.27 -57.2 -0.2 C-54.93 -0.91 -52.68 -1.65 -50.42 -2.39 C-48.96 -2.86 -47.51 -3.34 -46.06 -3.8 C-45.39 -4.02 -44.72 -4.24 -44.03 -4.46 C-29.33 -9.09 -13.15 -8.62 0 0 Z " fill="#030201" transform="translate(393.5,421.09765625)"/>
<path d="M0 0 C4.39 2.4 8.13 5.19 11.83 8.55 C12.45 9.08 13.06 9.62 13.69 10.17 C23.19 18.95 31.49 32.99 32.33 46.11 C32.13 63.3 20.76 82.31 9.13 94.41 C-4.64 107.26 -21.9 110.93 -40.23 110.8 C-41.35 110.81 -42.47 110.82 -43.62 110.82 C-56.69 110.79 -68.64 108.08 -78.17 98.55 C-85.02 89.69 -85.99 80.49 -85.17 69.55 C-84.46 65.44 -83.41 61.53 -82.17 57.55 C-81.89 56.59 -81.61 55.63 -81.32 54.64 C-77.46 42.54 -69.18 36.78 -59.17 29.55 C-51.45 23.93 -46.17 16.18 -41.04 8.24 C-31.58 -6.23 -15.12 -6.75 0 0 Z " fill="#030101" transform="translate(387.16796875,278.44921875)"/>
<path d="M0 0 C3.32 2.1 6.23 4.46 8 8 C9.1 16.63 6.08 21.19 1 28 C-0.56 29.98 -2.12 31.96 -3.69 33.94 C-36.53 75.68 -48.25 128.71 -48.13 180.83 C-48.13 183.53 -48.13 186.24 -48.14 188.95 C-48.14 205.99 -47.44 222.88 -45.44 239.81 C-43.11 259.75 -43.11 259.75 -47 266 C-49.78 269.21 -51.73 270.74 -56.05 271.24 C-61.55 271.42 -64.75 270.84 -69 267 C-71.3 263 -72.48 259.54 -73.1 254.98 C-73.26 253.81 -73.42 252.64 -73.58 251.43 C-73.82 249.55 -73.82 249.55 -74.06 247.62 C-74.15 246.97 -74.23 246.32 -74.32 245.64 C-84.52 165.73 -76.52 83.12 -27 17 C-26.56 16.41 -26.12 15.81 -25.67 15.2 C-11.98 -3.29 -11.98 -3.29 0 0 Z " fill="#030202" transform="translate(260,313)"/>
<path d="M0 0 C11.76 6.69 19.25 15.08 24.47 27.59 C29.63 47.37 21.61 65.8 12.31 82.81 C11.76 83.83 11.21 84.85 10.64 85.9 C5.6 94.76 5.6 94.76 1.31 96.81 C-18.68 100.04 -46.71 90.11 -63.17 79.16 C-71.41 73.07 -79.42 65.36 -81.18 54.9 C-81.49 50.03 -81.65 46.31 -78.95 42.11 C-76.46 39.49 -73.86 37.12 -71.12 34.75 C-60.28 24.71 -51.66 13.9 -43.28 1.78 C-32.56 -13.6 -14.31 -7.21 0 0 Z " fill="#030201" transform="translate(386.6875,547.1875)"/>
<path d="M0 0 C3.95 1.97 6.32 4.96 8 9 C8.71 13.52 8.42 17.09 6.5 21.25 C0.85 27.47 -7.43 30.89 -14.81 34.69 C-16.88 35.76 -18.94 36.83 -21 37.89 C-22.02 38.42 -23.04 38.95 -24.09 39.49 C-27.41 41.21 -30.72 42.95 -34.02 44.7 C-36.32 45.91 -38.62 47.12 -40.91 48.32 C-43.59 49.73 -46.25 51.14 -48.92 52.55 C-83.81 71.13 -119.52 87.35 -158 97 C-158.69 97.18 -159.39 97.35 -160.1 97.53 C-164.37 98.59 -168.66 99.35 -173 100 C-173.83 100.13 -174.67 100.27 -175.53 100.41 C-190.56 102.73 -205.56 103.35 -220.75 103.47 C-222.78 103.49 -224.82 103.52 -226.86 103.55 C-229.74 103.59 -232.63 103.6 -235.52 103.59 C-236.39 103.61 -237.25 103.63 -238.15 103.64 C-242.39 103.6 -245.15 103.32 -248.51 100.61 C-252.21 96.74 -252.87 94.37 -253.38 89.06 C-253.26 84.77 -251.77 82.3 -249 79 C-244.54 75.08 -240.71 74.86 -234.89 74.75 C-233.43 74.72 -231.97 74.69 -230.51 74.66 C-229.74 74.64 -228.98 74.63 -228.19 74.61 C-151.19 73 -87.96 42.04 -21.52 5.46 C-20.01 4.64 -18.51 3.82 -17 3 C-15.92 2.4 -14.84 1.81 -13.73 1.2 C-9.18 -0.8 -4.86 -0.78 0 0 Z " fill="#030201" transform="translate(717,650)"/>
<path d="M0 0 C5.99 2.81 9.29 6.28 13.25 11.5 C14.39 12.95 15.53 14.4 16.68 15.84 C17.24 16.55 17.8 17.26 18.38 17.99 C22.33 22.89 26.65 27.45 31 32 C31.55 32.58 32.1 33.16 32.66 33.76 C58.09 60.58 89.02 76.81 124 88 C125.12 88.36 126.23 88.73 127.38 89.1 C149.29 96.21 171.48 102.46 194.14 106.67 C201.19 108.04 205.86 110.02 210 116 C211.56 119.13 211.28 121.53 211 125 C209.66 128.96 207.95 132.08 204.94 135 C195.78 138.12 185.75 135.16 176.69 133 C175.32 132.68 173.95 132.36 172.58 132.04 C169.06 131.21 165.54 130.36 162.03 129.5 C160.1 129.03 158.18 128.56 156.25 128.09 C105.84 115.77 56.82 97.8 19 61 C18.4 60.42 17.8 59.84 17.18 59.24 C6.99 49.37 -2.1 39.11 -10.44 27.62 C-10.86 27.04 -11.29 26.46 -11.73 25.86 C-15.39 20.71 -17.79 16.42 -17 10 C-13.27 2.82 -8.26 -1.16 0 0 Z " fill="#030201" transform="translate(230,613)"/>
<path d="M0 0 C6.78 4.72 11.21 11.78 15.98 18.4 C26.41 32.75 40.89 40.84 57.91 45.18 C63.66 46.7 68.34 48.69 71.75 53.81 C73.64 59.17 73.6 62.44 71.19 67.62 C61.01 82.38 45.21 94.01 28.88 101 C28.13 101.34 27.38 101.68 26.61 102.03 C15.73 106.16 0.81 105.6 -9.93 101.46 C-15.33 97.86 -18.28 92.37 -21.06 86.69 C-21.4 86 -21.74 85.32 -22.09 84.61 C-31.22 65.64 -36.46 43.46 -30.56 22.62 C-25.33 9.01 -16.15 -5.17 0 0 Z " fill="#030201" transform="translate(655.125,451)"/>
<path d="M0 0 C14.81 5.96 23.61 14.36 29.88 28.9 C35.96 45.19 30.55 64.01 23.77 79.07 C23.45 79.78 23.14 80.49 22.81 81.22 C20.5 86.07 18.28 89.12 13.64 91.94 C6.28 93.61 -1.01 90.46 -7.86 88 C-9.57 87.4 -9.57 87.4 -11.31 86.78 C-26.6 81.23 -43.26 74.71 -50.67 59.19 C-51.66 54.49 -52.34 49.68 -51.36 44.94 C-49.2 42.43 -49.2 42.43 -46.36 39.94 C-45.41 39.1 -44.46 38.26 -43.49 37.4 C-42.75 36.76 -42.75 36.76 -42 36.1 C-33.18 28.3 -27.42 19.68 -22.28 9.12 C-17.43 -0.51 -10.09 -3.18 0 0 Z " fill="#030201" transform="translate(479.35546875,386.05859375)"/>
<path d="M0 0 C2.34 1.67 4.18 3.37 6.12 5.5 C19.05 18.84 34.85 28 51.18 36.56 C47.71 49.02 36.27 56.13 25.61 62.18 C23.93 63.1 22.24 64.02 20.56 64.93 C19.76 65.38 18.96 65.82 18.14 66.27 C10.23 70.44 3.99 71.27 -4.82 69 C-5.55 68.81 -6.27 68.63 -7.03 68.44 C-22.3 64.47 -38.44 59.12 -47.82 45.56 C-49.32 41.05 -49.99 36.91 -47.83 32.57 C-46.29 30.41 -44.63 28.5 -42.82 26.56 C-41.88 25.55 -41.88 25.55 -40.93 24.51 C-33.18 16.89 -23.67 11.53 -14.35 6.05 C-12.66 5.06 -10.99 4.03 -9.34 2.99 C-3.55 -0.56 -3.55 -0.56 0 0 Z " fill="#CD2E3D" transform="translate(527.81640625,552.44140625)"/>
<path d="M0 0 C0.75 -0.02 1.49 -0.04 2.26 -0.05 C7.84 -0.05 11.08 1.21 15 5.12 C16.61 8.09 16.6 9.98 16.19 13.31 C14.46 17.12 13.03 18.78 9.19 20.31 C6.66 20.66 6.66 20.66 3.81 20.8 C2.75 20.87 1.7 20.93 0.61 21 C-0.52 21.06 -1.65 21.12 -2.81 21.19 C-31.35 23.13 -51.45 30.39 -73.74 48.51 C-82.09 55.25 -90.92 61.31 -99.81 67.31 C-100.58 67.84 -101.36 68.36 -102.15 68.9 C-104.3 70.35 -106.46 71.78 -108.62 73.19 C-109.25 73.61 -109.88 74.03 -110.53 74.47 C-114.77 77.16 -117.83 77.85 -122.81 77.31 C-125.92 75.76 -127.38 74.58 -128.52 71.25 C-129.29 66.98 -129.41 65.22 -126.93 61.45 C-123.19 57.29 -118.43 54.49 -113.75 51.5 C-111.84 50.26 -109.94 49.01 -108.04 47.76 C-107.13 47.17 -106.22 46.57 -105.28 45.95 C-98.8 41.64 -92.7 36.82 -86.62 31.97 C-60.4 11.14 -33.79 0.48 0 0 Z " fill="#E8BA67" transform="translate(403.8125,230.6875)"/>
<path d="M0 0 C7.09 4.99 13.18 13.93 14.7 22.48 C13.96 26.8 11.51 28.97 8.43 31.85 C7.84 32.41 7.26 32.97 6.65 33.55 C-2.53 42.22 -12.49 51.42 -25.63 52.1 C-35.58 51.7 -43.79 46.67 -52.32 41.97 C-53 41.6 -53.69 41.22 -54.39 40.83 C-58.04 38.76 -61 36.71 -63.82 33.54 C-62.37 32.27 -62.37 32.27 -60.88 30.97 C-54.68 24.81 -49.77 16.34 -46.49 8.26 C-44.27 4.64 -41.67 3.81 -37.82 2.54 C-36.42 2 -35.02 1.47 -33.62 0.93 C-21.96 -3.26 -11.49 -6.59 0 0 Z " fill="#CB2D3D" transform="translate(379.8203125,443.46484375)"/>
<path d="M0 0 C6.38 0 10.62 3.77 15 8 C24.51 19.75 24.51 19.75 24.12 26.25 C22.61 38.13 14.9 50.3 6 58 C-2.17 63.62 -11.49 64.36 -21.12 64.38 C-22.09 64.4 -23.05 64.42 -24.04 64.45 C-31.3 64.48 -34.5 63.15 -39.88 58.31 C-42.43 53.05 -41.39 47.35 -39.69 41.94 C-37.35 36.6 -33.71 34.15 -28.95 31 C-24.22 27.79 -20.15 23.91 -16 20 C-15.37 19.44 -14.75 18.88 -14.1 18.3 C-9.41 13.92 -6.06 8.86 -2.6 3.48 C-1 1 -1 1 0 0 Z " fill="#CB2D3D" transform="translate(369,300)"/>
<path d="M0 0 C40.08 -1.31 82.42 10.46 113 37 C113 37.33 113 37.66 113 38 C111.85 38.12 110.7 38.24 109.52 38.37 C108.77 38.45 108.03 38.53 107.26 38.61 C105.62 38.79 103.97 38.96 102.33 39.13 C97.47 39.65 92.83 40.47 88.06 41.56 C83.01 42.39 80.64 41.7 76.38 38.88 C75.47 38.22 74.57 37.56 73.64 36.88 C65.41 31.01 55.88 30.35 46.13 29.14 C29.32 26.98 15.7 20.44 4 8 C0 2.5 0 2.5 0 0 Z " fill="#E6B967" transform="translate(464,256)"/>
<path d="M0 0 C1.66 2.49 2.62 4.45 3.69 7.19 C6.84 14.35 11.92 19.13 17.81 24.12 C22.77 28.46 23.75 31.4 24.38 37.94 C23.9 51.23 17.91 63.12 12.65 75.07 C9.19 83.01 6.09 90.97 3.38 99.19 C3.06 100.15 2.74 101.11 2.41 102.1 C0.8 107.1 -0.53 112.05 -1.49 117.22 C-2 119 -2 119 -4 121 C-5.59 114.62 -6.25 108.45 -6.55 101.91 C-6.6 101.04 -6.64 100.17 -6.68 99.27 C-7.11 89.56 -7.2 79.85 -7.19 70.12 C-7.19 68.75 -7.19 68.75 -7.19 67.35 C-7.17 53.81 -6.89 40.43 -5 27 C-4.88 26.14 -4.76 25.29 -4.64 24.41 C-3.48 16.15 -2.11 8.07 0 0 Z " fill="#E5B967" transform="translate(218,427)"/>
<path d="M0 0 C7.58 0.49 13.96 3.5 19.81 8.31 C24.54 14.13 27.86 18.45 27.42 26.23 C25.93 36.05 22.08 44.55 17 53 C1.19 52.58 -15.65 45.84 -28 36 C-26.75 32.25 -25.08 31.42 -22 29 C-18.83 25.48 -15.93 21.73 -13 18 C-12.56 17.44 -12.12 16.88 -11.66 16.3 C-10.31 14.58 -8.97 12.85 -7.62 11.12 C-7.21 10.59 -6.79 10.06 -6.36 9.5 C-4.01 6.45 -1.91 3.35 0 0 Z " fill="#F0BA2B" transform="translate(360,565)"/>
<path d="M0 0 C3.27 2.03 4.59 3.38 5.54 7.12 C5.77 9.64 5.65 11.55 5 14 C0.6 19.28 -5.54 22.09 -11.52 25.31 C-15.27 27.36 -18.82 29.51 -22.28 32.02 C-22.98 32.53 -23.67 33.03 -24.39 33.55 C-25.72 34.53 -27.03 35.53 -28.33 36.55 C-32.59 39.69 -35.7 40.52 -41 40.36 C-43 40 -43 40 -46.06 38.06 C-48.31 34.52 -48.56 32.38 -48.57 28.28 C-47.06 22.23 -41.63 19.02 -36.75 15.75 C-35.71 15.04 -35.71 15.04 -34.65 14.32 C-11.05 -1.47 -11.05 -1.47 0 0 Z " fill="#FEFDFC" transform="translate(468,507)"/>
<path d="M0 0 C3.06 1.94 3.06 1.94 5 5 C5.91 9.94 5.81 13.7 3.12 18 C2.42 18.66 1.72 19.32 1 20 C0.34 20.66 -0.32 21.32 -1 22 C-0.36 22.78 0.28 23.57 0.94 24.38 C4.15 28.46 4.44 30.77 4 36 C2.37 39.08 0.97 41.26 -1.81 43.38 C-6.24 44.64 -9.69 44.62 -13.88 42.62 C-20.01 38.02 -28.08 30.29 -29.43 22.5 C-29.43 21.67 -29.44 20.85 -29.44 20 C-29.46 19.17 -29.48 18.35 -29.5 17.5 C-28.27 11.33 -22.74 8.1 -17.88 4.75 C-17.24 4.3 -16.61 3.86 -15.96 3.4 C-10.05 -0.74 -7.04 -1.71 0 0 Z " fill="#1D6623" transform="translate(464,651)"/>
<path d="M0 0 C1.44 0.44 2.88 0.89 4.31 1.35 C11.68 3.58 18.72 4.78 26.39 5.42 C29.91 6 31.91 6.85 34.75 8.98 C37.2 12.66 37.45 15.7 36.75 19.98 C34.95 22.79 33.73 24.49 30.75 25.98 C16.43 27.28 -5.41 25.08 -16.93 15.59 C-18.78 13.33 -19.25 10.99 -19.5 8.12 C-19.11 4.76 -17.55 2.81 -15.48 0.23 C-10.74 -2.43 -5.06 -1.39 0 0 Z " fill="#FDFAFB" transform="translate(519.25390625,575.0234375)"/>
<path d="M0 0 C4.72 2.64 7.59 5.64 10.75 10 C11.89 11.55 11.89 11.55 13.05 13.12 C16.36 18 17.72 20.97 17 27 C13.11 34.79 4.53 41.04 -3.64 43.93 C-7.73 44.61 -9.65 44.17 -13.44 42.31 C-16.84 39.24 -17.79 37.63 -18.38 33.12 C-17.79 28.25 -15.47 25.23 -11.75 22.12 C-11.17 21.75 -10.59 21.38 -10 21 C-10.99 19.48 -10.99 19.48 -12 17.94 C-14.14 14.13 -14.72 11.41 -14 7 C-10.33 0.97 -6.97 -0.58 0 0 Z " fill="#3D421E" transform="translate(262,562)"/>
<path d="M0 0 C3.27 2.66 6.36 5.18 9.06 8.44 C13.08 13.16 17.31 17.66 21.56 22.16 C22.1 22.75 22.65 23.33 23.21 23.93 C23.7 24.45 24.19 24.97 24.69 25.5 C26 27 26 27 28 30 C27.69 34.6 26.2 38.02 24.06 42.05 C23.48 43.16 22.89 44.27 22.29 45.41 C21.68 46.56 21.07 47.7 20.44 48.88 C19.82 50.04 19.21 51.21 18.57 52.41 C17.06 55.27 15.53 58.14 14 61 C13.34 61 12.68 61 12 61 C10.73 59.35 10.73 59.35 9.32 57.05 C8.54 55.81 8.54 55.81 7.75 54.54 C7.22 53.66 6.68 52.78 6.12 51.88 C5.07 50.16 4.01 48.45 2.95 46.74 C2.44 45.92 1.94 45.09 1.42 44.24 C-0.08 41.8 -0.08 41.8 -2.39 38.9 C-4.51 35.09 -4.33 31.95 -3.94 27.75 C-3.88 26.98 -3.82 26.21 -3.76 25.41 C-3.05 16.86 -1.58 8.43 0 0 Z " fill="#FDE8B2" transform="translate(133,537)"/>
<path d="M0 0 C2.98 1.77 5.43 3.86 7 7 C7.07 9.72 7.09 12.41 7.06 15.12 C7.06 15.88 7.05 16.63 7.05 17.41 C7.04 19.27 7.02 21.14 7 23 C8.17 23.16 8.17 23.16 9.36 23.33 C12 24 12 24 14.31 26.69 C16.16 30.32 16.67 32 16 36 C14.04 40.17 12.23 42.19 8 43.81 C2.92 45.45 -1.62 46.56 -7 46 C-10.48 43.99 -12.71 41.88 -14 38 C-14.27 33.62 -14.31 29.24 -14.35 24.86 C-14.37 23.42 -14.39 21.97 -14.43 20.53 C-14.49 18.44 -14.51 16.35 -14.52 14.26 C-14.54 13.01 -14.56 11.77 -14.58 10.48 C-13.81 5.87 -12.26 4.28 -9 1 C-5.85 -0.57 -3.48 -0.35 0 0 Z " fill="#3E4320" transform="translate(661,587)"/>
<path d="M0 0 C3.26 3.06 6.02 6.27 8.75 9.81 C18.56 22.1 31.28 29.8 46 35 C39.46 42.41 29.87 48.2 19.98 49.35 C13.91 49.63 13.91 49.63 11 49 C7.03 45.27 5.28 40.47 3.31 35.5 C3.01 34.75 2.7 34.01 2.38 33.24 C-0.58 25.91 -1.16 19.68 -1.12 11.81 C-1.13 10.9 -1.13 9.98 -1.14 9.04 C-1.13 7.73 -1.13 7.73 -1.13 6.39 C-1.13 5.6 -1.13 4.8 -1.13 3.98 C-1 2 -1 2 0 0 Z " fill="#F0BB2B" transform="translate(647,481)"/>
<path d="M0 0 C3.62 1.66 6.89 3.44 9.23 6.73 C11.51 13.46 9.26 18.63 6.31 24.62 C5.97 25.36 5.63 26.1 5.28 26.86 C2.77 32.11 -0.04 36.09 -5.04 39.31 C-8.77 40.62 -12.27 40.12 -16 39 C-19.55 36.54 -21.64 34.09 -23 30 C-23.76 23.33 -21.46 19.01 -18.38 13.31 C-17.73 12.05 -17.73 12.05 -17.08 10.76 C-13.18 3.42 -9.03 -1.4 0 0 Z " fill="#050403" transform="translate(514,304)"/>
<path d="M0 0 C4.01 2.35 5.76 4.55 7 9 C8.15 15.34 8.25 21.63 8.31 28.06 C8.34 29.13 8.37 30.19 8.4 31.28 C8.45 37.51 8.27 41.32 4 46 C0.23 48.51 -1.53 48.53 -6 48 C-8.97 46.22 -11.43 44.15 -13 41 C-13.44 35.92 -13.64 30.84 -13.83 25.74 C-13.9 24.04 -13.98 22.35 -14.08 20.65 C-14.22 18.2 -14.31 15.75 -14.4 13.29 C-14.45 12.54 -14.5 11.78 -14.55 11 C-14.62 8.08 -14.59 5.74 -12.71 3.4 C-8.16 -0.51 -5.72 -0.82 0 0 Z " fill="#FDFDFB" transform="translate(568,441)"/>
<path d="M0 0 C4.24 0.49 5.98 1.54 8.69 4.81 C9.27 5.5 9.85 6.19 10.45 6.89 C15.08 13.18 14.67 19.38 14 27 C12.81 31.86 11.24 36.52 9 41 C2.58 39.84 -2.96 37.93 -8.81 35.06 C-9.55 34.72 -10.29 34.37 -11.04 34.01 C-18.2 30.58 -18.2 30.58 -21 28 C-21 27.34 -21 26.68 -21 26 C-19.9 24.99 -18.74 24.05 -17.56 23.12 C-10.15 16.83 -4.49 8.58 0 0 Z " fill="#A23937" transform="translate(474,412)"/>
<path d="M0 0 C3.49 2.92 4.84 4.67 5.38 9.21 C4.9 13.95 3.29 16.97 0.88 21 C0.26 22.05 0.26 22.05 -0.36 23.13 C-7.16 34.58 -7.16 34.58 -12 37 C-16.18 37.39 -18.31 37.45 -21.88 35.12 C-24.43 32.57 -24.91 31.62 -25.42 28.05 C-25.33 22.44 -22.04 17.93 -19.25 13.25 C-18.44 11.83 -18.44 11.83 -17.62 10.39 C-13.17 2.77 -9.46 -2.05 0 0 Z " fill="#FDFAFB" transform="translate(375,311)"/>
<path d="M0 0 C3.06 1.94 3.06 1.94 5 5 C5.38 8.29 5.33 10.74 5 14 C4.95 14.66 4.9 15.31 4.85 15.99 C4.67 18.25 4.47 20.5 4.25 22.75 C4.19 23.48 4.13 24.22 4.06 24.97 C3.53 29.79 2.43 32.57 -1 36 C-4.2 37.6 -7.53 37.5 -11 37 C-13.81 35.21 -15.51 33.98 -17 31 C-17.65 24.46 -16.89 18.01 -15.81 11.56 C-15.71 10.88 -15.61 10.19 -15.51 9.48 C-14.87 6 -14.14 4.14 -11.67 1.56 C-7.68 -0.77 -4.49 -0.91 0 0 Z " fill="#FEFDFB" transform="translate(266,417)"/>
<path d="M0 0 C3.36 2.61 4.05 4.46 4.69 8.62 C4.02 13.39 1.12 16.27 -2.55 19.17 C-4.54 20.56 -6.56 21.85 -8.62 23.12 C-9.31 23.57 -9.99 24.02 -10.69 24.49 C-15.17 27.3 -18.32 28.44 -23.75 27.75 C-27.13 25.85 -29.21 24.46 -30.4 20.66 C-30.75 17.1 -30.51 14.74 -28.3 11.86 C-26.21 9.98 -24.05 8.36 -21.75 6.75 C-20.87 6.11 -20 5.46 -19.1 4.8 C-12.96 0.36 -7.64 -3.47 0 0 Z " fill="#FDF9FA" transform="translate(371.75,448.25)"/>
<path d="M0 0 C3.02 1.74 5.42 3.83 7 7 C7.2 9.77 7.32 12.48 7.38 15.25 C7.41 16 7.45 16.75 7.49 17.53 C7.55 21.66 7.26 24.22 4.6 27.48 C0.8 31.17 -1.6 31.39 -6.74 31.36 C-10.33 30.79 -11.87 28.8 -14 26 C-15.55 22.9 -15.27 19.65 -15.31 16.25 C-15.34 15.55 -15.37 14.84 -15.4 14.12 C-15.46 8.96 -14.4 6.09 -11 2 C-7.31 -0.46 -4.28 -0.82 0 0 Z " fill="#1F6924" transform="translate(760,512)"/>
<path d="M0 0 C1.16 0.14 1.16 0.14 2.34 0.29 C6.24 0.95 8.75 1.83 12.06 4.06 C14.37 7.56 14.72 9.72 14.5 13.84 C13.7 17.29 11.74 18.91 9 21 C4.66 23.17 -1.64 21.65 -6.18 20.4 C-9.82 18.98 -12.39 17.6 -14 14 C-14.58 10.86 -14.67 8.13 -14 5 C-9.91 -0.01 -6.39 -0.86 0 0 Z " fill="#FEFDFA" transform="translate(787,474)"/>
<path d="M0 0 C0.33 0.99 0.66 1.98 1 3 C-5.6 9.6 -12.2 16.2 -19 23 C-20 20 -20 20 -19.56 17.69 C-17.58 14.28 -15.13 12.68 -11.88 10.53 C-9.82 8.85 -9 7.43 -8 5 C-6.68 5.33 -5.36 5.66 -4 6 C-4.33 4.68 -4.66 3.36 -5 2 C-4.01 1.67 -3.02 1.34 -2 1 C-1.34 1.33 -0.68 1.66 0 2 C0 1.34 0 0.68 0 0 Z " fill="#171816" transform="translate(849,678)"/>
<path d="M0 0 C1.23 0.01 1.23 0.01 2.48 0.03 C3.42 0.04 3.42 0.04 4.38 0.06 C2.38 1.06 0.38 2.06 -1.62 3.06 C-2.29 2.73 -2.94 2.4 -3.62 2.06 C-3.87 2.7 -4.12 3.34 -4.38 4 C-5.62 6.06 -5.62 6.06 -7.69 6.62 C-8.65 6.84 -8.65 6.84 -9.62 7.06 C-9.95 8.05 -10.29 9.04 -10.62 10.06 C-11.62 10.06 -12.61 10.06 -13.62 10.06 C-12.27 5.64 -10.39 3.7 -6.62 1.06 C-4.22 -0.14 -2.68 -0.04 0 0 Z " fill="#0E0C08" transform="translate(471.625,384.9375)"/>
<path d="M0 0 C0.33 0.99 0.66 1.98 1 3 C-1.38 5.33 -3.78 7.63 -6.19 9.94 C-6.86 10.6 -7.53 11.26 -8.23 11.94 C-9.22 12.88 -9.22 12.88 -10.23 13.84 C-10.83 14.42 -11.43 15 -12.06 15.6 C-14.35 17.25 -16.22 17.63 -19 18 C-17.85 16.85 -16.7 15.7 -15.55 14.55 C-14.48 13.48 -13.42 12.4 -12.36 11.32 C-8.41 7.31 -4.31 3.61 0 0 Z " fill="#121212" transform="translate(206,260)"/>
<path d="M0 0 C0.66 0 1.32 0 2 0 C2.04 0.83 2.07 1.66 2.11 2.52 C2.18 3.61 2.24 4.69 2.31 5.81 C2.37 6.89 2.43 7.97 2.49 9.08 C3.03 12.17 3.55 13.13 6 15 C5.01 15.99 4.02 16.98 3 18 C2.01 17.34 1.02 16.68 0 16 C-0.22 13.21 -0.28 10.65 -0.19 7.88 C-0.17 7.12 -0.16 6.37 -0.15 5.59 C-0.11 3.73 -0.06 1.86 0 0 Z " fill="#407B38" transform="translate(745,520)"/>
<path d="M0 0 C2.69 -0.03 5.37 -0.05 8.06 -0.06 C8.81 -0.07 9.57 -0.08 10.34 -0.09 C15.01 -0.11 19.4 0.22 24 1 C24 1.66 24 2.32 24 3 C7.11 2.04 7.11 2.04 0 1 C0 0.67 0 0.34 0 0 Z " fill="#C0A064" transform="translate(422,807)"/>
<path d="M0 0 C-0.99 0.33 -1.98 0.66 -3 1 C-3 1.66 -3 2.32 -3 3 C-9.4 3.82 -15.61 4.13 -22.06 4.06 C-22.93 4.06 -23.79 4.05 -24.69 4.05 C-26.79 4.04 -28.9 4.02 -31 4 C-31 3.67 -31 3.34 -31 3 C-29.83 2.96 -28.66 2.93 -27.45 2.89 C-19.3 2.57 -11.77 2.15 -3.97 -0.48 C-2 -1 -2 -1 0 0 Z " fill="#360408" transform="translate(372,361)"/>
<path d="M0 0 C0.33 0 0.66 0 1 0 C1.03 0.56 1.05 1.13 1.08 1.71 C1.19 4.31 1.32 6.9 1.44 9.5 C1.48 10.39 1.52 11.27 1.56 12.19 C1.81 17.51 2.27 22.73 3 28 C2.34 28 1.68 28 1 28 C-1.23 21.86 -1.07 16.53 -0.62 10.06 C-0.57 9.09 -0.51 8.12 -0.45 7.12 C-0.31 4.75 -0.16 2.37 0 0 Z " fill="#BFB58C" transform="translate(622,486)"/>
<path d="M0 0 C0.66 0.33 1.32 0.66 2 1 C0 4 0 4 -1.99 4.41 C-3.14 4.45 -3.14 4.45 -4.31 4.5 C-8.26 4.8 -10.75 5.59 -14 8 C-14.33 7.01 -14.66 6.02 -15 5 C-14.01 4.34 -13.02 3.68 -12 3 C-11.67 2.34 -11.34 1.68 -11 1 C-9.01 1.33 -7.03 1.65 -5.04 1.98 C-2.68 2.2 -2.68 2.2 0 0 Z " fill="#E7D7A5" transform="translate(547,360)"/>
<path d="M0 0 C0.66 0.33 1.32 0.66 2 1 C0.9 2.8 -0.2 4.59 -1.31 6.38 C-2.23 7.87 -2.23 7.87 -3.18 9.4 C-5 12 -5 12 -8 14 C-8.33 13.01 -8.66 12.02 -9 11 C-5.84 6.42 -5.84 6.42 -3 5 C-2.67 4.01 -2.34 3.02 -2 2 C-1.34 2 -0.68 2 0 2 C0 1.34 0 0.68 0 0 Z " fill="#17160F" transform="translate(599,604)"/>
<path d="M0 0 C5.03 0.53 10.02 1.11 15 2 C15 1.34 15 0.68 15 0 C16.32 0.33 17.64 0.66 19 1 C18.01 2.49 18.01 2.49 17 4 C11.09 3.55 5.65 2.84 0 1 C0 0.67 0 0.34 0 0 Z " fill="#D8AA38" transform="translate(360,614)"/>
<path d="M0 0 C0.33 0 0.66 0 1 0 C0.67 4.29 0.34 8.58 0 13 C-0.66 13 -1.32 13 -2 13 C-2 14.98 -2 16.96 -2 19 C-2.66 19 -3.32 19 -4 19 C-3.38 12.42 -1.85 6.33 0 0 Z " fill="#C6A462" transform="translate(125,451)"/>
<path d="M0 0 C1.33 0.67 2.67 1.33 4 2 C4.72 2.23 5.44 2.45 6.19 2.69 C8 4 8 4 8.75 7.62 C8.87 9.3 8.87 9.3 9 11 C7.33 9.33 5.67 7.67 4 6 C3.24 5.28 2.47 4.56 1.69 3.81 C0 2 0 2 0 0 Z " fill="#E5D7A4" transform="translate(399,425)"/>
<path d="M0 0 C0.33 1.32 0.66 2.64 1 4 C-1.64 6.31 -4.28 8.62 -7 11 C-7.66 10.67 -8.32 10.34 -9 10 C-6.03 6.7 -3.06 3.4 0 0 Z " fill="#E9EAE9" transform="translate(869,659)"/>
<path d="M0 0 C0.8 0.11 1.6 0.22 2.42 0.34 C3.33 0.48 3.33 0.48 4.25 0.62 C3.92 1.28 3.59 1.95 3.25 2.62 C0.75 3.04 0.75 3.04 -2.31 3.25 C-3.32 3.32 -4.34 3.4 -5.38 3.48 C-6.16 3.53 -6.94 3.57 -7.75 3.62 C-8.08 2.97 -8.41 2.3 -8.75 1.62 C-5.58 -0.28 -3.64 -0.54 0 0 Z " fill="#3A7130" transform="translate(459.75,650.375)"/>
<path d="M0 0 C0.99 0.33 1.98 0.66 3 1 C-0.49 4.6 -4.11 7.83 -8 11 C-8.66 10.67 -9.32 10.34 -10 10 C-6.7 6.7 -3.4 3.4 0 0 Z " fill="#1F1609" transform="translate(839,650)"/>
<path d="M0 0 C1.32 0.33 2.64 0.66 4 1 C3.67 1.99 3.34 2.98 3 4 C2.34 4 1.68 4 1 4 C1.66 8.62 2.32 13.24 3 18 C0 15 0 15 -0.29 11.43 C-0.27 10.05 -0.24 8.68 -0.19 7.31 C-0.17 6.61 -0.16 5.91 -0.15 5.19 C-0.11 3.46 -0.06 1.73 0 0 Z " fill="#E1D1A1" transform="translate(421,459)"/>
<path d="M0 0 C9.73 -0.92 9.73 -0.92 12.84 1.34 C14.19 3 14.19 3 16 6 C13.03 5.5 13.03 5.5 10 5 C10 4.01 10 3.02 10 2 C6.7 1.67 3.4 1.34 0 1 C0 0.67 0 0.34 0 0 Z " fill="#EFD89E" transform="translate(567,294)"/>
<path d="M0 0 C0.33 0.66 0.66 1.32 1 2 C0.07 4.03 -0.93 6.04 -2 8 C-2.66 8 -3.32 8 -4 8 C-4 10.97 -4 13.94 -4 17 C-4.33 17 -4.66 17 -5 17 C-5.48 10.3 -5.41 6.22 -1 1 C-0.67 0.67 -0.34 0.34 0 0 Z " fill="#1F1910" transform="translate(292,463)"/>
<path d="M0 0 C0.33 0.66 0.66 1.32 1 2 C-3.11 8.7 -3.11 8.7 -6.81 9.94 C-7.9 9.97 -7.9 9.97 -9 10 C-8.06 8.89 -7.13 7.79 -6.19 6.69 C-5.67 6.07 -5.14 5.46 -4.61 4.82 C-3.13 3.15 -1.6 1.56 0 0 Z " fill="#252424" transform="translate(186,278)"/>
<path d="M0 0 C1.23 0.01 1.23 0.01 2.48 0.03 C3.42 0.04 3.42 0.04 4.38 0.06 C0.47 2.05 -3.46 3.68 -7.62 5.06 C-7.25 3.12 -7.25 3.12 -6.62 1.06 C-4.22 -0.14 -2.68 -0.04 0 0 Z " fill="#221D15" transform="translate(471.625,384.9375)"/>
<path d="M0 0 C0.33 0 0.66 0 1 0 C1.05 0.61 1.1 1.23 1.15 1.86 C1.22 2.67 1.3 3.48 1.38 4.31 C1.44 5.11 1.51 5.91 1.59 6.74 C1.9 9.27 1.9 9.27 4 12 C3.67 12.99 3.34 13.98 3 15 C2.01 14.67 1.02 14.34 0 14 C0 9.38 0 4.76 0 0 Z " fill="#DBCC96" transform="translate(668,596)"/>
<path d="M0 0 C0.66 0 1.32 0 2 0 C0.62 3.21 -0.92 5.05 -3.62 7.25 C-4.57 8.03 -4.57 8.03 -5.54 8.83 C-6.02 9.21 -6.5 9.6 -7 10 C-6.67 8.68 -6.34 7.36 -6 6 C-5.34 6 -4.68 6 -4 6 C-3.34 4.68 -2.68 3.36 -2 2 C-1.34 2 -0.68 2 0 2 C0 1.34 0 0.68 0 0 Z " fill="#202114" transform="translate(849,558)"/>
<path d="M0 0 C2.46 3.69 3.01 6.7 4 11 C3.01 11 2.02 11 1 11 C0.64 9.36 0.29 7.71 -0.06 6.06 C-0.26 5.15 -0.46 4.23 -0.66 3.29 C-0.77 2.53 -0.88 1.78 -1 1 C-0.67 0.67 -0.34 0.34 0 0 Z " fill="#E7D9A6" transform="translate(625,515)"/>
<path d="M0 0 C1.75 0.12 1.75 0.12 4 1 C6.25 4.06 6.25 4.06 8 7 C7.01 7 6.02 7 5 7 C0 1.53 0 1.53 0 0 Z " fill="#E0D3A0" transform="translate(673,472)"/>
<path d="M0 0 C1.15 0.95 2.29 1.91 3.44 2.88 C4.08 3.41 4.71 3.94 5.37 4.49 C7 6 7 6 8 8 C5.69 7.81 5.69 7.81 3 7 C0 2.97 0 2.97 0 0 Z " fill="#E1D3A6" transform="translate(243,668)"/>
<path d="M0 0 C0.33 0.66 0.66 1.32 1 2 C1.66 2 2.32 2 3 2 C2.67 3.65 2.34 5.3 2 7 C0.68 7.33 -0.64 7.66 -2 8 C-1.34 5.36 -0.68 2.72 0 0 Z " fill="#E0D1A0" transform="translate(224,405)"/>
<path d="M0 0 C0.66 0.99 1.32 1.98 2 3 C1.07 6.11 -0.19 8.29 -2 11 C-2.66 11 -3.32 11 -4 11 C-3.52 9.54 -3.04 8.08 -2.56 6.62 C-2.3 5.81 -2.03 5 -1.75 4.16 C-1 2 -1 2 0 0 Z " fill="#CCA860" transform="translate(155,370)"/>
<path d="M0 0 C7.57 4.14 7.57 4.14 10 7 C6.68 7 4.91 6.57 2 5 C0.69 2.38 0.69 2.38 0 0 Z " fill="#18140C" transform="translate(579,259)"/>
<path d="M0 0 C0 3.24 -0.63 5.1 -2 8 C-2.99 8.5 -2.99 8.5 -4 9 C-4.81 7.31 -4.81 7.31 -5 5 C-2.56 2.25 -2.56 2.25 0 0 Z " fill="#DFE0DE" transform="translate(855,674)"/>
<path d="M0 0 C3.63 1.65 7.26 3.3 11 5 C10.34 5.66 9.68 6.32 9 7 C6.52 6.01 6.52 6.01 4 5 C4 4.34 4 3.68 4 3 C2.68 2.67 1.36 2.34 0 2 C0 1.34 0 0.68 0 0 Z " fill="#E4D7AA" transform="translate(327,628)"/>
<path d="M0 0 C0.81 1.62 0.81 1.62 1 4 C-1.31 7.25 -1.31 7.25 -4 10 C-4.66 10 -5.32 10 -6 10 C-4.35 6.42 -2.22 3.25 0 0 Z " fill="#E7E9E7" transform="translate(924,593)"/>
<path d="M0 0 C2.97 0.33 5.94 0.66 9 1 C7 3 7 3 3.38 3.12 C2.26 3.08 1.15 3.04 0 3 C0 2.01 0 1.02 0 0 Z " fill="#E6D7A6" transform="translate(772,430)"/>
<path d="M0 0 C1.65 0 3.3 0 5 0 C5.33 0.66 5.66 1.32 6 2 C8.53 2.66 8.53 2.66 11 3 C11 3.33 11 3.66 11 4 C4.6 4.49 4.6 4.49 1.56 2 C1.05 1.34 0.53 0.68 0 0 Z " fill="#FADFE1" transform="translate(352,344)"/>
<path d="M0 0 C4.28 1.89 6.15 4.36 9 8 C8.01 8 7.02 8 6 8 C4.39 6.25 4.39 6.25 2.81 4 C2.28 3.26 1.75 2.51 1.21 1.75 C0.81 1.17 0.41 0.6 0 0 Z " fill="#171716" transform="translate(152,709)"/>
<path d="M0 0 C0.66 1.32 1.32 2.64 2 4 C0.68 5.32 -0.64 6.64 -2 8 C-2.66 7.67 -3.32 7.34 -4 7 C-2.68 4.69 -1.36 2.38 0 0 Z " fill="#E9E9E8" transform="translate(588,360)"/>
<path d="M0 0 C0.33 0 0.66 0 1 0 C1.33 3.3 1.66 6.6 2 10 C1.01 10.5 1.01 10.5 0 11 C-0.66 10.34 -1.32 9.68 -2 9 C-1.67 8.67 -1.34 8.34 -1 8 C-0.77 6.65 -0.59 5.3 -0.44 3.94 C-0.29 2.64 -0.15 1.34 0 0 Z " fill="#D8D69F" transform="translate(469,658)"/>
<path d="M0 0 C-0.66 0.66 -1.32 1.32 -2 2 C-4.73 1.97 -7.3 1.44 -10 1 C-6.15 -1.57 -4.41 -0.83 0 0 Z " fill="#DCCEA0" transform="translate(384,414)"/>
<path d="M0 0 C0.99 0 1.98 0 3 0 C2.34 1.65 1.68 3.3 1 5 C0.34 5 -0.32 5 -1 5 C-1 5.66 -1 6.32 -1 7 C-1.66 6.67 -2.32 6.34 -3 6 C-2.01 4.02 -1.02 2.04 0 0 Z " fill="#1A1711" transform="translate(456,397)"/>
<path d="M0 0 C0.93 3.01 1.04 3.87 0 7 C0 6.34 0 5.68 0 5 C-1.65 5.33 -3.3 5.66 -5 6 C-3.35 4.02 -1.7 2.04 0 0 Z " fill="#A62634" transform="translate(356,317)"/>
<path d="M0 0 C0.66 0 1.32 0 2 0 C3.39 1.96 4.73 3.96 6 6 C4.35 5.67 2.7 5.34 1 5 C0.67 3.35 0.34 1.7 0 0 Z " fill="#EDEDEC" transform="translate(138,694)"/>
<path d="M0 0 C1.98 0 3.96 0 6 0 C6.33 0.99 6.66 1.98 7 3 C4.36 2.67 1.72 2.34 -1 2 C-0.67 1.34 -0.34 0.68 0 0 Z " fill="#1A1911" transform="translate(561,397)"/>
</svg>
